<svg width="68" height="68" viewBox="0 0 68 68" fill="none" xmlns="http://www.w3.org/2000/svg">
<path d="M61.9555 7.22363H5.1427V12.2427H61.9555V7.22363Z" fill="#E1F4FB"/>
<path d="M13.4066 32.7284L23.7578 38.5824L51.6803 35.385L47.7619 26.827L42.6764 24.8915L27.2777 24.3887L17.9987 25.698L14.3933 29.7113L13.4066 32.7284Z" fill="#2854A3"/>
<path d="M13.8905 32.5479H50.1338L52.7239 36.9881L55.1338 40.5745L55.1813 45.9256L55.1338 50.8403L8.75757 50.5841L9.01374 41.9123L10.8259 36.7794L13.8905 32.5479Z" fill="#2854A3"/>
<path d="M48.8814 57.9654C48.7675 57.9654 48.6442 57.9559 48.5304 57.9559C37.4771 57.9559 26.4144 57.9559 15.3611 57.9559C15.2378 57.9559 15.1049 57.9654 14.9816 57.9749C13.9 57.9749 12.8089 58.0223 11.7652 57.6808C11.3003 57.529 10.8544 57.3582 10.4274 57.102C9.73484 56.694 9.16558 56.1437 8.69119 55.4891C8.58682 55.1285 8.35911 54.8154 8.23577 54.4549C7.98909 53.7718 7.86575 53.0697 7.86575 52.3486C7.86575 49.2746 7.85626 46.2005 7.86575 43.1265C7.87524 41.191 8.49194 39.4452 9.59253 37.8608C9.8487 37.4908 10.0954 37.1113 10.3326 36.7412C10.4559 36.5515 10.4369 36.523 10.2187 36.4756C9.41226 36.2858 8.6058 36.1245 7.80882 35.9063C7.10673 35.7071 6.67029 35.2137 6.54695 34.4926C6.42361 33.8 6.4331 33.1169 6.87902 32.5192C7.20161 32.0922 7.63804 31.855 8.17885 31.7791C8.8335 31.6843 9.47867 31.5419 10.1428 31.4376C10.5508 31.3712 10.9493 31.2478 11.3857 31.3427C11.9929 31.485 12.4009 31.8455 12.6666 32.4053C12.695 32.4622 12.6855 32.5666 12.7804 32.5666C12.8753 32.5666 12.8658 32.4717 12.8943 32.4053C13.5205 30.9347 14.1277 29.4546 14.7823 28.003C15.456 26.5039 16.585 25.4508 18.0936 24.7771C18.9095 24.4166 19.7729 24.3122 20.6363 24.1889C21.8602 24.0181 23.0841 23.8758 24.3081 23.762C25.8546 23.6196 27.3916 23.5248 28.9476 23.4678C31.4618 23.373 33.9761 23.4109 36.4809 23.5248C38.0558 23.6007 39.6213 23.7335 41.1773 23.9043C42.3633 24.0371 43.5588 24.1415 44.7163 24.4071C46.5095 24.8246 47.8947 25.8398 48.8529 27.4337C49.2609 28.1168 49.5171 28.8759 49.8397 29.5969C50.2476 30.5362 50.6366 31.4755 51.0351 32.4243C51.0541 32.4717 51.0541 32.5381 51.1205 32.5476C51.2059 32.5571 51.2154 32.4812 51.2439 32.4243C51.6044 31.5609 52.4014 31.2288 53.0655 31.3047C53.4735 31.3522 53.872 31.4281 54.2799 31.504C54.7543 31.5894 55.2192 31.7032 55.7031 31.7602C56.5475 31.855 57.2686 32.4812 57.3824 33.3351C57.4868 34.1131 57.4489 34.8627 56.8416 35.4699C56.4621 35.8494 55.9688 35.9537 55.4754 36.0676C54.8492 36.2099 54.2325 36.3427 53.6063 36.4851C53.3976 36.5325 53.5209 36.6558 53.5684 36.7317C53.8625 37.1872 54.1566 37.6426 54.4602 38.098C55.1054 39.0468 55.5513 40.0809 55.817 41.2005C55.9308 41.6844 56.0257 42.1777 56.0257 42.6806C56.0352 45.9539 56.0352 49.2271 56.0352 52.5004C56.0352 53.0223 55.9498 53.5346 55.8075 54.0374C55.7316 54.0564 55.7316 54.1039 55.7506 54.1608C55.7411 54.2177 55.7221 54.2652 55.7126 54.3221C55.6367 54.3411 55.6272 54.3885 55.6557 54.4454C55.6082 54.7395 55.4375 54.9767 55.3141 55.2424C55.2856 55.3183 55.2477 55.3847 55.2192 55.4511C55.0295 55.7073 54.8587 55.9635 54.6405 56.1912C53.8815 56.9976 52.9422 57.5005 51.8795 57.7661C51.3862 57.8895 50.8643 57.9844 50.3425 57.9749C49.8492 57.9654 49.3653 57.9654 48.8814 57.9654ZM51.2628 36.2004C51.2439 36.172 51.2344 36.1625 51.2249 36.1435C51.2249 36.1245 51.2154 36.115 51.2059 36.1056C51.2059 36.0771 51.1964 36.0676 51.168 36.0676L51.1585 36.0581C51.149 36.0391 51.1395 36.0202 51.1205 36.0012C51.1205 35.9822 51.111 35.9727 51.1015 35.9632C50.9687 35.6976 50.8169 35.4414 50.6082 35.2232C50.6082 35.2137 50.6082 35.2042 50.5987 35.1947C50.5892 35.1188 50.5513 35.0619 50.4943 35.0239L50.4848 35.0145C50.4848 34.986 50.4753 34.9765 50.4469 34.9765C50.4374 34.9575 50.4184 34.9291 50.4089 34.9101C50.3994 34.8342 50.3615 34.7773 50.3046 34.7393L50.2951 34.7298C50.2951 34.7014 50.2856 34.6919 50.2571 34.6824L50.2476 34.6729C50.2382 34.6539 50.2192 34.6349 50.2097 34.616C50.2097 34.597 50.2002 34.5875 50.1907 34.578C50.1812 34.4831 50.1243 34.4072 50.0579 34.3503L50.0484 34.3408C50.0294 34.1606 49.9345 33.9993 49.8681 33.8285C49.185 32.2156 48.4924 30.5932 47.8093 28.9802C47.0977 27.3009 45.8548 26.2383 44.0616 25.9157C42.7997 25.688 41.5189 25.5551 40.238 25.4223C38.8813 25.28 37.515 25.1851 36.1583 25.1092C34.8869 25.0428 33.6156 25.0333 32.3442 25.0049C31.7465 24.9954 31.1488 25.0238 30.5415 25.0333C29.5263 25.0523 28.5017 25.0713 27.4865 25.1282C25.8261 25.2231 24.1657 25.3559 22.5149 25.5551C21.5281 25.6785 20.5414 25.7829 19.5642 25.9726C18.7672 26.1339 18.0746 26.5039 17.4579 27.0258C16.7937 27.595 16.3573 28.3066 16.0252 29.1036C15.437 30.5457 14.8108 31.9784 14.1941 33.411C14.1182 33.5818 14.1561 33.6577 14.3554 33.6482C14.8582 33.6387 15.3706 33.6482 15.8734 33.6482C26.5187 33.6482 37.1735 33.6482 47.8188 33.6482C48.018 33.6482 48.2173 33.6387 48.407 33.6862C48.426 33.6957 48.4545 33.7051 48.4734 33.7241C48.8529 34.0182 48.9478 34.3978 48.796 34.8437L48.7865 34.8532C48.7581 34.8532 48.7486 34.8627 48.7581 34.8911C48.7391 34.9196 48.7106 34.9575 48.6916 34.986C48.6727 35.005 48.6632 35.0145 48.6442 35.0334C48.5683 35.0429 48.5209 35.0904 48.4829 35.1568C48.4545 35.1663 48.4355 35.1758 48.407 35.1758C48.3121 35.2042 48.2173 35.2327 48.1224 35.2611C48.056 35.2611 47.999 35.2517 47.9326 35.2517C36.8319 35.2517 25.7312 35.2517 14.6305 35.2517C14.5357 35.2517 14.4408 35.2611 14.3459 35.2611C14.0138 35.2611 13.6818 35.2611 13.3497 35.2517C13.2263 35.2517 13.1694 35.3181 13.103 35.4035C12.306 36.6274 11.4996 37.8513 10.7026 39.0752C10.2187 39.8248 9.85818 40.6312 9.66843 41.5136C9.65894 41.5326 9.65894 41.5515 9.64945 41.5705C9.64945 41.599 9.63996 41.6369 9.63996 41.6654C9.6115 41.6749 9.60201 41.6844 9.62099 41.7128C9.60201 41.8077 9.59253 41.8931 9.57355 41.988C9.54509 42.0164 9.54509 42.0544 9.55457 42.0923C9.55457 42.1588 9.54509 42.2157 9.54509 42.2821C9.51662 42.3011 9.50714 42.3106 9.54509 42.3295C9.48816 42.5762 9.45021 42.8324 9.46918 43.0886C9.4597 43.155 9.45021 43.2309 9.45021 43.2973C9.45021 45.6218 9.45021 47.9463 9.45021 50.2803C9.45021 50.3467 9.4597 50.4226 9.46918 50.489C9.46918 50.5175 9.47867 50.5459 9.47867 50.5744C9.47867 51.0488 9.48816 51.5232 9.48816 51.9976C9.49765 52.3296 9.48816 52.6617 9.5356 52.9843C9.71587 54.2177 10.3041 55.157 11.4237 55.7452C12.2871 56.2007 13.2263 56.305 14.1751 56.305C25.94 56.3145 37.6953 56.3145 49.4602 56.305C50.2666 56.305 51.0636 56.2576 51.8416 55.9824C52.4868 55.7547 53.0655 55.4132 53.5114 54.8819C53.5304 54.8534 53.5494 54.8249 53.5779 54.806C53.5873 54.787 53.6063 54.768 53.6158 54.749C54.0048 54.2841 54.204 53.7433 54.2989 53.1456C54.3464 53.0128 54.3938 52.8894 54.3653 52.7471C54.3938 52.3202 54.3938 51.8932 54.3843 51.4663C54.3748 51.3998 54.3559 51.3524 54.2799 51.4093C40.1906 51.4093 26.1013 51.4093 12.0119 51.4093C11.9645 51.3714 11.9265 51.3998 11.8791 51.4093C11.3098 51.4757 10.7216 51.286 10.6362 50.5649C10.6457 50.5175 10.6646 50.47 10.6741 50.4131C10.7026 50.4036 10.7121 50.3941 10.7026 50.3657C10.7785 50.0431 10.9872 49.8533 11.3098 49.7774C11.585 49.711 11.8601 49.7585 12.1352 49.749C26.0918 49.749 40.0483 49.749 54.0048 49.749C54.0902 49.749 54.1756 49.749 54.261 49.749C54.3179 49.749 54.3748 49.73 54.3748 49.6541C54.4223 49.5972 54.4033 49.5308 54.4033 49.4738C54.4033 47.3106 54.4033 45.1474 54.4033 42.9937C54.4033 42.6331 54.3559 42.2726 54.2799 41.9216C54.242 41.618 54.1566 41.3238 54.0807 41.0202C54.0807 40.9348 54.0428 40.8589 53.9953 40.783C53.9953 40.7641 53.9858 40.7546 53.9858 40.7356C53.9574 40.6502 53.9479 40.5553 53.9099 40.4699C53.7581 40.1284 53.6538 39.7678 53.3976 39.4737C53.3881 39.4547 53.3786 39.4263 53.3691 39.4073C53.3691 39.3409 53.3312 39.2934 53.2837 39.265C53.2837 39.1986 53.2363 39.1606 53.1889 39.1227C53.1889 39.1037 53.1794 39.0942 53.1699 39.0847C53.1699 39.0563 53.1604 39.0468 53.1319 39.0468L53.1224 39.0373C53.1224 38.9993 53.1129 38.9709 53.075 38.9519L53.0655 38.9424C53.0655 38.9139 53.056 38.9044 53.0276 38.9044C53.0086 38.8665 52.9896 38.838 52.9706 38.8001C52.8378 38.5344 52.686 38.2783 52.4773 38.06C52.4773 38.0505 52.4773 38.0411 52.4678 38.0316C52.4583 37.9557 52.4203 37.8987 52.3634 37.8608C52.3634 37.8513 52.3539 37.8418 52.3349 37.8418C52.3065 37.7469 52.2591 37.6615 52.1737 37.6046C52.1737 37.5856 52.1737 37.5762 52.1547 37.5667C52.1547 37.5382 52.1452 37.5287 52.1167 37.5287L52.1072 37.5192C52.1072 37.4813 52.0978 37.4528 52.0598 37.4338L52.0503 37.4244C51.9744 37.2441 51.8701 37.0828 51.7372 36.9405C51.7088 36.8361 51.6613 36.7412 51.5664 36.6843C51.5664 36.6748 51.5664 36.6653 51.557 36.6558C51.519 36.542 51.4621 36.4376 51.3672 36.3617C51.3672 36.3427 51.3577 36.3333 51.3482 36.3238C51.3482 36.2953 51.3387 36.2858 51.3103 36.2858L51.3008 36.2763C51.3103 36.2384 51.3008 36.2099 51.2628 36.1909L51.2533 36.1815C51.3008 36.2099 51.2913 36.2004 51.2628 36.2004ZM8.10294 33.8664C8.10294 34.2839 8.13141 34.3313 8.53938 34.4262C9.39328 34.6255 10.2472 34.7962 11.0916 35.005C11.3288 35.0619 11.4806 35.0429 11.585 34.8152C11.6229 34.7393 11.6798 34.6729 11.7273 34.597C11.7747 34.5306 11.7937 34.4547 11.7557 34.3693C11.5565 33.9329 11.3667 33.4964 11.1675 33.0505C11.1106 32.9271 11.0252 32.8987 10.8924 32.9177C10.1523 33.041 9.41226 33.1643 8.6817 33.2972C8.1409 33.411 8.10294 33.449 8.10294 33.8664ZM55.7695 33.8854C55.7695 33.449 55.7695 33.43 55.3426 33.3446C54.5551 33.1928 53.7581 33.06 52.9706 32.9271C52.8378 32.9082 52.7619 32.9746 52.7145 33.0884C52.5816 33.4015 52.4678 33.7241 52.297 34.0088C52.0788 34.3693 52.1452 34.6444 52.3919 34.9386C52.4773 35.0429 52.5532 35.0714 52.6765 35.0429C53.5684 34.8437 54.4507 34.6444 55.3426 34.4357C55.7695 34.3313 55.7695 34.3219 55.7695 33.8854Z" fill="#010000"/>
<path d="M55.5513 56.9593C55.6272 56.9688 55.6746 57.0162 55.7126 57.0731C55.7126 57.1395 55.741 57.168 55.8074 57.168C55.9592 57.3293 56.0067 57.5285 56.0067 57.7373C56.0067 58.8094 56.0257 59.891 56.0067 60.9631C55.9877 61.9783 55.371 62.595 54.4791 62.8512C54.3843 62.8796 54.2704 62.8607 54.1755 62.8607C52.7808 62.8607 51.3956 62.8417 50.0009 62.8702C48.9857 62.8891 48.1034 62.0637 48.0844 61.0295C48.0749 60.5741 48.0749 60.1092 48.0844 59.6538C48.0939 59.3692 48.1698 59.113 48.4544 58.9612C48.5208 58.9802 48.5588 58.9517 48.5683 58.8853C48.6347 58.8758 48.6916 58.8568 48.758 58.8473C48.7865 58.8853 48.8244 58.8758 48.8624 58.8758C49.2514 58.7904 49.5645 59.0086 49.6594 59.3881C49.7827 59.8815 49.7353 60.3749 49.7447 60.8682C49.7542 61.1908 49.8017 61.2477 50.1337 61.2477C51.4051 61.2477 52.6765 61.2477 53.9478 61.2477C54.2894 61.2477 54.3463 61.1813 54.3463 60.8493C54.3463 59.8341 54.3463 58.8284 54.3463 57.8132C54.3463 57.1965 54.6784 56.8264 55.2192 56.8454C55.2856 56.8644 55.3615 56.8834 55.4279 56.9023C55.4469 56.9688 55.4943 56.9782 55.5513 56.9593Z" fill="#010000"/>
<path d="M15.1049 58.838C15.475 58.9045 15.7501 59.1891 15.7596 59.5686C15.7691 60.0904 15.7786 60.6122 15.7596 61.1341C15.7311 61.8551 15.1619 62.5478 14.4788 62.7755C14.2605 62.8514 14.0518 62.8609 13.8336 62.8609C12.4389 62.8609 11.0537 62.8609 9.65897 62.8609C8.73865 62.8609 7.88475 62.0544 7.86578 61.1531C7.83731 59.9766 7.8468 58.8001 7.85629 57.6236C7.85629 57.1777 8.11246 56.95 8.67224 56.8361C9.08021 56.8266 9.45972 57.1967 9.45972 57.6046C9.45972 58.6673 9.45972 59.7394 9.45972 60.802C9.45972 61.1341 9.56409 61.2384 9.89616 61.2384C10.5603 61.2384 11.2244 61.2384 11.8886 61.2384C12.5053 61.2384 13.122 61.2384 13.7387 61.2384C13.9474 61.2384 14.0898 61.172 14.1277 60.9254C14.1941 60.5079 14.1751 60.0904 14.1562 59.673C14.1277 59.0942 14.5262 58.7811 14.9816 58.7621C14.9721 58.876 15.0196 58.895 15.1049 58.838Z" fill="#010000"/>
<path d="M14.9816 58.7618C14.5262 58.7713 14.1277 59.0939 14.1561 59.6727C14.1751 60.0901 14.1941 60.5076 14.1277 60.9251C14.0897 61.1717 13.9569 61.2382 13.7387 61.2382C13.122 61.2382 12.5053 61.2382 11.8886 61.2382C11.2244 61.2382 10.5603 61.2382 9.89613 61.2382C9.56406 61.2382 9.45969 61.1338 9.45969 60.8017C9.45969 59.7391 9.45969 58.667 9.45969 57.6043C9.45969 57.1964 9.08018 56.8263 8.67221 56.8358C8.69118 56.3899 8.64374 55.944 8.69118 55.498C9.16557 56.1432 9.72535 56.6935 10.4274 57.111C10.8449 57.3577 11.3003 57.5379 11.7652 57.6897C12.8184 58.0313 13.9 57.9744 14.9816 57.9838C14.9816 58.24 14.9816 58.5057 14.9816 58.7618Z" fill="#343D44"/>
<path d="M55.2192 56.8361C54.6784 56.8266 54.3464 57.1872 54.3464 57.8039C54.3464 58.8191 54.3464 59.8248 54.3464 60.84C54.3464 61.1815 54.2799 61.2384 53.9479 61.2384C52.6765 61.2384 51.4051 61.2384 50.1338 61.2384C49.8017 61.2384 49.7543 61.1815 49.7448 60.8589C49.7353 60.3656 49.7827 59.8722 49.6594 59.3788C49.5645 58.9993 49.2514 58.7811 48.8624 58.8665C48.8245 58.876 48.7865 58.876 48.7581 58.838C48.8909 58.7621 48.9383 58.6578 48.9193 58.506C48.9004 58.3257 48.9383 58.1454 48.8909 57.9652C49.3748 57.9652 49.8586 57.9652 50.333 57.9652C50.8549 57.9746 51.3672 57.8798 51.87 57.7564C52.9327 57.4908 53.872 56.9879 54.631 56.1815C54.8492 55.9538 55.02 55.6976 55.2097 55.4414C55.2097 55.9063 55.2097 56.3712 55.2192 56.8361Z" fill="#394147"/>
<path d="M15.1049 58.8386C15.0195 58.8955 14.972 58.8765 14.972 58.7627C15.0385 58.7627 15.0764 58.7912 15.1049 58.8386Z" fill="#394147"/>
<path d="M55.7411 54.1507C55.7222 54.0938 55.7222 54.0463 55.7981 54.0273C55.8075 54.0843 55.7791 54.1222 55.7411 54.1507Z" fill="#394147"/>
<path d="M48.5588 58.8755C48.5493 58.9419 48.5114 58.9704 48.4449 58.9514C48.4639 58.9039 48.5019 58.866 48.5588 58.8755Z" fill="#394147"/>
<path d="M55.6367 54.4358C55.6177 54.3694 55.6272 54.3315 55.6936 54.3125C55.7126 54.3694 55.6841 54.4074 55.6367 54.4358Z" fill="#394147"/>
<path d="M55.5513 56.9598C55.4849 56.9788 55.447 56.9693 55.428 56.8934C55.4849 56.8839 55.5229 56.9124 55.5513 56.9598Z" fill="#394147"/>
<path d="M55.8074 57.1593C55.741 57.1593 55.7125 57.1309 55.7125 57.0645C55.7789 57.0739 55.8074 57.1024 55.8074 57.1593Z" fill="#394147"/>
<path d="M12.0309 51.4561C26.1202 51.4561 40.2096 51.4561 54.2989 51.4561C54.3179 51.5035 54.3559 51.513 54.4033 51.513C54.4128 51.9399 54.4223 52.3669 54.3843 52.7938C54.223 52.8982 54.3179 53.0595 54.3084 53.1923C54.2135 53.7806 54.0143 54.3214 53.6253 54.7957C53.6158 54.8147 53.5968 54.8337 53.5874 54.8527C53.5684 54.8811 53.5494 54.9096 53.5209 54.9286C53.3881 54.9476 53.2648 54.9855 53.1225 54.9855C40.9876 54.9855 28.8432 54.9855 16.7084 54.9855C16.0537 54.9855 15.4085 54.8622 14.8013 54.6345C13.511 54.1506 12.5622 53.2967 12.0973 51.9779C12.0499 51.8166 11.8981 51.6458 12.0309 51.4561Z" fill="#3568AE"/>
<path d="M12.0309 51.4567C11.8981 51.6465 12.0499 51.8173 12.1068 51.9691C12.5812 53.2879 13.5205 54.1512 14.8108 54.6256C15.418 54.8533 16.0632 54.9767 16.7178 54.9767C28.8527 54.9767 40.9971 54.9767 53.1319 54.9767C53.2648 54.9767 53.3976 54.9387 53.5304 54.9198C53.0845 55.4511 52.5152 55.7926 51.8606 56.0203C51.0921 56.286 50.2856 56.3429 49.4791 56.3429C37.7143 56.3429 25.9589 56.3524 14.1941 56.3429C13.2453 56.3429 12.306 56.2291 11.4426 55.7831C10.3231 55.1949 9.72535 54.2556 9.55457 53.0222C9.50713 52.6901 9.51662 52.3581 9.50713 52.0355C9.49765 51.5611 9.49765 51.0867 9.48816 50.6123C9.87716 50.6123 10.2662 50.6218 10.6552 50.6218C10.7405 51.3334 11.3288 51.5326 11.8981 51.4662C11.9455 51.4472 11.9834 51.4188 12.0309 51.4567Z" fill="#033A6D"/>
<path d="M10.6552 50.6115C10.2662 50.6115 9.87716 50.6021 9.48816 50.6021C9.48816 50.5736 9.47867 50.5451 9.47867 50.5167C9.52611 50.4408 9.50713 50.3649 9.50713 50.289C9.50713 47.9739 9.50713 45.6589 9.50713 43.3439C9.50713 43.268 9.52611 43.1826 9.47867 43.1162C9.4597 42.86 9.48816 42.6133 9.55457 42.3572C9.55457 42.3382 9.55457 42.3192 9.55457 42.3097C9.55457 42.2433 9.56406 42.1864 9.56406 42.12C9.60201 42.0915 9.60201 42.0536 9.58304 42.0156C9.60201 41.9207 9.6115 41.8354 9.63048 41.7405C9.63996 41.7215 9.63996 41.712 9.64945 41.693C9.64945 41.6646 9.65894 41.6266 9.65894 41.5982C9.66843 41.5792 9.66843 41.5602 9.67791 41.5412C9.85818 40.6589 10.2187 39.8524 10.7121 39.1029C11.5091 37.8789 12.3155 36.655 13.1125 35.4311C13.1694 35.3362 13.2358 35.2793 13.3592 35.2793C13.6912 35.2888 14.0233 35.2888 14.3554 35.2888C13.9569 36.0193 13.5489 36.7499 13.1504 37.4899C12.733 38.2774 12.4009 39.1029 12.1827 39.9757C12.1637 40.0327 12.1827 40.0991 12.1827 40.194C12.2965 40.1275 12.4009 40.1086 12.5148 40.137C12.1258 40.2983 11.8032 40.5355 11.6039 40.915C11.4711 41.1712 11.3762 41.4464 11.3193 41.7405C11.2054 42.4141 11.2244 43.0688 11.4047 43.7329C11.4996 44.0555 11.6798 44.3211 11.8506 44.6058C11.7937 44.7101 11.7842 44.8335 11.7842 44.9473C11.7842 46.4369 11.7842 47.917 11.7842 49.4066C11.7842 49.7102 11.7842 49.7102 12.0878 49.7102C26.0918 49.7102 40.0957 49.7102 54.0997 49.7102C54.1946 49.7102 54.2894 49.7102 54.3843 49.7102C54.3843 49.7861 54.3369 49.7956 54.2705 49.8051C54.1851 49.8051 54.0997 49.8051 54.0143 49.8051C40.0578 49.8051 26.1013 49.8051 12.1447 49.8051C11.8696 49.8051 11.5944 49.7671 11.3193 49.8335C10.9967 49.9094 10.788 50.0992 10.7121 50.4218C10.7026 50.4408 10.6931 50.4502 10.6836 50.4692C10.6836 50.5167 10.6646 50.5641 10.6552 50.6115Z" fill="#3568AE"/>
<path d="M8.10295 33.8665C8.10295 33.4491 8.1409 33.4016 8.6817 33.3067C9.42175 33.1739 10.1618 33.0601 10.8924 32.9272C11.0157 32.9083 11.1106 32.9367 11.1675 33.0601C11.3667 33.4965 11.5565 33.9329 11.7557 34.3789C11.7937 34.4643 11.7747 34.5307 11.7273 34.6066C11.6798 34.6825 11.6134 34.7394 11.585 34.8248C11.4806 35.062 11.3383 35.081 11.0916 35.0145C10.2472 34.8058 9.3838 34.6255 8.53938 34.4358C8.12192 34.3314 8.09346 34.2935 8.10295 33.8665Z" fill="#033A6D"/>
<path d="M55.7695 33.8852C55.7695 34.3311 55.7695 34.3311 55.3331 34.4355C54.4412 34.6442 53.5588 34.8434 52.667 35.0427C52.5531 35.0711 52.4677 35.0427 52.3824 34.9383C52.1357 34.6442 52.0693 34.3596 52.2875 34.0085C52.4677 33.7239 52.5721 33.4013 52.7049 33.0882C52.7524 32.9743 52.8283 32.8984 52.9611 32.9269C53.7486 33.0597 54.5456 33.1926 55.3331 33.3444C55.779 33.4298 55.7695 33.4487 55.7695 33.8852Z" fill="#033A6D"/>
<path d="M21.6135 40.9441C22.4389 41.0105 23.2644 41.0864 24.0898 41.1433C25.105 41.2192 26.1202 41.2951 27.1354 41.3615C28.606 41.4469 30.0671 41.5608 31.5377 41.5702C33.1317 41.5797 34.7256 41.4943 36.3195 41.39C37.1355 41.3331 37.9609 41.2856 38.7769 41.2287C39.9059 41.1528 41.035 41.0769 42.1545 40.9535C42.9041 40.8776 43.3785 41.5228 43.0559 42.187C42.4297 43.4963 41.7845 44.7961 41.2247 46.1244C40.9211 46.8265 40.4752 47.0637 39.7351 47.0826C38.1222 47.1301 36.4998 47.2724 34.8869 47.3673C33.8907 47.4242 32.8945 47.5191 31.9077 47.5001C30.6838 47.4811 29.4599 47.3673 28.2455 47.3009C26.7369 47.2155 25.2283 47.1396 23.7293 47.0637C23.3403 47.0447 23.0556 46.8644 22.8849 46.5039C22.2017 45.0523 21.5186 43.6006 20.845 42.1395C20.5319 41.4943 21.0253 40.8966 21.6135 40.9441ZM22.9133 42.6898C22.9323 42.7657 22.9418 42.8131 22.9608 42.8511C23.3403 43.667 23.7293 44.4925 24.1088 45.3084C24.1467 45.3938 24.2131 45.4507 24.327 45.4507C25.4466 45.5077 26.5661 45.5741 27.6857 45.6405C29.014 45.7164 30.3328 45.7923 31.661 45.8682C32.496 45.9156 33.3214 45.7923 34.1468 45.7638C34.7636 45.7449 35.3803 45.6974 35.9875 45.6595C37.1545 45.5931 38.3215 45.5172 39.4885 45.4507C39.6687 45.4413 39.7636 45.3843 39.83 45.2325C39.9818 44.891 40.1431 44.5589 40.2949 44.2268C40.5321 43.724 40.7693 43.2211 41.0065 42.7088C40.8168 42.6519 40.6555 42.7183 40.4847 42.7372C39.052 42.8416 37.6194 42.9744 36.1867 43.0503C34.7161 43.1262 33.236 43.2306 31.7559 43.2116C29.8014 43.1832 27.847 43.0598 25.8925 42.908C25.3707 42.8701 24.8393 42.8606 24.308 42.7942C23.8621 42.7562 23.3972 42.7372 22.9133 42.6898Z" fill="#010000"/>
<path d="M22.9133 42.6904C23.3972 42.7379 23.8621 42.7568 24.3175 42.8043C24.8488 42.8612 25.3707 42.8802 25.902 42.9181C27.8565 43.0699 29.8109 43.1933 31.7654 43.2217C33.2455 43.2407 34.7161 43.1364 36.1962 43.0605C37.6289 42.9846 39.0615 42.8517 40.4942 42.7474C40.6555 42.7379 40.8168 42.662 41.016 42.7189C40.7788 43.2312 40.5416 43.7341 40.3044 44.2369C40.1431 44.569 39.9913 44.9011 39.8395 45.2426C39.7731 45.3944 39.6782 45.4514 39.498 45.4609C38.331 45.5178 37.164 45.5937 35.997 45.6696C35.3803 45.7075 34.7636 45.755 34.1563 45.774C33.3309 45.8024 32.5055 45.9258 31.6705 45.8783C30.3423 45.8024 29.0235 45.7265 27.6952 45.6506C26.5756 45.5842 25.4561 45.5178 24.3365 45.4609C24.2226 45.4514 24.1657 45.4039 24.1183 45.3185C23.7293 44.5026 23.3498 43.6772 22.9703 42.8612C22.9418 42.8043 22.9323 42.7663 22.9133 42.6904Z" fill="#033A6D"/>
<path d="M48.1509 35.2799H46.7467V33.667H48.1509C48.5968 33.667 48.9574 34.0275 48.9574 34.4735C48.9574 34.9194 48.5968 35.2799 48.1509 35.2799Z" fill="#010000"/>
<path d="M15.1998 33.1173C18.3023 33.1458 39.7921 33.3071 48.7201 33.1268C48.8909 33.1268 48.9953 32.9465 48.9289 32.7852L47.7998 30.1761C46.6708 27.548 43.9857 25.8402 41.0066 25.8402L35.8357 25.4607C33.2551 25.2709 30.6744 25.2709 28.0937 25.4607L23.0367 25.8402C20.1619 25.8402 17.5528 27.4341 16.3573 29.9199L14.9816 32.7663C14.9152 32.9276 15.029 33.1173 15.1998 33.1173Z" fill="#C3E5EF"/>
<path d="M46.0446 41.4754L51.2533 41.0674L51.7182 43.0788L51.4241 44.056L48.6537 45.2989L43.6726 45.242L44.498 43.3824L46.0446 41.4754Z" fill="white"/>
<path d="M52.6386 42.4912C52.6575 43.1933 52.5437 43.8005 52.2021 44.3413C51.7752 45.0339 51.111 45.366 50.3235 45.4703C49.4222 45.5937 48.5303 45.7265 47.629 45.8499C46.5474 46.0017 45.4753 46.144 44.3937 46.2863C44.1185 46.3242 43.8434 46.3527 43.5777 46.4001C43.2267 46.4666 42.942 46.3812 42.7238 46.0965C42.5056 45.8119 42.5056 45.5083 42.6669 45.2047C43.369 43.9144 44.0521 42.605 44.9155 41.4096C45.0009 41.2957 45.0958 41.1914 45.1812 41.0775C45.4943 40.6316 45.9497 40.5082 46.4715 40.4513C47.2305 40.3754 47.9895 40.271 48.7581 40.2046C49.5171 40.1477 50.2856 40.0528 51.0541 40.0718C51.6613 40.0908 52.2401 40.5747 52.4488 41.2198C52.5721 41.6658 52.6765 42.1022 52.6386 42.4912ZM51.0351 42.5386C51.0256 42.3204 51.0351 42.1022 50.9497 41.884C50.8928 41.7227 50.8074 41.6847 50.6556 41.6942C50.2476 41.7322 49.8397 41.7511 49.4317 41.7891C48.4924 41.8745 47.5531 41.9124 46.6233 42.0453C46.4905 42.0642 46.3956 42.1212 46.3197 42.235C45.8643 42.8517 45.4563 43.4969 45.0863 44.161C45.0199 44.2844 44.8586 44.4362 44.925 44.5216C45.0199 44.6449 45.2191 44.55 45.3709 44.5311C46.9649 44.3128 48.5588 44.0851 50.1528 43.8574C50.5418 43.8005 50.8643 43.6392 50.9782 43.1743C51.0067 42.9656 51.0256 42.7568 51.0351 42.5386Z" fill="#010000"/>
<path d="M12.5243 40.9346L16.7463 40.9535L18.6723 41.6556L20.1335 44.3217L20.3612 45.5551L16.4048 45.1187L12.8658 44.4356L11.9645 41.9972L12.5243 40.9346Z" fill="white"/>
<path d="M11.8506 44.6067C11.6799 44.3221 11.4996 44.0564 11.4047 43.7338C11.215 43.0792 11.2055 42.415 11.3193 41.7414C11.3668 41.4473 11.4616 41.1816 11.604 40.916C11.8032 40.5365 12.1258 40.2898 12.5148 40.138C12.5243 40.138 12.5432 40.138 12.5527 40.1285C12.6571 40.1095 12.771 40.0905 12.8753 40.0811C13.5869 40.0811 14.289 40.157 14.9911 40.2044C15.5888 40.2423 16.1771 40.3088 16.7748 40.3562C16.8033 40.3562 16.8412 40.3562 16.8697 40.3657C17.0405 40.4321 17.2112 40.4701 17.3915 40.4511C17.4579 40.4511 17.5148 40.4606 17.5813 40.4606C17.7331 40.5175 17.8944 40.5554 18.0556 40.546C18.0746 40.546 18.0841 40.5554 18.1031 40.5554C18.16 40.6029 18.2169 40.6503 18.2928 40.6503C18.8811 41.1342 19.2701 41.7794 19.6591 42.415C20.2094 43.3069 20.7122 44.2272 21.2056 45.1475C21.3669 45.4606 21.3953 45.7642 21.1866 46.0584C20.9779 46.362 20.6838 46.4379 20.3137 46.3904C19.0044 46.2007 17.6856 46.0299 16.3763 45.8496C15.5793 45.7358 14.7919 45.6029 13.9949 45.4986C13.6533 45.4511 13.3023 45.4227 12.9702 45.3278C12.5243 45.2045 12.1732 44.9198 11.8506 44.6067ZM12.8469 42.5289C12.8563 42.6712 12.8563 42.8135 12.8753 42.9558C12.9417 43.4967 13.1694 43.7528 13.6438 43.8477C13.9285 43.9046 14.2226 43.9331 14.5072 43.971C15.3611 44.0944 16.2055 44.2082 17.0594 44.3316C17.6382 44.417 18.2169 44.4929 18.7957 44.5783C18.8526 44.5877 18.9285 44.6067 18.976 44.5593C19.0234 44.4929 18.957 44.4359 18.9285 44.3885C18.5111 43.639 18.0556 42.9084 17.5528 42.2158C17.4864 42.1304 17.4105 42.0925 17.2966 42.064C16.8887 41.9786 16.4617 41.9691 16.0442 41.9312C15.086 41.8458 14.1277 41.7794 13.16 41.7035C13.0366 41.694 12.9797 41.7414 12.9322 41.8553C12.8658 42.0735 12.8563 42.3012 12.8469 42.5289Z" fill="#010000"/>
<path d="M48.9288 32.7473L47.7998 30.1381C46.6707 27.51 43.9857 25.8022 41.0065 25.8022L35.8357 25.4227C35.2095 25.3753 34.5738 25.3373 33.9476 25.3184L38.9667 33.1742C42.7523 33.1647 46.2248 33.1458 48.7201 33.0888C48.8909 33.0794 49.0047 32.9086 48.9288 32.7473Z" fill="#E1F4FB"/>
<path d="M33.4922 6C42.6384 6 51.7846 6 60.9309 6C61.8037 6 62.4299 6.389 62.8189 7.167C62.9328 7.38522 63.0087 7.62241 62.9992 7.88807C62.9897 8.57119 62.9897 9.26379 62.9992 9.94691C63.0182 11.6452 61.8227 13.1538 60.3901 13.6377C59.8967 13.799 59.4128 13.8654 58.9005 13.8654C57.4204 13.8654 55.9403 13.8654 54.4697 13.8654C54.1471 13.8654 54.1471 13.8654 54.1376 14.1974C54.1376 14.4346 54.1376 14.6718 54.1281 14.909C54.1092 15.4403 53.7107 15.8198 53.1794 15.8293C52.648 15.8388 52.2116 15.4593 52.1736 14.9375C52.1547 14.6623 52.1642 14.3872 52.1642 14.112C52.1642 13.9508 52.1262 13.8749 51.9365 13.8749C50.1243 13.8843 48.3121 13.8843 46.5094 13.8749C46.3292 13.8749 46.2723 13.9413 46.2817 14.112C46.2912 14.3682 46.2912 14.6149 46.2817 14.8711C46.2628 15.4308 45.8453 15.8388 45.295 15.8388C44.7352 15.8388 44.3273 15.4403 44.3178 14.8806C44.3083 14.6339 44.3083 14.3872 44.3178 14.15C44.3273 13.9602 44.2703 13.8843 44.0711 13.8843C42.2684 13.8938 40.4657 13.8938 38.6631 13.8843C38.4828 13.8843 38.4353 13.9508 38.4259 14.1215C38.4164 14.4821 38.4733 14.8426 38.35 15.2031C38.2171 15.6111 37.8092 15.8768 37.3348 15.8483C36.9078 15.8198 36.5378 15.4878 36.4714 15.0703C36.4239 14.7667 36.4429 14.4726 36.4429 14.169C36.4429 13.9697 36.386 13.8843 36.1678 13.8843C34.3841 13.8938 32.5909 13.8938 30.8072 13.8843C30.5984 13.8843 30.532 13.9602 30.532 14.1595C30.532 14.4631 30.5605 14.7572 30.5131 15.0608C30.4466 15.4973 30.0766 15.8198 29.6307 15.8483C29.1563 15.8768 28.7673 15.6111 28.625 15.1937C28.5111 14.8521 28.5586 14.501 28.5586 14.1595C28.5586 13.9508 28.4922 13.8938 28.2834 13.8938C26.5092 13.9033 24.7255 13.9033 22.9513 13.8938C22.7331 13.8938 22.6572 13.9602 22.6667 14.1785C22.6762 14.4346 22.6762 14.6813 22.6667 14.9375C22.6477 15.4688 22.2397 15.8578 21.6989 15.8578C21.1676 15.8578 20.7312 15.4593 20.7122 14.947C20.7027 14.6718 20.7027 14.3967 20.7122 14.1215C20.7122 13.9602 20.6648 13.9033 20.494 13.9033C18.6818 13.9128 16.8696 13.9128 15.067 13.9033C14.8867 13.9033 14.8298 13.9602 14.8298 14.131C14.8393 14.3777 14.8393 14.6244 14.8298 14.8616C14.8203 15.336 14.4882 15.7629 14.0802 15.8388C13.5489 15.9432 13.1315 15.725 12.9227 15.2506C12.8089 14.9944 12.8658 14.7193 12.8563 14.4536C12.8468 13.9033 12.8563 13.9033 12.2965 13.9033C10.9018 13.9033 9.49764 13.8938 8.10294 13.9033C7.01184 13.9128 6.05358 13.5902 5.2566 12.8407C4.66836 12.2619 4.28885 11.5883 4.09909 10.8008C3.97575 10.279 4.02319 9.75716 4.00422 9.24482C3.99473 8.79889 4.00422 8.36246 4.00422 7.91653C3.99473 7.10058 4.64939 6.32258 5.35148 6.09488C5.59816 6.01898 5.84485 6 6.09153 6C15.2283 6 24.3555 6 33.4922 6ZM7.72342 11.8729C7.83728 11.9678 7.97011 11.9204 8.08396 11.9204C13.6817 11.9204 19.2795 11.9299 24.8773 11.9204C36.2816 11.9014 47.6954 11.9773 59.0997 11.8824C59.9631 11.8729 60.7316 11.2467 60.9214 10.5067C61.1206 9.73818 61.0257 8.9507 61.0257 8.1727C61.0257 8.03038 60.9404 7.98295 60.7885 7.98295C60.2952 7.99243 59.8113 7.97346 59.3179 7.99243C59.1472 7.99243 58.9764 7.87858 58.8151 7.98295C58.7297 7.98295 58.6443 7.98295 58.5589 7.98295C41.1963 7.98295 23.8337 7.98295 6.47104 7.98295C6.38565 7.98295 6.30026 7.98295 6.21487 7.98295C6.11999 7.93551 6.0346 7.90704 5.98716 8.04936C5.98716 8.74197 5.98716 9.42509 5.98716 10.1177C5.9587 10.2695 5.94921 10.4118 6.09153 10.5257C6.09153 10.5541 6.10102 10.5826 6.10102 10.6111C6.09153 10.63 6.07255 10.6585 6.08204 10.6775C6.2718 11.1234 6.56592 11.4744 7.00235 11.6927C7.05928 11.7211 7.10672 11.835 7.2016 11.7591C7.23006 11.7686 7.25852 11.7686 7.28699 11.7781C7.3534 11.8729 7.43879 11.9204 7.55264 11.8729C7.60957 11.8634 7.6665 11.8729 7.72342 11.8729Z" fill="#060305"/>
<path d="M32.515 17.7938C32.5339 17.3953 32.458 16.9873 32.5529 16.5888C32.6573 16.1334 33.0558 15.8203 33.5112 15.8203C33.9571 15.8203 34.3651 16.1334 34.4505 16.5698C34.5738 17.2245 34.4789 17.8886 34.5074 18.5528C34.5169 18.7236 34.4884 18.8849 34.4505 19.0462C34.3461 19.4541 33.9476 19.7577 33.5112 19.7577C33.0842 19.7577 32.6763 19.4541 32.5814 19.0556C32.5624 18.9797 32.5339 18.9038 32.5339 18.8279C32.5055 18.4959 32.515 18.1448 32.515 17.7938Z" fill="#131112"/>
<path d="M30.5415 19.7763C30.5415 20.1274 30.551 20.469 30.5415 20.82C30.5225 21.3513 30.0671 21.7403 29.5547 21.7403C29.0424 21.7403 28.5965 21.3323 28.5775 20.801C28.549 20.1179 28.549 19.4253 28.5775 18.7422C28.5965 18.2488 28.9285 17.9167 29.4314 17.8124C29.8014 17.7365 30.2284 17.9642 30.4466 18.3532C30.5415 18.524 30.5415 18.7137 30.551 18.9035C30.5604 19.1976 30.551 19.4917 30.551 19.7763H30.5415Z" fill="#131112"/>
<path d="M58.0561 17.8028C58.0561 18.1728 58.0751 18.5428 58.0561 18.9129C58.0277 19.3588 57.6671 19.7003 57.2022 19.7478C56.7468 19.8047 56.3199 19.5391 56.1776 19.1216C56.1301 18.9793 56.0922 18.837 56.0922 18.6852C56.0922 18.0874 56.0922 17.4802 56.0922 16.8825C56.1017 16.3512 56.3673 16.0096 56.8702 15.8578C57.3825 15.706 57.9802 16.1045 58.0466 16.6358C58.0941 17.0248 58.0656 17.4138 58.0561 17.8028Z" fill="#0E0C0D"/>
<path d="M44.3178 19.7581C44.3178 19.426 44.3083 19.0939 44.3178 18.7618C44.3368 18.221 44.7543 17.8036 45.2856 17.7941C45.8074 17.7846 46.2723 18.2305 46.2818 18.7618C46.2913 19.4355 46.2913 20.0996 46.2818 20.7733C46.2723 21.3046 45.8359 21.7315 45.3045 21.7315C44.7732 21.741 44.3273 21.3141 44.3178 20.7638C44.3083 20.4317 44.3178 20.0996 44.3178 19.7581Z" fill="#131112"/>
<path d="M12.8563 19.7575C12.8563 19.416 12.8468 19.0744 12.8563 18.7424C12.8752 18.2205 13.2927 17.8126 13.8145 17.7936C14.3079 17.7746 14.8013 18.2016 14.8107 18.7139C14.8297 19.4255 14.8392 20.1371 14.8107 20.8486C14.7918 21.3515 14.3174 21.75 13.824 21.75C13.3022 21.7405 12.8752 21.342 12.8563 20.8107C12.8468 20.4596 12.8563 20.1086 12.8563 19.7575Z" fill="#131112"/>
<path d="M48.2457 17.7932C48.2457 17.4612 48.2362 17.1291 48.2457 16.797C48.2552 16.2752 48.7011 15.8387 49.2134 15.8293C49.7353 15.8198 50.2002 16.2562 50.2096 16.797C50.2191 17.4706 50.2191 18.1348 50.2096 18.8084C50.2002 19.3587 49.7542 19.7762 49.2229 19.7667C48.6726 19.7572 48.2646 19.3397 48.2457 18.78C48.2362 18.4574 48.2457 18.1253 48.2457 17.7932Z" fill="#131112"/>
<path d="M8.92836 17.7935C8.92836 17.4425 8.90938 17.082 8.92836 16.7309C8.95682 16.266 9.26992 15.9434 9.7443 15.8485C10.0954 15.7726 10.5413 15.9814 10.75 16.3324C10.8354 16.4842 10.8923 16.6455 10.8923 16.8258C10.8923 17.4804 10.9018 18.1351 10.8923 18.7898C10.8828 19.2641 10.5697 19.6437 10.1523 19.7385C9.64943 19.8429 9.23196 19.6531 9.01375 19.2072C8.92836 19.0459 8.92836 18.8751 8.92836 18.6949C8.91887 18.3913 8.92836 18.0971 8.92836 17.7935Z" fill="#131112"/>
<path d="M40.3898 17.7743C40.3898 17.4422 40.3898 17.1101 40.3898 16.778C40.3898 16.2467 40.8642 15.8293 41.367 15.8293C41.8699 15.8198 42.3348 16.2467 42.3443 16.7685C42.3632 17.4612 42.3632 18.1538 42.3443 18.8464C42.3253 19.3682 41.8699 19.7667 41.3575 19.7667C40.8262 19.7667 40.4182 19.3777 40.3898 18.8369C40.3708 18.4858 40.3898 18.1253 40.3898 17.7743Z" fill="#131112"/>
<path d="M38.4354 19.7768C38.3879 20.2037 38.4923 20.6402 38.3595 21.0671C38.2266 21.4656 37.8281 21.7502 37.4012 21.7313C36.9458 21.7028 36.5283 21.3707 36.4904 20.9533C36.4239 20.1658 36.4239 19.3783 36.4904 18.5908C36.5283 18.1639 36.9458 17.8318 37.3917 17.7938C37.7997 17.7654 38.2266 18.069 38.3595 18.458C38.4923 18.8944 38.3879 19.3403 38.4354 19.7768Z" fill="#0E0C0D"/>
<path d="M26.604 17.7927C26.604 18.1343 26.6135 18.4758 26.604 18.8079C26.5851 19.3677 26.1771 19.7567 25.6363 19.7567C25.1145 19.7567 24.6685 19.3677 24.6496 18.8364C24.6306 18.1438 24.6211 17.4417 24.6496 16.7491C24.6685 16.2272 25.1429 15.8098 25.6458 15.8287C26.1676 15.8477 26.623 16.2652 26.6135 16.7965C26.604 17.1286 26.604 17.4606 26.604 17.7927Z" fill="#0E0C0D"/>
<path d="M16.7843 17.7932C16.7843 17.4612 16.7748 17.1291 16.7843 16.797C16.7938 16.2752 17.2302 15.8387 17.752 15.8293C18.2644 15.8198 18.7293 16.2562 18.7387 16.778C18.7482 17.4612 18.7482 18.1538 18.7387 18.8369C18.7293 19.3682 18.2738 19.7762 17.7425 19.7667C17.2112 19.7572 16.7938 19.3587 16.7748 18.8369C16.7748 18.4858 16.7843 18.1348 16.7843 17.7932Z" fill="#0E0C0D"/>
<path d="M54.1282 19.7764C54.1282 20.1274 54.1377 20.469 54.1282 20.82C54.1092 21.3418 53.6728 21.7403 53.1509 21.7403C52.6481 21.7403 52.1927 21.3229 52.1832 20.8295C52.1642 20.1274 52.1642 19.4253 52.1832 18.7232C52.1927 18.2204 52.6481 17.8124 53.1509 17.8029C53.6633 17.7934 54.1092 18.2014 54.1377 18.7232C54.1471 19.0648 54.1282 19.4253 54.1282 19.7764Z" fill="#0E0C0D"/>
<path d="M22.6762 19.7763C22.6762 20.1179 22.6857 20.4595 22.6762 20.7915C22.6572 21.3229 22.2207 21.7403 21.6894 21.7403C21.1771 21.7308 20.7217 21.3134 20.7122 20.801C20.7027 20.1084 20.7027 19.4158 20.7122 18.7232C20.7217 18.2204 21.1961 17.7934 21.6989 17.8029C22.2207 17.8124 22.6477 18.2298 22.6667 18.7422C22.6857 19.0837 22.6762 19.4253 22.6762 19.7763Z" fill="#0E0C0D"/>
</svg>
