<svg width="69" height="69" viewBox="0 0 69 69" fill="none" xmlns="http://www.w3.org/2000/svg">
<path d="M62.5469 68.2227C46.8516 68.2227 31.2734 68.2227 15.582 68.2227C13.3555 68 11.4648 66.9961 9.90625 65.4375C8.125 63.6563 7.23438 61.4336 7.23438 58.8711C7.23438 49.1914 7.23438 39.5078 7.23438 29.9375C7.23438 23.4805 7.23438 16.918 7.23438 10.4609C7.23438 6.1211 10.0156 2.33594 14.2461 1.11329C15.4687 0.77735 16.6953 0.890631 17.918 0.890631C21.5898 0.890631 25.4844 4.23048 26.2656 8.23438C26.4883 9.12501 26.4883 9.12501 27.3789 9.12501C38.6172 9.12501 49.8594 9.12501 60.9883 9.12501C62.9922 9.12501 63.2148 9.34766 63.2148 11.3516C63.2148 29.6016 63.2148 47.8555 63.2148 66.1055C63.2148 66.4414 63.2148 66.7734 63.2148 66.9961C63.3242 67.6641 63.2148 68.1094 62.5469 68.2227Z" fill="#010101"/>
<path d="M24.2617 52.75C19.8086 47.7422 13.0195 48.7461 9.6836 52.75C9.46094 52.6406 9.57032 52.5274 9.57032 52.3047C9.57032 38.3945 9.57032 24.3711 9.57032 10.4609C9.57032 6.23048 13.0195 3.00391 17.25 3.1172C21.0352 3.22657 24.2617 6.45313 24.2617 10.3516C24.2617 14.9141 24.2617 19.3633 24.2617 23.9258C24.2617 33.2774 24.2617 42.625 24.2617 52.082C24.2617 52.1953 24.2617 52.418 24.2617 52.75Z" fill="#6D6E6E"/>
<path d="M33.2773 19.9219C35.3906 19.9219 37.5039 19.9219 39.6211 19.9219C40.0664 19.9219 40.1758 20.0313 40.1758 20.4766C40.8437 26.7109 45.8516 31.7187 52.082 32.3867C52.5273 32.3867 52.6406 32.6094 52.6406 32.9414C52.6406 36.8359 52.6406 40.7305 52.6406 44.5156C52.6406 44.9609 52.418 45.0742 52.082 45.1836C45.7422 45.9648 40.9531 50.75 40.1758 57.0938C40.1758 57.5352 39.9531 57.6484 39.5078 57.6484C35.2773 57.6484 31.0508 57.6484 26.9336 57.6484C26.4883 57.6484 26.375 57.5352 26.375 57.0938C26.375 56.6484 26.2656 55.9805 26.4883 55.6445C26.7109 55.3125 27.3789 55.4219 27.8242 55.3125C35.3906 54.1992 41.2891 47.9648 42.0664 40.2852C42.957 31.3828 36.7266 23.3711 27.8242 22.0352C27.3789 21.9258 26.7109 22.0352 26.4883 21.8125C26.1523 21.4805 26.4883 20.8125 26.375 20.3672C26.2656 19.9219 26.4883 19.8086 26.9336 19.8086C29.0469 19.9219 31.1602 19.9219 33.2773 19.9219Z" fill="#878787"/>
<path d="M25.9297 61.8789C26.043 61.4336 26.2656 61.0977 26.2656 60.6523C26.2656 59.7617 26.7109 59.7617 27.3789 59.7617C34.7227 59.7617 42.0664 59.7617 49.4141 59.7617C50.1914 59.7617 50.6367 59.4297 50.6367 58.5391C50.75 56.8711 51.9727 55.6445 53.6406 55.5352C54.5312 55.5352 54.8672 55.0898 54.8672 54.3086C54.8672 43.9609 54.8672 33.5 54.8672 23.1484C54.8672 22.3711 54.5313 21.9258 53.7539 21.9258C52.082 21.8125 50.8594 20.5898 50.75 18.918C50.75 18.1406 50.3047 17.8047 49.5234 17.8047C42.0664 17.8047 34.7227 17.8047 27.2656 17.8047C26.7109 17.8047 26.4883 17.6953 26.4883 17.0273C26.4883 15.6914 26.4883 15.6914 27.8242 15.6914C37.2812 15.6914 46.7422 15.6914 56.3125 15.6914C56.8711 15.6914 56.9805 15.8047 56.9805 16.3594C56.9805 31.2734 56.9805 46.2969 56.9805 61.2109C56.9805 61.543 57.0938 61.8789 56.4258 61.8789C46.4062 61.8789 36.2812 61.8789 26.2656 61.8789C26.1523 61.8789 26.043 61.8789 25.9297 61.8789Z" fill="#484848"/>
<path d="M40.0664 38.7305C40.0664 46.2969 34.3906 52.5273 26.8203 53.418C26.4883 53.418 26.375 53.418 26.375 53.0859C26.2656 51.5273 26.2656 51.5273 27.8242 51.1953C33.832 49.9688 38.0625 44.6289 37.9492 38.5078C37.8398 32.6094 33.3867 27.3789 27.4883 26.375C26.4883 26.1523 26.4883 26.1523 26.4883 25.1523C26.4883 24.1484 26.4883 24.1484 27.4883 24.2617C33.3867 24.8164 38.8398 30.0469 39.8438 36.0586C39.9531 36.9492 40.0664 37.8398 40.0664 38.7305Z" fill="#717EBD"/>
<path d="M26.375 49.3008C26.375 48.7461 26.375 48.0781 26.375 47.5195C26.375 47.0742 26.7109 47.1875 26.9336 47.0742C30.8281 46.2969 33.7227 42.8477 33.7227 38.8398C33.7227 34.832 30.8281 31.2734 26.9336 30.4922C26.4883 30.3828 26.375 30.2695 26.375 29.8242C26.375 29.2695 26.375 28.8242 26.375 28.2695C31.8281 28.8242 35.8359 33.3867 35.8359 38.8398C35.8359 44.1836 31.7188 48.7461 26.375 49.3008Z" fill="#717EBD"/>
<path d="M16.918 66.1055C12.9102 66.1055 9.57031 62.7695 9.57031 58.7617C9.57031 54.6445 12.9102 51.418 16.918 51.418C20.9219 51.418 24.2617 54.7539 24.2617 58.7617C24.2617 62.7695 21.0352 66.1055 16.918 66.1055Z" fill="#6D6E6E"/>
<path d="M52.6406 48.3008C52.6406 49.3008 52.6406 49.3008 51.6406 49.5235C47.8555 50.4141 45.0742 53.418 44.4063 57.2031C44.293 57.5352 44.1836 57.6485 43.8477 57.7578C42.0664 57.7578 42.0664 57.7578 42.5117 56.0899C43.8477 51.418 46.8516 48.5235 51.6406 47.4102C52.6406 47.1875 52.6406 47.1875 52.6406 48.3008Z" fill="#717EBD"/>
<path d="M43.293 19.9219C43.5156 19.9219 43.625 19.9219 43.8477 19.9219C44.1836 19.9219 44.4062 20.0312 44.4062 20.3672C45.0742 24.3711 48.1875 27.4883 52.082 28.1562C52.5273 28.2695 52.6406 28.3789 52.6406 28.8242C52.6406 29.1562 52.6406 29.3789 52.6406 29.7148C52.75 30.3828 52.418 30.3828 51.8594 30.3828C46.9648 29.6016 43.0703 25.707 42.2891 20.8125C42.1797 19.9219 42.1797 19.9219 43.293 19.9219Z" fill="#717EBD"/>
<path d="M31.7188 38.8398C31.7188 41.7344 29.7148 44.1836 27.043 44.9609C26.5977 45.0742 26.4883 44.9609 26.4883 44.5156C26.4883 43.8477 26.5977 43.4023 27.3789 43.1797C29.1563 42.5117 30.2695 40.6211 30.1602 38.7305C30.1602 36.8359 28.8242 35.0547 27.043 34.3906C26.8203 34.2773 26.4883 34.3906 26.4883 34.0547C26.4883 33.6094 26.4883 33.1641 26.4883 32.7188C26.4883 32.4961 26.8203 32.6094 26.9336 32.7188C29.3789 33.5 30.9375 35.0547 31.4961 37.6172C31.6055 37.9492 31.6055 38.3945 31.7188 38.8398Z" fill="#717EBD"/>
<path d="M61.0977 14.1328C61.0977 14.8008 61.0977 15.4687 61.0977 16.1367C61.0977 16.4727 61.0977 16.6953 60.6523 16.6953C58.9844 16.6953 58.9844 16.6953 58.9844 15.1367C58.9844 14.9141 58.9844 14.6914 58.9844 14.5781C58.9844 14.0234 58.5391 13.5781 57.9805 13.5781C57.7578 13.5781 57.5352 13.5781 57.4258 13.5781C55.7578 13.5781 55.7578 13.5781 55.8672 11.7969C55.8672 11.4648 55.9805 11.4648 56.2031 11.4648C57.6484 11.4648 59.207 11.4648 60.6523 11.4648C60.9883 11.4648 61.0977 11.5742 61.0977 11.9062C61.0977 12.6875 61.0977 13.3555 61.0977 14.1328Z" fill="#878787"/>
<path d="M58.5391 66.1055C57.7578 66.1055 57.0937 66.1055 56.3125 66.1055C55.9805 66.1055 55.8672 65.9961 55.8672 65.6602C55.7578 63.9922 55.7578 63.9922 57.4258 63.9922C58.7617 63.9922 58.9844 63.7695 58.9844 62.4336C58.9844 62.4336 58.9844 62.4336 58.9844 62.3242C58.9844 60.6523 59.0937 60.543 60.7656 60.7656C60.9883 60.7656 61.0977 60.875 61.0977 61.0977C61.0977 62.6562 61.0977 64.1016 61.0977 65.6602C61.0977 65.9961 60.875 65.9961 60.6523 65.9961C59.875 66.1055 59.207 66.1055 58.5391 66.1055Z" fill="#878787"/>
<path d="M52.6406 52.75C52.8633 53.418 52.5273 53.6406 51.8594 53.9766C50.3047 54.5313 49.3008 55.6445 48.7461 57.2031C48.6328 57.6484 48.4102 57.8711 47.9648 57.7578C47.8555 57.7578 47.8555 57.7578 47.7422 57.7578C46.2969 57.7578 46.2969 57.7578 46.8516 56.3125C47.7422 53.9766 49.4141 52.418 51.8594 51.6406C52.6406 51.418 52.6406 51.418 52.6406 52.3047C52.6406 52.418 52.6406 52.5273 52.6406 52.75Z" fill="#717EBD"/>
<path d="M47.7422 19.9219C48.4102 19.6992 48.6328 20.1445 48.8555 20.8125C49.4141 22.3711 50.5273 23.3711 52.1953 23.9258C52.5273 24.0391 52.75 24.1485 52.6406 24.5938C52.6406 24.8164 52.6406 25.1524 52.6406 25.375C52.6406 26.2656 52.6406 26.2656 51.8594 26.043C49.1914 25.2617 47.4102 23.4805 46.6289 20.8125C46.4062 20.0313 46.4062 20.0313 47.2969 20.0313C47.4102 19.9219 47.5195 19.9219 47.7422 19.9219Z" fill="#717EBD"/>
<path d="M26.375 41.1758C26.375 39.6211 26.375 38.0625 26.375 36.5039C27.2656 36.8359 27.9336 37.7266 27.9336 38.7305C27.9336 39.8437 27.3789 40.7305 26.375 41.1758Z" fill="#717EBD"/>
<path d="M61.0977 19.8086C61.0977 20.9219 61.0977 20.9219 59.875 20.9219C58.9844 20.9219 58.9844 20.9219 58.9844 19.5859C58.9844 18.8086 58.9844 18.8086 60.3203 18.8086C61.0977 18.8086 61.0977 18.8086 61.0977 19.8086Z" fill="#878787"/>
<path d="M58.9844 24.0391C58.9844 22.9258 58.9844 22.9258 60.207 22.9258C61.0977 22.9258 61.0977 22.9258 61.0977 24.1484C61.0977 25.0391 61.0977 25.0391 59.7617 25.0391C58.9844 25.1523 58.9844 25.1523 58.9844 24.0391Z" fill="#878787"/>
<path d="M60.0977 33.5C59.0938 33.5 59.0938 33.5 59.0938 32.2734C59.0938 31.3828 59.0938 31.3828 60.3203 31.3828C61.0977 31.3828 61.0977 31.3828 61.0977 32.7188C61.0977 33.5 61.0977 33.5 60.0977 33.5Z" fill="#878787"/>
<path d="M60.0977 37.7266C58.9844 37.7266 58.9844 37.7266 58.9844 36.5039C58.9844 35.6133 58.9844 35.6133 60.207 35.6133C61.0977 35.6133 61.0977 35.6133 61.0977 36.9492C61.0977 37.7266 61.0977 37.7266 60.0977 37.7266Z" fill="#878787"/>
<path d="M40.1758 11.4648C41.1758 11.4648 41.1758 11.4648 41.1758 12.4648C41.1758 13.5781 41.1758 13.5781 40.0664 13.5781C39.0625 13.5781 39.0625 13.5781 39.0625 12.5742C39.0625 11.4648 39.0625 11.4648 40.1758 11.4648Z" fill="#878787"/>
<path d="M60.0977 41.957C59.0938 41.957 59.0938 41.957 59.0938 40.7305C59.0938 39.8437 59.0938 39.8438 60.3203 39.8438C61.0977 39.8438 61.0977 39.8438 61.0977 41.1758C61.0977 41.957 61.0977 41.957 60.0977 41.957Z" fill="#878787"/>
<path d="M60.0977 44.0703C61.0977 44.0703 61.0977 44.0703 61.0977 45.2969C61.0977 46.1836 61.0977 46.1836 59.7617 46.1836C58.9844 46.1836 58.9844 46.1836 58.9844 44.8516C58.9844 44.0703 58.9844 44.0703 60.0977 44.0703Z" fill="#878787"/>
<path d="M58.9844 49.3008C58.9844 48.3008 58.9844 48.3008 60.207 48.3008C61.0977 48.3008 61.0977 48.3008 61.0977 49.6367C61.0977 50.4141 61.0977 50.4141 59.7617 50.4141C58.9844 50.3047 58.9844 50.3047 58.9844 49.3008Z" fill="#878787"/>
<path d="M61.0977 28.2695C61.0977 29.2695 61.0977 29.2695 59.875 29.2695C58.9844 29.2695 58.9844 29.2695 58.9844 27.9336C58.9844 27.1562 58.9844 27.1563 60.3203 27.1563C61.0977 27.2656 61.0977 27.2656 61.0977 28.2695Z" fill="#878787"/>
<path d="M27.4883 13.5781C26.375 13.5781 26.375 13.5781 26.375 12.3516C26.375 11.4648 26.375 11.4648 27.7109 11.4648C28.4922 11.4648 28.4922 11.4648 28.4922 12.7969C28.4922 13.5781 28.4922 13.5781 27.4883 13.5781Z" fill="#878787"/>
<path d="M31.7188 11.4648C32.7188 11.4648 32.7188 11.4648 32.7188 12.4648C32.7188 13.5781 32.7187 13.5781 31.6055 13.5781C30.6055 13.5781 30.6055 13.5781 30.6055 12.5742C30.6055 11.4648 30.6055 11.4648 31.7188 11.4648Z" fill="#878787"/>
<path d="M34.832 12.4648C34.832 11.4648 34.832 11.4648 35.8359 11.4648C36.8359 11.4648 36.8359 11.4648 36.8359 12.5742C36.8359 13.5781 36.8359 13.5781 35.8359 13.5781C34.832 13.5781 34.832 13.5781 34.832 12.4648Z" fill="#878787"/>
<path d="M61.0977 53.5313C61.0977 54.6445 61.0977 54.6445 59.875 54.6445C58.9844 54.5313 58.9844 54.5313 58.9844 53.3086C58.9844 52.5274 58.9844 52.5274 60.3203 52.5274C61.0977 52.418 61.0977 52.418 61.0977 53.5313Z" fill="#878787"/>
<path d="M44.293 11.4648C45.2969 11.4648 45.2969 11.4648 45.2969 12.4648C45.2969 13.5781 45.2969 13.5781 44.1836 13.5781C44.0703 13.5781 43.9609 13.5781 43.7383 13.5781C43.293 13.6875 43.0703 13.4648 43.1797 13.0195C43.1797 12.9102 43.1797 12.6875 43.1797 12.5742C43.1797 11.4648 43.1797 11.4648 44.293 11.4648Z" fill="#878787"/>
<path d="M48.5234 11.4648C49.5234 11.4648 49.5234 11.4648 49.5234 12.7969C49.5234 13.5781 49.5234 13.5781 48.1875 13.5781C47.4102 13.5781 47.4102 13.5781 47.4102 12.2422C47.4102 11.4648 47.4102 11.4648 48.5234 11.4648Z" fill="#878787"/>
<path d="M61.0977 57.7578C61.0977 58.7617 61.0977 58.7617 59.875 58.7617C59.0938 58.7617 59.0938 58.7617 59.0938 57.4258C59.0938 56.6484 59.0937 56.6484 60.4297 56.6484C61.0977 56.6484 61.0977 56.6484 61.0977 57.7578Z" fill="#878787"/>
<path d="M53.7539 12.4648C53.7539 13.5781 53.7539 13.5781 52.6406 13.5781C51.6406 13.5781 51.6406 13.5781 51.6406 12.5742C51.6406 11.4648 51.6406 11.4648 52.75 11.4648C53.7539 11.4648 53.7539 11.4648 53.7539 12.4648Z" fill="#878787"/>
<path d="M27.4883 66.1055C26.375 66.1055 26.375 66.1055 26.375 64.8828C26.375 63.9922 26.375 63.9922 27.7109 63.9922C28.4922 63.9922 28.4922 63.9922 28.4922 65.3281C28.4922 66.1055 28.4922 66.1055 27.4883 66.1055Z" fill="#878787"/>
<path d="M32.7188 65.1055C32.7188 66.2188 32.7187 66.2188 31.4961 66.2188C30.6055 66.2188 30.6055 66.2188 30.6055 64.8828C30.6055 64.1016 30.6055 64.1016 31.9414 64.1016C32.7188 63.9922 32.7188 63.9922 32.7188 65.1055Z" fill="#878787"/>
<path d="M34.832 65.1055C34.832 63.9922 34.832 63.9922 36.0586 63.9922C36.9492 63.9922 36.9492 63.9922 36.9492 65.3281C36.9492 66.1055 36.9492 66.1055 35.6133 66.1055C34.832 66.1055 34.832 66.1055 34.832 65.1055Z" fill="#878787"/>
<path d="M40.0664 63.9922C41.0664 63.9922 41.0664 63.9922 41.0664 65.2148C41.0664 66.1055 41.0664 66.1055 39.7305 66.1055C38.9531 66.1055 38.9531 66.1055 38.9531 64.7695C39.0625 63.9922 39.0625 63.9922 40.0664 63.9922Z" fill="#878787"/>
<path d="M45.2969 65.1055C45.2969 66.2188 45.2969 66.2188 44.0703 66.2188C43.1797 66.2188 43.1797 66.2188 43.1797 64.8828C43.1797 64.1016 43.1797 64.1016 44.5156 64.1016C45.2969 63.9922 45.2969 63.9922 45.2969 65.1055Z" fill="#878787"/>
<path d="M48.5234 66.1055C47.4102 66.1055 47.4102 66.1055 47.4102 64.9922C47.4102 63.9922 47.4102 63.9922 48.4102 63.9922C49.5234 63.9922 49.5234 63.9922 49.5234 65.1055C49.5234 66.1055 49.5234 66.1055 48.5234 66.1055Z" fill="#878787"/>
<path d="M52.75 66.1055C51.6406 66.1055 51.6406 66.1055 51.6406 64.8828C51.6406 63.9922 51.6406 63.9922 52.8633 63.9922C53.7539 63.9922 53.7539 63.9922 53.6406 65.3281C53.7539 66.1055 53.7539 66.1055 52.75 66.1055Z" fill="#878787"/>
<path d="M24.2617 64.8828C24.3711 66.2188 24.3711 66.2187 23.0352 66.1055C23.2578 65.8828 23.4805 65.6602 23.7031 65.5508C23.8164 65.3281 24.0391 65.1055 24.2617 64.8828Z" fill="#293A77"/>
<path d="M50.6367 38.6172C50.6367 39.0625 50.4141 39.3984 50.1914 39.6211C49.5234 40.2852 48.9687 40.8438 48.3008 41.5117C47.7422 42.0664 47.1875 42.0664 46.6289 41.5117C45.9648 40.9531 45.4062 40.2852 44.7383 39.6211C44.1836 39.0625 44.1836 38.5078 44.7383 37.9492C45.4062 37.2813 46.0742 36.6133 46.6289 36.0586C47.0742 35.6133 47.6328 35.5 48.1875 35.9453C48.9687 36.6133 49.6367 37.3945 50.3047 38.0625C50.5273 38.2852 50.5273 38.5078 50.6367 38.6172Z" fill="#010101"/>
<path d="M53.7539 17.8047C54.3086 17.8047 54.7539 18.25 54.7539 18.8086C54.7539 19.3633 54.3086 19.8086 53.7539 19.8086C53.1953 19.8086 52.6406 19.3633 52.6406 18.6953C52.75 18.25 53.1953 17.8047 53.7539 17.8047Z" fill="#030303"/>
<path d="M53.7539 59.7617C53.1953 59.7617 52.75 59.207 52.75 58.7617C52.75 58.2031 53.1953 57.6485 53.8633 57.7578C54.4219 57.7578 54.8672 58.2031 54.8672 58.8711C54.7539 59.3164 54.3086 59.7617 53.7539 59.7617Z" fill="#030303"/>
<path d="M16.918 65.1055C13.4648 65.1055 10.5742 62.2109 10.6836 58.7617C10.6836 55.3125 13.5781 52.418 17.0273 52.5274C20.4766 52.5274 23.3711 55.4219 23.2578 58.8711C23.2578 62.2109 20.3672 65.1055 16.918 65.1055Z" fill="#010101"/>
<path d="M47.4102 39.3984C47.1875 39.2852 46.8516 39.0625 46.8516 38.8398C46.8516 38.6172 47.0742 38.3945 47.2969 38.2852C47.5195 38.2852 47.7422 38.5078 47.8555 38.7305C47.9648 39.0625 47.6328 39.1758 47.4102 39.3984Z" fill="#293A77"/>
<path d="M16.918 54.5312C19.2539 54.5312 21.1445 56.4258 21.1445 58.7617C21.1445 61.0977 19.2539 62.9922 16.918 62.8789C14.5781 62.8789 12.7969 60.9883 12.7969 58.6484C12.6875 56.4258 14.6914 54.5312 16.918 54.5312Z" fill="#6D6E6E"/>
<path d="M20.1445 58.7617C20.1445 60.543 18.6953 61.8789 16.918 61.8789C15.2461 61.8789 13.8008 60.4297 13.8008 58.6484C13.8008 56.8711 15.2461 55.5352 17.0273 55.5352C18.6953 55.6445 20.1445 57.0937 20.1445 58.7617Z" fill="#010101"/>
<path d="M18.0273 58.7617C18.0273 59.3164 17.582 59.7617 17.0273 59.7617C16.4727 59.7617 15.9141 59.3164 16.0273 58.6484C16.0273 58.0937 16.582 57.6484 17.1406 57.6484C17.582 57.7578 18.0273 58.2031 18.0273 58.7617Z" fill="#6D6E6E"/>
</svg>
