<svg width="68" height="68" viewBox="0 0 68 68" fill="none" xmlns="http://www.w3.org/2000/svg">
<path d="M13.0527 63.9648V51.9463C13.0527 50.9788 13.2398 50.0208 13.6032 49.127C13.9667 48.2332 14.4994 47.421 15.1709 46.7369C15.8425 46.0528 16.6397 45.5101 17.5172 45.1399C18.3946 44.7697 19.335 44.5792 20.2847 44.5792H47.6804C48.6327 44.5751 49.5764 44.7626 50.4574 45.1309C51.3383 45.4993 52.1392 46.0413 52.814 46.7258C53.4888 47.4103 54.0243 48.2239 54.3896 49.1197C54.755 50.0156 54.943 50.9762 54.943 51.9463V64.0896" fill="#FFD298"/>
<path d="M18.8046 47.4494C18.6643 47.451 18.5281 47.4025 18.4211 47.3129C18.3142 47.2233 18.2437 47.0985 18.2226 46.9617C18.2053 46.8104 18.2467 46.6583 18.3384 46.5359C18.4302 46.4135 18.5656 46.3298 18.7173 46.3018H19.3866C19.4617 46.3017 19.5361 46.3166 19.6051 46.3458C19.6742 46.375 19.7365 46.4177 19.7882 46.4714C19.84 46.5251 19.8801 46.5887 19.9061 46.6582C19.9321 46.7277 19.9435 46.8017 19.9395 46.8756C19.9395 47.0202 19.8813 47.1588 19.7776 47.2611C19.6739 47.3633 19.5332 47.4208 19.3866 47.4208H18.8919L18.8046 47.4494Z" fill="#DFB278"/>
<path d="M15.4191 61.7902C15.2484 61.7902 15.0847 61.7266 14.964 61.6135C14.8433 61.5004 14.7754 61.3471 14.7754 61.1872V51.2685C14.7721 50.5769 14.9285 49.8927 15.234 49.263C15.5396 48.6333 15.9869 48.073 16.5454 47.6206C16.6657 47.5101 16.8275 47.4482 16.996 47.4482C17.1644 47.4482 17.3262 47.5101 17.4465 47.6206C17.5089 47.6742 17.5588 47.7395 17.5929 47.8121C17.627 47.8848 17.6446 47.9633 17.6446 48.0427C17.6446 48.1221 17.627 48.2006 17.5929 48.2732C17.5588 48.3459 17.5089 48.411 17.4465 48.4647C17.0267 48.8063 16.6891 49.2275 16.4561 49.7004C16.2231 50.1734 16.1 50.6873 16.0949 51.2082V61.1269C16.1106 61.2147 16.1042 61.3046 16.0763 61.3897C16.0484 61.4747 15.9997 61.5526 15.9341 61.6169C15.8685 61.6813 15.7878 61.7305 15.6984 61.7605C15.609 61.7906 15.5134 61.8008 15.4191 61.7902Z" fill="#DFB278"/>
<path d="M54.8981 64.3845C54.8182 64.3887 54.7383 64.3766 54.6632 64.3489C54.5882 64.3211 54.5195 64.2782 54.4615 64.223C54.4035 64.1677 54.3573 64.1013 54.3258 64.0276C54.2943 63.9539 54.2781 63.8745 54.2782 63.7943V51.9585C54.2782 51.0732 54.1042 50.1967 53.7662 49.3788C53.4282 48.5609 52.9327 47.8178 52.3081 47.1918C51.6836 46.5658 50.9421 46.0693 50.126 45.7305C49.31 45.3917 48.4353 45.2173 47.552 45.2173H19.8413C18.0628 45.2256 16.3599 45.9395 15.1052 47.2028C13.8505 48.4661 13.1461 50.176 13.1461 51.9585V64.0428C13.1461 64.2076 13.0808 64.3656 12.9645 64.4822C12.8483 64.5987 12.6906 64.6641 12.5262 64.6641C12.3618 64.6641 12.2041 64.5987 12.0878 64.4822C11.9716 64.3656 11.9062 64.2076 11.9062 64.0428V51.9585C11.9063 49.8493 12.7423 47.8266 14.2304 46.3352C15.7185 44.8438 17.7368 44.0059 19.8413 44.0059H47.552C49.6594 44.0058 51.6809 44.8427 53.1739 46.3333C54.667 47.8238 55.5099 49.8465 55.5181 51.9585V64.0428C55.4656 64.1594 55.3768 64.2558 55.265 64.3174C55.1532 64.379 55.0245 64.4025 54.8981 64.3845V64.3845Z" fill="#221F1F"/>
<path d="M40.8508 48.5247L36.6688 52.549C35.8714 53.3265 34.8049 53.7613 33.6949 53.7613C32.5849 53.7613 31.5185 53.3265 30.7211 52.549L26.5701 48.5247C24.8083 46.7614 23.4153 44.6603 22.4736 42.3456C21.5318 40.031 21.0603 37.5496 21.087 35.0483V27.4368C21.087 24.0694 22.4153 20.84 24.7798 18.459C27.1442 16.0779 30.3511 14.7402 33.6949 14.7402V14.7402C37.0416 14.7402 40.2517 16.0769 42.621 18.4571C44.9904 20.8372 46.3256 24.0666 46.3338 27.4368V35.0483C46.3605 37.5496 45.889 40.031 44.9472 42.3456C44.0055 44.6603 42.6126 46.7614 40.8508 48.5247V48.5247Z" fill="white"/>
<path d="M33.7117 54.3358C32.4557 54.3326 31.2492 53.8438 30.343 52.971L26.1707 48.8145C24.3525 47.0065 22.9149 44.8503 21.9433 42.4738C20.9717 40.0973 20.486 37.549 20.5149 34.9804V27.4119C20.5149 23.8991 21.9053 20.5303 24.3801 18.0464C26.855 15.5625 30.2117 14.167 33.7117 14.167C37.2117 14.167 40.5684 15.5625 43.0433 18.0464C45.5182 20.5303 46.9085 23.8991 46.9085 27.4119V34.9804C46.9433 37.547 46.4632 40.0945 45.4969 42.4711C44.5305 44.8478 43.0977 47.005 41.2837 48.8145L37.1114 52.8469C36.2136 53.7671 34.9945 54.301 33.7117 54.3358V54.3358ZM33.7117 15.5318C30.5421 15.54 27.5046 16.8073 25.2633 19.0568C23.022 21.3062 21.7593 24.3548 21.7511 27.536V35.1044C21.7205 37.5062 22.1727 39.8896 23.0807 42.1121C23.9888 44.3345 25.334 46.3503 27.036 48.0391L31.1774 52.0714C31.8662 52.7259 32.7787 53.0906 33.7272 53.0906C34.6757 53.0906 35.5881 52.7259 36.2769 52.0714L40.4183 48.0391C42.1146 46.3461 43.4561 44.3294 44.3638 42.108C45.2714 39.8866 45.7268 37.5052 45.7032 35.1044V27.536C45.695 24.3494 44.428 21.2962 42.1801 19.0459C39.9321 16.7956 36.8867 15.5318 33.7117 15.5318V15.5318Z" fill="#221F1F"/>
<path d="M34.0287 3.26367C32.025 3.26367 30.041 3.65902 28.1903 4.42699C26.3396 5.19496 24.6584 6.3205 23.2431 7.73923C21.8277 9.15796 20.706 10.842 19.942 12.6949C19.1781 14.5479 18.787 16.5334 18.791 18.5377V22.7287C18.7888 25.5916 19.3039 28.4313 20.3117 31.1108C20.4131 31.3434 20.5802 31.5414 20.7924 31.6804C21.0046 31.8195 21.2528 31.8936 21.5065 31.8936C21.7602 31.8936 22.0084 31.8195 22.2206 31.6804C22.4329 31.5414 22.5999 31.3434 22.7013 31.1108C23.7366 28.9876 25.3475 27.1983 27.3504 25.9468C29.3532 24.6953 31.6672 24.032 34.0287 24.0326C36.3906 24.0471 38.7012 24.7239 40.698 25.986C42.6948 27.2482 44.2978 29.0452 45.325 31.1729C45.4264 31.4055 45.5934 31.6035 45.8057 31.7426C46.0179 31.8816 46.2661 31.9557 46.5198 31.9557C46.7735 31.9557 47.0217 31.8816 47.2339 31.7426C47.4462 31.6035 47.6132 31.4055 47.7146 31.1729C48.6977 28.4876 49.2019 25.6505 49.2042 22.7908V18.5998C49.2165 16.5954 48.8335 14.6083 48.0771 12.7523C47.3207 10.8962 46.2058 9.20759 44.7962 7.78309C43.3866 6.35859 41.71 5.22618 39.8624 4.45068C38.0147 3.67518 36.0323 3.2718 34.0287 3.26367V3.26367Z" fill="#B76E78"/>
<path d="M46.6852 32.5282C46.3237 32.5293 45.9692 32.4284 45.6627 32.2371C45.3561 32.0458 45.1099 31.772 44.9525 31.4471C43.9838 29.3974 42.4514 27.6649 40.5339 26.4515C38.6165 25.2381 36.3931 24.5939 34.1229 24.5939C31.8526 24.5939 29.6292 25.2381 27.7118 26.4515C25.7943 27.6649 24.2619 29.3974 23.2932 31.4471C23.1231 31.7817 22.8611 32.061 22.5378 32.2524C22.2145 32.4438 21.8434 32.5395 21.4677 32.5282C21.0968 32.5166 20.7376 32.3961 20.4349 32.1819C20.1322 31.9676 19.8995 31.6691 19.7659 31.3235C18.738 28.5878 18.2139 25.6891 18.2188 22.7673V18.5973C18.2174 14.8639 19.5443 11.2515 21.9627 8.40393C22.0178 8.34401 22.0848 8.29611 22.1593 8.26338C22.2339 8.23065 22.3145 8.2138 22.3959 8.2138C22.4774 8.2138 22.5579 8.23065 22.6325 8.26338C22.7071 8.29611 22.774 8.34401 22.8291 8.40393C22.8843 8.4585 22.9281 8.52343 22.958 8.59501C22.9879 8.66658 23.0033 8.74332 23.0033 8.82087C23.0033 8.89842 22.9879 8.97525 22.958 9.04682C22.9281 9.1184 22.8843 9.18333 22.8291 9.2379C20.65 11.8401 19.4369 15.1131 19.3946 18.5046V22.6746C19.3847 25.4407 19.8883 28.1846 20.8798 30.7675C20.9146 30.8952 20.9916 31.0074 21.0983 31.0859C21.205 31.1645 21.3352 31.2046 21.4677 31.1999C21.601 31.2125 21.7351 31.1838 21.8514 31.1174C21.9677 31.0511 22.0606 30.9504 22.1174 30.8293C23.1961 28.6028 24.8815 26.725 26.9802 25.411C29.079 24.0969 31.5062 23.4 33.9836 23.4C36.461 23.4 38.8882 24.0969 40.987 25.411C43.0858 26.725 44.7711 28.6028 45.8498 30.8293C45.9066 30.9504 45.9995 31.0511 46.1159 31.1174C46.2322 31.1838 46.3662 31.2125 46.4996 31.1999C46.6308 31.1994 46.7585 31.1573 46.8642 31.0795C46.9699 31.0018 47.0481 30.8925 47.0875 30.7675C48.0789 28.1846 48.5825 25.4407 48.5727 22.6746V18.5046C48.5645 14.6404 47.0232 10.9367 44.2861 8.20428C41.549 5.47184 37.839 3.93315 33.9682 3.92499H32.9161C32.754 3.92573 32.5975 3.86598 32.4772 3.75739C32.357 3.6488 32.2818 3.49921 32.2664 3.3381C32.2578 3.25853 32.2657 3.17809 32.2895 3.10168C32.3132 3.02526 32.3524 2.95448 32.4045 2.89373C32.4567 2.83297 32.5208 2.7835 32.5928 2.74837C32.6648 2.71324 32.7432 2.69321 32.8233 2.68945H33.9682C38.1616 2.68945 42.1832 4.3524 45.1484 7.31252C48.1136 10.2726 49.7794 14.2874 49.7794 18.4737V22.6437C49.799 25.5668 49.2744 28.4681 48.2323 31.1999C48.1078 31.5454 47.8816 31.8452 47.5835 32.0602C47.2853 32.2751 46.9291 32.3952 46.5615 32.4046L46.6852 32.5282Z" fill="#221F1F"/>
<path d="M23.4374 8.42661C23.3534 8.42997 23.2697 8.41348 23.1916 8.37807C23.1136 8.34265 23.0429 8.28909 22.9841 8.22094C22.8715 8.08702 22.8086 7.90904 22.8086 7.72391C22.8086 7.53878 22.8715 7.36081 22.9841 7.22689C24.0458 6.13262 25.2355 5.20973 26.5195 4.48443C26.5909 4.44334 26.6687 4.41876 26.7484 4.41204C26.8282 4.40532 26.9084 4.41661 26.9843 4.44531C27.0602 4.47401 27.1303 4.51954 27.1906 4.57921C27.2508 4.63889 27.3001 4.71151 27.3354 4.79294C27.371 4.87131 27.3923 4.95709 27.3978 5.04506C27.4034 5.13302 27.3932 5.22137 27.3677 5.30471C27.3423 5.38805 27.3022 5.46471 27.2499 5.52995C27.1976 5.59519 27.1342 5.64766 27.0634 5.68425C25.8806 6.37454 24.7833 7.23901 23.8 8.25525C23.7007 8.35897 23.5723 8.41962 23.4374 8.42661V8.42661Z" fill="#221F1F"/>
<path d="M29.7122 4.98501C29.5793 4.9888 29.4495 4.93343 29.3451 4.82825C29.2408 4.72307 29.1684 4.57469 29.1405 4.40874C29.1021 4.22037 29.1211 4.02039 29.1937 3.84924C29.2663 3.67809 29.3871 3.54857 29.5316 3.48672L30.1033 3.29455C30.1784 3.26573 30.2573 3.25696 30.3352 3.26876C30.413 3.28055 30.4882 3.31269 30.5559 3.36314C30.6236 3.41359 30.6825 3.48125 30.7289 3.56199C30.7752 3.64273 30.8081 3.73483 30.8254 3.83248C30.8624 4.02591 30.8392 4.23017 30.7606 4.40218C30.6821 4.57418 30.5543 4.70046 30.4042 4.7545L29.8626 4.94667L29.7122 4.98501Z" fill="#221F1F"/>
<path d="M33.8013 6.70627C33.6314 6.70646 33.4679 6.64997 33.3447 6.54849C33.2215 6.447 33.148 6.30836 33.1395 6.1612C33.1351 6.08582 33.1478 6.01033 33.177 5.93923C33.2062 5.86812 33.2513 5.80274 33.3097 5.74677C33.3681 5.69079 33.4387 5.64535 33.5174 5.61306C33.596 5.58077 33.6813 5.56227 33.7682 5.55859H34.1984C34.3739 5.55859 34.5422 5.6191 34.6664 5.72671C34.7905 5.83433 34.8602 5.98028 34.8602 6.13248C34.8602 6.28467 34.7905 6.43062 34.6664 6.53824C34.5422 6.64586 34.3739 6.70627 34.1984 6.70627H33.8013Z" fill="#9C525C"/>
<path d="M21.15 19.3109C20.9866 19.3111 20.8294 19.2498 20.7109 19.1395C20.5925 19.0293 20.5218 18.8787 20.5137 18.7188C20.5267 15.6643 21.5926 12.7036 23.5386 10.3167C25.4846 7.92981 28.1966 6.25665 31.2349 5.56852C31.3948 5.54024 31.5596 5.57291 31.6956 5.65982C31.8317 5.74672 31.9286 5.88126 31.9667 6.03593C31.9903 6.11587 31.9964 6.19981 31.9847 6.28224C31.9729 6.36466 31.9436 6.44371 31.8986 6.51428C31.8536 6.58484 31.7938 6.64538 31.7234 6.69182C31.6529 6.73827 31.5731 6.76964 31.4894 6.78388C28.7804 7.46886 26.3773 9.00921 24.652 11.1667C22.9267 13.3242 21.9754 15.9784 21.9453 18.7188C21.9435 18.813 21.92 18.9055 21.8765 18.9895C21.833 19.0735 21.7707 19.1467 21.6941 19.2036C21.6176 19.2606 21.5289 19.2999 21.4346 19.3185C21.3404 19.3371 21.243 19.3345 21.15 19.3109V19.3109Z" fill="#9C525C"/>
<path d="M47.4841 57.2041H20.5137V64.0902H47.4841V57.2041Z" fill="#B76E78"/>
<path d="M47.4619 64.4234C47.3811 64.4275 47.3004 64.4158 47.2246 64.3889C47.1488 64.362 47.0794 64.3205 47.0208 64.267C46.9622 64.2135 46.9156 64.1492 46.8837 64.0778C46.8519 64.0064 46.8355 63.9295 46.8356 63.8519V58.4073H21.1919V64.0625C21.1919 64.222 21.1259 64.375 21.0085 64.4879C20.891 64.6007 20.7318 64.664 20.5657 64.664C20.3996 64.664 20.2403 64.6007 20.1229 64.4879C20.0054 64.375 19.9395 64.222 19.9395 64.0625V57.8057C19.9395 57.6461 20.0054 57.4931 20.1229 57.3803C20.2403 57.2674 20.3996 57.2041 20.5657 57.2041H47.4619C47.5427 57.204 47.6227 57.2197 47.697 57.2503C47.7713 57.2809 47.8383 57.3257 47.894 57.382C47.9497 57.4383 47.9928 57.5049 48.0208 57.5777C48.0488 57.6506 48.061 57.7281 48.0568 57.8057V64.0625C48.0149 64.1785 47.9333 64.2775 47.8252 64.3431C47.7171 64.4087 47.5889 64.437 47.4619 64.4234V64.4234Z" fill="#221F1F"/>
<path d="M20.5133 58.3521C20.3611 58.3521 20.2151 58.2872 20.1075 58.1719C19.9999 58.0566 19.9395 57.9003 19.9395 57.7372V53.8023C19.9395 53.6392 19.9999 53.4828 20.1075 53.3675C20.2151 53.2522 20.3611 53.1875 20.5133 53.1875C20.6655 53.1875 20.8114 53.2522 20.9191 53.3675C21.0267 53.4828 21.0871 53.6392 21.0871 53.8023V57.7372C21.0871 57.9003 21.0267 58.0566 20.9191 58.1719C20.8114 58.2872 20.6655 58.3521 20.5133 58.3521Z" fill="#221F1F"/>
<path d="M47.4983 58.3521C47.4211 58.3521 47.3446 58.3361 47.2732 58.3052C47.2019 58.2743 47.137 58.229 47.0824 58.1719C47.0278 58.1148 46.9845 58.0471 46.9549 57.9725C46.9254 57.8979 46.9102 57.8179 46.9102 57.7372V53.8023C46.9102 53.6392 46.9721 53.4828 47.0824 53.3675C47.1927 53.2522 47.3423 53.1875 47.4983 53.1875C47.5742 53.1874 47.6494 53.2034 47.7192 53.2347C47.7889 53.2659 47.8519 53.3118 47.9042 53.3693C47.9565 53.4269 47.997 53.4949 48.0233 53.5693C48.0496 53.6438 48.0611 53.723 48.0571 53.8023V57.7372C48.0611 57.8164 48.0496 57.8958 48.0233 57.9702C47.997 58.0447 47.9565 58.1127 47.9042 58.1702C47.8519 58.2278 47.7889 58.2736 47.7192 58.3049C47.6494 58.3361 47.5742 58.3522 47.4983 58.3521V58.3521Z" fill="#221F1F"/>
<path d="M32.6203 25.0689C32.4532 25.0689 32.293 25.0043 32.1748 24.8895C32.0566 24.7746 31.9902 24.6188 31.9902 24.4564C31.9902 24.294 32.0566 24.1383 32.1748 24.0234C32.293 23.9086 32.4532 23.8441 32.6203 23.8441C34.2371 23.8053 35.7766 23.1636 36.9202 22.0522C38.0638 20.9407 38.7239 19.4445 38.7638 17.8732V10.1875C38.7638 10.0251 38.8302 9.86936 38.9484 9.75452C39.0665 9.63967 39.2268 9.5752 39.3939 9.5752C39.561 9.5752 39.7213 9.63967 39.8394 9.75452C39.9576 9.86936 40.024 10.0251 40.024 10.1875V17.8732C40.024 19.7816 39.244 21.6119 37.8555 22.9613C36.4671 24.3108 34.5839 25.0689 32.6203 25.0689V25.0689Z" fill="#221F1F"/>
<path d="M38.8766 8.42757C38.7244 8.42757 38.5784 8.36284 38.4708 8.24754C38.3632 8.13224 38.3027 7.97586 38.3027 7.8128V7.32092C38.3027 7.24018 38.3176 7.16023 38.3464 7.08563C38.3753 7.01104 38.4175 6.94327 38.4708 6.88618C38.5241 6.82909 38.5874 6.78377 38.657 6.75287C38.7266 6.72197 38.8012 6.70605 38.8766 6.70605C38.9519 6.70605 39.0266 6.72197 39.0962 6.75287C39.1658 6.78377 39.2291 6.82909 39.2823 6.88618C39.3356 6.94327 39.3779 7.01104 39.4067 7.08563C39.4356 7.16023 39.4504 7.24018 39.4504 7.32092V7.8128C39.4504 7.97586 39.39 8.13224 39.2823 8.24754C39.1747 8.36284 39.0288 8.42757 38.8766 8.42757Z" fill="#221F1F"/>
<path d="M31.9896 35.9723C31.9896 36.6533 31.7877 37.319 31.4093 37.8852C31.031 38.4514 30.4933 38.8927 29.8642 39.1533C29.235 39.4139 28.5427 39.4821 27.8749 39.3492C27.207 39.2164 26.5935 38.8884 26.112 38.4069C25.6304 37.9254 25.3025 37.3119 25.1697 36.644C25.0368 35.9762 25.105 35.2838 25.3656 34.6547C25.6262 34.0256 26.0675 33.4879 26.6337 33.1095C27.1999 32.7312 27.8656 32.5293 28.5466 32.5293C29.4597 32.5293 30.3355 32.892 30.9812 33.5377C31.6269 34.1834 31.9896 35.0592 31.9896 35.9723Z" fill="#FFD298"/>
<path d="M42.8939 35.9723C42.8939 36.6533 42.692 37.319 42.3136 37.8852C41.9353 38.4514 41.3976 38.8927 40.7684 39.1533C40.1393 39.4139 39.447 39.4821 38.7791 39.3492C38.1113 39.2164 37.4978 38.8884 37.0163 38.4069C36.5347 37.9254 36.2068 37.3119 36.074 36.644C35.9411 35.9762 36.0093 35.2838 36.2699 34.6547C36.5305 34.0256 36.9718 33.4879 37.538 33.1095C38.1042 32.7312 38.7699 32.5293 39.4509 32.5293C40.364 32.5293 41.2397 32.892 41.8854 33.5377C42.5311 34.1834 42.8939 35.0592 42.8939 35.9723Z" fill="#FFD298"/>
<path d="M28.5481 39.9885C27.7537 39.9885 26.977 39.736 26.3165 39.2631C25.6559 38.7902 25.141 38.118 24.837 37.3316C24.533 36.5452 24.4534 35.6799 24.6084 34.8451C24.7634 34.0102 25.146 33.2433 25.7078 32.6414C26.2695 32.0395 26.9853 31.6296 27.7645 31.4635C28.5437 31.2975 29.3513 31.3828 30.0853 31.7085C30.8193 32.0343 31.4467 32.5858 31.888 33.2936C32.3294 34.0013 32.565 34.8334 32.565 35.6847C32.565 36.8261 32.1418 37.9208 31.3885 38.7279C30.6352 39.535 29.6135 39.9885 28.5481 39.9885ZM28.5481 32.685C27.9944 32.685 27.4531 32.861 26.9927 33.1906C26.5323 33.5202 26.1735 33.9886 25.9616 34.5367C25.7497 35.0848 25.6943 35.688 25.8023 36.2698C25.9103 36.8517 26.177 37.3862 26.5685 37.8057C26.96 38.2252 27.4589 38.5108 28.0019 38.6266C28.545 38.7423 29.1079 38.683 29.6195 38.4559C30.1311 38.2289 30.5683 37.8445 30.876 37.3512C31.1836 36.8579 31.3478 36.2779 31.3478 35.6847C31.3478 34.8891 31.0528 34.1261 30.5278 33.5636C30.0027 33.0011 29.2906 32.685 28.5481 32.685V32.685Z" fill="#221F1F"/>
<path d="M39.4505 39.9885C38.656 39.9885 37.8794 39.736 37.2188 39.2631C36.5582 38.7902 36.0434 38.118 35.7394 37.3316C35.4353 36.5452 35.3558 35.6799 35.5108 34.8451C35.6658 34.0102 36.0483 33.2433 36.6101 32.6414C37.1719 32.0395 37.8876 31.6296 38.6668 31.4635C39.446 31.2975 40.2537 31.3828 40.9877 31.7085C41.7217 32.0343 42.349 32.5858 42.7904 33.2936C43.2318 34.0013 43.4673 34.8334 43.4673 35.6847C43.4673 36.8261 43.0441 37.9208 42.2908 38.7279C41.5375 39.535 40.5158 39.9885 39.4505 39.9885ZM39.4505 32.685C38.8968 32.685 38.3555 32.861 37.8951 33.1906C37.4347 33.5202 37.0758 33.9886 36.8639 34.5367C36.652 35.0848 36.5966 35.688 36.7046 36.2698C36.8127 36.8517 37.0793 37.3862 37.4708 37.8057C37.8624 38.2252 38.3612 38.5108 38.9043 38.6266C39.4474 38.7423 40.0103 38.683 40.5219 38.4559C41.0334 38.2289 41.4707 37.8445 41.7783 37.3512C42.0859 36.8579 42.2501 36.2779 42.2501 35.6847C42.2422 34.8917 41.9447 34.1337 41.4214 33.573C40.898 33.0122 40.1905 32.6935 39.4505 32.685V32.685Z" fill="#221F1F"/>
<path d="M28.2688 37.1188C27.4973 37.1139 26.7426 36.8769 26.0908 36.4348C25.439 35.9928 24.9163 35.3634 24.5823 34.6186C24.5182 34.4565 24.5143 34.2744 24.5714 34.1093C24.6285 33.9443 24.7423 33.8087 24.8895 33.7305C25.0365 33.6633 25.2021 33.6601 25.3512 33.7215C25.5003 33.7829 25.6212 33.9042 25.6883 34.0594C25.9235 34.5791 26.2899 35.0179 26.7459 35.326C27.202 35.6341 27.7296 35.7994 28.2688 35.803C28.8036 35.7971 29.3261 35.6305 29.7769 35.3223C30.2277 35.0141 30.5886 34.5765 30.8186 34.0594C30.8917 33.9018 31.0183 33.7799 31.1724 33.7188C31.3266 33.6577 31.4967 33.6618 31.6481 33.7305C31.7211 33.7689 31.7862 33.8226 31.8397 33.8882C31.8931 33.9538 31.9339 34.0301 31.9596 34.1128C31.9854 34.1954 31.9955 34.2826 31.9895 34.3695C31.9835 34.4563 31.9614 34.541 31.9246 34.6186C31.6018 35.3657 31.086 35.9983 30.4382 36.4414C29.7903 36.8844 29.0375 37.1195 28.2688 37.1188V37.1188Z" fill="#221F1F"/>
<path d="M39.7454 37.1188C38.9738 37.1139 38.2191 36.8769 37.5673 36.4348C36.9155 35.9928 36.3928 35.3634 36.0589 34.6186C35.9948 34.4565 35.9909 34.2744 36.048 34.1093C36.1051 33.9443 36.2189 33.8087 36.3661 33.7305C36.5131 33.6633 36.6786 33.6601 36.8278 33.7215C36.9769 33.7829 37.0978 33.9042 37.1648 34.0594C37.3913 34.5838 37.7532 35.0277 38.2078 35.3389C38.6623 35.65 39.1905 35.8153 39.73 35.8153C40.2695 35.8153 40.7977 35.65 41.2523 35.3389C41.7068 35.0277 42.0687 34.5838 42.2952 34.0594C42.3683 33.9018 42.4948 33.7799 42.649 33.7188C42.8031 33.6577 42.9733 33.6618 43.1246 33.7305C43.1976 33.7689 43.2627 33.8226 43.3162 33.8882C43.3697 33.9538 43.4105 34.0301 43.4362 34.1128C43.4619 34.1954 43.4721 34.2826 43.466 34.3695C43.46 34.4563 43.438 34.541 43.4011 34.6186C43.0784 35.3657 42.5626 35.9983 41.9147 36.4414C41.2669 36.8844 40.5141 37.1195 39.7454 37.1188V37.1188Z" fill="#221F1F"/>
<path d="M37.156 46.5875C37.156 47.6999 35.7467 48.596 33.9852 48.596C32.2236 48.596 30.8438 47.6999 30.8438 46.5875C30.8438 45.4752 32.253 44.5791 33.9852 44.5791C35.7174 44.5791 37.156 45.4752 37.156 46.5875Z" fill="#FFD298"/>
<path d="M33.9849 49.1704C31.9078 49.1704 30.2695 48.016 30.2695 46.5881C30.2695 45.1603 31.9078 44.0059 33.9849 44.0059C36.0619 44.0059 37.7294 45.1299 37.7294 46.5881C37.7294 48.0464 36.0912 49.1704 33.9849 49.1704ZM33.9849 45.1907C32.4929 45.1907 31.4397 45.9198 31.4397 46.5881C31.4397 47.2565 32.4929 47.9553 33.9849 47.9553C35.4768 47.9553 36.5593 47.2261 36.5593 46.5881C36.5593 45.9502 35.5061 45.1907 33.9849 45.1907Z" fill="#221F1F"/>
<path d="M33.7167 42.8586C33.2217 42.8593 32.7368 42.6924 32.3184 42.3771L31.697 41.9328C31.5616 41.8201 31.4671 41.6506 31.4325 41.4582C31.3979 41.2657 31.4258 41.0648 31.5105 40.8959C31.6051 40.7346 31.7474 40.622 31.9088 40.5807C32.0703 40.5395 32.2389 40.5727 32.3806 40.6738L32.9709 41.1552C33.1954 41.3188 33.4535 41.4054 33.7167 41.4054C33.9798 41.4054 34.2379 41.3188 34.4624 41.1552L35.0839 40.6738C35.2236 40.5806 35.3882 40.5553 35.5432 40.6032C35.6983 40.6512 35.8318 40.7686 35.916 40.931C36.0001 41.0934 36.0284 41.2882 35.995 41.4749C35.9615 41.6615 35.8689 41.8256 35.7364 41.9328L35.146 42.3771C34.7187 42.6992 34.2222 42.8665 33.7167 42.8586Z" fill="#221F1F"/>
<path d="M12.8808 3.26367V22.424C12.9255 22.7657 12.9255 23.112 12.8808 23.4537L12.0904 26.3871C11.7468 27.7237 11.8872 29.143 12.4856 30.3814L19.1432 43.831C19.2386 44.0553 19.396 44.246 19.596 44.3791C19.796 44.5123 20.0297 44.5821 20.268 44.58H22.092C22.2894 44.5823 22.4846 44.5375 22.6623 44.4493C22.84 44.361 22.9954 44.2317 23.1161 44.0714C23.2369 43.9111 23.3199 43.7244 23.3584 43.5256C23.397 43.3269 23.3902 43.1217 23.3385 42.9262L21.484 35.6552C21.454 35.4692 21.454 35.2795 21.484 35.0935V32.7531C21.4871 32.3905 21.3924 32.0341 21.2104 31.7233L20.5416 30.3814C19.9113 29.1951 19.5869 27.8631 19.5992 26.5119V3.26367H12.8808Z" fill="#DFB278"/>
<path d="M15.3492 7.28011C15.197 7.28011 15.0511 7.22435 14.9435 7.12501C14.8358 7.02567 14.7754 6.89094 14.7754 6.75046V6.08833C14.7754 5.94784 14.8358 5.81312 14.9435 5.71378C15.0511 5.61444 15.197 5.55859 15.3492 5.55859C15.5014 5.55859 15.6474 5.61444 15.755 5.71378C15.8626 5.81312 15.9231 5.94784 15.9231 6.08833V6.75046C15.9231 6.89094 15.8626 7.02567 15.755 7.12501C15.6474 7.22435 15.5014 7.28011 15.3492 7.28011Z" fill="#CB9E64"/>
<path d="M14.5411 30.2339C14.4327 30.2365 14.326 30.205 14.235 30.1436C14.144 30.0821 14.0727 29.9935 14.0306 29.8894C13.6111 29.0615 13.5143 28.0968 13.7604 27.1963L14.5411 24.2526C14.662 23.7616 14.7225 23.2564 14.7212 22.7494V9.6283C14.7212 9.46219 14.7845 9.3029 14.8971 9.18544C15.0098 9.06799 15.1625 9.00195 15.3218 9.00195C15.481 9.00195 15.6338 9.06799 15.7464 9.18544C15.859 9.3029 15.9223 9.46219 15.9223 9.6283V22.7494C15.9183 23.3735 15.8376 23.9944 15.6821 24.597L14.9014 27.5407C14.7508 28.1387 14.8149 28.7735 15.0816 29.3257C15.1176 29.3996 15.1391 29.4802 15.145 29.5629C15.1509 29.6456 15.141 29.7287 15.1158 29.8074C15.0907 29.886 15.0508 29.9587 14.9986 30.0211C14.9463 30.0836 14.8826 30.1346 14.8113 30.1712L14.5411 30.2339Z" fill="#CB9E64"/>
<path d="M21.6618 31.9551V35.4607C21.6618 35.9007 21.4804 36.3227 21.1576 36.6338C20.8347 36.9449 20.3968 37.1196 19.9403 37.1196V37.1196C19.4837 37.1196 19.0458 36.9449 18.723 36.6338C18.4001 36.3227 18.2188 35.9007 18.2188 35.4607V31.9551" fill="#DFB278"/>
<path d="M22.0739 45.1536H20.2569C19.9145 45.1547 19.5784 45.0599 19.2848 44.8793C18.9912 44.6988 18.7514 44.4393 18.5913 44.1292L11.9895 30.7195C11.3141 29.3576 11.1524 27.7882 11.5353 26.3117L12.3226 23.2076C12.3524 22.929 12.3524 22.648 12.3226 22.3695V3.31031C12.3226 3.14566 12.3864 2.98776 12.5 2.87133C12.6136 2.75491 12.7677 2.68945 12.9283 2.68945C13.0889 2.68945 13.243 2.75491 13.3566 2.87133C13.4702 2.98776 13.534 3.14566 13.534 3.31031V22.3695C13.5931 22.7604 13.5931 23.1581 13.534 23.549L12.7769 26.4669C12.4431 27.6467 12.5623 28.9129 13.11 30.0056L19.7118 43.4153C19.7735 43.525 19.8615 43.6168 19.9675 43.682C20.0735 43.7471 20.1939 43.7836 20.3174 43.7878H22.1344C22.24 43.7866 22.3439 43.7609 22.4384 43.7125C22.5328 43.6641 22.6153 43.5943 22.6795 43.5084C22.7248 43.417 22.7483 43.316 22.7483 43.2135C22.7483 43.111 22.7248 43.01 22.6795 42.9186L20.8625 35.686C20.8357 35.4488 20.8357 35.2093 20.8625 34.9721V32.6441C20.8665 32.3837 20.8039 32.1268 20.6808 31.899L19.9843 30.5643C19.3179 29.2961 18.9742 27.8763 18.985 26.4359V3.31031C18.985 3.14566 19.0488 2.98776 19.1624 2.87133C19.2759 2.75491 19.43 2.68945 19.5906 2.68945C19.7513 2.68945 19.9053 2.75491 20.0189 2.87133C20.1325 2.98776 20.1963 3.14566 20.1963 3.31031V26.4359C20.2007 27.6776 20.4913 28.9007 21.0442 30.0056L21.7407 31.3092C21.947 31.7219 22.051 32.1804 22.0436 32.6441V34.9721C22.0312 35.1064 22.0312 35.2415 22.0436 35.3757L23.8909 42.6082C23.9674 42.8898 23.9772 43.186 23.9192 43.4722C23.8613 43.7584 23.7373 44.0263 23.5577 44.2534C23.4025 44.5176 23.1856 44.7382 22.9266 44.8953C22.6676 45.0525 22.3746 45.1412 22.0739 45.1536V45.1536Z" fill="#221F1F"/>
<path d="M19.9553 37.6931C19.3424 37.6931 18.7547 37.4563 18.3213 37.0348C17.888 36.6132 17.6445 36.0414 17.6445 35.4453V31.9966C17.6445 31.8333 17.7112 31.6767 17.83 31.5612C17.9487 31.4457 18.1097 31.3809 18.2776 31.3809C18.4455 31.3809 18.6065 31.4457 18.7253 31.5612C18.844 31.6767 18.9107 31.8333 18.9107 31.9966V35.4453C18.9107 35.7148 19.0208 35.9733 19.2167 36.1639C19.4126 36.3544 19.6783 36.4615 19.9553 36.4615C20.2323 36.4615 20.498 36.3544 20.6939 36.1639C20.8898 35.9733 20.9999 35.7148 20.9999 35.4453V31.9966C20.9999 31.8333 21.0666 31.6767 21.1853 31.5612C21.304 31.4457 21.4651 31.3809 21.633 31.3809C21.7147 31.3807 21.7956 31.3968 21.8707 31.4281C21.9458 31.4594 22.0136 31.5052 22.0699 31.5629C22.1261 31.6205 22.1698 31.6887 22.1981 31.7633C22.2263 31.8379 22.2387 31.9173 22.2344 31.9966V35.4453C22.2345 36.0361 21.9954 36.6033 21.5688 37.0239C21.1423 37.4446 20.5627 37.685 19.9553 37.6931Z" fill="#221F1F"/>
<path d="M55.1363 3.26367V22.424C55.0923 22.7658 55.0923 23.112 55.1363 23.4537L55.8977 26.3871C56.2564 27.7225 56.1152 29.1471 55.5018 30.3814L48.8627 43.831C48.764 44.0529 48.6055 44.2414 48.4059 44.3741C48.2063 44.5067 47.9738 44.5782 47.7358 44.58H45.9085C45.7108 44.5823 45.5153 44.5375 45.3372 44.4493C45.1592 44.361 45.0036 44.2317 44.8826 44.0714C44.7616 43.9111 44.6785 43.7244 44.6399 43.5256C44.6013 43.3269 44.6081 43.1217 44.6599 42.9262L46.5176 35.6552C46.5326 35.4683 46.5326 35.2804 46.5176 35.0935V32.7531C46.5187 32.395 46.6022 32.0422 46.7613 31.7233L47.4617 30.3814C48.0799 29.1898 48.404 27.8614 48.4058 26.5119V3.26367H55.1363Z" fill="#DFB278"/>
<path d="M50.9274 7.28011C50.7752 7.28011 50.6292 7.22435 50.5216 7.12501C50.414 7.02567 50.3535 6.89094 50.3535 6.75046V6.08833C50.3535 6.01877 50.3684 5.94988 50.3972 5.88562C50.426 5.82135 50.4683 5.76297 50.5216 5.71378C50.5749 5.66459 50.6381 5.62555 50.7078 5.59893C50.7774 5.57231 50.852 5.55859 50.9274 5.55859C51.0027 5.55859 51.0773 5.57231 51.147 5.59893C51.2166 5.62555 51.2798 5.66459 51.3331 5.71378C51.3864 5.76297 51.4287 5.82135 51.4575 5.88562C51.4864 5.94988 51.5012 6.01877 51.5012 6.08833V6.75046C51.5012 6.89094 51.4407 7.02567 51.3331 7.12501C51.2255 7.22435 51.0795 7.28011 50.9274 7.28011Z" fill="#CB9E64"/>
<path d="M50.9274 27.3648C50.7752 27.3648 50.6292 27.2992 50.5216 27.1825C50.414 27.0657 50.3535 26.9074 50.3535 26.7423V9.62437C50.3535 9.45928 50.414 9.30096 50.5216 9.18422C50.6292 9.06749 50.7752 9.00195 50.9274 9.00195C51.0795 9.00195 51.2255 9.06749 51.3331 9.18422C51.4407 9.30096 51.5012 9.45928 51.5012 9.62437V26.7423C51.5012 26.9074 51.4407 27.0657 51.3331 27.1825C51.2255 27.2992 51.0795 27.3648 50.9274 27.3648Z" fill="#CB9E64"/>
<path d="M46.3359 31.9551V35.4607C46.3359 35.9007 46.519 36.3227 46.8449 36.6338C47.1708 36.9449 47.6128 37.1196 48.0737 37.1196V37.1196C48.3004 37.1197 48.5248 37.0766 48.7338 36.9929C48.9428 36.9091 49.1323 36.7864 49.291 36.6319C49.4498 36.4774 49.5747 36.2944 49.6584 36.0933C49.7421 35.8922 49.783 35.6771 49.7787 35.4607V31.9551" fill="#DFB278"/>
<path d="M47.7695 45.153H45.9334C45.6456 45.1523 45.3617 45.0849 45.1033 44.9559C44.8449 44.827 44.6186 44.6398 44.4417 44.4087C44.2648 44.1775 44.1419 43.9085 44.0822 43.6218C44.0226 43.3352 44.0277 43.0384 44.0974 42.7541L45.964 35.4951C45.978 35.3605 45.978 35.2247 45.964 35.0901V32.7535C45.9672 32.2857 46.0827 31.8258 46.3006 31.4139L46.9739 30.1054C47.557 29.0045 47.8619 27.7733 47.8613 26.5226V3.31249C47.8613 3.14723 47.9258 2.98876 48.0405 2.8719C48.1553 2.75505 48.311 2.68945 48.4733 2.68945C48.6356 2.68945 48.7913 2.75505 48.9061 2.8719C49.0208 2.98876 49.0853 3.14723 49.0853 3.31249V26.5226C49.0811 27.9664 48.7346 29.3879 48.0755 30.6662L47.3717 32.0058C47.2474 32.2345 47.184 32.4922 47.1881 32.7535V35.0901C47.2179 35.3175 47.2179 35.548 47.1881 35.7755L45.352 43.0656C45.3063 43.1574 45.2825 43.2588 45.2825 43.3616C45.2825 43.4645 45.3063 43.5659 45.352 43.6576C45.4134 43.7475 45.496 43.8203 45.5923 43.8693C45.6885 43.9183 45.7953 43.9419 45.9028 43.938H47.7389C47.8606 43.9381 47.9799 43.9031 48.0828 43.8369C48.1858 43.7707 48.2681 43.6761 48.3203 43.5641L55.0525 30.23C55.5885 29.1282 55.7083 27.8642 55.3891 26.6783L54.5935 23.7499C54.4975 23.3627 54.4461 22.9654 54.4405 22.566V3.43713C54.4405 3.27188 54.5049 3.1134 54.6197 2.99655C54.7345 2.8797 54.8902 2.8141 55.0525 2.8141C55.2148 2.8141 55.3705 2.8797 55.4852 2.99655C55.6 3.1134 55.6645 3.27188 55.6645 3.43713V22.566C55.6199 22.8446 55.6199 23.1286 55.6645 23.4072L56.4601 26.5226C56.847 28.0045 56.6836 29.5797 56.0011 30.9466L49.3301 44.4053C49.1449 44.6447 48.9074 44.837 48.6365 44.9668C48.3656 45.0966 48.0688 45.1603 47.7695 45.153V45.153Z" fill="#221F1F"/>
<path d="M48.0729 37.6931C47.4599 37.6931 46.8721 37.4563 46.4387 37.0348C46.0052 36.6132 45.7617 36.0414 45.7617 35.4453V31.9966C45.7617 31.8333 45.8284 31.6767 45.9472 31.5612C46.0659 31.4457 46.227 31.3809 46.3949 31.3809C46.5629 31.3809 46.7239 31.4457 46.8427 31.5612C46.9614 31.6767 47.0281 31.8333 47.0281 31.9966V35.4453C47.0281 35.7148 47.1382 35.9733 47.3341 36.1639C47.5301 36.3544 47.7958 36.4615 48.0729 36.4615C48.35 36.4615 48.6157 36.3544 48.8117 36.1639C49.0076 35.9733 49.1177 35.7148 49.1177 35.4453V31.9966C49.1134 31.9173 49.1258 31.8379 49.1541 31.7633C49.1824 31.6887 49.226 31.6205 49.2823 31.5629C49.3386 31.5052 49.4064 31.4594 49.4815 31.4281C49.5566 31.3968 49.6375 31.3807 49.7192 31.3809C49.8872 31.3809 50.0482 31.4457 50.167 31.5612C50.2857 31.6767 50.3524 31.8333 50.3524 31.9966V35.4453C50.3525 36.0361 50.1133 36.6033 49.6867 37.0239C49.2601 37.4446 48.6804 37.685 48.0729 37.6931Z" fill="#221F1F"/>
</svg>
