<svg width="68" height="69" viewBox="0 0 68 69" fill="none" xmlns="http://www.w3.org/2000/svg">
<path d="M23.2977 63.2513C25.8323 63.2513 27.906 61.1775 27.906 58.6429V34.5068C27.906 31.9722 29.9798 29.8984 32.5144 29.8984H23.2401C20.7055 29.8984 18.6318 31.9722 18.6318 34.5068V58.5853C18.6318 61.1199 16.558 63.1936 14.0234 63.1936H23.2977V63.2513Z" fill="#4D4A46"/>
<path d="M23.2411 29.8984C20.7066 29.8984 18.6328 31.9722 18.6328 34.5068V38.539C19.9001 40.2672 21.9739 41.3617 24.278 41.3617H25.0269C25.0845 41.3617 25.1421 41.3617 25.1997 41.3617C26.755 41.4193 27.9647 42.7442 27.9647 44.2995V33.5275C27.9647 31.9146 30.0384 29.8408 32.573 29.8408H23.2411V29.8984Z" fill="#35322F"/>
<path d="M23.2985 63.8272H13.9667C13.621 63.8272 13.3906 63.5391 13.3906 63.2511C13.3906 62.9055 13.6786 62.6751 13.9667 62.6751C16.2132 62.6751 17.999 60.8894 17.999 58.6428V34.5066C17.999 31.6264 20.3607 29.3223 23.1833 29.3223H32.5152C32.8608 29.3223 33.0913 29.6103 33.0913 29.8983C33.0913 30.1863 32.8032 30.4743 32.5152 30.4743C30.2686 30.4743 28.4829 32.2601 28.4829 34.5066V58.5852C28.4829 61.523 26.1788 63.8272 23.2985 63.8272ZM17.3077 62.6751H23.2985C25.5451 62.6751 27.3308 60.8894 27.3308 58.6428V34.5066C27.3308 32.8937 28.0797 31.4536 29.2318 30.4743H23.2409C20.9944 30.4743 19.2086 32.2601 19.2086 34.5066V58.5852C19.2086 60.2557 18.4598 61.6958 17.3077 62.6751Z" fill="black"/>
<path d="M18.6324 42.0537C17.4803 42.745 16.6738 44.0123 16.6738 45.4524C16.6738 46.8925 17.4803 48.1598 18.6324 48.851C19.7845 48.1598 20.5909 46.8925 20.5909 45.4524C20.5909 44.0123 19.7845 42.745 18.6324 42.0537Z" fill="#B76E78"/>
<path d="M18.6322 49.4264C18.517 49.4264 18.4018 49.4264 18.3442 49.3688C16.9617 48.5624 16.0977 47.0646 16.0977 45.4517C16.0977 43.8388 16.9617 42.3411 18.3442 41.5346C18.517 41.4194 18.7474 41.4194 18.9203 41.5346C20.3028 42.3411 21.1668 43.8388 21.1668 45.4517C21.1668 47.0646 20.3028 48.5624 18.9203 49.3688C18.8051 49.4264 18.6898 49.4264 18.6322 49.4264ZM18.6322 42.7443C17.7682 43.378 17.2497 44.3573 17.2497 45.4517C17.2497 46.5462 17.7682 47.5255 18.6322 48.1591C19.4963 47.5255 20.0147 46.5462 20.0147 45.4517C19.9571 44.4149 19.4963 43.378 18.6322 42.7443Z" fill="black"/>
<path d="M24.8531 46.1431C23.7586 45.3367 22.2609 45.1063 20.936 45.6823C19.6111 46.2583 18.747 47.468 18.5742 48.8505C19.6687 49.657 21.1664 49.8874 22.4913 49.3114C23.8738 48.7353 24.6803 47.468 24.8531 46.1431Z" fill="#B76E78"/>
<path d="M20.9352 50.175C19.9559 50.175 19.0343 49.887 18.2278 49.3109C18.055 49.1957 17.9398 48.9653 17.9974 48.7925C18.1702 47.1796 19.2071 45.7971 20.7048 45.1634C22.2025 44.5298 23.873 44.7026 25.1979 45.6819C25.3707 45.7971 25.4859 46.0275 25.4283 46.2003C25.2555 47.8132 24.2187 49.1957 22.7209 49.8294C22.2025 50.0598 21.5689 50.175 20.9352 50.175ZM19.2647 48.5621C20.1864 49.0805 21.2808 49.1957 22.2601 48.7349C23.2394 48.3317 23.9306 47.41 24.1611 46.3731C23.2394 45.8547 22.1449 45.7395 21.1656 46.2003C20.1864 46.6611 19.4951 47.5252 19.2647 48.5621Z" fill="black"/>
<path d="M12.3535 46.1431C13.448 45.3367 14.9457 45.1063 16.2706 45.6823C17.5955 46.2583 18.4596 47.468 18.6324 48.8505C17.5379 49.657 16.0402 49.8874 14.7153 49.3114C13.3904 48.7353 12.5263 47.468 12.3535 46.1431Z" fill="#B76E78"/>
<path d="M16.2705 50.175C15.6368 50.175 15.0608 50.0598 14.4847 49.8294C12.987 49.1957 12.0078 47.8132 11.7773 46.2003C11.7773 45.9699 11.8349 45.7971 12.0078 45.6819C13.2751 44.7026 15.0032 44.5298 16.5009 45.1634C17.9986 45.7971 18.9779 47.1796 19.2083 48.7925C19.2083 49.0229 19.1507 49.1957 18.9779 49.3109C18.1714 49.887 17.1921 50.175 16.2705 50.175ZM12.987 46.4307C13.2174 47.4676 13.9087 48.3317 14.888 48.7925C15.8672 49.1957 17.0193 49.1381 17.941 48.6197C17.7106 47.5828 17.0193 46.7188 16.0401 46.2579C15.0608 45.7971 13.9087 45.8547 12.987 46.4307Z" fill="black"/>
<path d="M13.6765 53.6314C13.3309 52.3065 13.6765 50.8664 14.7134 49.8296C15.7502 48.7927 17.1903 48.4471 18.5152 48.7927C18.8609 50.1176 18.5152 51.5577 17.4784 52.5946C16.4415 53.6314 15.0014 53.9771 13.6765 53.6314Z" fill="#B76E78"/>
<path d="M14.6585 54.3802C14.2553 54.3802 13.852 54.3226 13.5064 54.2074C13.276 54.1498 13.1608 53.977 13.1032 53.8042C12.7 52.2489 13.1608 50.5784 14.2553 49.4263C15.4074 48.2742 17.0779 47.871 18.6332 48.2742C18.8636 48.3318 18.9788 48.5046 19.0364 48.6774C19.4396 50.2327 18.9788 51.9033 17.8843 53.0553C17.0203 53.9194 15.8682 54.3802 14.6585 54.3802ZM14.1401 53.1705C15.1769 53.3434 16.2714 52.9977 17.0203 52.2489C17.7691 51.5 18.1148 50.4055 17.9419 49.3687C16.9051 49.1959 15.8106 49.5415 15.0617 50.2903C14.3705 51.0392 14.0249 52.0761 14.1401 53.1705Z" fill="black"/>
<path d="M23.5289 53.6314C23.8745 52.3065 23.5289 50.8664 22.492 49.8296C21.4552 48.7927 20.0151 48.4471 18.6902 48.7927C18.3445 50.1176 18.6902 51.5577 19.727 52.5946C20.7639 53.6314 22.2616 53.9771 23.5289 53.6314Z" fill="#B76E78"/>
<path d="M22.5496 54.3801C21.3399 54.3801 20.1878 53.9193 19.3237 53.0552C18.1717 51.9031 17.7684 50.2326 18.1717 48.6773C18.2293 48.4469 18.4021 48.3317 18.5749 48.2741C20.1302 47.8709 21.8007 48.3317 22.9528 49.4262C24.1049 50.5783 24.5081 52.2488 24.1049 53.8041C24.0473 54.0345 23.8745 54.1497 23.7017 54.2073C23.2984 54.3225 22.9528 54.3801 22.5496 54.3801ZM19.2661 49.311C19.0933 50.3478 19.4389 51.4423 20.1878 52.1912C20.9367 52.94 22.0311 53.2856 23.068 53.1128C23.2408 52.076 22.8952 50.9815 22.1463 50.2326C21.3399 49.4838 20.2454 49.1381 19.2661 49.311Z" fill="black"/>
<path d="M19.8413 48.6775C19.8413 49.3687 19.3228 49.8871 18.6316 49.8871C17.9403 49.8871 17.4219 49.3687 17.4219 48.6775C17.4219 47.9862 17.9403 47.4678 18.6316 47.4678C19.2652 47.4678 19.8413 48.0438 19.8413 48.6775Z" fill="white"/>
<path d="M18.6314 50.5217C17.6522 50.5217 16.8457 49.7152 16.8457 48.7359C16.8457 47.7567 17.6522 46.9502 18.6314 46.9502C19.6107 46.9502 20.4172 47.7567 20.4172 48.7359C20.4172 49.7152 19.6107 50.5217 18.6314 50.5217ZM18.6314 48.1023C18.2858 48.1023 17.9978 48.3903 17.9978 48.7359C17.9978 49.0815 18.2858 49.3696 18.6314 49.3696C18.9771 49.3696 19.2651 49.0815 19.2651 48.7359C19.2075 48.3327 18.9771 48.1023 18.6314 48.1023Z" fill="black"/>
<path d="M27.9054 55.1295V42.1685C27.9054 40.6132 26.6957 39.2883 25.1404 39.2307C25.0828 39.2307 25.0251 39.2307 24.9675 39.2307H24.2187C20.3592 39.2307 17.2486 36.1201 17.2486 32.2606V29.438C17.2486 28.9196 16.8454 28.5163 16.3269 28.5163H15.8661C15.1748 28.5163 14.714 27.7099 15.1172 27.1338L16.3845 25.0025C16.9606 24.0808 17.2486 23.0439 17.2486 21.9495V14.8641C17.2486 9.79497 21.3385 5.70508 26.35 5.70508H42.2488V55.1295" fill="#FFD298"/>
<path d="M42.2483 20.3365V5.70508H26.3495C21.3379 5.70508 17.248 9.79497 17.248 14.8641V20.3365H42.2483Z" fill="#DFB278"/>
<path d="M42.2505 55.7054C41.9049 55.7054 41.6744 55.4174 41.6744 55.1293V6.28099H26.3517C21.6282 6.28099 17.8263 10.0829 17.8263 14.8064V21.9493C17.8263 23.1014 17.4807 24.3111 16.9046 25.2904L15.6374 27.3641C15.5221 27.5369 15.5798 27.6521 15.6374 27.7097C15.6374 27.7673 15.7526 27.8826 15.9254 27.8826H16.3862C17.1927 27.8826 17.8839 28.5738 17.8839 29.3803V32.2029C17.8839 35.7167 20.7641 38.5969 24.278 38.5969H25.0268H25.1996C27.043 38.6545 28.5407 40.2098 28.5407 42.1108V55.0717C28.5407 55.4173 28.2527 55.6478 27.9646 55.6478C27.619 55.6478 27.3886 55.3597 27.3886 55.0717V42.1684C27.3886 40.9011 26.4093 39.8642 25.1996 39.8066H24.3356C20.1881 39.8066 16.7318 36.408 16.7318 32.2029V29.3803C16.7318 29.2075 16.559 29.0346 16.3862 29.0346H15.8678C15.2917 29.0346 14.8309 28.7466 14.5429 28.2858C14.2549 27.825 14.3125 27.2489 14.6005 26.7881L15.8678 24.7143C16.3862 23.9079 16.6742 22.9862 16.6742 22.0069V14.864C16.6742 9.50682 20.9945 5.12891 26.3517 5.12891H42.2505C42.5961 5.12891 42.8265 5.41693 42.8265 5.70495V55.1293C42.8265 55.475 42.5385 55.7054 42.2505 55.7054Z" fill="black"/>
<path d="M52.2714 61.8691V16.8227C52.2714 10.659 47.3174 5.70508 41.1538 5.70508H26.3495C21.3379 5.70508 17.248 9.79497 17.248 14.8641V18.0324H23.8149C26.4647 18.0324 28.5961 20.1637 28.5961 22.8135V26.673C28.5961 28.9772 30.4394 30.8781 32.8012 30.8781C34.0109 30.8781 34.9901 31.8574 34.9901 33.0671V54.6686C34.9901 59.4498 38.8496 63.2516 43.5732 63.2516" fill="#4D4A46"/>
<path d="M41.156 8.64232H40.6952C40.3496 8.64232 40.1191 8.3543 40.1191 8.06628C40.1191 7.72065 40.4072 7.49023 40.6952 7.49023H41.156C41.5016 7.49023 41.7321 7.77826 41.7321 8.06628C41.7321 8.4119 41.5016 8.64232 41.156 8.64232Z" fill="#7D7B7A"/>
<path d="M19.6112 16.2461C19.2656 16.2461 19.0352 15.958 19.0352 15.67V14.8636C19.0352 10.8313 22.3186 7.49023 26.4085 7.49023H38.5054C38.851 7.49023 39.0814 7.77826 39.0814 8.06628C39.0814 8.4119 38.7934 8.64232 38.5054 8.64232H26.4085C23.0098 8.64232 20.2448 11.4073 20.2448 14.806V15.6124C20.1872 15.958 19.8992 16.2461 19.6112 16.2461Z" fill="#7D7B7A"/>
<path d="M45.6487 63.8276H43.5174C38.4482 63.8276 34.3583 59.6801 34.3583 54.6109V33.0669C34.3583 32.2029 33.6671 31.454 32.7454 31.454C30.0956 31.454 27.9642 29.3227 27.9642 26.6729V22.8134C27.9642 20.5092 26.0633 18.6083 23.7591 18.6083H17.2499C16.9042 18.6083 16.6738 18.3203 16.6738 18.0322V14.864C16.6738 9.50682 20.9941 5.12891 26.3513 5.12891H41.1556C47.6073 5.12891 52.8493 10.3709 52.8493 16.8226V32.3757C52.8493 32.7213 52.5612 32.9517 52.2732 32.9517C51.9276 32.9517 51.6972 32.6637 51.6972 32.3757V16.8226C51.6972 11.0045 46.9736 6.28099 41.1556 6.28099H26.3513C21.6278 6.28099 17.8259 10.0829 17.8259 14.8064V17.3986H23.7591C26.7546 17.3986 29.1163 19.818 29.1163 22.8134V26.6729C29.1163 28.6314 30.7292 30.2443 32.6878 30.2443C34.2431 30.2443 35.4528 31.5116 35.4528 33.0093V54.6685C35.4528 59.104 39.0242 62.6755 43.4598 62.6755H45.5911C45.9367 62.6755 46.1672 62.9635 46.1672 63.2515C46.2248 63.5971 45.9944 63.8276 45.6487 63.8276Z" fill="black"/>
<path d="M37.9862 52.3066C37.6406 52.3066 37.4102 52.0185 37.4102 51.7305V26.6151C37.4102 26.2695 37.6982 26.0391 37.9862 26.0391C38.3318 26.0391 38.5622 26.3271 38.5622 26.6151V51.7305C38.5622 52.0185 38.3318 52.3066 37.9862 52.3066Z" fill="#7D7B7A"/>
<path d="M41.1561 32.9516C40.8105 32.9516 40.5801 32.6635 40.5801 32.3755V26.6151C40.5801 26.2695 40.8681 26.0391 41.1561 26.0391C41.5017 26.0391 41.7322 26.3271 41.7322 26.6151V32.3755C41.7898 32.6635 41.5017 32.9516 41.1561 32.9516Z" fill="#7D7B7A"/>
<path d="M44.2089 32.9516C43.8632 32.9516 43.6328 32.6635 43.6328 32.3755V26.6151C43.6328 26.2695 43.9208 26.0391 44.2089 26.0391C44.5545 26.0391 44.7849 26.3271 44.7849 26.6151V32.3755C44.7849 32.6635 44.4969 32.9516 44.2089 32.9516Z" fill="#7D7B7A"/>
<path d="M44.2089 24.3111C43.8632 24.3111 43.6328 24.0231 43.6328 23.7351V23.2167C43.6328 22.871 43.9208 22.6406 44.2089 22.6406C44.5545 22.6406 44.7849 22.9286 44.7849 23.2167V23.7351C44.7849 24.0231 44.4969 24.3111 44.2089 24.3111Z" fill="#7D7B7A"/>
<path d="M41.1561 24.3111C40.8105 24.3111 40.5801 24.0231 40.5801 23.7351V23.2167C40.5801 22.871 40.8681 22.6406 41.1561 22.6406C41.5017 22.6406 41.7322 22.9286 41.7322 23.2167V23.7351C41.7898 24.0231 41.5017 24.3111 41.1561 24.3111Z" fill="#7D7B7A"/>
<path d="M37.9862 24.3111C37.6406 24.3111 37.4102 24.0231 37.4102 23.7351V23.2167C37.4102 22.871 37.6982 22.6406 37.9862 22.6406C38.3318 22.6406 38.5622 22.9286 38.5622 23.2167V23.7351C38.5622 24.0231 38.3318 24.3111 37.9862 24.3111Z" fill="#7D7B7A"/>
<path d="M53.8849 63.2513V47.0069V45.7397V36.7534C53.8849 35.4861 52.848 34.5068 51.6384 34.5068H46.6268C45.3595 34.5068 44.3802 35.5437 44.3802 36.7534V41.8226C44.3802 41.0737 43.7466 40.4401 42.9977 40.4401C42.2489 40.4401 41.6152 41.0737 41.6152 41.8226V45.5092C41.6152 46.8341 42.4217 48.0438 43.6314 48.6199C44.8411 49.1383 45.6475 50.348 45.6475 51.7305V63.3089" fill="#DFB278"/>
<path d="M53.8848 63.8272C53.5392 63.8272 53.3088 63.5392 53.3088 63.2512V36.7533C53.3088 35.8316 52.5599 35.0827 51.6382 35.0827H46.6267C45.705 35.0827 44.9561 35.8316 44.9561 36.7533V41.8224C44.9561 42.168 44.6681 42.3985 44.3801 42.3985C44.0345 42.3985 43.8041 42.1104 43.8041 41.8224C43.8041 41.3616 43.4584 41.016 42.9976 41.016C42.5368 41.016 42.1911 41.3616 42.1911 41.8224V45.5091C42.1911 46.6036 42.8248 47.6404 43.8617 48.0437C45.3018 48.6773 46.2234 50.1174 46.2234 51.6727V63.2512C46.2234 63.5968 45.9354 63.8272 45.6474 63.8272C45.3594 63.8272 45.0714 63.5392 45.0714 63.2512V51.6727C45.0714 50.5783 44.4377 49.5414 43.4008 49.1382C41.9607 48.5045 41.0391 47.0644 41.0391 45.5091V41.8224C41.0391 40.7279 41.9031 39.8639 42.9976 39.8639C43.2856 39.8639 43.516 39.9215 43.8041 40.0367V36.7533C43.8041 35.1979 45.0714 33.873 46.6843 33.873H51.6958C53.2511 33.873 54.576 35.1403 54.576 36.7533V63.2512C54.4608 63.5968 54.2304 63.8272 53.8848 63.8272Z" fill="black"/>
<path d="M44.3241 45.5098C43.9785 45.5098 43.748 45.2218 43.748 44.9337V41.8231C43.748 41.4775 44.0361 41.2471 44.3241 41.2471C44.6697 41.2471 44.9001 41.5351 44.9001 41.8231V44.9337C44.9577 45.2794 44.6697 45.5098 44.3241 45.5098Z" fill="black"/>
<path d="M47.6073 40.3247C47.2617 40.3247 47.0312 40.0367 47.0312 39.7487V34.5067C47.0312 34.1611 47.3193 33.9307 47.6073 33.9307C47.9529 33.9307 48.1833 34.2187 48.1833 34.5067V39.7487C48.2409 40.0367 47.9529 40.3247 47.6073 40.3247Z" fill="black"/>
<path d="M50.66 40.3247C50.3144 40.3247 50.084 40.0367 50.084 39.7487V34.5067C50.084 34.1611 50.372 33.9307 50.66 33.9307C51.0057 33.9307 51.2361 34.2187 51.2361 34.5067V39.7487C51.2361 40.0367 51.0057 40.3247 50.66 40.3247Z" fill="black"/>
<path d="M22.3755 22.1801C22.2027 22.1801 22.0298 22.1225 21.9146 21.9497C20.8778 20.6248 18.6888 20.6248 17.7095 21.9497C17.5367 22.2377 17.1335 22.2953 16.9031 22.0649C16.615 21.8921 16.615 21.4889 16.7879 21.2584C17.4791 20.2792 18.6312 19.7031 19.8409 19.7031C21.0506 19.7031 22.2027 20.2792 22.8939 21.2584C23.0667 21.5465 23.0091 21.8921 22.7787 22.0649C22.6635 22.1225 22.4907 22.1801 22.3755 22.1801Z" fill="black"/>
<path d="M19.6697 24.7719C20.3059 24.7719 20.8217 24.2561 20.8217 23.6199C20.8217 22.9836 20.3059 22.4678 19.6697 22.4678C19.0334 22.4678 18.5176 22.9836 18.5176 23.6199C18.5176 24.2561 19.0334 24.7719 19.6697 24.7719Z" fill="black"/>
</svg>
