<svg width="68" height="68" viewBox="0 0 68 68" fill="none" xmlns="http://www.w3.org/2000/svg">
<path d="M44.9798 14.0381H23.0215V33.0021H44.9798V14.0381Z" fill="#B76E78"/>
<path d="M36.9936 50.9681V44.9795H31.005V50.9681H21.0239C16.6322 50.9681 13.0391 54.5613 13.0391 58.953V62.9454H54.9595V58.953C54.9595 54.5613 51.3663 50.9681 46.9747 50.9681H36.9936Z" fill="#FFD298"/>
<path d="M34.0007 46.9763C27.9122 46.9763 23.0215 42.0855 23.0215 35.9971V30.0085C23.0215 23.92 27.9122 19.0293 34.0007 19.0293C40.0891 19.0293 44.9798 23.92 44.9798 30.0085V35.9971C44.9798 42.0855 40.0891 46.9763 34.0007 46.9763Z" fill="#FFD298"/>
<path d="M31.0078 9.04785H38.8928C40.8891 9.04785 42.8853 9.5469 44.6819 10.545L44.7817 10.6448C48.5745 12.7408 50.9699 16.7333 50.9699 21.1249V22.4225C50.9699 26.0157 49.373 29.3094 46.6781 31.605L44.9813 33.0024V27.2134C44.9813 22.2228 41.8872 17.8312 37.2959 16.0346L36.7968 15.835C33.8025 14.7371 31.6067 12.142 31.0078 9.04785Z" fill="#B76E78"/>
<path d="M36.9953 9.04785H29.1103C27.1141 9.04785 25.1179 9.5469 23.3213 10.545L23.2215 10.6448C19.4287 12.7408 17.0332 16.7333 17.0332 21.1249V22.4225C17.0332 26.0157 18.6302 29.3094 21.3251 31.605L23.0218 33.0024V27.2134C23.0218 22.2228 26.116 17.8312 30.7073 16.0346L31.2063 15.835C34.2006 14.7371 36.3965 12.142 36.9953 9.04785Z" fill="#B76E78"/>
<path d="M51.4675 24.7184L49.4712 31.4057C49.1718 32.4038 48.4731 33.3021 47.475 33.8011L44.9798 34.9988V23.0216L42.0853 27.4132C41.4864 28.3115 40.2887 28.5112 39.3904 27.9123C38.5919 27.4132 38.2925 26.3153 38.6917 25.5168L41.8856 19.0291L43.8818 14.0386L42.8837 5.05566H51.8667V21.225C51.9665 22.4227 51.7669 23.6204 51.4675 24.7184Z" fill="#DFB278"/>
<path d="M16.5342 24.7184L18.5304 31.4057C18.8299 32.4038 19.5285 33.3021 20.5266 33.8011L23.0219 35.0987V23.1214L25.9164 27.5131C26.5153 28.4113 27.713 28.611 28.6113 28.0121C29.4098 27.5131 29.7092 26.4151 29.31 25.6166L26.0162 19.0291L24.02 14.0386L25.0181 5.05566H16.0352V21.225C16.0352 22.4227 16.2348 23.6204 16.5342 24.7184Z" fill="#DFB278"/>
<path d="M46.9767 49.9705H37.9937V47.2756C42.6848 45.5788 45.9786 41.1872 45.9786 35.997V35.5978L47.875 34.5997C49.0727 34.0008 49.971 32.9029 50.3702 31.6053L52.3664 24.918C52.7657 23.7203 52.8655 22.4228 52.8655 21.225V5.05572C52.8655 4.45686 52.4663 4.05762 51.8674 4.05762H42.8844C42.585 4.05762 42.2856 4.15743 42.1858 4.35705C41.9861 4.55667 41.8863 4.8561 41.9862 5.15553L42.3854 8.54909C41.2875 8.24966 40.0897 8.05004 38.892 8.05004H36.9956H31.007H29.1106C27.9129 8.05004 26.7151 8.24966 25.6172 8.54909L26.0165 5.15553C26.0165 4.8561 25.9166 4.55667 25.8168 4.35705C25.6172 4.15743 25.3178 4.05762 25.1182 4.05762H16.1352C15.5363 4.05762 15.1371 4.45686 15.1371 5.05572V21.225C15.1371 22.5226 15.3367 23.7203 15.6362 24.918L17.6324 31.6053C18.0316 32.9029 18.9299 34.0008 20.1276 34.5997L22.024 35.5978V35.997C22.024 41.1872 25.3178 45.5788 30.0089 47.2756V49.9705H21.0259C16.0354 49.9705 12.043 53.9629 12.043 58.9535V62.9459C12.043 63.5447 12.4422 63.944 13.0411 63.944H54.9615C55.5604 63.944 55.9596 63.5447 55.9596 62.9459V58.9535C55.9596 53.9629 51.9672 49.9705 46.9767 49.9705ZM50.9691 6.05383V21.225C50.9691 22.323 50.7695 23.3211 50.4701 24.419L48.4738 31.1063C48.2742 31.9048 47.6754 32.5036 46.9767 32.9029L45.9786 33.4019V31.805V23.0216C45.9786 22.6224 45.6791 22.2231 45.2799 22.0235C45.1801 22.0235 45.0803 22.0235 44.9805 22.0235C44.681 22.0235 44.3816 22.2231 44.182 22.4228L41.2875 26.8144C41.1877 27.0141 40.988 27.1139 40.6886 27.2137C40.489 27.2137 40.1896 27.2137 39.9899 27.1139C39.5907 26.8144 39.4909 26.3154 39.6905 25.9161L42.9843 19.3286L44.9805 14.3381C45.0803 14.1385 45.0803 14.0387 45.0803 13.8391L44.182 5.95402H50.9691V6.05383ZM27.314 19.4285C28.4119 18.4303 29.6096 17.532 31.007 17.033L31.506 16.8334C32.4043 16.5339 33.2028 16.0349 33.9015 15.5358C34.6002 16.0349 35.3987 16.5339 36.2969 16.8334L36.796 17.033C38.1934 17.532 39.4909 18.4303 40.489 19.4285L40.2894 19.9275C38.393 18.7298 36.1971 18.0311 33.9015 18.0311C31.6058 18.0311 29.41 18.63 27.5136 19.9275L27.314 19.4285ZM42.585 10.7449L42.9843 13.9389L41.5869 17.532C40.489 16.5339 39.1915 15.7355 37.6943 15.2364L37.1952 15.0368C36.5964 14.8372 36.0973 14.5377 35.5983 14.2383C36.5964 13.1404 37.3949 11.743 37.7941 10.1461H38.892C40.1896 10.0463 41.3873 10.2459 42.585 10.7449ZM29.1106 10.0463H31.007H35.6981C34.8996 12.2421 33.2028 14.0387 30.9072 14.937L30.4081 15.1366C29.0108 15.6356 27.7132 16.4341 26.5155 17.4322L25.1182 13.8391L25.5174 10.6451C26.6153 10.2459 27.8131 10.0463 29.1106 10.0463ZM21.0259 32.9029C20.3272 32.5036 19.7284 31.9048 19.5288 31.1063L17.5326 24.419C17.2331 23.4209 17.0335 22.323 17.0335 21.225V6.05383H23.9204L23.0221 13.9389C23.0221 14.1385 23.0221 14.2383 23.122 14.4379L25.1182 19.5283L28.3121 26.016C28.5117 26.4152 28.4119 26.9142 28.0127 27.2137C27.813 27.3135 27.6134 27.4133 27.314 27.3135C27.1144 27.3135 26.9147 27.1139 26.7151 26.9142L23.8206 22.5226C23.621 22.1233 23.1219 22.0235 22.7227 22.1233C22.3235 22.2231 22.024 22.6224 22.024 23.1214V32.1044V33.5017L21.0259 32.9029ZM24.0202 35.997V34.9989V32.0046V26.3154L25.1182 28.0122C26.0165 29.3097 27.8131 29.7089 29.1106 28.8107C30.3083 28.0122 30.7076 26.4152 30.1087 25.1177L28.4119 21.7241C30.0089 20.6262 31.9053 20.0273 33.9015 20.0273C35.8977 20.0273 37.7941 20.6262 39.3911 21.7241L37.6943 25.1177C36.9956 26.4152 37.4947 28.0122 38.6924 28.8107C39.9899 29.7089 41.7865 29.3097 42.6848 28.0122L43.7827 26.3154V31.805V34.9989V35.997C43.7827 41.4866 39.2913 45.9781 33.8017 45.9781C28.3121 45.9781 24.0202 41.4866 24.0202 35.997ZM53.9634 61.9478H48.9729V58.9535C48.9729 58.3546 48.5737 57.9553 47.9748 57.9553C47.3759 57.9553 46.9767 58.3546 46.9767 58.9535V61.9478H21.0259V58.9535C21.0259 58.3546 20.6267 57.9553 20.0278 57.9553C19.429 57.9553 19.0297 58.3546 19.0297 58.9535V61.9478H14.0392V58.9535C14.0392 55.0608 17.1333 51.9667 21.0259 51.9667H31.007C31.6058 51.9667 32.0051 51.5675 32.0051 50.9686V47.7747C32.7038 47.8745 33.3026 47.9743 34.0013 47.9743C34.7 47.9743 35.2988 47.8745 35.9975 47.7747V50.9686C35.9975 51.5675 36.3968 51.9667 36.9956 51.9667H46.9767C50.8693 51.9667 53.9634 55.0608 53.9634 58.9535V61.9478Z" fill="black"/>
<path d="M31.7048 30.3072C31.3056 29.908 30.7067 29.908 30.3075 30.3072C29.6088 31.0059 28.4111 31.0059 27.7124 30.3072C27.3132 29.908 26.7143 29.908 26.3151 30.3072C25.9158 30.7065 25.9158 31.3053 26.3151 31.7046C27.0137 32.4033 28.0118 32.8025 29.0099 32.8025C30.008 32.8025 31.0061 32.4033 31.7048 31.7046C32.1041 31.3053 32.1041 30.7065 31.7048 30.3072Z" fill="black"/>
<path d="M38.9924 32.8025C39.9905 32.8025 40.9886 32.4033 41.6872 31.7046C42.0865 31.3053 42.0865 30.7065 41.6872 30.3072C41.288 29.908 40.6891 29.908 40.2899 30.3072C39.5912 31.0059 38.3935 31.0059 37.6948 30.3072C37.2956 29.908 36.6967 29.908 36.2975 30.3072C35.8982 30.7065 35.8982 31.3053 36.2975 31.7046C36.9962 32.5031 37.9943 32.8025 38.9924 32.8025Z" fill="black"/>
<path d="M37.5954 42.7842C38.0945 42.4847 38.1943 41.8859 37.8949 41.3868C37.5954 40.8877 36.9966 40.7879 36.4975 41.0874C35.0004 42.0855 33.104 42.0855 31.6068 41.0874C31.1077 40.7879 30.5089 40.8877 30.2094 41.3868C29.91 41.8859 30.0098 42.4847 30.5089 42.7842C31.6068 43.4828 32.8045 43.8821 34.1021 43.8821C35.3996 43.8821 36.4975 43.5826 37.5954 42.7842Z" fill="black"/>
</svg>
