<svg width="69" height="69" viewBox="0 0 69 69" fill="none" xmlns="http://www.w3.org/2000/svg">
<path d="M1.78125 41.7344C1.11328 41.6211 0.890625 41.1758 0.890625 40.3984C0.890625 37.1719 0.890625 33.9453 0.890625 30.7148C0.890625 29.1562 1.55859 27.6016 1.89062 26.043C2.67188 22.7031 3.5625 19.2539 4.33984 15.9141C5.00781 13.1328 6.78906 11.6836 9.68359 11.6836C24.1484 11.6836 38.6172 11.6836 53.0859 11.6836C53.6406 11.6836 54.1992 11.6836 54.4219 12.3516C54.6445 13.2422 54.3086 13.8008 53.3086 13.8008C52.9727 13.8008 52.6406 13.8008 52.418 13.8008C38.2852 13.8008 24.0391 13.8008 9.90625 13.8008C8.90234 13.8008 8.01172 13.9102 7.23438 14.6914C6.89844 15.0234 6.67578 15.4687 6.56641 16.0273C5.45312 20.6992 4.33984 25.375 3.22656 30.0469C3.11719 30.7148 3.22656 31.3828 3.44922 31.9414C4.00781 32.9414 4.89844 33.3867 6.00781 33.5C6.34375 33.5 6.56641 33.5 6.89844 33.5C25.4844 33.5 43.9609 33.5 62.5469 33.5C62.9922 33.5 63.5469 33.5 63.9922 33.3867C65.6602 32.9414 66.5508 31.6055 66.2188 29.9375C65.8828 28.3789 65.5508 26.8203 65.1055 25.375C64.4375 22.4805 63.6562 19.5859 62.9922 16.6953C62.5469 14.6914 61.3203 13.6875 59.3164 13.9102C59.207 13.9102 58.9844 13.9102 58.8711 13.9102C58.6484 13.9102 58.4258 13.9102 58.2031 13.9102C57.3164 13.8008 57.0938 13.2422 57.3164 12.4648C57.5352 11.9062 57.9805 11.7969 58.4258 11.7969C59.3164 11.7969 60.207 11.6836 61.0977 11.9062C63.1016 12.3516 64.4375 13.5781 64.9922 15.4688C66.2187 20.2539 67.332 25.1523 68.4453 29.9375L68.5547 30.0469C68.5547 30.1602 68.5547 30.2695 68.5547 30.2695C68.4453 30.4922 68.4453 30.7148 68.4453 30.9375C68.4453 38.0625 68.4453 45.0742 68.4453 52.1953C68.4453 52.418 68.332 52.6406 68.5547 52.8633C68.5547 52.9727 68.5547 53.0859 68.5547 53.3086C68.332 53.418 68.4453 53.6406 68.332 53.8633C67.6641 55.9805 65.7734 57.4258 63.5469 57.4258C44.4062 57.4258 25.375 57.4258 6.23047 57.4258C3.44922 57.4258 1.22266 55.1992 1.22266 52.418C1.22266 50.1914 1.22266 47.8555 1.22266 45.6289C1.22266 44.9609 1.44531 44.5156 2.11328 44.293C2.78125 44.1836 3.22656 44.5156 3.33984 45.1836C3.44922 45.6289 3.33984 46.1836 3.33984 46.6289C3.33984 48.4102 4.11719 49.4141 5.78516 49.8594C6.12109 49.9688 6.34375 49.9688 6.67578 49.9688C24.3711 49.9688 42.1797 49.9688 59.875 49.9688C60.875 49.9688 61.9883 49.9688 62.9922 49.9688C65.1055 49.9688 66.3281 48.7461 66.3281 46.6289C66.3281 44.9609 66.3281 43.293 66.3281 41.6211C66.3281 40.9531 66.2188 40.9531 65.6602 41.1758C64.7695 41.6211 63.7695 41.7344 62.7695 41.6211C61.0977 41.6211 59.4297 41.6211 57.7578 41.6211C40.6211 41.6211 23.4805 41.6211 6.34375 41.6211C5.45312 41.6211 4.5625 41.5117 3.78516 41.0664C3.44922 40.9531 3.33984 40.9531 3.22656 41.2891C2.55859 41.7344 2.33594 41.8438 1.78125 41.7344Z" fill="#010101"/>
<path d="M68.2227 52.75C68 52.5273 68.1094 52.3047 68.1094 52.082C68.1094 45.0742 68.1094 37.9492 68.1094 30.9375C68.1094 30.7148 68 30.4922 68.2227 30.2695C68.2227 37.8398 68.2227 45.2969 68.2227 52.75Z" fill="#070707"/>
<path d="M56.9805 12.3516C56.9805 13.4648 57.2031 13.5781 58.5391 13.6875C58.9844 14.1328 59.0937 14.6914 58.9844 15.3594C58.3164 15.6914 57.7578 15.9141 57.6484 16.8047C57.6484 17.1406 57.2031 17.25 56.8711 17.25C56.5351 17.25 56.3125 17.1406 56.0898 16.8047C55.9805 16.582 55.9805 16.3594 55.8672 16.1367C55.6445 15.8047 55.4219 15.582 54.9766 15.6914C54.5312 15.8047 54.4219 16.1367 54.3086 16.4727C54.3086 17.3594 54.6445 18.0273 55.4219 18.4727C56.2031 19.0313 57.0937 19.0313 57.8711 18.5859C58.2031 18.4727 58.4258 18.1406 58.6484 17.918C58.7617 17.8047 58.8711 17.582 59.207 17.582C59.5391 17.6953 59.5391 17.918 59.6523 18.25C59.9844 19.9219 60.543 21.5898 60.875 23.2578C61.0976 24.3711 61.0976 25.5977 60.7656 26.7109C60.6523 27.1563 60.543 27.4883 60.0976 27.6016C59.6523 27.8242 59.3164 28.0469 59.3164 28.6016C59.207 29.0469 58.9844 29.2695 58.5391 29.3789C58.0937 29.3789 57.8711 29.1562 57.6484 28.8242C57.5351 28.7148 57.5351 28.4922 57.4258 28.3789C57.3164 27.9336 56.9805 27.8242 56.5351 27.8242C56.0898 27.9336 55.8672 28.1563 55.8672 28.6016C55.8672 29.3789 56.2031 30.0469 56.8711 30.6055C57.0937 30.7148 57.5351 30.8281 57.2031 31.2734C56.0898 32.0508 54.9766 32.3867 53.6406 32.3867C51.8594 32.3867 50.1914 32.3867 48.4101 32.3867C33.6094 32.3867 18.918 32.3867 4.11718 32.3867C3.67187 32.3867 3.22655 32.4961 2.89452 32.1641C2.44921 31.6055 2.44921 30.9375 2.55859 30.1602C3.67187 25.375 4.78515 20.6992 6.0078 15.9141C6.34374 14.4688 7.5664 13.6875 9.12499 13.6875C23.4805 13.6875 37.8398 13.6875 52.3047 13.6875C52.418 13.6875 52.6406 13.6875 52.75 13.6875C53.7539 13.6875 54.0859 13.3555 53.9766 12.3516C54.0859 12.4648 54.1992 12.6875 54.4219 12.5742C54.9766 12.5742 55.6445 12.5742 56.2031 12.5742C56.7578 12.6875 56.8711 12.5742 56.9805 12.3516Z" fill="#80CBF1"/>
<path d="M1.78125 41.7344C2.67188 41.5117 2.67188 41.3984 2.89453 40.2852C3.78516 40.8438 4.78516 41.2891 5.89844 41.2891C6.12109 41.3984 6.45312 41.2891 6.67578 41.2891C24.8164 41.2891 42.957 41.2891 61.0977 41.2891C62.2109 41.2891 62.3242 41.5117 61.9883 42.625C61.7656 42.957 61.3203 42.8477 60.9883 42.8477C59.9844 42.8477 59.3164 43.1797 58.7617 43.9609C58.4258 44.4062 58.0938 44.7383 57.4258 44.7383C57.2031 44.7383 56.8711 44.8516 56.7578 44.9609C56.5352 45.1836 56.4258 45.4062 56.5352 45.7422C56.6484 46.0742 56.8711 46.1836 57.0938 46.2969C57.3164 46.2969 57.5352 46.2969 57.7578 46.2969C58.0938 46.2969 58.3164 46.4062 58.5391 46.7422C58.9844 47.5195 59.5391 47.9648 60.3203 48.3008C60.543 48.4102 60.6523 48.4102 60.7656 48.7461C60.543 49.6367 60.207 49.9688 59.3164 49.9688C41.5117 49.9688 23.7031 49.9688 6.00781 49.9688C5.78516 49.9688 5.56641 49.9688 5.34375 49.9688C3.89453 49.7461 2.89453 48.5234 2.89453 47.1875C2.89453 46.6289 2.89453 46.1836 2.89453 45.6289C2.89453 44.7383 2.67188 44.5156 1.89062 44.293C1.78125 43.293 1.78125 42.5117 1.78125 41.7344Z" fill="#808A94"/>
<path d="M61.8789 39.1758C61.7656 39.1758 61.543 39.1758 61.4336 39.1758C42.957 39.1758 24.5937 39.1758 6.12109 39.1758C4.33984 39.1758 3.11718 38.1719 2.89452 36.6133C2.78124 36.0586 2.89452 35.3906 2.89452 34.7227C4.45312 35.9453 6.23046 35.7227 8.01171 35.7227C25.707 35.7227 43.4023 35.7227 61.2109 35.7227C61.543 35.7227 61.7656 35.7227 62.1016 35.7227C62.2109 35.8359 62.3242 36.0586 62.3242 36.2812C62.3242 37.0586 62.3242 37.8398 62.3242 38.6172C62.1016 38.8398 61.9883 39.0625 61.8789 39.1758Z" fill="#2D57A7"/>
<path d="M60.0977 27.4883C61.0977 27.043 60.875 26.1523 60.9883 25.375C61.2109 23.4805 60.543 21.8125 60.207 20.0312C60.0977 19.3633 59.875 18.6953 59.7617 18.0273C59.7617 17.8047 59.6523 17.6953 59.5391 17.582C59.4297 17.4727 59.4297 17.4727 59.4297 17.3594C59.6523 16.582 59.5391 16.0273 59.0938 15.3594C59.0938 14.8008 58.8711 14.2461 58.7617 13.5781C59.0937 13.5781 59.5391 13.5781 59.875 13.5781C61.4336 13.5781 62.5469 14.4687 62.9922 15.9141C64.1016 20.4766 65.2148 25.1523 66.3281 29.7148C66.8867 31.9414 65.4375 33.7227 63.1016 33.7227C44.1836 33.7227 25.2617 33.7227 6.34375 33.7227C5.00781 33.7227 4.00781 33.2773 3.44922 32.0508C20.2539 32.0508 36.9492 32.0508 53.7539 32.0508C55.1992 32.0508 56.6484 31.7188 57.8711 30.9375C58.0937 30.7148 58.4258 30.9375 58.6484 30.9375C59.875 31.0508 61.0977 30.1602 61.4336 28.9336C61.543 28.2695 61.4336 27.9336 60.7656 27.6016C60.207 27.6016 60.0977 27.6016 60.0977 27.4883Z" fill="#2D57A7"/>
<path d="M57.5352 51.8594C58.9844 51.8594 60.4297 51.8594 61.8789 51.8594C63.4336 51.8594 64.8828 51.8594 66.2188 50.8594C66.2188 51.6406 66.3281 52.418 66.1055 53.0859C65.7734 54.4219 64.6602 55.3125 63.2148 55.3125C63.1016 55.3125 62.9922 55.3125 62.7695 55.3125C43.8477 55.3125 24.9297 55.3125 6.00781 55.3125C4.67578 55.3125 3.67187 54.8672 3.11719 53.7539C3.5625 53.418 4.00781 53.5312 4.45312 53.5312C12.2422 53.5312 20.0312 53.5312 27.7109 53.5312C35.3906 53.5312 43.0703 53.5312 50.75 53.5312C52.8633 53.5312 54.8672 53.3086 56.7578 52.1953C56.9805 52.082 57.3164 52.082 57.5352 51.8594Z" fill="#2A377F"/>
<path d="M57.5352 51.8594C56.5352 52.6406 55.3125 53.1953 53.9766 53.418C52.9727 53.6406 51.8594 53.6406 50.8594 53.6406C34.9453 53.6406 19.0313 53.6406 3.22656 53.6406C2.67188 52.75 2.89453 51.75 2.78125 50.75C4.23047 51.8594 5.78516 51.75 7.34375 51.75C23.8164 51.75 40.1758 51.75 56.6484 51.75C56.9805 51.8594 57.2031 51.8594 57.5352 51.8594Z" fill="#2D57A7"/>
<path d="M61.7656 42.625C62.1016 42.2891 61.8789 41.957 61.8789 41.5117C61.8789 41.2891 61.7656 41.2891 61.543 41.2891C61.3203 41.2891 61.0977 41.2891 60.875 41.2891C42.7344 41.2891 24.707 41.2891 6.56641 41.2891C6.34375 41.2891 6.00781 41.3984 5.78516 41.1758C6.00781 41.1758 6.34375 41.1758 6.56641 41.1758C24.8164 41.1758 43.0703 41.1758 61.2109 41.1758C61.3203 41.1758 61.4336 41.1758 61.543 41.1758C63.1016 41.2891 64.6602 41.2891 66.2188 40.1758C66.2188 41.1758 66.2188 42.0664 66.2188 42.8477C66.2188 44.0703 66.2188 45.2969 66.2188 46.6289C66.2188 48.5234 64.8828 49.8594 62.9922 49.8594C61.7656 49.8594 60.4297 49.8594 59.207 49.8594C41.6211 49.8594 23.9258 49.8594 6.34375 49.8594C6.00781 49.8594 5.56641 49.9687 5.23047 49.7461C5.56641 49.7461 5.89844 49.7461 6.23047 49.7461C23.8164 49.7461 41.3984 49.7461 58.9844 49.7461C59.7617 49.7461 60.207 49.3008 60.4297 48.4102C60.543 48.1875 60.7656 48.1875 60.9883 48.1875C62.2109 48.0781 63.2148 47.2969 63.4336 46.0742C63.7695 44.7383 63.2148 43.625 62.1016 42.957C62.1016 42.957 61.7656 42.957 61.7656 42.625Z" fill="#5F6C75"/>
<path d="M61.8789 39.1758C61.8789 38.0625 61.8789 36.9492 61.8789 35.7227C62.7695 35.7227 63.5469 35.7227 64.4375 35.5C65.1055 35.3906 65.6602 35.0547 66.1055 34.7227C66.5508 36.9492 65.6602 38.6172 63.7695 39.0625C63.2148 39.2852 62.5469 39.2852 61.8789 39.1758Z" fill="#2A377F"/>
<path d="M23.4805 25.1523C22.1484 25.1523 21.0352 24.1484 20.8125 22.8164C20.6992 22.1484 21.0352 21.5898 21.5898 21.4805C22.1484 21.3672 22.5937 21.7031 22.7031 22.4805C22.8164 22.9258 23.0352 23.1484 23.4805 23.1484C23.9258 23.1484 24.1484 22.8164 24.1484 22.4805C24.2617 21.8125 24.707 21.3672 25.2617 21.4805C25.8203 21.5898 26.1523 22.1484 26.043 22.8164C25.9297 24.1484 24.8164 25.1523 23.4805 25.1523Z" fill="#010101"/>
<path d="M14.1328 28.8242C14.1328 30.0469 12.9102 31.1602 11.4648 31.1602C10.0156 31.1602 8.79297 29.9375 8.79297 28.6016C8.79297 28.0469 9.125 27.6016 9.68359 27.6016C10.2383 27.6016 10.6836 27.8242 10.7969 28.3789C10.9062 28.8242 11.0195 29.2695 11.5742 29.2695C12.1289 29.2695 12.2422 28.9336 12.3516 28.3789C12.4648 27.7109 12.9102 27.4883 13.4648 27.6016C13.9102 27.6016 14.1328 28.0469 14.1328 28.8242Z" fill="#010101"/>
<path d="M24.0391 19.1406C22.7031 19.1406 21.4805 18.0273 21.3672 16.6953C21.3672 16.0273 21.5898 15.582 22.1484 15.4687C22.7031 15.3594 23.1484 15.6914 23.2578 16.3594C23.3711 16.8047 23.4805 17.1406 24.0391 17.1406C24.4844 17.1406 24.707 16.8047 24.707 16.3594C24.8164 15.6914 25.2617 15.3594 25.8203 15.4687C26.375 15.582 26.7109 16.1367 26.5977 16.8047C26.4883 18.1406 25.375 19.1406 24.0391 19.1406Z" fill="#010101"/>
<path d="M45.9648 19.1406C44.6289 19.1406 43.5156 18.1406 43.293 16.8047C43.1797 16.1367 43.5156 15.582 44.0703 15.4688C44.6289 15.3594 45.0742 15.6914 45.1836 16.4727C45.2969 16.918 45.5195 17.1406 45.9648 17.1406C46.4062 17.1406 46.5195 16.8047 46.6289 16.4727C46.8516 15.6914 47.1875 15.3594 47.8555 15.4688C48.5234 15.582 48.7461 16.1367 48.6328 16.918C48.4102 18.25 47.2969 19.1406 45.9648 19.1406Z" fill="#010101"/>
<path d="M12.2422 25.1523C10.7969 25.1523 9.57031 24.0391 9.57031 22.5937C9.57031 21.9258 9.90625 21.4805 10.4609 21.4805C11.0195 21.3672 11.4648 21.7031 11.5742 22.3711C11.6836 22.8164 11.7969 23.1484 12.2422 23.1484C12.5742 23.1484 12.7969 23.0352 12.9102 22.8164C13.0195 22.7031 13.0195 22.4805 13.0195 22.3711C13.1328 21.8125 13.5781 21.3672 14.1328 21.4805C14.6914 21.5898 14.9141 22.0352 14.9141 22.5937C14.9141 23.9258 13.6875 25.1523 12.2422 25.1523Z" fill="#010101"/>
<path d="M35.168 25.1523C33.7227 25.1523 32.4961 24.0391 32.4961 22.5937C32.4961 21.9258 32.832 21.4805 33.2773 21.4805C33.832 21.3672 34.2773 21.7031 34.3906 22.3711C34.5 22.8164 34.6094 23.1484 35.0547 23.1484C35.6133 23.1484 35.7227 22.8164 35.8359 22.3711C35.9453 21.8125 36.3906 21.3672 36.9492 21.4805C37.5039 21.5898 37.8398 21.9258 37.7266 22.5937C37.8398 23.9258 36.6133 25.1523 35.168 25.1523Z" fill="#010101"/>
<path d="M46.5196 25.1523C45.1836 25.1523 43.961 24.0391 43.8477 22.7031C43.7383 22.0352 44.0703 21.4805 44.7383 21.4805C45.2969 21.3672 45.7422 21.8125 45.8516 22.4805C45.9649 22.9258 46.0742 23.1484 46.5196 23.1484C46.9649 23.1484 47.1875 22.8164 47.2969 22.4805C47.4102 21.7031 47.8555 21.3672 48.4102 21.4805C48.9688 21.5898 49.3008 22.1484 49.1914 22.8164C48.9688 24.1484 47.8555 25.1523 46.5196 25.1523Z" fill="#010101"/>
<path d="M23.0352 31.1601C21.7031 31.1601 20.3672 30.0469 20.3672 28.6016C20.3672 28.0469 20.6992 27.4883 21.2578 27.4883C21.8125 27.3789 22.2578 27.7109 22.3711 28.3789C22.4805 28.8242 22.5938 29.1562 23.0352 29.1562C23.5938 29.1562 23.7031 28.8242 23.8164 28.3789C23.9258 27.8242 24.3711 27.4883 24.9297 27.4883C25.4844 27.6016 25.8203 28.0469 25.8203 28.6016C25.5977 30.0469 24.3711 31.1601 23.0352 31.1601Z" fill="#010101"/>
<path d="M13.0195 19.1406C11.5742 19.1406 10.3516 18.0273 10.3516 16.582C10.3516 16.0273 10.6836 15.4687 11.2422 15.4687C11.7969 15.4687 12.2422 15.6914 12.2422 16.3594C12.3516 16.8047 12.4648 17.1406 13.0195 17.1406C13.4648 17.1406 13.6875 16.8047 13.6875 16.3594C13.8008 15.6914 14.2461 15.3594 14.8008 15.4687C15.3594 15.582 15.6914 16.0273 15.6914 16.582C15.6914 18.0273 14.4688 19.1406 13.0195 19.1406Z" fill="#010101"/>
<path d="M57.7578 25.1523C56.3125 25.1523 55.1992 24.0391 55.0898 22.7031C55.0898 22.0351 55.4219 21.5898 55.8672 21.5898C56.4258 21.4805 56.8711 21.8125 56.9805 22.4805C57.0937 22.9258 57.2031 23.2578 57.7578 23.2578C58.2031 23.2578 58.4258 22.9258 58.4258 22.4805C58.5391 21.8125 58.9844 21.4805 59.5391 21.5898C60.0977 21.7031 60.4297 22.1484 60.3203 22.7031C60.4297 24.0391 59.207 25.1523 57.7578 25.1523Z" fill="#010101"/>
<path d="M37.9492 28.6016C37.9492 29.9375 36.6133 31.1602 35.2773 31.1602C33.832 31.1602 32.6094 29.9375 32.6094 28.4922C32.6094 27.9336 32.832 27.6016 33.3867 27.4883C33.9453 27.3789 34.3906 27.7109 34.5 28.2695V28.3789C34.6094 28.8242 34.7227 29.1563 35.2773 29.1563C35.7227 29.1563 35.9453 28.8242 35.9453 28.3789C36.0586 27.7109 36.5039 27.3789 37.0586 27.4883C37.6172 27.6016 37.9492 28.0469 37.9492 28.6016Z" fill="#010101"/>
<path d="M47.0742 31.1602C45.7422 31.1602 44.5156 30.0469 44.4062 28.7148C44.4062 28.0469 44.7383 27.6016 45.1836 27.6016C45.7422 27.4883 46.1836 27.8242 46.2969 28.4922C46.4062 28.9336 46.5195 29.2695 47.0742 29.2695C47.5195 29.2695 47.7422 28.9336 47.8555 28.4922C47.9648 27.8242 48.4102 27.6016 48.9688 27.6016C49.5234 27.7109 49.8594 28.1562 49.8594 28.7148C49.6367 30.0469 48.4102 31.1602 47.0742 31.1602Z" fill="#010101"/>
<path d="M58.9844 15.4688C59.7617 16.0273 59.875 16.3594 59.4297 17.6953C58.7617 18.6953 57.8711 19.2539 56.6484 19.1406C55.6445 19.0312 54.8672 18.3633 54.5312 17.3594C54.4219 17.0273 54.4219 16.8047 54.4219 16.4727C54.4219 15.9141 54.7539 15.582 55.3125 15.582C55.8672 15.582 56.2031 15.8047 56.3125 16.3594C56.3125 16.4727 56.3125 16.582 56.4258 16.6953C56.5352 17.0273 56.7578 17.25 57.0938 17.25C57.5352 17.25 57.7578 17.0273 57.7578 16.582C57.8711 15.582 58.0938 15.4688 58.9844 15.4688Z" fill="#010101"/>
<path d="M34.9453 19.1406C33.5 19.1406 32.3867 18.0273 32.2734 16.6953C32.2734 16.0273 32.6094 15.582 33.0547 15.582C33.6094 15.4687 34.0547 15.8047 34.168 16.4727C34.2773 16.918 34.3906 17.25 34.9453 17.25C35.3906 17.25 35.6133 16.918 35.6133 16.4727C35.7227 15.9141 36.168 15.4687 36.7266 15.582C37.2813 15.6914 37.6172 16.1367 37.5039 16.6953C37.6172 18.0273 36.3906 19.1406 34.9453 19.1406Z" fill="#010101"/>
<path d="M60.0977 27.4883C61.0977 27.3789 61.4336 28.0469 61.2109 29.0469C60.875 30.3828 59.5391 31.6055 57.5352 30.9375C56.6484 30.4922 55.9805 29.7148 55.8672 28.6016C55.8672 27.9336 56.0898 27.4883 56.6484 27.3789C57.2031 27.2656 57.6484 27.6016 57.7578 28.2695C57.8711 28.7148 57.9805 29.0469 58.5391 29.0469C58.9844 29.0469 59.207 28.7148 59.207 28.2695C59.3164 27.9336 59.6523 27.7109 60.0977 27.4883Z" fill="#010101"/>
<path d="M27.8242 47.5195C27.7109 48.1875 27.2656 48.5234 26.4883 48.4102C25.9297 48.4102 25.375 48.4102 24.8164 48.4102C24.1484 48.4102 23.8164 48.0781 23.8164 47.4102C23.8164 46.0742 23.8164 44.8516 23.8164 43.5156C23.8164 42.957 24.1484 42.625 24.8164 42.5117C24.9297 42.5117 25.1523 42.5117 25.2617 42.5117C31.4961 42.5117 37.7266 42.5117 43.9609 42.5117C45.0742 42.5117 45.4062 42.7344 45.4062 43.9609C45.4062 45.0742 45.4062 46.1836 45.4062 47.2969C45.4062 48.0781 45.0742 48.4102 44.293 48.4102C40.0664 48.4102 35.8359 48.4102 31.6055 48.4102C30.8281 48.4102 30.6055 48.0781 30.4922 47.2969C30.2695 46.7422 30.6055 46.5195 31.0508 46.4062C31.4961 46.1836 31.9414 46.1836 32.3867 46.1836C35.7227 46.1836 39.0625 46.1836 42.4023 46.1836C42.8477 46.1836 43.293 46.1836 43.293 45.5195C43.293 44.8516 43.1797 44.7383 42.5117 44.7383C37.2812 44.7383 32.0508 44.7383 26.8203 44.7383C26.375 44.7383 26.043 44.8516 26.043 45.4062C26.043 46.0742 26.043 46.0742 26.7109 46.1836C27.4883 46.4062 27.8242 46.8516 27.8242 47.5195Z" fill="#010101"/>
<path d="M27.8242 47.5195C27.4883 46.6289 27.3789 46.5195 26.2656 46.5195C25.8203 46.5195 25.707 46.4062 25.707 45.9648C25.707 44.5156 25.707 44.5156 27.043 44.5156C32.2734 44.5156 37.3945 44.5156 42.625 44.5156C43.1797 44.5156 43.4023 44.6289 43.293 45.1836C43.293 46.5195 43.293 46.5195 41.957 46.5195C38.5078 46.5195 35.0547 46.5195 31.6055 46.5195C30.9375 46.5195 30.3828 46.6289 30.2695 47.4102C29.7148 47.6328 29.0469 47.5195 28.4922 47.5195C28.3789 47.5195 28.0469 47.5195 27.8242 47.5195Z" fill="#F5F8F8"/>
<path d="M61.7656 42.625C63.5469 43.4024 64.3242 44.8516 63.7695 46.5195C63.3242 47.8555 62.2109 48.4102 60.6523 48.4102C59.6523 48.1875 58.8711 47.7422 58.4258 46.8516C58.3164 46.5195 58.0938 46.4063 57.7578 46.5195C57.5352 46.5195 57.4258 46.5195 57.2031 46.5195C56.6484 46.5195 56.3125 46.1836 56.2031 45.6289C56.2031 45.0742 56.4258 44.7383 56.9805 44.6289C57.8711 44.4063 58.2031 44.293 58.7617 43.625C59.6523 42.7344 60.6523 42.5117 61.7656 42.625Z" fill="#010101"/>
<path d="M61.8789 45.5195C61.8789 46.0742 61.4336 46.5195 60.9883 46.5195C60.4297 46.5195 59.9844 46.0742 59.9844 45.5195C59.9844 44.9609 60.4297 44.6289 60.9883 44.6289C61.543 44.6289 61.8789 44.9609 61.8789 45.5195Z" fill="#A9D5DA"/>
</svg>
