<svg width="69" height="69" viewBox="0 0 69 69" fill="none" xmlns="http://www.w3.org/2000/svg">
<path d="M67.5299 15.23C67.3299 15.38 67.2799 15.62 67.1799 15.82C66.0599 17.99 64.9599 20.16 63.8399 22.32C63.7099 22.57 63.6499 22.81 63.6499 23.09C63.6599 27.36 63.6399 31.62 63.6599 35.89C63.6599 36.95 63.3699 37.86 62.5899 38.58C62.4299 38.73 62.4199 38.89 62.4199 39.08C62.4199 44.67 62.4199 50.26 62.4199 55.85C62.4199 56.75 62.4199 57.65 62.4099 58.55C62.3999 59.14 62.1699 59.36 61.5599 59.36C58.8899 59.36 56.2199 59.36 53.5599 59.36C42.8999 59.36 32.2499 59.36 21.5899 59.36C20.4499 59.36 20.3599 59.27 20.3699 58.1C20.3799 56.78 20.9999 55.89 22.1399 55.56C22.4599 55.47 22.7799 55.49 23.0999 55.49C34.7099 55.49 46.3099 55.48 57.9199 55.5C58.4499 55.5 58.5499 55.36 58.5499 54.86C58.5299 49.73 58.5299 44.59 58.5499 39.46C58.5499 39.11 58.4599 38.88 58.1699 38.65C57.3199 37.95 56.9799 37 56.9999 35.91C56.7999 35.96 56.7899 36.12 56.7399 36.22C53.7099 42.12 50.6799 48.02 47.6699 53.93C47.4199 54.42 47.1199 54.61 46.5699 54.61C38.1199 54.6 29.6799 54.6 21.2299 54.61C20.8099 54.61 20.4899 54.5 20.1899 54.2C19.4999 53.5 18.7799 52.82 18.0599 52.15C17.7299 51.84 17.7099 51.53 17.9099 51.16C24.9099 37.42 31.9199 23.67 38.8999 9.92C39.1999 9.33 39.5599 9.13 40.1999 9.14C44.4299 9.16 48.6599 9.15 52.8899 9.15C57.5099 9.15 62.1299 9.15 66.7499 9.14C67.1399 9.14 67.3599 9.31 67.5499 9.61C67.5499 9.71 67.5499 9.81 67.5499 9.92C67.4299 10.56 67.5299 11.21 67.4999 11.86C67.5299 12.54 67.4399 13.22 67.5499 13.9C67.5299 14.35 67.5299 14.79 67.5299 15.23Z" fill="#010101"/>
<path d="M67.5299 13.91C67.2999 13.24 67.4899 12.55 67.4299 11.87C67.4599 11.83 67.4999 11.82 67.5299 11.87C67.5299 12.55 67.5299 13.23 67.5299 13.91Z" fill="#141414"/>
<path d="M67.53 11.8701C67.5 11.8701 67.46 11.8701 67.43 11.8701C67.49 11.2301 67.31 10.5701 67.53 9.93005C67.53 10.5701 67.53 11.2201 67.53 11.8701Z" fill="#262525"/>
<path d="M19.8999 52.25C20.1899 52.25 20.3699 52.25 20.5399 52.25C28.7599 52.25 36.9899 52.25 45.2099 52.26C45.7799 52.26 46.0899 52.07 46.3499 51.56C52.8899 38.68 59.4499 25.82 65.9999 12.96C66.0699 12.81 66.1599 12.67 66.2799 12.53C66.2399 13.59 66.4399 14.63 65.8899 15.69C59.4899 28.09 53.1399 40.52 46.7799 52.95C46.6099 53.28 46.4299 53.41 46.0499 53.41C37.8899 53.4 29.7399 53.4 21.5799 53.41C21.2499 53.41 20.9999 53.34 20.7799 53.09C20.5299 52.82 20.2499 52.58 19.8999 52.25Z" fill="#D2D3D4"/>
<path d="M33.24 51.01C33.98 49.56 34.68 48.19 35.37 46.82C36.37 44.85 37.38 42.87 38.37 40.89C38.52 40.59 38.69 40.49 39.03 40.49C40.76 40.51 42.49 40.5 44.22 40.5C44.26 40.71 44.13 40.84 44.06 40.98C42.44 44.18 40.8 47.36 39.19 50.57C39.02 50.91 38.83 51.02 38.46 51.01C36.75 51 35.04 51.01 33.24 51.01Z" fill="#458FCC"/>
<path d="M37.2299 40.51C36.5299 41.88 35.8799 43.15 35.2299 44.43C34.1899 46.47 33.1499 48.5 32.1299 50.55C31.9499 50.91 31.7499 51.03 31.3499 51.02C29.6899 51 28.0199 51.01 26.3699 51.01C26.2599 50.85 26.3899 50.74 26.4399 50.63C28.0999 47.37 29.7599 44.11 31.4199 40.85C31.5099 40.67 31.5799 40.5 31.8499 40.5C33.5999 40.52 35.3699 40.51 37.2299 40.51Z" fill="#2F7DAE"/>
<path d="M30.2198 40.51C28.9898 42.93 27.7898 45.28 26.5998 47.63C26.0898 48.64 25.5698 49.65 25.0498 50.66C24.9598 50.83 24.9098 51.02 24.6298 51.02C22.8998 51.01 21.1698 51.01 19.4398 51.01C19.3798 50.78 19.5298 50.64 19.6098 50.48C21.2298 47.3 22.8498 44.12 24.4598 40.94C24.6198 40.63 24.7798 40.49 25.1398 40.5C26.8198 40.52 28.4798 40.51 30.2198 40.51Z" fill="#458FCC"/>
<path d="M41.39 58.15C34.97 58.15 28.55 58.15 22.13 58.15C21.55 58.15 21.47 58.05 21.65 57.5C21.8 57.07 22.11 56.8 22.57 56.73C22.74 56.71 22.91 56.72 23.08 56.72C35.58 56.72 48.08 56.72 60.58 56.71C61.09 56.71 61.21 56.85 61.18 57.33C61.14 58.15 61.17 58.15 60.33 58.15C54.03 58.15 47.71 58.15 41.39 58.15Z" fill="#B7B9BA"/>
<path d="M54.74 20.02C54 21.47 53.32 22.83 52.63 24.18C51.77 25.87 50.91 27.56 50.05 29.26C49.95 29.46 49.88 29.64 49.58 29.64C47.8 29.63 46.01 29.63 44.23 29.63C44.18 29.39 44.33 29.25 44.4 29.1C45.87 26.21 47.34 23.33 48.8 20.44C48.96 20.12 49.14 20.01 49.49 20.02C51.21 20.03 52.93 20.02 54.74 20.02Z" fill="#2F7DAE"/>
<path d="M47.6599 20.02C47.2499 20.83 46.8699 21.58 46.4899 22.33C45.3199 24.64 44.1399 26.94 42.9599 29.25C42.8599 29.44 42.7999 29.64 42.4999 29.64C40.7399 29.63 38.9699 29.63 37.2099 29.63C37.1599 29.44 37.2799 29.32 37.3499 29.19C38.8399 26.26 40.3299 23.34 41.8099 20.41C41.9599 20.11 42.1299 20 42.4699 20.01C44.1699 20.03 45.8599 20.02 47.6599 20.02Z" fill="#458FCC"/>
<path d="M40.5699 20.02C40.6099 20.21 40.4999 20.31 40.4399 20.43C38.9499 23.35 37.4599 26.28 35.9799 29.2C35.8299 29.5 35.6599 29.64 35.2899 29.63C33.7599 29.6 32.2299 29.61 30.7099 29.63C30.3199 29.63 30.2399 29.57 30.4299 29.19C31.9499 26.24 33.4499 23.29 34.9499 20.34C35.0299 20.18 35.0699 20.01 35.3299 20.01C37.0899 20.03 38.8299 20.02 40.5699 20.02Z" fill="#458FCC"/>
<path d="M42.8098 51.01C42.1298 51.01 41.4498 50.99 40.7698 51.02C40.2398 51.04 40.4198 50.8 40.5498 50.55C41.8398 48.01 43.1398 45.48 44.4298 42.94C44.7798 42.25 45.1498 41.56 45.4898 40.85C45.6098 40.61 45.7398 40.5 46.0198 40.5C47.3998 40.52 48.7698 40.52 50.1498 40.5C50.5398 40.5 50.5298 40.62 50.3798 40.9C48.7098 44.16 47.0498 47.42 45.3998 50.68C45.2698 50.93 45.1198 51.02 44.8498 51.01C44.1698 51 43.4898 51.01 42.8098 51.01Z" fill="#2F7DAE"/>
<path d="M42.0998 39.29C41.2798 39.29 40.4698 39.28 39.6498 39.3C39.3298 39.31 39.2098 39.27 39.3898 38.92C40.7098 36.35 42.0298 33.77 43.3298 31.19C43.4498 30.94 43.5998 30.85 43.8798 30.85C45.5298 30.86 47.1798 30.86 48.8298 30.85C49.1398 30.85 49.2298 30.89 49.0698 31.21C47.7298 33.81 46.4098 36.42 45.0898 39.04C44.9798 39.26 44.8298 39.31 44.5998 39.3C43.7598 39.29 42.9298 39.29 42.0998 39.29Z" fill="#458FCC"/>
<path d="M49.6499 18.8001C49.8599 18.3901 50.0299 18.0501 50.1999 17.7101C51.3699 15.4201 52.5399 13.1201 53.6999 10.8201C53.8599 10.5101 54.0399 10.3801 54.3999 10.3901C55.9999 10.4101 57.5899 10.4101 59.1899 10.3901C59.5799 10.3901 59.6199 10.4801 59.4499 10.8101C58.1399 13.3601 56.8499 15.9101 55.5499 18.4601C55.4699 18.6201 55.4299 18.8001 55.1699 18.8001C53.3499 18.8001 51.5399 18.8001 49.6499 18.8001Z" fill="#2F7DAE"/>
<path d="M32.21 39.29C33.13 37.49 34 35.77 34.88 34.05C35.36 33.1 35.85 32.15 36.33 31.2C36.42 31.02 36.5 30.85 36.76 30.85C38.52 30.86 40.28 30.85 42.04 30.85C42.09 31.06 41.96 31.2 41.89 31.34C40.62 33.85 39.33 36.34 38.07 38.86C37.9 39.2 37.7 39.31 37.33 39.3C35.66 39.28 33.98 39.29 32.21 39.29Z" fill="#2F7DAE"/>
<path d="M42.6499 18.8C43.3999 17.32 44.1199 15.91 44.8399 14.49C45.4699 13.25 46.0999 12.02 46.7299 10.78C46.8299 10.59 46.8899 10.39 47.1899 10.39C48.9599 10.4 50.7199 10.4 52.4899 10.4C52.5199 10.62 52.3899 10.75 52.3199 10.9C51.0499 13.4 49.7599 15.9 48.4999 18.41C48.3499 18.71 48.1799 18.82 47.8499 18.82C46.1399 18.79 44.4399 18.8 42.6499 18.8Z" fill="#458FCC"/>
<path d="M61.01 20.02C59.85 22.31 58.72 24.52 57.6 26.73C57.16 27.59 56.72 28.45 56.29 29.31C56.19 29.5 56.1 29.64 55.84 29.64C54.33 29.63 52.82 29.63 51.32 29.63C51.26 29.43 51.38 29.31 51.45 29.19C52.93 26.27 54.43 23.35 55.91 20.42C56.06 20.12 56.23 20.01 56.57 20.02C58.01 20.04 59.47 20.02 61.01 20.02Z" fill="#458FCC"/>
<path d="M35.1398 30.85C34.0198 33.04 32.9498 35.14 31.8898 37.24C31.5998 37.81 31.2998 38.39 31.0198 38.96C30.9098 39.18 30.7898 39.3 30.5198 39.29C28.8198 39.28 27.1198 39.28 25.4298 39.28C25.3398 39.11 25.4598 39.01 25.5198 38.9C26.8098 36.36 28.1098 33.83 29.3898 31.28C29.5598 30.95 29.7498 30.83 30.1298 30.83C31.7598 30.86 33.3998 30.85 35.1398 30.85Z" fill="#2F7DAE"/>
<path d="M45.5599 10.4C44.7399 12.01 43.9699 13.52 43.1999 15.03C42.6199 16.18 42.0199 17.32 41.4499 18.48C41.3299 18.73 41.1899 18.82 40.9099 18.82C39.3299 18.81 37.7499 18.8 36.1699 18.82C35.7899 18.82 35.7899 18.71 35.9399 18.43C37.2499 15.87 38.5599 13.3 39.8699 10.73C39.9599 10.56 40.0299 10.41 40.2699 10.41C41.9999 10.4 43.7299 10.4 45.5599 10.4Z" fill="#2F7DAE"/>
<path d="M46.2998 39.29C47.3998 37.13 48.4498 35.05 49.5098 32.97C49.8198 32.37 50.1298 31.77 50.4298 31.16C50.5298 30.97 50.6198 30.84 50.8798 30.84C52.3898 30.85 53.8998 30.85 55.3998 30.85C55.4498 31.07 55.3198 31.2 55.2498 31.34C53.9698 33.86 52.6898 36.37 51.4198 38.89C51.2698 39.19 51.1098 39.3 50.7698 39.29C49.2998 39.28 47.8398 39.29 46.2998 39.29Z" fill="#458FCC"/>
<path d="M65.8298 10.4C65.8498 10.61 65.7498 10.73 65.6798 10.86C64.3998 13.38 63.1098 15.89 61.8398 18.41C61.6898 18.72 61.5198 18.81 61.1798 18.81C59.7198 18.79 58.2698 18.8 56.8098 18.8C56.7898 18.58 56.9098 18.45 56.9898 18.31C58.2498 15.82 59.5298 13.34 60.7798 10.84C60.9498 10.5 61.1398 10.38 61.5098 10.39C62.9498 10.41 64.3898 10.4 65.8298 10.4Z" fill="#458FCC"/>
<path d="M62.4298 25.17C62.4298 28.95 62.4398 32.61 62.4198 36.28C62.4098 37.35 61.4498 38.24 60.3598 38.27C59.2798 38.3 58.2798 37.44 58.2298 36.37C58.1898 35.42 58.2098 34.47 58.2098 33.52C58.2098 33.36 58.2598 33.23 58.3298 33.09C59.6498 30.52 60.9598 27.96 62.2698 25.39C62.2998 25.35 62.3298 25.31 62.4298 25.17Z" fill="#B7B9BB"/>
<path d="M61.18 47.4C61.18 49.93 61.17 52.46 61.19 54.99C61.19 55.37 61.13 55.52 60.7 55.51C59.75 55.48 59.75 55.5 59.75 54.55C59.75 49.7 59.75 44.84 59.74 39.99C59.74 39.61 59.81 39.44 60.23 39.5C60.53 39.54 60.85 39.49 61.16 39.47C61.17 39.81 61.18 40.15 61.18 40.48C61.19 42.79 61.18 45.1 61.18 47.4Z" fill="#FEFEFE"/>
<path d="M19.5801 27.31C19.5901 27 19.7401 26.79 20.0001 26.65C20.3801 26.44 20.7701 26.23 21.1601 26.02C21.3101 25.94 21.4201 25.84 21.5001 25.68C21.7001 25.29 21.9101 24.9 22.1301 24.52C22.4701 23.93 23.1601 23.93 23.5001 24.52C23.6901 24.85 23.8801 25.17 24.0401 25.52C24.1701 25.8 24.3601 25.97 24.6301 26.1C24.9701 26.26 25.3001 26.45 25.6201 26.64C26.2001 26.98 26.2201 27.72 25.6101 27.98C24.6101 28.42 23.9101 29.1 23.4801 30.11C23.2101 30.73 22.4001 30.73 22.1301 30.11C21.7001 29.11 21.0301 28.41 20.0201 28C19.6801 27.87 19.5801 27.63 19.5801 27.31Z" fill="#010101"/>
<path d="M22.6702 29.1801C22.4102 28.8101 22.3202 28.3101 21.9402 28.0301C21.5702 27.7601 21.1502 27.58 20.6802 27.31C21.5602 26.95 22.3002 26.5001 22.6102 25.6001C22.7702 25.5501 22.8302 25.6801 22.8902 25.7801C23.4502 26.8601 23.4802 27.9501 22.9102 29.0401C22.8602 29.1201 22.8102 29.2301 22.6702 29.1801Z" fill="#FFF0AE"/>
<path d="M22.6701 29.18C23.0101 28.85 23.1301 28.41 23.1901 27.97C23.2801 27.28 23.2201 26.58 22.8901 25.94C22.8201 25.81 22.7701 25.65 22.6101 25.59C22.6701 25.47 22.7301 25.36 22.8401 25.15C23.1801 26.24 23.8601 26.93 24.9101 27.31C23.8701 27.7 23.1701 28.37 22.8701 29.42C22.7401 29.35 22.7101 29.26 22.6701 29.18Z" fill="#FDE078"/>
<path d="M17.4099 34.26C17.4099 34.02 17.5299 33.86 17.7299 33.75C18.0299 33.59 18.3299 33.42 18.6299 33.26C18.7499 33.2 18.8299 33.12 18.8899 33C19.0399 32.7 19.2099 32.4 19.3799 32.1C19.6399 31.64 20.1799 31.64 20.4399 32.1C20.5899 32.35 20.7299 32.61 20.8599 32.87C20.9599 33.08 21.1099 33.22 21.3199 33.32C21.5799 33.45 21.8399 33.59 22.0899 33.74C22.5399 34 22.5499 34.57 22.0799 34.78C21.2999 35.12 20.7699 35.65 20.4299 36.43C20.2199 36.91 19.5899 36.91 19.3899 36.43C19.0599 35.65 18.5399 35.11 17.7599 34.8C17.4899 34.69 17.4099 34.51 17.4099 34.26Z" fill="#010101"/>
<path d="M19.81 35.71C19.61 35.42 19.54 35.03 19.24 34.82C18.96 34.61 18.63 34.47 18.26 34.26C18.94 33.98 19.51 33.63 19.76 32.94C19.89 32.9 19.93 33 19.97 33.08C20.4 33.92 20.43 34.76 19.99 35.6C19.95 35.66 19.92 35.75 19.81 35.71Z" fill="#FFF0AE"/>
<path d="M19.81 35.71C20.08 35.46 20.16 35.11 20.21 34.78C20.28 34.24 20.23 33.71 19.97 33.21C19.92 33.11 19.88 32.99 19.75 32.94C19.8 32.85 19.84 32.76 19.93 32.6C20.19 33.45 20.72 33.98 21.53 34.27C20.73 34.57 20.18 35.09 19.95 35.9C19.86 35.84 19.84 35.77 19.81 35.71Z" fill="#FDE078"/>
<path d="M11.6001 11.0801C12.1601 11.1801 12.7301 11.1201 13.2901 11.1201C13.5801 11.1201 13.6501 11.2101 13.6401 11.4801C13.6301 12.2601 13.6501 12.2501 12.8801 12.2601C12.4501 12.2601 12.0301 12.2801 11.6001 12.2901C11.6001 11.8801 11.6001 11.4801 11.6001 11.0801Z" fill="#110F0F"/>
<path d="M24.6701 12.0901C24.6901 14.7501 22.5401 16.9101 19.8701 16.9201C17.2101 16.9301 15.0401 14.7801 15.0301 12.1301C15.0201 9.49007 17.1901 7.30007 19.8401 7.29007C22.5001 7.28007 24.6601 9.42007 24.6701 12.0901Z" fill="#010101"/>
<path d="M27.09 12.2601C27 12.2601 26.91 12.2601 26.81 12.2601C26.04 12.2601 26.06 12.2601 26.05 11.5101C26.05 11.2001 26.1301 11.1101 26.4401 11.1201C26.8801 11.1401 27.3301 11.1401 27.7801 11.1201C28.0601 11.1101 28.15 11.1901 28.15 11.4801C28.15 12.2601 28.1701 12.2601 27.3701 12.2601C27.2701 12.2601 27.18 12.2601 27.09 12.2601Z" fill="#151313"/>
<path d="M26.1601 17.16C25.9101 17.38 25.6901 17.62 25.4401 17.81C25.2401 17.95 25.1601 17.7 25.0501 17.6C24.7101 17.29 24.3901 16.95 24.0601 16.63C23.9301 16.5 23.9401 16.44 24.0501 16.3C24.6301 15.62 24.6201 15.62 25.2701 16.25C25.4901 16.47 25.7101 16.68 25.9301 16.9C25.9901 16.96 26.0501 17.03 26.1601 17.16Z" fill="#070707"/>
<path d="M15.77 7.06009C15.59 7.23009 15.37 7.49009 15.1 7.65009C14.91 7.76009 14.81 7.49009 14.69 7.37009C14.38 7.09009 14.11 6.78009 13.8 6.50009C13.62 6.34009 13.63 6.24009 13.8 6.06009C14.36 5.47009 14.35 5.47009 14.95 6.05009C15.18 6.28009 15.41 6.50009 15.64 6.73009C15.69 6.80009 15.78 6.86009 15.77 7.06009Z" fill="#050505"/>
<path d="M20.3802 4.45004C20.3802 4.56004 20.3802 4.66004 20.3802 4.77004C20.3802 5.47004 20.3802 5.45004 19.6802 5.48004C19.3202 5.50004 19.2302 5.39004 19.2502 5.06004C19.2802 4.63004 19.2602 4.20004 19.2402 3.77004C19.2302 3.50004 19.3002 3.41004 19.6002 3.41004C20.3702 3.41004 20.3702 3.40004 20.3802 4.18004C20.3802 4.27004 20.3802 4.36004 20.3802 4.45004Z" fill="#080808"/>
<path d="M13.6201 17.1C14.0501 16.69 14.4901 16.28 14.9001 15.85C15.0501 15.69 15.1301 15.75 15.2601 15.87C15.8801 16.45 15.8901 16.45 15.2901 17.04C15.2401 17.09 15.1801 17.15 15.1301 17.2C14.3801 17.96 14.3801 17.96 13.6201 17.1Z" fill="#050404"/>
<path d="M19.3602 18.9301C19.3602 18.8101 19.3602 18.6801 19.3602 18.5601C19.3502 17.9201 19.3602 17.9401 20.0102 17.9101C20.4102 17.8901 20.5102 18.0201 20.4802 18.4001C20.4502 18.8001 20.4602 19.2001 20.4802 19.6001C20.4902 19.8601 20.4502 19.9801 20.1402 19.9801C19.3702 19.9701 19.3702 19.9901 19.3602 19.2201C19.3602 19.1201 19.3602 19.0201 19.3602 18.9301Z" fill="#050505"/>
<path d="M24.6502 7.68007C24.4102 7.44007 24.1502 7.24007 23.9602 6.98007C23.8202 6.79007 24.0802 6.71007 24.1802 6.60007C24.4702 6.28007 24.7902 6.00007 25.0802 5.68007C25.2602 5.48007 25.3702 5.50007 25.5502 5.68007C26.1102 6.23007 26.1102 6.22007 25.5802 6.76007C25.3402 7.00007 25.1002 7.24007 24.8602 7.48007C24.8002 7.55007 24.7302 7.61007 24.6502 7.68007Z" fill="#040404"/>
<path d="M16.98 14.41C15.9 13.1 15.87 11.25 16.9 9.89004C17.92 8.55004 19.69 8.04003 21.13 8.67003C21.46 9.16003 21.48 9.71004 21.38 10.26C21.03 12.26 19.73 13.46 17.96 14.24C17.67 14.38 17.36 14.64 16.98 14.41Z" fill="#E69C25"/>
<path d="M16.98 14.41C17.97 14.27 18.8 13.77 19.55 13.16C20.47 12.41 21.07 11.45 21.28 10.25C21.37 9.70003 21.22 9.19003 21.14 8.66003C22.96 9.20003 24.03 11.4 23.37 13.3C22.89 14.68 21.89 15.54 20.46 15.76C19.07 15.99 17.87 15.54 16.98 14.41Z" fill="#E48525"/>
<path d="M8.41989 45.2201C7.00989 45.5001 5.58989 45.7801 4.16989 46.0701C3.35989 46.2401 2.81989 46.7101 2.63989 47.5301C2.50989 48.1201 2.58989 48.7401 2.59989 49.3401C2.59989 49.4901 2.70989 49.5801 2.85989 49.6001C3.03989 49.6401 3.13989 49.6101 3.20989 49.4501C3.25989 49.3501 3.26989 49.2401 3.26989 49.1201V47.9801C3.26989 47.3501 3.61989 46.9001 4.22989 46.7501C4.61989 46.6601 5.01989 46.5901 5.40989 46.5101C5.55989 46.4801 5.60989 46.5301 5.60989 46.6801C5.59989 46.8801 5.58989 47.0801 5.61989 47.2701C5.64989 47.4701 5.79989 47.5901 5.97989 47.5901C6.17989 47.5801 6.29989 47.4701 6.30989 47.2501C6.31989 47.0501 6.31989 46.8501 6.31989 46.6601C6.31989 46.3301 6.34989 46.3101 6.66989 46.2601C6.78989 46.2401 6.83989 46.2801 6.83989 46.4001C6.83989 46.5901 6.82989 46.7801 6.84989 46.9701C6.86989 47.2101 7.00989 47.3601 7.20989 47.3601C7.42989 47.3601 7.53989 47.2301 7.54989 46.9601C7.55989 46.7301 7.54989 46.5101 7.54989 46.2901C7.53989 46.1501 7.60989 46.0701 7.74989 46.0401C7.95989 46.0101 8.15989 45.9601 8.36989 45.9201C8.38989 45.9101 8.39989 45.9101 8.41989 45.9101C8.43989 45.9001 8.44989 45.9001 8.45989 45.9001C8.67989 45.8601 8.69989 45.9101 8.69989 46.1801C8.70989 46.5701 8.70989 46.9401 8.69989 47.3301C8.69989 47.5601 8.67989 47.5801 8.45989 47.6301C7.88989 47.7401 7.32989 47.8501 6.76989 47.9701C6.18989 48.0901 5.59989 48.1901 5.02989 48.3301C4.60989 48.4301 4.39989 48.7001 4.38989 49.1301C4.38989 49.8801 4.39989 50.6301 4.38989 51.3901C4.38989 51.5901 4.42989 51.7801 4.56989 51.9201C4.57989 51.9301 4.57989 51.9401 4.58989 51.9501C4.59989 51.9601 4.59989 51.9601 4.59989 51.9601C4.78989 52.1601 5.01989 52.2101 5.27989 52.1901C5.28989 52.1901 5.29989 52.1801 5.30989 52.1801H5.29989C5.58989 52.1201 5.65989 52.2101 5.57989 52.5001C5.54989 52.5901 5.48989 52.6401 5.40989 52.6801C5.31989 52.7101 5.22989 52.7201 5.13989 52.7401C4.46989 52.8801 4.40989 52.9401 4.36989 53.6101C4.35989 53.7301 4.30989 53.7901 4.18989 53.7901H3.50989C3.28989 53.7901 3.26989 53.7901 3.25989 53.6001V53.5001C3.26989 52.6201 3.26989 51.7401 3.26989 50.8601C3.26989 50.7501 3.25989 50.6501 3.20989 50.5501C3.13989 50.4301 3.06989 50.3101 2.88989 50.3601C2.63989 50.4401 2.58989 50.5101 2.58989 50.7701V55.1601C2.58989 55.2701 2.57989 55.3901 2.65989 55.4801C2.86989 55.7601 3.10989 56.0301 3.41989 56.2201C3.49989 56.2601 3.51989 56.3101 3.51989 56.4001V61.6401C3.51989 61.7301 3.48989 61.7701 3.41989 61.8201C3.01989 62.0801 2.68989 62.4001 2.61989 62.8901C2.53989 63.5101 2.60989 64.1401 2.58989 64.7701C2.57989 65.0701 2.66989 65.3001 2.93989 65.4501H4.67989C4.88989 65.3501 5.03989 65.2001 5.03989 64.9401C5.02989 64.3101 5.04989 63.6701 5.02989 63.0401C5.01989 62.4701 4.65989 62.1201 4.22989 61.8201C4.14989 61.7601 4.11989 61.7401 4.11989 61.6501V56.3801C4.11989 56.3301 4.09989 56.2701 4.16989 56.2501C4.44989 56.1501 4.59989 55.8901 4.80989 55.7101C4.97989 55.5701 5.04989 55.3901 5.03989 55.1701C5.02989 54.6601 5.04989 54.1501 5.02989 53.6501C5.01989 53.4601 5.06989 53.3701 5.26989 53.3701C5.37989 53.3601 5.48989 53.3301 5.59989 53.3001C5.96989 53.2001 6.23989 52.8801 6.25989 52.4901C6.26989 52.3501 6.27989 52.2101 6.25989 52.0801C6.24989 51.9501 6.30989 51.9101 6.41989 51.8901C7.08989 51.7601 7.74989 51.6301 8.40989 51.4901C8.98989 51.3701 9.33989 50.9501 9.33989 50.3701C9.34989 48.9001 9.34989 47.4301 9.33989 45.9601C9.32989 45.4001 8.94989 45.1101 8.41989 45.2201ZM8.72989 50.1501C8.72989 50.2501 8.73989 50.3301 8.72989 50.4101C8.70989 50.6701 8.55989 50.8301 8.30989 50.8901C7.26989 51.1001 6.23989 51.3101 5.19989 51.5201C5.07989 51.5401 5.01989 51.5001 5.01989 51.3801C5.02989 51.0201 5.02989 50.6501 5.01989 50.2901C5.01989 50.2201 5.04989 50.1901 5.11989 50.1701C6.09989 49.9801 7.07989 49.7701 8.05989 49.5901C8.29989 49.5401 8.50989 49.6501 8.68989 49.8201C8.78989 49.9201 8.70989 50.0501 8.72989 50.1501Z" fill="#010101"/>
<path d="M21.2099 58.4601C21.0099 58.2701 20.8199 58.0501 20.5999 57.8701C20.4499 57.7301 20.3999 57.5801 20.3999 57.3801C20.4099 55.6501 20.3999 53.9201 20.3999 52.2001C20.3999 51.9101 20.3499 51.8501 20.0999 51.7701C19.9499 51.7101 19.8699 51.8101 19.8099 51.9101C19.7399 52.0001 19.7199 52.1101 19.7199 52.2301C19.7199 53.9801 19.7099 55.7201 19.7299 57.4701C19.7299 57.7801 19.8499 58.0401 20.0799 58.2601C20.2899 58.4601 20.4899 58.6701 20.6899 58.8801C20.7099 58.9001 20.7199 58.9101 20.7299 58.9301C20.7499 58.9501 20.7699 58.9701 20.7899 58.9901C20.9099 59.1401 20.9699 59.3001 20.9599 59.5101C20.9499 59.8501 20.9899 59.9001 20.7399 59.9101C20.7199 59.9201 20.6899 59.9201 20.6599 59.9201H20.5399C20.3599 59.9201 20.1899 59.9001 20.0099 59.9301C19.7799 60.0301 19.6999 60.1901 19.7699 60.3701C19.8399 60.5301 19.9699 60.6101 20.1399 60.6201C20.3399 60.6301 20.5299 60.6301 20.7199 60.6201H20.7299C20.7399 60.6201 20.7499 60.6201 20.7499 60.6301H20.7599C20.9499 60.6501 20.9499 60.6901 20.9499 60.9401C20.9499 61.1101 20.8699 61.1401 20.7399 61.1501H20.6599C20.6599 61.1501 20.6599 61.1501 20.6499 61.1501C20.4499 61.1401 20.2499 61.1401 20.0499 61.1501C19.7899 61.2401 19.6799 61.4301 19.7899 61.6301C19.8699 61.7701 19.9899 61.8301 20.1399 61.8401C20.3399 61.8501 20.5299 61.8501 20.7199 61.8401H20.7499C20.9399 61.8701 20.9499 61.8901 20.9399 62.1401C20.9399 62.3301 20.9199 62.3501 20.7399 62.3701H20.6499C20.4499 62.3801 20.2399 62.3601 20.0399 62.3801C19.7499 62.4801 19.6399 62.7301 19.8099 62.9301C19.8999 63.0401 20.0199 63.0801 20.1599 63.0801C20.3399 63.0901 20.5199 63.0901 20.7099 63.0901H20.7399C20.7499 63.0901 20.7499 63.0901 20.7499 63.0901C20.9299 63.1401 20.9499 63.1901 20.9299 63.4301C20.9199 63.5901 20.8299 63.6001 20.6999 63.6001H19.6099C19.2599 63.6001 19.1999 63.6001 19.1899 63.3601V63.3501C19.1799 63.3301 19.1799 63.3101 19.1799 63.2801C19.1799 63.2801 19.1799 63.2801 19.1799 63.2701V49.6801C19.1899 49.6001 19.2299 49.5301 19.3099 49.5301C19.4199 49.5201 19.5499 49.4901 19.6499 49.5701C19.7099 49.6501 19.6899 49.7401 19.6899 49.8201C19.6999 50.1001 19.6799 50.3701 19.6999 50.6501C19.7199 50.9101 19.8499 51.0201 20.0899 51.0001C20.2899 50.9601 20.3699 50.8301 20.3699 50.6301C20.3699 50.2201 20.3799 49.8201 20.3699 49.4001C20.3699 49.2201 20.3299 49.0401 20.2699 48.8601C19.9499 48.0801 19.6399 47.3001 19.3299 46.5201C19.1399 46.0501 18.7699 45.8101 18.2699 45.8001C16.1899 45.7901 14.1199 45.7901 12.0299 45.8001C11.5199 45.8001 11.1499 46.0501 10.9599 46.5301C10.6699 47.2501 10.3799 47.9801 10.0799 48.7001C9.95992 48.9801 9.91992 49.2601 9.91992 49.5601C9.92992 52.1701 9.91992 54.7801 9.92992 57.3801C9.92992 57.5701 9.86992 57.7201 9.72992 57.8501C9.52992 58.0401 9.33992 58.2401 9.13992 58.4301C8.82992 58.7201 8.67992 59.0701 8.68992 59.5001C8.69992 60.1801 8.69992 60.8601 8.69992 61.5401C8.69992 62.2601 8.68992 62.9801 8.69992 63.7001C8.69992 64.0001 8.88992 64.2201 9.16992 64.2201C9.86992 64.2301 10.5699 64.2301 11.2699 64.2201C11.5099 64.2201 11.7399 64.0401 11.7399 63.8201C11.7399 63.5901 11.8599 63.6001 11.9999 63.6101C12.0399 63.6201 12.0799 63.6201 12.1199 63.6201C12.3799 63.6201 12.3799 63.6201 12.3799 63.8701C12.3799 64.1001 12.4999 64.2301 12.6799 64.2201C12.8599 64.2201 12.9699 64.0901 12.9699 63.8701C12.9799 63.6101 12.9799 63.6101 13.2299 63.6101H13.3099C13.5999 63.6101 13.5999 63.6101 13.6099 63.8901C13.6199 64.0901 13.7299 64.2101 13.8999 64.2201C14.0799 64.2301 14.1999 64.1001 14.1999 63.8801C14.2099 63.6101 14.2099 63.6101 14.4899 63.6101C14.5199 63.6101 14.5599 63.6101 14.5899 63.6001C14.7999 63.5601 14.8599 63.6501 14.8399 63.8501C14.8199 64.0801 14.9499 64.2101 15.1399 64.2101C15.3299 64.2101 15.4499 64.0801 15.4299 63.8501C15.4099 63.6301 15.4999 63.5801 15.6899 63.6001C15.8099 63.6201 15.9499 63.5701 16.0399 63.6301C16.1099 63.6801 16.0499 63.8301 16.0599 63.9301C16.0799 64.1001 16.1999 64.2201 16.3599 64.2201C16.5299 64.2301 16.6499 64.1001 16.6599 63.9201C16.6699 63.8501 16.6699 63.7701 16.6699 63.7001C16.6699 63.6601 16.6799 63.6101 16.7299 63.6101C16.9099 63.6101 17.0899 63.5801 17.2599 63.6301C17.3599 63.6601 17.2799 63.8301 17.2999 63.9301V63.9501C17.3299 64.1201 17.4599 64.2301 17.6099 64.2101C17.7799 64.2001 17.8699 64.1001 17.8899 63.9301C17.8999 63.8601 17.8999 63.8001 17.8999 63.7301C17.8899 63.6301 17.9399 63.5601 18.0399 63.6001C18.1999 63.6601 18.4499 63.4501 18.5199 63.7101C18.6099 64.0601 18.7499 64.2101 19.1099 64.2101H21.0099C21.3999 64.2101 21.5999 64.0201 21.5999 63.6301V59.4501C21.6399 59.0801 21.4999 58.7401 21.2099 58.4601ZM17.3399 47.7601C17.3299 48.0801 17.3299 48.4101 17.3399 48.7301C17.3499 48.8501 17.2999 48.8701 17.1999 48.8701C16.5299 48.8601 15.8699 48.8601 15.1999 48.8601C14.5199 48.8601 13.8499 48.8601 13.1799 48.8701C13.0499 48.8701 13.0099 48.8401 13.0099 48.7001C13.0199 48.3901 13.0199 48.0801 13.0199 47.7701C13.0099 47.6701 13.0299 47.6201 13.1499 47.6201C14.4999 47.6301 15.8499 47.6301 17.2099 47.6201C17.3099 47.6301 17.3399 47.6701 17.3399 47.7601Z" fill="#010101"/>
<path d="M3.19985 53.54C3.19985 52.63 3.18985 51.71 3.18985 50.8C3.18985 50.53 3.13985 50.45 2.87985 50.37C2.85985 50.11 2.91985 49.85 2.84985 49.59C3.09985 49.56 3.18985 49.47 3.18985 49.22C3.18985 48.84 3.18985 48.47 3.18985 48.09C3.18985 47.23 3.52985 46.81 4.36985 46.63C4.73985 46.55 5.11985 46.49 5.48985 46.4C5.63985 46.36 5.65985 46.41 5.65985 46.55C5.64985 46.75 5.65985 46.96 5.65985 47.16C5.65985 47.39 5.76985 47.52 5.95985 47.53C6.14985 47.53 6.25985 47.41 6.25985 47.17C6.25985 46.91 6.25985 46.64 6.25985 46.38C6.25985 46.31 6.24985 46.25 6.34985 46.24C6.50985 46.21 6.65985 46.17 6.80985 46.14C6.91985 46.12 6.88985 46.2 6.88985 46.25C6.88985 46.47 6.88985 46.7 6.88985 46.92C6.88985 47.15 6.99985 47.28 7.18985 47.28C7.38985 47.28 7.47985 47.16 7.47985 46.92C7.47985 46.66 7.47985 46.41 7.47985 46.15C7.47985 46.06 7.49985 46 7.59985 45.98C7.84985 45.94 8.08985 45.89 8.33985 45.85C8.45985 45.81 8.47985 45.9 8.47985 45.98C8.48985 46.37 8.48985 46.76 8.47985 47.15C8.47985 47.26 8.41985 47.32 8.30985 47.34C8.23985 47.36 8.16985 47.37 8.09985 47.39C6.94985 47.62 5.79985 47.85 4.64985 48.08C4.25985 48.16 4.19985 48.24 4.20985 48.64C4.21985 49.54 4.20985 50.43 4.20985 51.33C4.20985 51.75 4.22985 51.78 4.61985 51.92C4.81985 52.09 5.04985 52.14 5.29985 52.12C5.25985 52.35 5.07985 52.42 4.89985 52.47C4.74985 52.52 4.58985 52.54 4.43985 52.57C4.28985 52.6 4.20985 52.68 4.20985 52.84C4.20985 52.97 4.20985 53.09 4.20985 53.22C4.19985 53.48 4.08985 53.59 3.82985 53.59C3.60985 53.59 3.39985 53.65 3.19985 53.54Z" fill="#7DA1B1"/>
<path d="M20.1099 51.7601C19.8499 51.8501 19.7999 51.9101 19.7999 52.1901C19.7999 53.9401 19.7999 55.6901 19.7999 57.4401C19.7999 57.7501 19.8999 58.0101 20.1299 58.2301C20.3399 58.4301 20.5399 58.6401 20.7399 58.8501C20.8099 58.9401 20.7999 59.0501 20.7999 59.1501C20.7999 59.3501 20.7999 59.5401 20.7999 59.7401C20.7999 59.8701 20.7499 59.9401 20.5999 59.9401C20.4099 59.9301 20.2199 59.9201 20.0299 59.9501C19.8699 60.0201 19.7699 60.1301 19.8199 60.3201C19.8699 60.5001 20.0099 60.5501 20.1899 60.5501C20.3699 60.5501 20.5599 60.5501 20.7399 60.5601C20.8499 60.7201 20.7999 60.9001 20.7799 61.0701C20.7699 61.1601 20.6899 61.1601 20.6099 61.1701C20.4299 61.1701 20.2399 61.1501 20.0599 61.1801C19.8799 61.2201 19.7899 61.3301 19.7999 61.5201C19.8199 61.6901 19.9499 61.7801 20.1599 61.7801C20.3499 61.7801 20.5399 61.7901 20.7299 61.7901C20.8299 61.9501 20.7899 62.1301 20.7699 62.3001C20.7599 62.3901 20.6799 62.3901 20.5999 62.4001C20.4199 62.4001 20.2299 62.3801 20.0499 62.4101C19.8699 62.4501 19.7799 62.5601 19.7899 62.7501C19.8099 62.9201 19.9399 63.0101 20.1499 63.0101C20.3399 63.0101 20.5299 63.0101 20.7199 63.0201C20.7999 63.2201 20.7299 63.3701 20.5399 63.3801C20.1299 63.4101 19.7099 63.4001 19.2999 63.3801C19.2099 63.3801 19.1599 63.3201 19.1599 63.2201C19.1599 63.1701 19.1599 63.1301 19.1599 63.0801C19.1599 58.6301 19.1599 54.1801 19.1599 49.7301C19.1599 49.4501 19.1299 49.4801 19.3999 49.4801C19.5199 49.4801 19.6499 49.4601 19.7699 49.5001C19.7699 49.8601 19.7799 50.2201 19.7799 50.5801C19.7799 50.8501 19.8499 50.9301 20.1099 50.9801C20.0799 51.2401 20.1099 51.5001 20.1099 51.7601Z" fill="#E24747"/>
<path d="M4.60982 51.9201C4.34982 51.9801 4.14982 51.8201 4.14982 51.5501C4.14982 50.6501 4.14982 49.7601 4.14982 48.8601C4.14982 48.7601 4.13982 48.6601 4.13982 48.5601C4.11982 48.2301 4.23982 48.0901 4.55982 48.0301C5.79982 47.7801 7.04982 47.5301 8.28982 47.2901C8.39982 47.2701 8.42982 47.2301 8.42982 47.1301C8.42982 46.7601 8.42982 46.3901 8.42982 46.0201C8.42982 45.9501 8.43982 45.8701 8.33982 45.8501C8.41982 45.7901 8.51982 45.8101 8.59982 45.7901C8.70982 45.7601 8.73982 45.8501 8.73982 45.9301C8.73982 46.4501 8.73982 46.9701 8.73982 47.4901C8.73982 47.6001 8.66982 47.6201 8.58982 47.6301C7.44982 47.8601 6.30982 48.0901 5.16982 48.3101C4.82982 48.3801 4.53982 48.5001 4.44982 48.8801C4.42982 48.9601 4.42982 49.0401 4.42982 49.1101C4.42982 49.8201 4.43982 50.5301 4.42982 51.2401C4.41982 51.5001 4.45982 51.7301 4.60982 51.9201Z" fill="#678D98"/>
<path d="M3.19981 64.55C3.19981 64.04 3.17981 63.53 3.19981 63.02C3.20981 62.69 3.56981 62.38 3.86981 62.39C4.00981 62.39 4.07981 62.48 4.14981 62.58C4.19981 62.66 4.20981 62.75 4.20981 62.85C4.20981 63.29 4.20981 63.73 4.20981 64.17C4.20981 64.51 4.09981 64.62 3.75981 64.62C3.56981 64.61 3.37981 64.66 3.19981 64.55Z" fill="#7DA1B1"/>
<path d="M3.83993 54.4301C4.00993 54.4501 4.27993 54.3401 4.38993 54.4701C4.48993 54.5801 4.41993 54.8501 4.41993 55.0401C4.41993 55.3801 3.98993 55.7401 3.65993 55.6801C3.51993 55.6501 3.17993 55.2501 3.17993 55.1101C3.17993 54.9301 3.17993 54.7401 3.17993 54.5601C3.17993 54.4701 3.20993 54.4301 3.30993 54.4301C3.47993 54.4301 3.63993 54.4301 3.83993 54.4301Z" fill="#7CA1B1"/>
<path d="M3.19978 53.5401C3.41978 53.5401 3.62978 53.5401 3.84978 53.5401C4.05978 53.5401 4.13978 53.4501 4.14978 53.2401C4.14978 53.0901 4.15978 52.9401 4.14978 52.7901C4.13978 52.6401 4.20978 52.5701 4.33978 52.5401C4.48978 52.5101 4.62978 52.4601 4.77978 52.4501C5.00978 52.4301 5.16978 52.3001 5.28978 52.1301C5.39978 52.0801 5.51978 52.08 5.64978 52.05C5.64978 52.2 5.65978 52.3401 5.64978 52.4701C5.63978 52.6001 5.55978 52.6901 5.42978 52.7201C5.24978 52.7601 5.06978 52.8 4.88978 52.84C4.56978 52.9 4.41978 53.0801 4.41978 53.4001C4.41978 53.8401 4.41978 53.84 3.97978 53.84C3.79978 53.84 3.61978 53.84 3.44978 53.84C3.17978 53.82 3.17978 53.8201 3.19978 53.5401Z" fill="#678D98"/>
<path d="M8.65984 49.07C8.20984 48.89 7.76984 49.04 7.32984 49.12C6.60984 49.26 5.87984 49.4 5.15984 49.54C5.07984 49.57 5.03984 49.54 5.04984 49.46C5.05984 49.36 4.98984 49.24 5.12984 49.18C5.16984 49.16 5.21984 49.16 5.25984 49.15C6.30984 48.94 7.35984 48.73 8.41984 48.52C8.72984 48.46 8.73984 48.46 8.72984 48.78C8.71984 48.88 8.78984 49 8.65984 49.07Z" fill="#FFD15C"/>
<path d="M8.65982 49.0701C8.75982 48.9201 8.69982 48.7501 8.69982 48.5901C8.69982 48.4801 8.57982 48.5501 8.52982 48.5601C8.10982 48.6401 7.69982 48.7301 7.27982 48.8101C6.58982 48.9501 5.89982 49.0901 5.19982 49.2201C5.13982 49.2301 5.06982 49.2201 5.06982 49.3001C5.06982 49.3901 5.00982 49.5101 5.15982 49.5401C5.09982 49.5801 5.04982 49.6101 5.02982 49.5001C4.95982 49.0401 5.01982 48.9501 5.47982 48.8601C6.50982 48.6601 7.54982 48.4501 8.57982 48.2401C8.72982 48.2101 8.75982 48.2401 8.75982 48.3901C8.74982 48.5901 8.75982 48.8001 8.75982 49.0001C8.73982 49.0601 8.75982 49.1601 8.65982 49.0701Z" fill="#FEC446"/>
<path d="M3.19991 64.5501C3.40991 64.5501 3.61991 64.5501 3.82991 64.5501C4.06991 64.5401 4.14991 64.4601 4.14991 64.2201C4.14991 63.6701 4.14991 63.1201 4.14991 62.5601C4.33991 62.7001 4.41991 62.8901 4.42991 63.1201C4.42991 63.6501 4.42991 64.1701 4.42991 64.7001C4.42991 64.8301 4.38991 64.8701 4.25991 64.8601C3.99991 64.8501 3.74991 64.8601 3.48991 64.8601C3.17991 64.8701 3.17991 64.8701 3.19991 64.5501Z" fill="#678D98"/>
<path d="M13.2598 59.64C13.1798 59.37 13.1198 59.33 12.8398 59.33C12.5698 59.33 12.2998 59.32 12.0298 59.33C11.8398 59.34 11.7898 59.3 11.7898 59.1C11.7998 56.78 11.7998 54.47 11.7998 52.15C11.7998 51.32 11.7998 50.49 11.7998 49.66C11.7998 49.51 11.8398 49.46 11.9898 49.47C12.1398 49.48 12.3198 49.43 12.4398 49.49C12.5598 49.56 12.5198 49.77 12.5398 49.91C12.6798 50.92 12.8198 51.93 12.9598 52.94C13.0998 53.94 13.2398 54.93 13.3798 55.93C13.4698 56.54 13.5598 57.15 13.6298 57.77C13.6798 58.17 13.8498 58.33 14.2498 58.33C14.8998 58.33 15.5598 58.33 16.2098 58.33C16.5398 58.33 16.7198 58.17 16.7598 57.84C16.9698 56.36 17.1798 54.88 17.3798 53.4C17.5598 52.14 17.7298 50.88 17.8998 49.62C17.9198 49.51 17.9398 49.46 18.0598 49.46C18.5798 49.45 18.5798 49.44 18.5798 49.97C18.5798 53.01 18.5798 56.05 18.5798 59.1C18.5798 59.27 18.5398 59.33 18.3598 59.33C17.0498 59.32 15.7498 59.33 14.4398 59.32C14.2598 59.32 14.1198 59.37 14.0498 59.56C14.0298 59.61 14.0198 59.67 13.9598 59.68C13.7198 59.7 13.4898 59.75 13.2598 59.64Z" fill="#7F191F"/>
<path d="M14.1699 57.42C13.9999 56.16 13.8199 54.91 13.6499 53.65C13.4799 52.47 13.3199 51.28 13.1499 50.1C13.1299 49.93 13.1099 49.76 13.0999 49.59C13.0699 49.54 13.0799 49.5 13.1399 49.49C13.1899 49.48 13.2499 49.49 13.2999 49.49C14.4299 49.49 15.5699 49.49 16.6999 49.49C16.9499 49.49 16.9699 49.52 16.9399 49.76C16.7999 50.8 16.6499 51.84 16.5099 52.87C16.3199 54.27 16.1199 55.68 15.9299 57.08C15.8899 57.4 15.8099 57.48 15.4899 57.48C15.1399 57.48 14.7899 57.48 14.4399 57.48C14.3499 57.48 14.2499 57.49 14.1699 57.42Z" fill="#E24747"/>
<path d="M13.2598 59.6401C13.4598 59.6401 13.6598 59.6401 13.8498 59.6401C13.9298 59.6401 13.9898 59.6301 14.0398 59.5601C14.0498 59.8401 14.1298 59.9201 14.4098 59.9201C15.7198 59.9201 17.0298 59.9201 18.3498 59.9201C18.5198 59.9201 18.5698 59.9601 18.5698 60.1401C18.5598 61.0401 18.5598 61.9301 18.5698 62.8301C18.5698 62.9801 18.5298 63.0201 18.3798 63.0201C16.2398 63.0201 14.1098 63.0201 11.9698 63.0201C11.8198 63.0201 11.7798 62.9801 11.7798 62.8301C11.7898 61.9201 11.7898 61.0101 11.7798 60.1001C11.7798 59.9601 11.8198 59.9201 11.9598 59.9201C12.2598 59.9301 12.5498 59.9101 12.8498 59.9301C13.0698 59.9301 13.2098 59.8501 13.2598 59.6401Z" fill="#AB2527"/>
<path d="M9.3398 63.3201C9.3198 63.0001 9.3198 63.0001 9.6298 63.0001C9.8298 63.0001 10.0298 63.0001 10.2198 63.0001C10.4298 63.0001 10.5598 62.8701 10.5598 62.6901C10.5598 62.5201 10.4198 62.4101 10.2298 62.4001C9.9698 62.4001 9.7198 62.4001 9.4598 62.4001C9.3698 62.4001 9.3398 62.3701 9.3398 62.2801C9.3198 61.7701 9.3098 61.7701 9.8198 61.7701C9.9698 61.7701 10.1098 61.7801 10.2598 61.7701C10.4498 61.7601 10.5798 61.6301 10.5698 61.4601C10.5598 61.3001 10.4298 61.1801 10.2498 61.1801C9.9998 61.1801 9.7498 61.1701 9.4998 61.1801C9.3898 61.1801 9.3398 61.1601 9.3398 61.0301C9.3398 60.5401 9.3298 60.5401 9.8298 60.5401C9.9598 60.5401 10.0898 60.5401 10.2298 60.5401C10.4398 60.5301 10.5798 60.4201 10.5798 60.2401C10.5798 60.0701 10.4398 59.9501 10.2398 59.9401C9.9898 59.9401 9.7398 59.9301 9.4898 59.9401C9.3798 59.9401 9.3498 59.9101 9.3598 59.8101C9.3698 59.6901 9.3698 59.5601 9.3598 59.4301C9.3498 59.2301 9.4298 59.0601 9.5698 58.9201C9.7998 58.6901 10.0198 58.4601 10.2598 58.2401C10.4898 58.0201 10.5998 57.7501 10.5998 57.4301C10.5998 54.8601 10.5998 52.2901 10.5998 49.7201C10.5998 49.6501 10.6098 49.5801 10.6098 49.5001C10.6698 49.4701 10.7298 49.4901 10.7798 49.4801C10.9198 49.4601 10.9698 49.5401 10.9698 49.6601C10.9698 49.7301 10.9698 49.8001 10.9698 49.8801C10.9698 54.2001 10.9698 58.5301 10.9698 62.8501C10.9698 63.3401 10.9298 63.3801 10.4398 63.3801C10.1698 63.3801 9.8998 63.3801 9.6298 63.3801C9.5098 63.3801 9.4198 63.3901 9.3398 63.3201Z" fill="#E24747"/>
<path d="M17.9299 47.44C17.8699 47.18 17.7099 47.05 17.4399 47.03C17.3899 47.03 17.3299 47.02 17.2799 47.02C15.8699 47.02 14.4699 47.02 13.0599 47.02C12.9799 47.02 12.8999 47.03 12.8199 47.04C12.5699 47.08 12.4099 47.27 12.4099 47.52C12.3999 47.81 12.3999 48.1 12.3999 48.39C12.3399 48.45 12.2699 48.45 12.1999 48.45C11.8299 48.45 11.4699 48.45 11.0999 48.45C11.0299 48.45 10.9499 48.45 10.8999 48.39C11.0999 47.8 11.3499 47.22 11.5899 46.65C11.6699 46.46 11.8499 46.4 12.0499 46.4C12.5999 46.4 13.1599 46.4 13.7099 46.4C15.2099 46.4 16.6999 46.4 18.1999 46.4C18.5799 46.4 18.6899 46.47 18.8199 46.82C19.0199 47.33 19.2199 47.84 19.4199 48.34C19.3999 48.45 19.3099 48.44 19.2399 48.44C18.8699 48.45 18.4899 48.45 18.1199 48.44C17.9799 48.44 17.9299 48.38 17.9299 48.23C17.9499 47.98 17.9699 47.71 17.9299 47.44Z" fill="#FFD15C"/>
<path d="M9.3398 63.32C9.7598 63.32 10.1698 63.32 10.5898 63.32C10.8598 63.32 10.8798 63.3 10.8798 63.02C10.8798 58.61 10.8798 54.21 10.8798 49.8C10.8798 49.45 10.9198 49.5 10.5698 49.5C10.7598 49.42 10.9498 49.48 11.1398 49.47C11.1798 49.47 11.1898 49.5 11.1898 49.54C11.1898 49.59 11.1898 49.65 11.1898 49.7C11.1898 54.27 11.1898 58.85 11.1898 63.42C11.1898 63.6 11.1498 63.65 10.9698 63.64C10.5198 63.63 10.0698 63.64 9.6298 63.64C9.3198 63.64 9.3198 63.64 9.3398 63.32Z" fill="#AB2527"/>
<path d="M14.1699 57.4201C14.6199 57.4201 15.0699 57.4201 15.5199 57.4201C15.7899 57.4201 15.8399 57.3801 15.8699 57.1101C15.9699 56.2501 16.0999 55.4001 16.2199 54.5401C16.3599 53.5401 16.4899 52.5401 16.6199 51.5401C16.7099 50.9201 16.7999 50.3001 16.8899 49.6801C16.9099 49.5601 16.8899 49.5001 16.7399 49.5001C15.5699 49.5001 14.4099 49.5001 13.2399 49.5001C13.1699 49.5001 13.0999 49.4901 13.0899 49.5901C13.0599 49.5401 13.0199 49.4801 13.1299 49.4701C13.1699 49.4701 13.2099 49.4701 13.2499 49.4701C14.5399 49.4701 15.8199 49.4701 17.1099 49.4701C17.2699 49.4701 17.2999 49.5101 17.2699 49.6701C17.1299 50.5701 17.0199 51.4801 16.8899 52.3901C16.7599 53.3001 16.6399 54.2001 16.5099 55.1001C16.3999 55.9101 16.2799 56.7101 16.1799 57.5201C16.1599 57.6801 16.1199 57.7501 15.9299 57.7501C15.4499 57.7301 14.9699 57.7401 14.4899 57.7401C14.1999 57.7401 14.1999 57.7401 14.1699 57.4201Z" fill="#AB2527"/>
<path d="M19.7899 49.5001C19.6399 49.5001 19.4999 49.5101 19.3499 49.5001C19.2299 49.4901 19.1799 49.5401 19.1899 49.6601C19.1899 49.6901 19.1899 49.7301 19.1899 49.7601C19.1899 54.1901 19.1899 58.6201 19.1899 63.0601C19.1899 63.3201 19.1899 63.3201 19.4599 63.3201C19.7799 63.3201 20.1099 63.3201 20.4299 63.3201C20.6999 63.3201 20.7299 63.2901 20.7299 63.0101C20.7599 63.0101 20.7999 63.0101 20.8299 63.0001C20.9799 62.9801 21.0299 63.0301 21.0299 63.1901C21.0199 63.6401 21.0299 63.6401 20.5799 63.6401C20.1699 63.6401 19.7599 63.6301 19.3499 63.6401C19.1899 63.6501 19.1599 63.5901 19.1599 63.4401C19.1599 61.0101 19.1599 58.5701 19.1599 56.1401C19.1599 53.9901 19.1599 51.8401 19.1599 49.6901C19.1599 49.5001 19.2199 49.4401 19.3899 49.4701C19.5199 49.4901 19.6599 49.4201 19.7899 49.5001Z" fill="#7F191F"/>
<path d="M17.9299 47.4401C18.0099 47.6801 17.9599 47.9301 17.9599 48.1801C17.9599 48.3401 17.9899 48.4001 18.1699 48.3901C18.5299 48.3801 18.8899 48.3901 19.2499 48.3901C19.3099 48.3901 19.3799 48.4101 19.4299 48.3501L19.4399 48.3601C19.4999 48.5201 19.6599 48.7101 19.5899 48.8201C19.5199 48.9401 19.2799 48.8601 19.1099 48.8601C18.7699 48.8701 18.4299 48.8601 18.0899 48.8701C17.9599 48.8701 17.9199 48.8301 17.9199 48.7001C17.9399 48.2901 17.9299 47.8601 17.9299 47.4401Z" fill="#FEC446"/>
<path d="M10.92 48.39C11.42 48.39 11.92 48.39 12.42 48.39C12.45 48.87 12.45 48.87 11.97 48.87C11.6 48.87 11.23 48.87 10.87 48.87C10.75 48.87 10.72 48.84 10.77 48.73C10.82 48.62 10.86 48.51 10.92 48.39Z" fill="#FEC446"/>
<path d="M20.0298 59.9501C20.1998 59.8801 20.3798 59.9201 20.5498 59.9201C20.6898 59.9201 20.7498 59.8901 20.7398 59.7301C20.7298 59.4401 20.7398 59.1401 20.7298 58.8501C21.0098 59.0501 21.0298 59.3301 21.0298 59.6401C21.0198 59.9501 21.0298 59.9501 20.7198 59.9501C20.4898 59.9501 20.2598 59.9501 20.0298 59.9501Z" fill="#3EC4ED"/>
<path d="M20.0698 61.18C20.2198 61.11 20.3798 61.14 20.5298 61.15C20.7098 61.16 20.7598 61.09 20.7398 60.93C20.7298 60.81 20.7398 60.68 20.7398 60.56C20.7698 60.56 20.8098 60.56 20.8398 60.55C20.9898 60.53 21.0398 60.57 21.0398 60.74C21.0298 61.19 21.0398 61.19 20.5898 61.19C20.4098 61.18 20.2398 61.18 20.0698 61.18Z" fill="#3EC5ED"/>
<path d="M20.0698 62.4001C20.2298 62.3301 20.3898 62.3701 20.5498 62.3701C20.7098 62.3801 20.7598 62.3201 20.7398 62.1701C20.7298 62.0401 20.7398 61.9101 20.7398 61.7801C20.7698 61.7801 20.8098 61.7801 20.8398 61.7701C20.9898 61.7501 21.0398 61.7901 21.0398 61.9601C21.0298 62.4101 21.0398 62.4101 20.5898 62.4101C20.4098 62.4101 20.2398 62.4101 20.0698 62.4001Z" fill="#3EC5EE"/>
<path d="M13.97 51.3201C13.97 50.6501 14.52 50.1001 15.19 50.1001C15.86 50.1001 16.4 50.6501 16.4 51.3201C16.4 52.0001 15.85 52.5501 15.17 52.5501C14.51 52.5401 13.97 51.9901 13.97 51.3201Z" fill="#010101"/>
<path d="M15.4798 54.08C15.4798 54.28 15.4798 54.49 15.4798 54.69C15.4798 54.87 15.3598 55 15.1998 55.01C15.0298 55.02 14.8898 54.89 14.8898 54.7C14.8798 54.3 14.8798 53.9 14.8898 53.49C14.8898 53.3 15.0298 53.18 15.2098 53.19C15.3698 53.2 15.4798 53.32 15.4898 53.51C15.4798 53.7 15.4798 53.89 15.4798 54.08Z" fill="#010202"/>
<path d="M16.7099 62.3801C16.4699 62.3801 16.2199 62.3901 15.9799 62.3801C15.6999 62.3701 15.5199 62.1901 15.5099 61.9001C15.4999 61.6201 15.4999 61.3301 15.5099 61.0501C15.5199 60.7701 15.7099 60.5601 15.9899 60.5501C16.4799 60.5401 16.9599 60.5401 17.4499 60.5501C17.7299 60.5601 17.9299 60.7701 17.9299 61.0501C17.9399 61.3301 17.9399 61.6201 17.9299 61.9001C17.9199 62.1801 17.7399 62.3701 17.4599 62.3801C17.2099 62.3901 16.9599 62.3801 16.7099 62.3801Z" fill="#010101"/>
<path d="M13.93 62.3801C13.43 62.3701 13.02 61.9501 13.04 61.4601C13.06 60.9501 13.48 60.5401 13.97 60.5501C14.46 60.5601 14.88 60.9901 14.88 61.4701C14.87 61.9901 14.45 62.3901 13.93 62.3801Z" fill="#010101"/>
<path d="M15.7998 51.3401C15.7998 51.6701 15.5198 51.9601 15.1898 51.9601C14.8498 51.9601 14.5698 51.6701 14.5698 51.3201C14.5698 50.9901 14.8498 50.7101 15.1898 50.7001C15.5198 50.7001 15.7998 50.9901 15.7998 51.3401Z" fill="#FEC446"/>
<path d="M16.7098 61.78C16.6598 61.78 16.5998 61.78 16.5498 61.78C16.0498 61.78 16.0198 61.75 16.0898 61.24C16.0998 61.18 16.1098 61.14 16.1798 61.14C16.5298 61.14 16.8798 61.14 17.2298 61.14C17.3098 61.14 17.3398 61.18 17.3298 61.25C17.3298 61.26 17.3298 61.26 17.3298 61.27C17.3598 61.78 17.3598 61.78 16.8598 61.78C16.8198 61.78 16.7698 61.78 16.7098 61.78Z" fill="#7F191F"/>
<path d="M14.2699 61.47C14.2699 61.64 14.1399 61.78 13.9599 61.79C13.7799 61.8 13.6399 61.67 13.6399 61.5C13.6299 61.31 13.7699 61.16 13.9499 61.16C14.1199 61.15 14.2699 61.3 14.2699 61.47Z" fill="#FEC446"/>
<path d="M27.08 61.41C25.85 61.41 24.61 61.41 23.38 61.41C23.21 61.41 23.16 61.37 23.17 61.2C23.18 60.5 23.17 59.8 23.18 59.09C23.18 58.86 23.15 58.64 22.98 58.47C22.85 58.34 22.85 58.21 22.85 58.05C22.85 51.95 22.85 45.86 22.86 39.76C22.86 39.37 22.77 39.06 22.4 38.87H20.96C20.68 39.04 20.51 39.26 20.51 39.6C20.52 41.72 20.51 43.84 20.51 45.97C20.51 46.21 20.6 46.38 20.84 46.45C21.15 46.49 21.28 46.4 21.36 46.1C21.4 45.94 21.4 45.78 21.4 45.62C21.4 43.77 21.4 41.93 21.4 40.08C21.4 39.74 21.41 39.74 21.74 39.71C21.93 39.71 22.02 39.81 22.01 40C22.01 40.09 22.01 40.19 22.01 40.28C22.01 44.06 22.01 47.83 22.01 51.61C22.01 53.63 22 55.65 22.02 57.67C22.02 58.07 21.74 58.16 21.45 57.99C21.38 57.86 21.41 57.72 21.41 57.59C21.41 54.51 21.41 51.43 21.41 48.36C21.41 48.19 21.42 48.02 21.38 47.85C21.31 47.54 21.17 47.44 20.85 47.48C20.57 47.57 20.52 47.78 20.52 48.04C20.52 51.38 20.52 54.73 20.52 58.07C20.52 58.19 20.54 58.3 20.44 58.4C20.25 58.58 20.19 58.82 20.19 59.08C20.2 59.79 20.19 60.5 20.19 61.21C20.19 61.3 20.23 61.4 20.07 61.4C19.82 61.4 19.69 61.56 19.64 61.79C19.58 62 19.71 62.11 19.86 62.2C19.98 62.27 20.12 62.28 20.26 62.28C21.97 62.28 23.68 62.29 25.38 62.28C25.84 62.29 26.3 62.28 26.76 62.28C27.04 62.28 27.05 62.31 27.06 62.63C27.06 62.97 27.05 62.99 26.76 63C26.3 63.01 25.84 63 25.38 63C25.28 62.99 25.17 62.99 25.07 62.99C22.3 62.99 19.52 62.99 16.75 62.99C16.34 62.99 16.32 62.96 16.33 62.55C16.33 62.35 16.41 62.27 16.6 62.28C17.05 62.28 17.51 62.28 17.96 62.28C18.11 62.28 18.27 62.28 18.41 62.21C18.58 62.12 18.72 62.01 18.65 61.79C18.59 61.52 18.42 61.37 18.14 61.4C18.1 61.4 18.08 61.4 18.05 61.4C18.03 61.4 18.01 61.4 17.99 61.4C17.97 61.4 17.96 61.4 17.94 61.39C17.91 61.39 17.89 61.38 17.86 61.38C17.81 61.38 17.75 61.37 17.7 61.37C17.59 61.36 17.48 61.36 17.37 61.36C17.18 61.36 17 61.36 16.81 61.36C16.64 61.36 16.47 61.37 16.3 61.37C16.09 61.38 15.87 61.39 15.69 61.5C15.47 61.63 15.37 61.89 15.3 62.13C15.21 62.49 15.22 62.87 15.21 63.23C15.2 63.59 15.18 63.95 15.22 64.31C15.25 64.56 15.29 64.84 15.45 65.05C15.48 65.07 15.51 65.08 15.54 65.1C15.56 65.11 15.59 65.13 15.61 65.14C15.62 65.14 15.64 65.15 15.65 65.15C15.69 65.16 15.74 65.17 15.78 65.18C19.57 65.18 23.36 65.18 27.14 65.18C27.65 65.18 27.9 64.94 27.9 64.43C27.9 63.69 27.9 62.94 27.9 62.2C27.9 61.64 27.66 61.41 27.08 61.41Z" fill="#010101"/>
<path d="M19.6299 61.8C19.7499 62.14 19.8299 62.2001 20.2199 62.2001C21.8499 62.2001 23.4699 62.2001 25.0999 62.2001C25.1899 62.2001 25.2899 62.21 25.3799 62.21C25.5099 62.5 25.5099 62.8 25.3799 63.09C25.2999 63.1 25.2299 63.1101 25.1499 63.1101C22.2699 63.1101 19.3899 63.11 16.5099 63.12C16.2999 63.12 16.2099 63.0801 16.2399 62.8601C16.2699 62.6501 16.1499 62.3801 16.2899 62.2401C16.4099 62.1201 16.6799 62.2101 16.8799 62.2001C17.2799 62.1901 17.6799 62.2001 18.0899 62.2001C18.4499 62.2001 18.5299 62.14 18.6499 61.8C18.9699 61.8 19.2999 61.8 19.6299 61.8Z" fill="#FEE178"/>
<path d="M21.3301 58.1C21.2801 58 21.3001 57.9 21.3001 57.8C21.3001 54.56 21.3001 51.32 21.3001 48.08C21.3001 47.64 21.2301 47.55 20.8401 47.49C20.9501 47.15 20.9501 46.81 20.8401 46.47C21.2201 46.41 21.3001 46.32 21.3001 45.9C21.3001 43.96 21.3001 42.02 21.3001 40.08C21.3001 39.64 21.3001 39.64 21.7301 39.67C21.8501 39.8 21.8101 39.96 21.8101 40.11C21.8101 42.28 21.8101 44.44 21.8101 46.61C21.8101 50.23 21.8101 53.85 21.8101 57.47C21.8101 57.56 21.8101 57.64 21.8101 57.73C21.8101 58.14 21.7601 58.18 21.3301 58.1Z" fill="#F4C147"/>
<path d="M21.3301 58.1C21.3701 58.1 21.4201 58.09 21.4601 58.1C21.6901 58.14 21.7401 58.04 21.7401 57.82C21.7301 52.36 21.7401 46.9 21.7401 41.44C21.7401 40.85 21.7401 40.26 21.7401 39.67C22.0801 39.65 22.0801 39.65 22.0801 39.99C22.0801 45.92 22.0801 51.85 22.0801 57.78C22.0801 58.19 22.1101 58.14 21.7301 58.14C21.5901 58.14 21.4501 58.19 21.3301 58.1Z" fill="#FDB614"/>
<path d="M25.38 64.42C25.05 64.42 24.73 64.43 24.4 64.43C21.78 64.43 19.16 64.43 16.54 64.44C16.3 64.44 16.21 64.39 16.23 64.13C16.24 63.95 16.3 63.89 16.47 63.9C16.64 63.91 16.81 63.9 16.98 63.9C19.67 63.9 22.36 63.9 25.04 63.9C25.15 63.9 25.26 63.91 25.37 63.91C25.48 64.08 25.49 64.25 25.38 64.42Z" fill="#7B6E7A"/>
<path d="M21.73 61.4C20.96 61.47 20.96 61.47 20.96 60.72C20.96 60.2 20.97 59.68 20.96 59.15C20.96 58.97 21.02 58.9 21.2 58.91C21.38 58.92 21.56 58.92 21.74 58.93C21.82 59.02 21.82 59.13 21.82 59.24C21.82 59.86 21.82 60.47 21.82 61.09C21.81 61.19 21.81 61.31 21.73 61.4Z" fill="#FFD15C"/>
<path d="M21.73 61.4C21.73 60.58 21.73 59.75 21.73 58.93C22.4 58.87 22.4 58.87 22.4 59.53C22.4 60.08 22.39 60.64 22.41 61.19C22.42 61.39 22.35 61.44 22.17 61.42C22.02 61.4 21.87 61.4 21.73 61.4Z" fill="#FEC446"/>
<path d="M25.3799 63.0899C25.3799 62.7999 25.3799 62.4999 25.3799 62.2099C25.9099 62.2099 26.4399 62.1999 26.9699 62.1899C27.0899 62.1899 27.1299 62.2299 27.1299 62.3499C27.1699 63.0999 27.1699 63.0999 26.4299 63.0999C26.0799 63.1099 25.7299 63.0999 25.3799 63.0899Z" fill="#FFD15C"/>
<path d="M25.3799 64.42C25.3799 64.25 25.3799 64.08 25.3799 63.92C25.8999 63.92 26.4199 63.92 26.9399 63.91C27.1799 63.9 27.1099 64.06 27.1199 64.19C27.1299 64.32 27.1499 64.44 26.9399 64.44C26.4199 64.41 25.8999 64.42 25.3799 64.42Z" fill="#695F69"/>
</svg>
