<svg width="69" height="69" viewBox="0 0 69 69" fill="none" xmlns="http://www.w3.org/2000/svg">
<path d="M67.4414 63.2148C67.4414 62.5469 67.1094 62.2109 66.4414 62.2109C66.2188 62.2109 65.9961 62.2109 65.7734 62.2109C65.2148 62.3242 64.9922 62.1016 64.9922 61.4336C64.9922 54.8672 64.9922 48.1875 64.9922 41.6211C64.9922 41.0664 64.9922 40.5078 64.8828 39.8438C64.1016 35.3906 60.9883 32.3867 56.5352 31.8281C56.0898 31.7188 55.9805 31.6055 55.9805 31.1602C55.9805 29.3789 55.9805 27.6016 55.9805 25.8203C55.9805 25.1523 55.7578 24.707 55.0898 24.5938C54.4219 24.4844 54.0859 24.8164 53.8633 25.4844C53.7539 25.9297 53.7539 26.2656 53.7539 26.7109C53.7539 38.0625 53.7539 49.4141 53.7539 60.7656C53.7539 61.7656 53.7539 61.8789 52.75 61.8789C48.8555 61.8789 45.0742 61.8789 41.1758 61.8789C40.1758 61.8789 40.1758 61.8789 40.1758 60.875C40.1758 46.6289 40.1758 32.2734 40.1758 18.0273C40.1758 16.918 40.1758 16.918 41.2891 16.918C45.0742 16.918 48.8555 16.918 52.6406 16.918C52.8633 16.918 53.0859 16.918 53.3086 16.918C53.6406 16.918 53.7539 17.1406 53.7539 17.3594C53.7539 17.6953 53.7539 17.918 53.7539 18.1406C53.7539 18.8086 53.7539 19.5859 53.7539 20.2539C53.8633 21.0352 54.3086 21.3672 54.9766 21.3672C55.6445 21.2578 55.9805 20.8125 55.8672 20.1445C55.8672 19.1406 55.8672 18.1406 55.8672 17.1406C55.8672 16.6953 55.8672 16.582 56.4258 16.582C57.2031 16.582 57.5352 16.25 57.5352 15.4688C57.5352 14.4688 57.5352 13.5781 57.5352 12.5742C57.5352 11.5742 57.3164 11.3516 56.3125 11.3516C55.9805 11.3516 55.7578 11.3516 55.7578 11.0195C54.7539 7.01172 51.9727 4.89844 47.8555 4.89844C44.5156 4.89844 41.1758 4.89844 37.7266 4.89844C37.1719 4.89844 36.9492 4.78516 37.0586 4.11719C37.0586 3.67187 37.0586 3.22656 37.0586 2.78125C37.0586 1.89062 36.7266 1.55859 35.8359 1.55859C34.832 1.55859 33.9453 1.55859 32.9414 1.55859C32.1641 1.55859 31.8281 1.89062 31.8281 2.67187C31.8281 3.22656 31.8281 3.67188 31.8281 4.23047C31.8281 4.78516 31.7188 4.89844 31.1602 4.89844C27.6016 4.89844 24.0391 4.89844 20.4766 4.89844C17.0273 4.89844 14.0234 7.45703 13.2422 10.7969C13.1328 11.2422 13.0195 11.4648 12.4648 11.4648C11.6836 11.4648 11.3516 11.7969 11.3516 12.5742C11.3516 13.5781 11.3516 14.5781 11.3516 15.582C11.3516 16.3594 11.6836 16.6953 12.4648 16.6953C13.0195 16.6953 13.0195 16.918 13.0195 17.3594C13.0195 22.0352 13.0195 26.5977 13.0195 31.2734C13.0195 31.7187 12.9102 31.9414 12.4648 31.9414C8.23437 32.4961 5.23047 35.168 4.23047 39.0625C3.78516 40.7305 4.11719 42.4023 4.00781 44.0703C4.00781 44.8516 4.23047 45.2969 5.00781 45.4062C5.78516 45.4062 6.12109 45.0742 6.12109 44.1836C6.23047 43.1797 6.12109 42.2891 6.12109 41.2891C6.12109 39.2852 6.67578 37.6172 8.01172 36.2812C9.125 35.0547 10.5742 34.3906 12.1289 34.0547C12.3516 34.0547 12.5742 33.9453 12.6875 34.2773C12.6875 34.5 12.6875 34.832 12.4648 34.9453C12.2422 35.0547 12.1289 35.0547 11.9062 35.0547C9.01562 35.7227 7.01172 38.1719 7.01172 41.1758C7.01172 47.6328 7.01172 54.1992 7.01172 60.6523C7.01172 60.9883 7.01172 61.2109 7.01172 61.4336C7.01172 61.6562 6.78906 61.7656 6.56641 61.7656C6.34375 61.7656 6.12109 61.6562 6.12109 61.4336C6.12109 61.2109 6.12109 60.9883 6.12109 60.7656C6.12109 58.9844 6.12109 57.2031 6.12109 55.3125C6.12109 54.9766 6.12109 54.7539 6.00781 54.4219C5.89844 53.8633 5.45312 53.5312 4.89844 53.5312C4.11719 53.6406 3.89453 54.0859 3.89453 54.7539C3.89453 56.6484 3.89453 58.6484 3.89453 60.543C3.89453 61.8789 3.89453 61.8789 2.55859 61.8789C1.78125 61.8789 1.44531 62.2109 1.33594 63.1016C1.33594 63.8789 1.33594 64.7695 1.33594 65.5508C1.33594 66.8867 1.55859 67.1094 2.89453 67.1094H65.7734C65.8828 67.1094 66.1055 67.1094 66.2188 67.1094C66.8867 67.1094 67.2188 66.7734 67.2188 66.1055C67.4414 65.3281 67.4414 64.3242 67.4414 63.2148ZM9.34766 41.0664C9.34766 39.2852 10.6836 37.7266 12.3516 37.2812C13.0195 37.0586 13.0195 37.2812 13.0195 37.8398C13.0195 41.7344 13.0195 45.7422 13.0195 49.6367C13.0195 53.5312 13.0195 57.5352 13.0195 61.4336C13.0195 61.9883 12.9102 62.2109 12.3516 62.1016C11.4648 61.9883 10.5742 62.1016 9.68359 62.1016C9.34766 62.1016 9.23828 61.9883 9.23828 61.6562C9.34766 54.8672 9.34766 47.9648 9.34766 41.0664ZM56.6484 37.2812C58.4258 37.7266 59.6523 39.2852 59.6523 41.0664C59.6523 47.9648 59.6523 54.8672 59.6523 61.7656C59.6523 62.1016 59.5391 62.2109 59.207 62.2109C58.3164 62.2109 57.4258 62.2109 56.5352 62.2109C55.9805 62.2109 55.9805 62.1016 55.9805 61.543C55.9805 57.5352 55.9805 53.5312 55.9805 49.6367C55.9805 45.7422 55.9805 41.7344 55.9805 37.8398C55.8672 37.1719 56.0898 37.1719 56.6484 37.2812Z" fill="black"/>
<path d="M54.9766 24.707C54.1992 24.9297 53.9766 25.1523 53.9766 26.043C53.9766 29.0469 53.9766 31.9414 53.9766 34.9453C53.9766 43.7383 53.9766 52.5273 53.9766 61.3203C53.9766 61.9883 53.8633 62.2109 53.1953 62.2109C48.9688 62.2109 44.8516 62.2109 40.6211 62.2109C40.0664 62.2109 39.9531 62.1016 39.9531 61.543C39.9531 46.8516 39.9531 32.0508 39.9531 17.3594C39.9531 16.8047 40.0664 16.6953 40.6211 16.6953C44.8516 16.6953 49.1914 16.6953 53.418 16.6953C53.9766 16.6953 54.0859 16.8047 54.0859 17.3594C54.0859 18.3633 54.0859 19.2539 54.0859 20.2539C54.0859 20.9219 54.3086 21.3672 55.0898 21.4805C54.9766 22.5937 54.9766 23.5938 54.9766 24.707Z" fill="#2D57A7"/>
<path d="M5.00781 45.5195C5.78516 45.2969 6.00781 44.8516 6.00781 44.1836C6.00781 42.7344 5.89844 41.1758 6.12109 39.7305C6.78906 36.6133 9.46094 34.168 12.5742 33.9453C12.9102 33.9453 13.0195 34.0547 13.0195 34.3906C13.1328 35.0547 12.9102 35.2773 12.2422 35.5C9.34766 35.9453 7.34375 38.3945 7.34375 41.5117C7.34375 48.1875 7.34375 54.9766 7.34375 61.6562C7.34375 61.8789 7.45703 62.2109 7.23438 62.3242C6.89844 62.4336 6.45313 62.4336 6.12109 62.3242C5.89844 62.3242 6.00781 61.9883 6.00781 61.7656C6.00781 59.6523 6.00781 57.4258 6.00781 55.3125C6.00781 54.6445 5.78516 54.1992 5.00781 53.9766C5.00781 53.3086 5.00781 52.75 5.00781 52.082C6.34375 50.9727 5.67578 49.6367 5.67578 48.3008C5.67578 47.8555 5.12109 47.7422 5.00781 47.5195C5.00781 46.6289 5.00781 46.0742 5.00781 45.5195Z" fill="#E9E9EE"/>
<path d="M5.00781 47.2969C5.67578 47.4102 6.00781 47.8555 6.00781 48.6328C6.00781 49.3008 6.00781 49.9687 6.00781 50.6367C6.00781 51.3047 5.78516 51.75 5.00781 51.9727C4.33984 51.8594 4.00781 51.418 4.00781 50.75C4.00781 50.082 4.00781 49.4141 4.00781 48.6328C4.00781 47.8555 4.23047 47.4102 5.00781 47.2969Z" fill="black"/>
<path d="M15.0234 39.3984C15.0234 32.0508 15.0234 24.707 15.0234 17.3594C15.0234 16.8047 15.1367 16.582 15.6914 16.582C19.9219 16.582 24.1484 16.582 28.3789 16.582C28.9336 16.582 29.0469 16.6953 29.0469 17.25C29.0469 31.9414 29.0469 46.7422 29.0469 61.4336C29.0469 61.9883 28.9336 62.1016 28.3789 62.1016C24.1484 62.1016 19.8086 62.1016 15.582 62.1016C15.0234 62.1016 14.9141 61.8789 14.9141 61.4336C15.0234 54.0859 15.0234 46.7422 15.0234 39.3984Z" fill="#2D57A7"/>
<path d="M21.7031 12.1289C21.4804 11.5742 21.1445 11.3516 20.5898 11.4648C18.9179 11.4648 17.25 11.4648 15.6914 11.4648C15.1367 11.4648 15.1367 11.3516 15.2461 10.9062C16.0273 8.57031 18.1406 6.89844 20.8125 6.89844C28.3789 6.89844 35.9453 6.89844 43.4023 6.89844C45.0742 6.89844 46.7422 6.89844 48.4101 6.89844C50.75 6.89844 52.8633 8.45703 53.6406 10.6836C53.8633 11.4648 53.8633 11.4648 53.0859 11.4648C44.1836 11.4648 35.2773 11.4648 26.375 11.4648C25.8203 11.4648 25.2617 11.5742 25.039 12.2422C24.9297 12.5742 24.707 12.6875 24.4844 12.6875C23.8164 12.6875 23.0351 12.6875 22.3711 12.6875C22.0351 12.5742 21.8125 12.4648 21.7031 12.1289Z" fill="#58A2D9"/>
<path d="M34.3906 65.5508C24.3711 65.5508 14.3555 65.5508 4.33985 65.5508C3.33985 65.5508 3.33985 65.4375 3.44922 64.4375C3.44922 64.2148 3.5625 64.1016 3.78516 64.1016C3.89453 64.1016 4.11719 64.1016 4.23047 64.1016C24.3711 64.1016 44.5156 64.1016 64.6602 64.1016C65.4375 64.1016 65.6602 64.5469 65.4375 65.2148C65.4375 65.4375 65.3281 65.4375 65.1055 65.4375C64.8828 65.4375 64.7695 65.4375 64.5469 65.4375C54.5312 65.5508 44.5156 65.5508 34.3906 65.5508Z" fill="#1A8ACB"/>
<path d="M21.7031 12.1289C21.8125 12.2422 21.9258 12.3516 22.1484 12.3516C22.9258 12.3516 23.7031 12.3516 24.4844 12.3516C24.707 12.3516 24.8164 12.2422 24.9297 12.1289C24.9297 13.1328 25.2617 13.3555 26.375 13.3555C35.8359 13.3555 45.4062 13.3555 54.8672 13.3555C55.4219 13.3555 55.6445 13.4648 55.6445 14.1328C55.6445 14.6914 55.4219 14.8008 54.9766 14.8008C41.2891 14.8008 27.7109 14.8008 14.0234 14.8008C13.4648 14.8008 13.3555 14.6914 13.3555 14.1328C13.3555 13.5781 13.4648 13.3555 14.0234 13.4648C16.1367 13.4648 18.3633 13.4648 20.4766 13.4648C21.3672 13.3555 21.7031 13.0195 21.7031 12.1289Z" fill="#1A8ACB"/>
<path d="M62.9922 51.082C62.9922 54.5313 62.9922 57.9805 62.9922 61.543C62.9922 62.1016 62.7695 62.2109 62.3242 62.2109C61.8789 62.2109 61.6563 62.1016 61.6563 61.543C61.6563 54.8672 61.6563 48.3008 61.6563 41.6211C61.6563 38.1719 59.875 35.9453 56.4258 35.2773C55.5352 35.168 56.0899 34.5 55.9805 34.168C55.8672 33.6094 56.3125 33.9453 56.5352 33.9453C60.3203 34.5 62.9922 37.3945 62.9922 41.2891C62.9922 44.5156 62.9922 47.8555 62.9922 51.082Z" fill="#E9E9EE"/>
<path d="M34.5 16.6953C35.5 16.6953 36.5039 16.6953 37.5039 16.6953C37.8398 16.6953 38.0625 16.8047 38.0625 17.1406C38.0625 17.918 38.0625 18.6953 38.0625 19.4766C38.0625 19.8086 37.9492 19.9219 37.6172 19.9219C35.6133 19.9219 33.6094 19.9219 31.6055 19.9219C31.1602 19.9219 31.1602 19.6992 31.1602 19.3633C31.1602 18.5859 31.1602 17.8047 31.1602 17.0273C31.1602 16.6953 31.2734 16.582 31.6055 16.582C32.4961 16.6953 33.5 16.6953 34.5 16.6953Z" fill="#58A2D9"/>
<path d="M34.5 21.9258C35.5 21.9258 36.3906 21.9258 37.3945 21.9258C37.8398 21.9258 37.9492 22.0352 37.9492 22.4805C37.9492 23.2578 37.9492 24.0391 37.9492 24.8164C37.9492 25.1523 37.8398 25.375 37.5039 25.375C35.5 25.375 33.5 25.375 31.4961 25.375C31.1601 25.375 30.9375 25.2617 31.0508 24.9297C31.0508 24.1484 31.0508 23.2578 31.0508 22.4805C31.0508 22.0352 31.1601 22.0352 31.4961 22.0352C32.4961 21.9258 33.5 21.9258 34.5 21.9258Z" fill="#58A2D9"/>
<path d="M34.5 27.2656C35.5 27.2656 36.3906 27.2656 37.3945 27.2656C37.8398 27.2656 37.9492 27.3789 37.9492 27.8242C37.9492 28.6016 37.9492 29.3789 37.9492 30.1602C37.9492 30.4922 37.8398 30.7148 37.5039 30.7148C35.5 30.7148 33.5 30.7148 31.4961 30.7148C31.1601 30.7148 30.9375 30.6055 31.0508 30.2695C31.0508 29.4922 31.0508 28.6016 31.0508 27.8242C31.0508 27.3789 31.1601 27.3789 31.4961 27.3789C32.4961 27.2656 33.5 27.2656 34.5 27.2656Z" fill="#58A2D9"/>
<path d="M34.5 41.0664C33.5 41.0664 32.6094 41.0664 31.6055 41.0664C31.1602 41.0664 31.0508 40.9531 31.0508 40.5078C31.0508 39.7305 31.0508 38.9531 31.0508 38.1719C31.0508 37.8398 31.1602 37.6172 31.4961 37.6172C33.5 37.6172 35.5 37.6172 37.5039 37.6172C37.8398 37.6172 38.0625 37.7266 37.9492 38.0625C37.9492 38.8398 37.9492 39.7305 37.9492 40.5078C37.9492 40.9531 37.8398 40.9531 37.5039 40.9531C36.5039 41.0664 35.5 41.0664 34.5 41.0664Z" fill="#58A2D9"/>
<path d="M34.5 46.2969C33.5 46.2969 32.4961 46.2969 31.4961 46.2969C31.1602 46.2969 31.0508 46.1836 31.0508 45.8516C31.0508 45.0742 31.0508 44.1836 31.0508 43.4023C31.0508 43.0703 31.1602 42.957 31.4961 42.957C33.5 42.957 35.6133 42.957 37.6172 42.957C37.9492 42.957 38.0625 43.0703 38.0625 43.4023C38.0625 44.1836 38.0625 44.9609 38.0625 45.7422C38.0625 46.1836 37.9492 46.2969 37.5039 46.2969C36.5039 46.2969 35.5 46.2969 34.5 46.2969Z" fill="#58A2D9"/>
<path d="M34.5 51.6406C33.5 51.6406 32.4961 51.6406 31.4961 51.6406C31.1602 51.6406 31.0508 51.5273 31.0508 51.1953C31.0508 50.4141 31.0508 49.5234 31.0508 48.7461C31.0508 48.4102 31.1602 48.3008 31.4961 48.3008C33.5 48.3008 35.6133 48.3008 37.6172 48.3008C37.9492 48.3008 38.0625 48.4102 38.0625 48.7461C38.0625 49.5234 38.0625 50.4141 38.0625 51.1953C38.0625 51.5273 37.9492 51.6406 37.6172 51.6406C36.5039 51.6406 35.5 51.6406 34.5 51.6406Z" fill="#58A2D9"/>
<path d="M34.5 56.8711C33.5 56.8711 32.4961 56.8711 31.4961 56.8711C31.0508 56.8711 30.9375 56.7578 31.0508 56.3125C31.0508 55.5352 31.0508 54.7539 31.0508 53.9766C31.0508 53.6406 31.1602 53.5312 31.4961 53.5312C33.5 53.5312 35.5 53.5312 37.5039 53.5312C37.8399 53.5312 37.9492 53.6406 37.9492 53.9766C37.9492 54.7539 37.9492 55.6445 37.9492 56.4258C37.9492 56.7578 37.8399 56.8711 37.5039 56.8711C36.5039 56.8711 35.5 56.8711 34.5 56.8711Z" fill="#58A2D9"/>
<path d="M34.5 58.8711C35.5 58.8711 36.3906 58.8711 37.3945 58.8711C37.8398 58.8711 37.9492 58.9844 37.9492 59.4297C37.9492 60.207 37.9492 60.9883 37.9492 61.7656C37.9492 62.1016 37.8398 62.2109 37.5039 62.2109C35.5 62.2109 33.3867 62.2109 31.3828 62.2109C31.0508 62.2109 30.9375 62.1016 30.9375 61.7656C30.9375 60.9883 30.9375 60.207 30.9375 59.4297C30.9375 58.9844 31.0508 58.8711 31.4961 58.8711C32.4961 58.8711 33.5 58.8711 34.5 58.8711Z" fill="#58A2D9"/>
<path d="M34.3906 35.8359C33.3867 35.8359 32.4961 35.8359 31.4961 35.8359C31.0508 35.8359 30.9375 35.7227 30.9375 35.2773C30.9375 34.5 30.9375 33.7227 30.9375 32.9414C30.9375 32.6094 31.0508 32.4961 31.3828 32.4961C33.3867 32.4961 35.3906 32.4961 37.3945 32.4961C37.7266 32.4961 37.8398 32.6094 37.8398 32.9414C37.8398 33.7227 37.8398 34.5 37.8398 35.2773C37.8398 35.7227 37.6172 35.8359 37.2812 35.8359C36.3906 35.7227 35.3906 35.8359 34.3906 35.8359Z" fill="#58A2D9"/>
<path d="M35.168 4.23047C35.3906 4.89844 34.9453 4.89844 34.5 4.89844C33.832 4.89844 33.832 4.67578 33.832 4.11719C33.832 3.5625 34.0547 3.44922 34.5 3.44922C35.0547 3.44922 35.2773 3.67188 35.168 4.23047Z" fill="#1A8ACB"/>
<path d="M52.6406 49.6367C52.6406 50.3047 52.6406 50.8594 52.6406 51.5273C52.6406 52.082 52.3047 52.5273 51.75 52.5273C51.1953 52.6406 50.75 52.1953 50.75 51.5273C50.75 50.1914 50.75 48.9687 50.75 47.6328C50.75 47.0742 51.082 46.6289 51.75 46.7422C52.3047 46.7422 52.6406 47.0742 52.6406 47.7422C52.6406 48.4101 52.6406 48.9687 52.6406 49.6367Z" fill="black"/>
</svg>
