<svg width="69" height="69" viewBox="0 0 69 69" fill="none" xmlns="http://www.w3.org/2000/svg">
<path d="M39.2852 67.8867C38.3945 67.6641 37.3945 67.6641 36.3906 67.6641C32.832 67.4414 29.2695 67.1094 25.9297 66.1055C25.1524 65.8828 24.3711 65.5508 23.8164 65.1055C23.4805 64.8828 23.1484 64.5469 23.1484 64.1016C23.0352 63.9922 23.1484 63.7695 23.1484 63.5469C23.1484 62.8789 23.1484 62.2109 23.1484 61.543C23.1484 52.6406 22.9258 43.625 23.0352 34.7227C23.0352 34.5 23.0352 34.2773 23.0352 34.168C22.9258 33.3867 23.2578 32.832 23.8164 32.3867C24.3711 31.9414 24.9297 31.7187 25.5977 31.4961C27.2656 30.9375 29.0469 30.6055 30.8281 30.3828C31.0508 30.3828 31.1602 30.3828 31.3828 30.2695C33.832 29.9375 36.2813 29.7148 38.8399 29.7148C39.5078 29.6016 40.1758 29.6016 40.8438 29.6016C44.293 29.4922 47.8555 29.6016 51.3047 29.6016C51.6406 29.6016 51.9727 29.7148 52.3047 29.9375C56.2031 30.0469 60.0977 30.3828 63.9922 31.2734C64.7695 31.4961 65.5508 31.7187 66.2188 32.0508C66.8867 32.3867 67.5547 32.832 68 33.5C68 43.8477 68 54.1992 68 64.5469C67.7774 65.2148 67.332 65.5508 66.7734 65.8828C65.7734 66.4414 64.6602 66.7734 63.5469 66.9961C60.4297 67.6641 57.4258 68 54.3086 68.1094C53.418 68.1094 52.418 68.1094 51.5274 68.2227C51.1953 68.2227 50.8594 68.2227 50.5274 68.2227C50.3047 68.1094 50.082 68.2227 49.8594 68.1094C49.6367 68.1094 49.4141 68.1094 49.1914 68.1094C48.9688 68.1094 48.7461 68.1094 48.5234 68.1094C48.0781 68.1094 47.6328 68 47.1875 68.2227C46.5195 68.2227 45.8516 68.2227 45.0742 68.2227C44.4063 68.1094 43.8477 68.2227 43.1797 68.1094C42.957 68.1094 42.7344 68.1094 42.5117 68.1094C42.2891 68.1094 42.0664 68.1094 41.8438 68.1094C41.6211 68.1094 41.3984 68.1094 41.1758 68.1094C40.9531 68.1094 40.6211 68 40.3984 68.2227C39.9531 67.8867 39.6211 67.8867 39.2852 67.8867Z" fill="#010101"/>
<path d="M42.957 67.7773C43.625 67.8867 44.293 67.6641 44.9609 67.8867C44.293 67.8867 43.625 67.8867 42.957 67.8867V67.7773Z" fill="#1B1B1A"/>
<path d="M47.0742 67.8867C47.5195 67.6641 47.9648 67.7774 48.4102 67.7774V67.8867C47.8555 67.8867 47.4102 67.8867 47.0742 67.8867Z" fill="#252424"/>
<path d="M40.2852 67.8867C40.5078 67.6641 40.8438 67.7774 41.0664 67.7774C41.0664 67.7774 41.1758 67.7774 41.0664 67.8867C40.7305 67.8867 40.5078 67.8867 40.2852 67.8867Z" fill="#888484"/>
<path d="M41.0664 67.8867C41.2891 67.7773 41.5117 67.7773 41.7344 67.7773C41.7344 67.7773 41.8438 67.7773 41.7344 67.8867C41.5117 67.8867 41.2891 67.8867 41.0664 67.8867Z" fill="#686565"/>
<path d="M41.7344 67.8867V67.7773C41.957 67.7773 42.1797 67.7773 42.4023 67.7773C42.4023 67.7773 42.5117 67.7773 42.4023 67.8867C42.0664 67.8867 41.8438 67.8867 41.7344 67.8867Z" fill="#4D4A4A"/>
<path d="M42.2891 67.8867V67.7773C42.5117 67.7773 42.7344 67.7773 42.957 67.7773V67.8867C42.7344 67.8867 42.5117 67.8867 42.2891 67.8867Z" fill="#353332"/>
<path d="M48.3008 67.8867V67.7773C48.5234 67.7773 48.7461 67.7773 48.9688 67.7773C48.9688 67.7773 48.9688 67.7773 48.9688 67.8867C48.7461 67.8867 48.5234 67.8867 48.3008 67.8867Z" fill="#403E3E"/>
<path d="M48.9688 67.8867V67.7773C49.1914 67.7773 49.4141 67.7773 49.6367 67.7773C49.6367 67.7773 49.6367 67.7773 49.6367 67.8867C49.4141 67.8867 49.1914 67.8867 48.9688 67.8867Z" fill="#595756"/>
<path d="M49.6367 67.8867C49.8594 67.7773 50.082 67.664 50.3047 67.8867C50.082 67.8867 49.8594 67.8867 49.6367 67.8867Z" fill="#777474"/>
<path d="M21.5898 52.418C21.3672 52.9727 21.0352 53.1953 20.4766 53.1953C16.4727 53.1953 12.4648 53.0859 8.45703 52.6406C6.56641 52.418 4.67578 52.082 3.00391 51.418C2.67188 51.3047 2.33594 51.082 2.00391 50.8594C1.33594 50.4141 1.11328 49.8594 1.11328 49.1914C1.11328 40.2852 1.11328 31.3828 1.11328 22.3711C1.11328 21.3672 1.55859 20.6992 2.33594 20.2539C3.5625 19.5859 4.89844 19.3633 6.12109 19.0312C10.2383 18.25 14.4687 18.1406 18.5859 18.0273C18.918 17.8047 19.2539 17.8047 19.4766 17.8047C20.5898 17.8047 21.8125 17.8047 22.9258 17.8047C27.043 17.8047 31.0508 18.0273 35.0547 18.8086C36.168 19.0312 37.1719 19.3633 38.1719 19.8086C39.1758 20.2539 39.6211 21.0352 39.6211 22.1484C39.5078 23.5937 39.6211 25.0391 39.6211 26.4883C39.6211 27.2656 39.2852 27.6016 38.5078 27.8242C37.6172 27.8242 37.1719 27.3789 37.1719 26.4883C37.1719 25.8203 37.1719 25.1523 37.1719 24.4844C37.1719 24.0391 37.0586 23.9258 36.6133 24.0391C33.3867 24.9297 30.0469 25.2617 26.8203 25.375C26.375 25.375 25.8203 25.4844 25.375 25.4844C23.1484 25.4844 20.9219 25.4844 18.6953 25.4844C18.3633 25.4844 18.0273 25.4844 17.6953 25.4844C16.8047 25.4844 16.6953 25.4844 16.6953 26.4883C16.6953 26.7109 16.6953 26.9336 16.6953 27.043C16.6953 31.9414 16.6953 36.8359 16.6953 41.7344C16.6953 41.957 16.6953 42.2891 16.6953 42.5117C16.6953 43.9609 16.6953 45.5195 16.6953 46.9648C16.6953 47.6328 16.4727 48.1875 15.8047 48.4102C14.9141 48.5234 14.5781 48.3008 14.2461 47.5195C14.1328 45.8516 14.2461 44.1836 14.2461 42.625C14.2461 42.2891 14.2461 41.8437 14.2461 41.5117C14.2461 36.3906 14.2461 31.2734 14.2461 26.1523C14.2461 25.375 14.1328 25.375 13.4648 25.2617C12.4648 25.2617 11.3516 25.1523 10.3516 25.0391C9.57031 24.9297 9.46094 25.0391 9.46094 25.8203C9.46094 26.4883 9.46094 27.043 9.46094 27.7109C9.46094 28.2695 9.68359 28.3789 10.1289 28.3789C10.6836 28.3789 11.1289 28.3789 11.6836 28.3789C12.4648 28.3789 13.0195 28.8242 13.0195 29.4922C13.0195 30.1602 12.4648 30.7148 11.6836 30.8281C11.1289 30.9375 10.5742 30.8281 10.0156 30.8281C9.57031 30.8281 9.34766 31.0508 9.34766 31.4961C9.34766 32.0508 9.34766 32.4961 9.34766 33.0547C9.34766 33.3867 9.34766 33.6094 9.34766 33.9453C9.34766 34.832 9.34766 34.832 10.2383 34.832C10.6836 34.832 11.2422 34.832 11.6836 34.832C12.3516 34.9453 12.9102 35.3906 13.0195 36.0586C13.0195 36.6133 12.6875 37.0586 11.9062 37.2812C11.2422 37.2812 10.6836 37.2812 10.0156 37.2812C9.57031 37.2812 9.34766 37.3945 9.34766 37.8398C9.34766 38.8398 9.34766 39.7305 9.34766 40.7305C9.34766 41.1758 9.57031 41.2891 9.90625 41.2891C10.4609 41.2891 11.0195 41.2891 11.6836 41.2891C12.4648 41.2891 12.7969 41.6211 12.9102 42.5117C12.6875 43.4023 12.2422 43.7383 11.4648 43.7383C10.9062 43.7383 10.3516 43.7383 9.79297 43.7383C9.34766 43.7383 9.34766 44.0703 9.34766 44.4062C9.34766 45.1836 9.34766 45.8516 9.34766 46.6289C9.34766 46.8516 9.34766 47.1875 9.34766 47.4102C9.23828 47.9648 8.79297 48.4102 8.125 48.4102C7.56641 48.4102 7.01172 47.9648 6.89844 47.4102C6.78906 46.9648 6.89844 46.4062 6.89844 45.9648C6.89844 44.8516 6.89844 43.625 6.89844 42.4023C6.89844 41.1758 6.89844 39.9531 6.89844 38.7305C6.89844 35.6133 6.89844 32.4961 6.89844 29.3789C6.89844 28.0469 6.89844 26.7109 6.89844 25.4844C6.89844 24.5938 6.89844 24.5937 6.00781 24.2617C5.12109 24.1484 4.33984 23.7031 3.44922 23.7031C3.33984 24.4844 3.44922 24.8164 3.44922 25.1523C3.44922 30.7148 3.44922 36.3906 3.44922 41.957C3.44922 42.1797 3.44922 42.5117 3.44922 42.7344C3.44922 44.5156 3.44922 46.4062 3.44922 48.1875C3.44922 48.8555 3.67188 49.1914 4.23047 49.3008C6.00781 49.7461 7.78906 50.082 9.57031 50.1914C13.0195 50.5273 16.582 50.75 20.0312 50.75C20.2539 50.75 20.4766 50.75 20.6992 50.75C21.4805 51.082 21.8125 51.5273 21.5898 52.418Z" fill="#010101"/>
<path d="M52.1953 29.6016C50.4141 29.3789 48.5234 29.6016 46.7422 29.4922C44.7383 29.3789 42.7344 29.6016 40.6211 29.4922C40.3984 29.2695 40.3984 28.9336 40.3984 28.6016C40.3984 26.4883 40.3984 24.2617 40.3984 22.1484C40.3984 21.0352 39.9531 20.3672 39.0625 19.8086C37.9492 19.1406 36.7266 18.8086 35.3906 18.4727C33.1641 18.0273 30.9375 17.8047 28.7148 17.6953C26.7109 17.582 24.8164 17.4727 22.8164 17.4727C22.5938 17.4727 22.4805 17.4727 22.2578 17.3594C22.1484 17.3594 22.1484 17.25 22.0352 17.25C21.8125 16.918 21.8125 16.582 21.8125 16.3594C21.8125 13.6875 21.8125 11.0195 21.8125 8.23438C21.8125 7.90235 21.8125 7.56641 22.0352 7.34375C22.9258 7.1211 23.7031 7.45703 24.4844 7.56641C24.9297 7.67969 24.8164 8.125 24.8164 8.45704C24.8164 10.2383 24.8164 11.9063 24.8164 13.6875C24.8164 14.1328 24.8164 14.4688 24.8164 14.9141C24.8164 15.1367 24.8164 15.4688 24.9297 15.6914C25.0391 16.1367 25.2617 16.4727 25.707 16.3594C26.1523 16.3594 26.4883 16.0273 26.5977 15.582C26.7109 15.2461 26.5977 14.9141 26.5977 14.5781C26.5977 13.1328 26.5977 13.1328 28.0469 13.1328C28.3789 13.1328 28.6016 13.1328 28.9336 13.1328C29.3789 13.0195 29.7148 12.7969 29.7148 12.2422C29.7148 11.7969 29.3789 11.4648 28.9336 11.3516C28.3789 11.2422 27.9336 11.3516 27.3789 11.2422C26.7109 11.2422 26.4883 11.0195 26.4883 10.3516C26.4883 9.6836 26.4883 9.01563 26.4883 8.23438C26.4883 7.78907 26.8203 7.45703 27.2656 7.56641C28.2695 7.67969 29.3789 7.56641 30.3828 7.78907C31.3828 7.90235 31.4961 8.01172 31.4961 9.01563C31.4961 11.1289 31.4961 13.2422 31.4961 15.3594C31.4961 15.582 31.4961 15.8047 31.4961 16.0273C31.6055 16.582 31.9414 16.918 32.3867 16.918C32.832 16.918 33.1641 16.582 33.1641 16.0273C33.1641 14.5781 33.1641 13.0195 33.1641 11.5742C33.1641 10.5742 33.1641 9.6836 33.1641 8.67969C33.1641 8.01172 33.3867 7.78907 34.0547 7.78907C35.168 7.78907 36.2813 7.78907 37.3945 7.78907C41.0664 7.67969 44.8516 7.56641 48.5234 6.78907C48.9687 6.67578 49.4141 6.56641 49.7461 6.45313C50.6367 6.23047 50.75 6.34375 50.8594 7.34375C50.8594 7.56641 50.8594 7.78907 50.8594 8.01172C50.8594 13.9102 50.8594 19.9219 50.8594 25.8203C50.8594 26.7109 50.9727 27.3789 51.8594 27.8242C52.082 28.4922 52.082 29.0469 52.1953 29.6016Z" fill="#192331"/>
<path d="M52.1953 27.8242C51.3047 27.8242 50.9727 27.4883 50.9727 26.4883C50.9727 20.0312 50.9727 13.5781 50.9727 7.12109C50.9727 6.5664 50.8594 6.45312 50.3047 6.5664C48.0781 7.23437 45.6289 7.45703 43.293 7.67968C40.2852 7.90234 37.2812 7.90234 34.2773 7.90234C33.832 7.90234 33.7227 8.01172 33.7227 8.45703C33.7227 10.9062 33.7227 13.4648 33.7227 15.9141C33.7227 16.8047 32.9414 17.3594 32.1641 17.0273C31.7188 16.8047 31.6055 16.3594 31.6055 15.9141C31.6055 13.4648 31.6055 11.1289 31.6055 8.67968C31.6055 8.125 31.4961 7.90234 30.9375 7.90234C29.8242 7.90234 28.7148 7.78906 27.6016 7.67968C27.1563 7.67968 27.043 7.67968 27.043 8.23437C27.043 9.01562 27.043 9.68359 27.043 10.4609C27.043 10.9062 27.1563 11.0195 27.6016 11.0195C28.0469 11.0195 28.6016 11.0195 29.0469 11.0195C29.8242 11.0195 30.2695 11.4648 30.2695 12.1289C30.2695 12.7969 29.8242 13.1328 29.0469 13.1328C28.6016 13.1328 28.0469 13.1328 27.6016 13.1328C27.1563 13.1328 27.043 13.2422 27.043 13.6875C27.043 14.2461 27.043 14.6914 27.043 15.2461C27.043 15.9141 26.5977 16.4727 26.043 16.4727C25.4844 16.4727 25.0391 16.1367 24.9297 15.3594C24.8164 14.3555 24.9297 13.4648 24.9297 12.4648C24.9297 11.0195 24.9297 9.46093 24.9297 8.01171C24.9297 7.5664 24.8164 7.34375 24.3711 7.34375C23.7031 7.34375 23.0352 7.12109 22.2578 7.12109C21.7031 7.23437 21.1445 7.01172 20.6992 6.89843C19.9219 6.67578 19.8086 6.67578 19.8086 7.5664C19.8086 10.0156 19.8086 12.4648 19.8086 14.8008C19.8086 15.1367 19.8086 15.4687 19.6992 15.8047C19.4766 16.3594 19.1406 16.582 18.5859 16.4727C17.6953 16.25 17.582 16.0273 17.582 15.1367C17.582 11.7969 17.582 8.34765 17.582 5.00781C17.582 4.11718 17.918 3.44922 18.6953 3.11718C19.9219 2.44922 21.2578 2.11328 22.7031 1.89062C25.9297 1.33593 29.1562 1.22265 32.3867 1.11328C36.2812 0.999996 40.1758 0.999996 43.9609 1.33593C46.2969 1.55859 48.7461 1.78125 50.9727 2.55859C51.418 2.67187 51.75 2.89453 52.082 3.11718C52.75 3.5625 53.0859 4.11718 53.0859 4.89843C53.0859 12.0195 53.0859 19.2539 53.0859 26.375C53.1953 27.3789 52.9727 27.7109 52.1953 27.8242Z" fill="#010101"/>
<path d="M14.4688 47.9648C14.6914 48.5234 15.1367 48.6328 15.6914 48.6328C16.1367 48.6328 16.4727 48.8555 16.918 48.9688C18.25 49.5234 19.6992 49.9688 21.2578 50.082C21.9258 50.1914 21.9258 50.082 21.9258 49.4141C21.9258 47.5195 21.9258 45.6289 21.9258 43.7383C21.9258 43.4023 21.9258 43.1797 22.0352 42.8477C22.0352 42.7344 22.1484 42.7344 22.1484 42.625C22.4805 42.5117 22.8164 42.4023 23.0352 42.7344C23.0352 45.6289 23.0352 48.6328 23.0352 51.5273C23.0352 51.6406 23.0352 51.75 22.9258 51.8594C22.4805 51.9727 21.9258 51.6406 21.4805 52.082C21.4805 51.082 21.1445 50.75 20.1445 50.75C16.4727 50.75 12.7969 50.6367 9.125 50.1914C7.23438 49.9688 5.45313 49.7461 3.67188 49.1914C3.22656 49.0781 3.00391 48.8555 3.00391 48.3008C3.00391 46.4063 3.00391 44.5156 3.00391 42.5117C3.11719 42.4023 3.33984 42.2891 3.44922 42.2891C4.45313 42.2891 5.45313 42.2891 6.45313 42.2891C6.67578 42.2891 6.78906 42.4023 6.89844 42.5117C6.89844 43.9609 6.89844 45.5195 6.89844 46.9648C6.89844 47.7422 7.23438 48.1875 7.90234 48.1875C8.57031 48.1875 9.01562 47.7422 9.01562 46.9648C9.01562 46.0742 9.01562 45.0742 9.01562 44.1836C9.01562 43.625 9.125 43.4023 9.68359 43.5156C9.90625 43.625 10.0156 43.7383 10.1289 43.8477C11.1289 45.0742 12.3516 46.0742 13.6875 46.9648C14.1328 47.5195 14.2461 47.7422 14.4688 47.9648Z" fill="#637783"/>
<path d="M18.6953 16.582C19.4766 16.3594 19.6992 16.0273 19.6992 15.2461C19.6992 12.5742 19.6992 9.90624 19.6992 7.23437C19.6992 6.67577 19.6992 6.45312 20.3672 6.67577C21.0352 6.89843 21.7031 7.01171 22.3711 7.23437C22.1484 7.45702 22.2578 7.67968 22.2578 7.90234C22.2578 10.6836 22.2578 13.4648 22.2578 16.25C22.2578 16.582 22.3711 16.8047 22.3711 17.1406C22.2578 17.25 22.0352 17.3594 21.9258 17.3594C21.0352 17.3594 20.1445 17.3594 19.2539 17.3594C19.0313 17.3594 18.918 17.25 18.8086 17.1406C18.6953 16.918 18.6953 16.6953 18.6953 16.582Z" fill="#192331"/>
<path d="M23.0352 52.082C23.1485 48.9688 23.1485 45.9648 23.0352 42.8477C22.8164 42.5117 22.8164 42.1797 22.8164 41.8438C22.8164 39.6211 22.8164 37.2812 22.8164 35.0547C22.8164 34.7227 22.8164 34.2773 22.4805 34.0547C21.9258 33.6094 21.8125 33.0547 22.2578 32.3867C22.7031 31.6055 23.3711 31.0508 24.1485 30.7148C25.707 29.9375 27.4883 29.4922 29.1563 29.2695C29.4922 29.2695 29.7149 29.3789 29.9375 29.6016C30.2695 29.9375 30.8281 29.9375 31.2735 30.2695C30.2695 30.4922 29.2695 30.6055 28.2695 30.8281C26.8203 31.1602 25.2617 31.4961 23.9258 32.3867C23.2578 32.832 22.9258 33.3867 23.1485 34.168C23.1485 34.2773 23.1485 34.3906 23.1485 34.5C23.1485 44.293 23.1485 54.0859 23.1485 63.7695C23.1485 63.8789 23.1485 63.9922 23.1485 63.9922C23.0352 63.7695 23.0352 63.4336 23.0352 63.2148C23.0352 59.7617 23.0352 56.3125 23.0352 52.75C23.0352 52.5273 23.0352 52.3047 23.0352 52.082Z" fill="#637783"/>
<path d="M18.6953 17.1406C19.9219 17.1406 21.1445 17.1406 22.3711 17.1406C22.4805 17.582 22.8164 17.8047 23.1484 18.1406C21.7031 18.1406 20.1445 18.1406 18.6953 18.1406C18.6953 17.8047 18.6953 17.4727 18.6953 17.1406Z" fill="#192331"/>
<path d="M53.6406 63.3242C53.8633 63.8789 54.3086 64.2148 54.8672 64.1016C55.5351 63.9922 55.6445 63.4336 55.6445 62.7695C55.6445 56.3125 55.6445 49.9688 55.6445 43.5156C55.6445 43.293 55.6445 43.0703 55.6445 42.8477C55.8672 42.625 56.2031 42.625 56.5351 42.625C59.3164 42.625 62.1015 42.625 64.8828 42.625C65.2148 42.625 65.5508 42.625 65.7734 42.8477C65.7734 47.4102 65.7734 52.082 65.7734 56.6484C65.7734 58.6484 65.7734 60.543 65.7734 62.5469C65.5508 62.8789 65.2148 62.8789 64.8828 62.9922C62.2109 63.7695 59.539 64.2148 56.8711 64.4375C54.5312 64.6602 52.1953 64.8828 49.7461 64.7695C46.9648 64.6602 44.1836 64.7695 41.3984 64.3242C34.9453 63.2148 29.8242 57.9805 28.9336 51.418C28.8242 50.75 28.8242 50.082 28.8242 49.5234C28.8242 47.6328 28.8242 45.7422 28.8242 43.7383C28.8242 43.4023 28.7148 43.0703 29.0469 42.7344C29.2695 42.625 29.4922 42.625 29.7148 42.625C32.6094 42.625 35.6133 42.625 38.5078 42.625C40.3984 42.625 42.289 42.625 44.1836 42.625C44.9609 42.625 44.9609 42.7344 44.9609 43.5156C44.9609 49.8594 44.9609 56.3125 44.9609 62.6562C44.9609 62.8789 44.9609 63.1016 44.9609 63.3242C45.1836 63.8789 45.6289 64.2148 46.1836 64.1016C46.8515 63.9922 47.0742 63.4336 46.9648 62.8789C46.9648 61.8789 46.9648 60.875 46.9648 59.9844C46.9648 59.4297 47.1875 59.3164 47.6328 59.3164C48.7461 59.3164 49.8594 59.3164 50.8594 59.3164C51.6406 59.3164 52.1953 58.8711 52.082 58.2031C52.082 57.5352 51.6406 57.2031 50.8594 57.2031C49.7461 57.2031 48.5234 57.2031 47.4101 57.2031C47.0742 57.2031 46.9648 57.0938 46.9648 56.7578C46.9648 55.1992 46.9648 53.7539 46.9648 52.1953C46.9648 51.8594 47.0742 51.75 47.4101 51.75C48.6328 51.75 49.7461 51.75 50.9726 51.75C51.8594 51.75 52.4179 50.9727 51.9726 50.1914C51.75 49.7461 51.4179 49.6367 50.9726 49.6367C49.7461 49.6367 48.6328 49.6367 47.4101 49.6367C46.9648 49.6367 46.8515 49.5234 46.8515 49.0781C46.8515 47.6328 46.8515 46.0742 46.8515 44.6289C46.8515 44.293 46.9648 44.1836 47.2969 44.1836C48.4101 44.1836 49.5234 44.1836 50.6367 44.1836C51.5273 44.1836 51.8594 43.9609 52.082 43.0703C52.3047 42.5117 52.6406 42.7344 52.9726 42.7344C53.4179 42.7344 53.3086 43.1797 53.3086 43.4023C53.3086 49.8594 53.3086 56.2031 53.3086 62.6562C53.6406 62.8789 53.5312 63.1016 53.6406 63.3242Z" fill="#4F6179"/>
<path d="M29.0469 42.8477C29.0469 45.0742 29.0469 47.4102 29.0469 49.6367C29.1562 53.0859 30.2695 56.0898 32.3867 58.7617C34.2773 61.0977 36.6133 62.7695 39.5078 63.6563C40.9531 64.1016 42.4023 64.3242 43.8477 64.3242C46.0742 64.4375 48.4102 64.5469 50.6367 64.5469C53.418 64.4375 56.2031 64.3242 58.9844 63.9922C61.3203 63.6563 63.5469 63.2148 65.7734 62.5469C65.8828 63.6563 65.8828 63.6563 64.7695 63.9922C62.7695 64.6602 60.6523 64.8828 58.5391 65.1055C53.1953 65.6602 47.8555 65.8828 42.5117 65.7734C37.9492 65.6602 33.3867 65.4375 28.9336 64.6602C27.8242 64.4375 26.8203 64.2148 25.707 63.8789C25.375 63.7695 25.1523 63.5469 25.1523 63.2148C25.1523 56.5352 25.1523 49.8594 25.1523 43.1797C25.1523 43.0703 25.1523 42.957 25.1523 42.957C25.2617 42.8477 25.375 42.8477 25.4844 42.8477C26.7109 42.625 27.8242 42.5117 29.0469 42.8477Z" fill="#4F6179"/>
<path d="M65.7734 42.8477C62.4336 42.8477 59.0938 42.8477 55.7578 42.8477C55.7578 41.1758 55.7578 39.5078 55.7578 37.7266C55.7578 37.5039 55.7578 37.2812 56.0898 37.2812C59.3164 37.1719 62.5469 36.5039 65.6602 35.6133C65.6602 35.6133 65.6602 35.6133 65.7734 35.6133C65.7734 38.0625 65.7734 40.5078 65.7734 42.8477Z" fill="#4F6179"/>
<path d="M52.082 31.7188C56.5351 31.9414 60.9883 32.2734 65.3281 33.5C64.8828 33.832 64.5469 33.832 64.2148 33.9453C63.8789 34.0547 63.5469 34.168 63.1015 34.168C62.7695 34.2773 62.4336 34.3906 61.9883 34.3906C54.9765 35.5 47.9648 35.7227 40.9531 35.5C40.0664 35.5 39.2851 35.6133 38.3945 35.3906C38.1719 35.168 38.1719 34.9453 38.2851 34.7227C38.2851 34.6094 38.3945 34.6094 38.3945 34.5C38.9531 34.168 39.6211 34.3906 40.2851 34.3906C43.293 34.168 46.2969 34.0547 49.1914 33.3867C49.414 33.3867 49.7461 33.2773 49.9687 33.1641C50.9726 33.0547 51.8594 32.7188 52.082 31.7188Z" fill="#4F6179"/>
<path d="M38.5078 42.8477C35.2773 42.8477 32.1641 42.8477 28.9336 42.8477C28.7148 42.625 28.7148 42.4023 28.7148 42.1797C28.7148 40.6211 28.7148 39.0625 28.7148 37.5039C28.7148 37.2813 28.7148 36.9492 28.9336 36.7266C30.1602 36.8359 31.2734 37.0586 32.4961 37.1719C33.7227 37.2812 34.832 37.5039 36.0586 37.5039C36.9492 37.5039 37.7266 37.6172 38.6172 37.6172C38.8398 37.8398 38.8398 38.0625 38.8398 38.3945C38.8398 39.6211 38.8398 40.8438 38.8398 42.0664C38.7305 42.2891 38.7305 42.625 38.5078 42.8477Z" fill="#4F6179"/>
<path d="M38.5078 42.8477C38.5078 41.0664 38.5078 39.3984 38.5078 37.6172C40.5078 37.6172 42.5117 37.7266 44.5156 37.7266C44.9609 37.7266 44.9609 37.9492 44.9609 38.1719C44.9609 39.8438 44.9609 41.5117 44.9609 43.0703C44.9609 49.7461 44.9609 56.5352 44.9609 63.2148C44.7383 62.9922 44.8516 62.6562 44.8516 62.4336C44.8516 56.0898 44.8516 49.8594 44.8516 43.5156C44.8516 42.8477 44.6289 42.7344 44.0703 42.7344C42.2891 42.8477 40.3984 42.8477 38.5078 42.8477Z" fill="#4F6179"/>
<path d="M53.6406 63.3242C53.418 63.1016 53.5312 62.7695 53.5312 62.5469C53.5312 56.3125 53.5312 49.9688 53.5312 43.7383C53.5312 42.8477 53.3086 42.625 52.3047 43.0703C52.082 42.2891 51.6406 42.0664 50.8594 42.0664C49.7461 42.0664 48.6328 42.0664 47.5195 42.0664C47.0742 42.0664 46.9648 41.957 46.9648 41.5117C46.9648 40.3984 46.9648 39.2852 46.9648 38.2852C46.9648 37.8398 47.1875 37.7266 47.5195 37.7266C49.3008 37.7266 51.082 37.6172 52.9727 37.5039C53.418 37.5039 53.5312 37.6172 53.5312 38.0625C53.5312 39.7305 53.5312 41.5117 53.5312 43.1797C53.6406 49.9687 53.6406 56.6484 53.6406 63.3242Z" fill="#4F6179"/>
<path d="M23.1484 18.1406C22.4805 18.1406 22.2578 17.8047 22.3711 17.1406C24.1484 17.0273 25.8203 17.1406 27.6016 17.25C30.9375 17.4726 34.3906 17.6953 37.6172 18.8086C38.3945 19.0312 39.0625 19.3633 39.7305 19.8086C40.3984 20.2539 40.7305 20.9219 40.7305 21.7031C40.7305 24.2617 40.7305 26.9336 40.7305 29.4922C40.0664 29.4922 39.3984 29.4922 38.8399 29.6016C38.3945 29.3789 38.5078 28.8242 38.5078 28.4922C38.5078 28.2695 38.5078 27.9336 38.8399 27.8242C39.3984 27.7109 39.7305 27.3789 39.7305 26.7109C39.7305 25.0391 39.7305 23.3711 39.7305 21.8125C39.7305 21.1445 39.3984 20.8125 38.9531 20.4766C37.7266 19.5859 36.2813 19.3633 34.832 19.0312C32.1641 18.5859 29.4922 18.3633 26.8203 18.25C25.4844 18.25 24.3711 18.25 23.1484 18.1406Z" fill="#192331"/>
<path d="M30.1602 34.7227C28.6016 34.3906 27.1563 34.168 25.707 33.5C29.9375 32.2734 34.168 31.9414 38.5078 31.7188C38.8398 32.7188 38.8398 33.7227 38.5078 34.7227C38.2852 34.9453 37.9492 34.9453 37.6172 34.9453C35.9453 34.9453 34.168 34.9453 32.4961 34.832C31.7187 34.7227 30.9375 34.6094 30.1602 34.7227Z" fill="#4F6179"/>
<path d="M29.0469 36.7266C29.0469 38.7305 29.0469 40.8438 29.0469 42.8477C27.8242 42.8477 26.4883 42.8477 25.2617 42.8477C25.2617 40.5078 25.2617 38.1719 25.2617 35.7227C26.4883 36.168 27.8242 36.3906 29.0469 36.7266Z" fill="#4F6179"/>
<path d="M52.082 31.7188C52.1953 32.4961 51.75 32.832 51.082 33.0547C49.5234 33.6094 47.8555 33.832 46.1836 34.0547C44.293 34.2773 42.4023 34.3906 40.5078 34.5C40.3984 33.7227 40.2852 32.9414 40.6211 32.1641C40.8437 32.0508 41.0664 31.9414 41.2891 32.0508C43.7383 32.1641 46.1836 31.8281 48.6328 31.7188C48.9688 31.7188 49.1914 31.7187 49.5234 31.6055C50.4141 31.6055 51.1953 31.8281 52.082 31.7188Z" fill="#4F6179"/>
<path d="M38.5078 28.4922C38.6172 28.8242 38.3945 29.2695 38.6172 29.6016C36.3906 29.6016 34.0547 29.8242 31.8281 30.1602C31.6055 30.1602 31.3828 30.1602 31.1602 30.1602C30.7148 30.2695 30.2695 30.0469 29.9375 29.7148C29.7148 29.4922 29.4922 29.2695 29.0469 29.2695C29.0469 29.1563 29.0469 29.1562 29.1562 29.0469C30.2695 28.7148 31.3828 28.7148 32.4961 28.6016C34.0547 28.3789 35.7227 28.3789 37.3945 28.2695C37.8398 28.2695 38.1719 28.2695 38.5078 28.4922Z" fill="#637783"/>
<path d="M40.6211 32.2734C40.5078 33.0547 40.7305 33.832 40.5078 34.6094C39.8438 34.7227 39.1758 34.6094 38.5078 34.7227C38.5078 33.7227 38.5078 32.7188 38.5078 31.7188H38.6172C38.8398 31.9414 39.0625 32.0508 39.3984 32.0508C39.8437 32.1641 40.1758 32.0508 40.6211 32.2734Z" fill="#4F6179"/>
<path d="M49.5235 31.6055C48.8555 31.9414 48.1875 31.9414 47.5196 31.9414C45.2969 32.1641 42.9571 32.2734 40.6211 32.2734C40.3985 31.8281 40.5078 31.7188 40.9531 31.7188C41.0664 31.7188 41.2891 31.7188 41.3985 31.7188C44.0703 31.6055 46.8516 31.6055 49.5235 31.6055Z" fill="#4F6179"/>
<path d="M32.3867 34.7227C34.3906 34.7227 36.5039 34.7227 38.5078 34.7227C38.5078 34.9453 38.5078 35.168 38.5078 35.3906C36.2813 35.3906 34.168 35.168 31.9414 34.832C31.7188 34.832 31.4961 34.832 31.3828 34.832C31.7188 34.5 32.0508 34.7227 32.3867 34.7227Z" fill="#4F6179"/>
<path d="M41.3984 31.6055C41.1758 31.8281 40.5078 31.4961 40.6211 32.2734C40.1758 32.2734 39.6211 32.2734 39.1758 32.2734C38.7305 32.2734 38.6172 32.1641 38.6172 31.7188C39.6211 31.7188 40.5078 31.7187 41.3984 31.6055Z" fill="#4F6179"/>
<path d="M32.3867 34.7226C32.0508 34.832 31.7188 34.6094 31.3828 34.832C30.9375 34.832 30.6055 34.7226 30.1602 34.7226C30.9375 34.5 31.7187 34.6094 32.3867 34.7226Z" fill="#4F6179"/>
<path d="M16.582 42.8477C16.582 37.1719 16.582 31.6055 16.582 25.9297C16.582 25.5977 16.6953 25.4844 17.0273 25.4844C17.582 25.4844 18.1406 25.4844 18.6953 25.4844C19.0313 25.707 18.918 26.043 18.918 26.375C18.918 28.0469 18.918 29.8242 18.918 31.4961C18.918 32.3867 19.0312 32.6094 19.9219 32.9414C20.3672 33.1641 20.9219 33.2773 21.3672 33.3867C21.7031 33.5 21.9258 33.6094 22.1484 33.832C22.2578 34.0547 22.2578 34.3906 22.2578 34.6094C22.2578 37.0586 22.2578 39.5078 22.2578 41.8438C22.2578 42.1797 22.2578 42.5117 22.0352 42.7344C21.8125 42.8477 21.5898 42.8477 21.3672 42.8477C19.9219 42.8477 18.5859 42.8477 17.1406 42.8477C17.0273 43.0703 16.6953 43.0703 16.582 42.8477Z" fill="#637783"/>
<path d="M9.23825 33.5C9.23825 32.832 9.23825 32.1641 9.23825 31.4961C9.23825 31.0508 9.34763 30.9375 9.79294 30.9375C10.4609 30.9375 11.0195 30.9375 11.6836 30.9375C12.3515 30.9375 12.9101 30.4922 12.9101 29.8242C12.9101 29.2695 12.4648 28.8242 11.6836 28.8242C11.0195 28.8242 10.3515 28.8242 9.68357 28.8242C9.34763 28.8242 9.12497 28.7148 9.23825 28.3789C9.23825 27.3789 9.23825 26.4883 9.23825 25.4844C9.23825 25.0391 9.34763 25.0391 9.79294 25.0391C11.2422 25.1523 12.6875 25.375 14.1328 25.375C14.3554 25.375 14.5781 25.4844 14.4687 25.8203C14.4687 25.9297 14.4687 25.9297 14.4687 26.043C14.4687 31.2734 14.4687 36.6133 14.4687 41.8438C14.2461 41.957 14.1328 41.7344 14.0234 41.6211C13.2422 40.3984 12.5742 39.1758 11.7968 37.9492C11.6836 37.7266 11.6836 37.5039 12.0195 37.3945C12.6875 37.1719 13.0195 36.7266 12.9101 36.2812C12.7968 35.7227 12.3515 35.3906 11.7968 35.3906C11.3515 35.3906 10.9062 35.3906 10.3515 35.3906C9.79294 34.7227 9.46091 34.168 9.23825 33.5Z" fill="#637783"/>
<path d="M22.1484 33.832C21.3672 33.6094 20.5898 33.3867 19.8086 33.1641C18.8086 32.832 18.6953 32.6094 18.6953 31.6055C18.6953 29.6016 18.6953 27.4883 18.6953 25.4844C20.9219 25.4844 23.2578 25.4844 25.4844 25.4844C25.9297 25.8203 26.2656 26.375 26.7109 26.8203C27.3789 27.4883 28.0469 28.1562 28.8242 28.8242C29.0469 28.9336 29.2695 29.0469 29.1562 29.3789V29.4922C27.1562 29.8242 25.1523 30.1602 23.3711 31.3828C22.7031 31.8281 22.0352 32.3867 22.0352 33.3867C22.0352 33.6094 22.1484 33.832 22.2578 34.0547C22.2578 33.9453 22.2578 33.9453 22.1484 33.832Z" fill="#637783"/>
<path d="M7.12109 42.8476C5.78516 42.8476 4.5625 42.8476 3.22656 42.8476C3.22656 36.6133 3.22656 30.4922 3.22656 24.2617C3.22656 24.1484 3.00391 23.7031 3.44922 23.9258C4.00781 24.4844 4.33984 25.1523 4.78516 25.8203C5.23047 26.4883 5.67578 27.2656 6.12109 27.9336C6.23047 28.0469 6.23047 28.1562 6.23047 28.3789C6.34375 30.9375 6.00781 33.3867 6.45313 35.9453C6.67578 37.0586 7.01172 38.1719 7.12109 39.2851C7.12109 40.3984 7.12109 41.6211 7.12109 42.8476Z" fill="#637783"/>
<path d="M29.1562 29.2695C28.2695 28.4922 27.3789 27.7109 26.5977 26.8203C26.2656 26.375 25.8203 25.9297 25.5977 25.4844C29.1563 25.2617 32.832 25.1523 36.3906 24.1484C36.7266 24.0391 37.2813 23.7031 37.5039 23.9258C37.7266 24.1484 37.6172 24.707 37.6172 25.1523C37.6172 25.5977 37.6172 26.1523 37.6172 26.5977C37.6172 27.4883 37.9492 27.8242 38.8398 27.8242C38.7305 28.0469 38.7305 28.2695 38.7305 28.4922C36.5039 28.6016 34.3906 28.7148 32.1641 28.9336C31.0508 29.1562 30.1602 29.1562 29.1562 29.2695Z" fill="#637783"/>
<path d="M16.582 42.8477C18.4727 42.8477 20.2539 42.8477 22.1484 42.8477C22.1484 45.0742 22.1484 47.2969 22.1484 49.5234C22.1484 50.3047 22.1484 50.3047 21.2578 50.1914C19.4766 49.9688 17.918 49.5234 16.25 48.8555C16.0273 48.7461 15.9141 48.6328 15.6914 48.5234C16.25 48.3008 16.4727 47.8555 16.4727 47.1875C16.4727 45.8516 16.582 44.293 16.582 42.8477Z" fill="#637783"/>
<path d="M18.6953 23.3711C13.8008 23.3711 8.90234 23.1484 4.00781 21.8125C8.79297 20.5898 13.6875 20.3672 18.6953 20.2539C18.8086 20.3672 18.918 20.5898 18.918 20.8125C18.8086 21.7031 19.1406 22.5937 18.6953 23.3711Z" fill="#637783"/>
<path d="M22.9258 20.2539C27.6015 20.3672 32.164 20.5898 36.7265 21.8125C32.9414 22.8164 29.0469 23.1484 25.039 23.2578C24.039 23.3711 23.9258 23.3711 23.5937 22.4805C23.3711 22.0352 23.1484 21.4805 23.0351 20.9219C22.8164 20.8125 22.7031 20.5898 22.9258 20.2539Z" fill="#637783"/>
<path d="M11.9062 37.3945C11.9062 37.5039 11.6836 37.5039 11.7969 37.7266C12.6875 39.0625 13.3555 40.6211 14.3555 41.8438C14.3555 42.1797 14.3555 42.5117 14.3555 42.957C13.8008 43.1797 13.3555 43.1797 12.7969 42.957C12.6875 42.1797 12.3516 41.957 11.5742 41.957C10.9062 41.957 10.2383 41.957 9.57031 41.957C9.23828 41.957 9.01562 41.8437 9.01562 41.5117C9.01562 40.3984 9.01562 39.1758 9.01562 38.0625C9.01562 37.6172 9.23828 37.5039 9.57031 37.5039C10.4609 37.3945 11.2422 37.3945 11.9062 37.3945Z" fill="#637783"/>
<path d="M22.9258 20.2539C23.1484 20.9219 23.4805 21.5898 23.7031 22.3711C23.9258 23.0352 24.2617 23.3711 25.0391 23.2578C24.8164 23.4805 24.707 23.3711 24.4844 23.3711C22.5938 23.3711 20.5898 23.3711 18.6953 23.3711C18.6953 22.3711 18.6953 21.2578 18.6953 20.2539C20.1445 20.2539 21.4805 20.2539 22.9258 20.2539Z" fill="#637783"/>
<path d="M12.9102 42.8477C13.4648 42.8477 13.9102 42.8477 14.4688 42.8477C14.4688 44.5156 14.4688 46.1836 14.5781 47.8555C12.7969 46.8516 11.2422 45.5195 10.0156 43.8477C10.5742 43.8477 11.1289 43.8477 11.5742 43.8477C12.3516 43.8477 12.5742 43.7383 12.9102 42.8477Z" fill="#637783"/>
<path d="M7.1211 39.1758C6.34376 37.0586 5.89844 34.9453 6.00782 32.832C6.00782 31.4961 6.00782 30.2695 6.00782 28.9336C6.00782 28.7148 5.89844 28.4922 6.1211 28.2695C6.67579 28.6016 6.89844 29.2695 7.1211 29.8242C7.1211 32.9414 7.1211 36.0586 7.1211 39.1758Z" fill="#637783"/>
<path d="M7.12109 29.8242C6.67578 29.3789 6.45313 28.8242 6.12109 28.2695C6.12109 28.1563 6.00781 28.0469 6.00781 27.9336C5.67578 26.8203 5.67578 25.707 6.00781 24.5938C7.12109 24.707 7.23438 24.707 7.12109 25.8203C7.12109 27.1563 7.12109 28.4922 7.12109 29.8242Z" fill="#637783"/>
<path d="M5.89844 24.5938C5.89844 25.707 5.89844 26.8203 5.89844 27.9336C5.00781 26.5977 4.23047 25.2617 3.44922 23.9258C4.33984 24.1484 5.12109 24.3711 5.89844 24.5938Z" fill="#637783"/>
<path d="M9.23828 33.5C9.57031 34.0547 10.0156 34.6094 10.3516 35.2773C9.23828 35.3906 9.23828 35.3906 9.23828 34.2773C9.23828 34.0547 9.23828 33.7227 9.23828 33.5Z" fill="#637783"/>
<path d="M50.082 4.5625C44.6289 6.34375 26.1523 6.34375 20.6992 4.5625C25.707 2.78125 44.1836 2.78125 50.082 4.5625Z" fill="#192331"/>
<path d="M22.1484 33.832C22.2578 33.832 22.3711 33.832 22.3711 33.832C22.8164 33.832 23.0352 34.0547 23.0352 34.6094C23.0352 37.3945 23.0352 40.1758 23.0352 42.8477C22.7031 42.8477 22.4805 42.8477 22.1484 42.8477C22.1484 39.8438 22.1484 36.8359 22.1484 33.832Z" fill="#637783"/>
</svg>
