<svg width="68" height="69" viewBox="0 0 68 69" fill="none" xmlns="http://www.w3.org/2000/svg">
<path d="M30.1042 60.6216C20.3081 60.6216 11.95 53.4318 10.4222 43.7257L9.43359 37.2549H50.7747L49.7862 43.7257C48.2583 53.4318 39.9002 60.6216 30.1042 60.6216Z" fill="#D6E4E8"/>
<path d="M13.9277 47.1406C16.4442 53.5215 22.9149 57.9253 30.1047 57.9253C37.2945 57.9253 43.7652 53.5215 46.2817 47.1406H13.9277Z" fill="#F8C460"/>
<path d="M53.7418 14.3378L26.96 18.8314C25.3423 19.101 23.8145 17.8428 23.8145 16.1352C23.8145 14.877 24.7132 13.7087 25.9714 13.5289L52.5735 8.49609H53.2925C54.9102 8.49609 56.1684 9.84417 56.1684 11.372C56.1684 12.8099 55.1798 14.0682 53.7418 14.3378Z" fill="#B76E78"/>
<path d="M27.4082 13.529V47.1411H32.8005V20.7188C32.8005 19.82 33.4296 19.1011 34.2385 18.9213H34.4182C36.2157 18.5618 37.6536 17.3036 38.3726 15.596L39.6308 12.3607C40.17 11.0126 39.0017 9.6645 37.6536 9.93412L28.8462 11.7316C28.0373 12.0012 27.4082 12.7201 27.4082 13.529Z" fill="#F8C460"/>
<path d="M38.192 30.0653C37.2034 30.0653 36.3945 29.2565 36.3945 28.2679V22.8756C36.3945 21.887 37.2034 21.0781 38.192 21.0781C39.1806 21.0781 39.9894 21.887 39.9894 22.8756V28.2679C39.9894 29.2565 39.1806 30.0653 38.192 30.0653Z" fill="#F8C460"/>
<path d="M34.5991 43.5459H25.6119C24.6233 43.5459 23.8145 44.3547 23.8145 45.3433C23.8145 46.3319 24.6233 47.1408 25.6119 47.1408H34.5991C35.5877 47.1408 36.3965 46.3319 36.3965 45.3433C36.3965 44.3547 35.5877 43.5459 34.5991 43.5459Z" fill="#F8C460"/>
<path d="M47.8978 46.7814L47.1789 46.2422L46.4599 46.7814C44.6625 48.1295 43.584 50.2864 43.584 52.5332V59.723H50.7737V52.5332C50.7737 50.2864 49.6953 48.1295 47.8978 46.7814Z" fill="#B76E78"/>
<path d="M57.9643 51.6348L53.2011 52.4436C49.6961 52.9828 47.1797 56.0385 47.1797 59.5435V60.622L51.9429 59.8131C55.4479 59.2739 57.9643 56.2182 57.9643 52.7132V51.6348Z" fill="#E8A8B1"/>
<path d="M36.3965 51.6348L41.1597 52.4436C44.6647 52.9828 47.1811 56.0385 47.1811 59.5435V60.622L42.4179 59.8131C38.9129 59.2739 36.3965 56.2182 36.3965 52.7132V51.6348Z" fill="#E8A8B1"/>
<path d="M35.4961 22.8758V28.2682C35.4961 29.796 36.6644 30.9643 38.1923 30.9643C39.7201 30.9643 40.8884 29.796 40.8884 28.2682V22.8758C40.8884 21.348 39.7201 20.1797 38.1923 20.1797C36.6644 20.1797 35.4961 21.348 35.4961 22.8758ZM39.091 22.8758V28.2682C39.091 28.8074 38.7315 29.1669 38.1923 29.1669C37.653 29.1669 37.2935 28.8074 37.2935 28.2682V22.8758C37.2935 22.3366 37.653 21.9771 38.1923 21.9771C38.7315 21.9771 39.091 22.3366 39.091 22.8758Z" fill="black"/>
<path d="M58.5041 50.916C58.3243 50.7362 58.0547 50.6464 57.7851 50.7362L53.0219 51.5451C52.5725 51.6349 52.0333 51.7248 51.584 51.9046C51.4941 50.197 50.7751 48.6692 49.7865 47.3211C50.146 46.1527 50.5055 44.9844 50.6853 43.8161L51.6738 37.3453C51.6738 37.0757 51.6738 36.8061 51.4941 36.6263C51.3143 36.4466 51.0447 36.3567 50.7751 36.3567H33.6994V20.719C33.6994 20.2696 33.969 19.9101 34.4184 19.8203H34.5981C35.9462 19.5506 37.2044 18.8317 38.1031 17.7532L53.9206 15.1469C55.8079 14.8773 57.0661 13.2596 57.0661 11.3723C57.0661 9.30522 55.3586 7.59766 53.2915 7.59766H52.5725C52.4827 7.59766 52.4827 7.59766 52.3928 7.59766L39.9006 9.93433C39.2715 9.30523 38.3728 8.94573 37.4741 9.12548L28.6666 10.9229C27.8577 11.1027 27.1388 11.6419 26.7793 12.4507L25.7907 12.6305C24.0831 12.99 22.9148 14.4279 22.9148 16.1355C22.9148 17.214 23.3641 18.2026 24.173 18.8317C24.8021 19.3709 25.6109 19.6405 26.5097 19.6405V36.3567H9.43398C9.16436 36.3567 8.89475 36.4466 8.71501 36.6263C8.53527 36.8061 8.44538 37.0757 8.53526 37.3453L9.52385 43.8161C11.1415 54.0615 19.7693 61.431 30.1045 61.431C33.2501 61.431 36.3057 60.712 39.0917 59.3639C39.9905 59.993 41.0689 60.4424 42.2373 60.6221L47.0005 61.431C47.0903 61.431 47.0904 61.431 47.1802 61.431C47.2701 61.431 47.2701 61.431 47.36 61.431L52.1232 60.6221C56.0776 59.993 58.8636 56.5779 58.8636 52.6235V51.6349C58.8636 51.3653 58.7737 51.0957 58.5041 50.916ZM49.8764 52.8033C48.708 53.5223 47.8093 54.6007 47.1802 55.8589C46.5511 54.6007 45.6524 53.6121 44.4841 52.8033V52.5337C44.4841 50.5565 45.3828 48.6692 47.0005 47.5008L47.1802 47.411L47.36 47.5008C48.9777 48.6692 49.8764 50.5565 49.8764 52.5337V52.8033ZM36.5753 50.7362C36.3057 50.7362 36.0361 50.7362 35.8563 50.916C35.6766 51.0957 35.4969 51.3653 35.4969 51.6349V52.7134C35.4969 53.7919 35.7665 54.8703 36.126 55.8589C34.2387 56.5779 32.1716 57.0273 30.1045 57.0273C23.8135 57.0273 18.0617 53.4324 15.2757 48.0401H25.6109H34.5981H44.0347C43.2259 49.2084 42.7765 50.5565 42.6866 51.9046C42.2373 51.7248 41.7879 51.6349 41.2487 51.5451L36.5753 50.7362ZM24.7122 45.3439C24.7122 44.8047 25.0717 44.4452 25.6109 44.4452H34.5981C35.1374 44.4452 35.4969 44.8047 35.4969 45.3439C35.4969 45.8831 35.1374 46.2426 34.5981 46.2426H25.6109C25.0717 46.2426 24.7122 45.8831 24.7122 45.3439ZM49.6966 38.1541L48.8878 43.6363C48.7979 44.4452 48.5283 45.254 48.3485 46.0629L47.7194 45.6135C47.3599 45.3439 47.0005 45.3439 46.641 45.6135L45.922 46.1527C45.8321 46.2426 45.7423 46.2426 45.7423 46.3325H37.2044C37.2943 46.0629 37.3842 45.7933 37.3842 45.4338C37.3842 43.906 36.2158 42.7376 34.688 42.7376H33.7893V38.244H49.6966V38.1541ZM52.6624 9.3951H53.2915C54.37 9.3951 55.2687 10.2938 55.2687 11.3723C55.2687 12.3609 54.5497 13.1697 53.5611 13.3495L39.2715 15.6861L40.4398 12.7204C40.6196 12.3609 40.6196 11.9115 40.6196 11.552L52.6624 9.3951ZM29.0261 12.7204L37.8335 10.9229C38.2829 10.833 38.6424 11.1027 38.7323 11.1925C38.8221 11.2824 39.0917 11.6419 38.912 12.0913L37.6538 15.3267C37.1146 16.7646 35.8564 17.7532 34.3285 18.0228H34.1488C32.8906 18.2924 31.9919 19.3709 31.9919 20.6291V42.6477H28.397V13.5292C28.3071 13.1697 28.5767 12.8102 29.0261 12.7204ZM25.3413 17.4836C24.9818 17.1241 24.7122 16.6747 24.7122 16.1355C24.7122 15.2368 25.3413 14.5178 26.1502 14.3381L26.5097 14.2482V17.8431C26.0603 17.9329 25.7008 17.7532 25.3413 17.4836ZM11.3213 43.6363L10.5125 38.1541H26.5097V42.6477H25.6109C24.0831 42.6477 22.9148 43.8161 22.9148 45.3439C22.9148 45.7034 23.0047 45.973 23.0945 46.2426H13.9276C13.658 46.2426 13.3884 46.4224 13.2086 46.6021C13.0289 46.8717 13.0289 47.1413 13.1187 47.411C15.8149 54.2412 22.6452 58.7348 30.1045 58.7348C32.5311 58.7348 34.7779 58.2855 37.0247 57.3867C37.2044 57.6564 37.3842 57.8361 37.6538 58.1057C35.3171 59.0943 32.8007 59.6335 30.1944 59.6335C20.668 59.7234 12.7592 52.983 11.3213 43.6363ZM37.2943 52.7134L41.0689 53.2526C44.1246 53.7919 46.2815 56.3982 46.2815 59.4538L42.5069 58.8247C39.5411 58.4652 37.2943 55.8589 37.2943 52.7134ZM57.0661 52.7134C57.0661 55.7691 54.8194 58.3753 51.8536 58.9146L48.0789 59.5437C48.0789 56.488 50.3257 53.8817 53.2915 53.3425L57.0661 52.7134Z" fill="black"/>
</svg>
