<svg width="68" height="68" viewBox="0 0 68 68" fill="none" xmlns="http://www.w3.org/2000/svg">
<path d="M51.8582 15.151C51.8496 15.461 51.7118 15.685 51.4276 15.8055C50.997 15.9864 50.5578 16.1328 50.1358 16.3223C49.4555 16.6237 49.0249 17.1576 48.7665 17.838C48.646 18.1652 48.5254 18.4925 48.3962 18.8197C48.2842 19.1039 48.0087 19.2934 47.7159 19.2934C47.423 19.2934 47.1475 19.1039 47.0355 18.8197C46.8891 18.4408 46.7513 18.0619 46.5963 17.683C46.2862 16.9165 45.7092 16.4428 44.9428 16.1672C44.6327 16.0553 44.3227 15.9433 44.0213 15.8141C43.694 15.6763 43.5562 15.4266 43.5735 15.0821C43.5907 14.7893 43.7888 14.5482 44.0988 14.4362C44.5294 14.2812 44.9686 14.1434 45.3734 13.9367C46.0968 13.575 46.5102 12.9549 46.7599 12.2143C46.846 11.9559 46.9408 11.7062 47.0441 11.4564C47.1647 11.1636 47.4317 11 47.7589 11C48.0431 11.0086 48.2929 11.1895 48.4048 11.4823C48.5684 11.9043 48.7062 12.3349 48.8871 12.7396C49.223 13.4717 49.8172 13.9109 50.5751 14.1606C50.842 14.2467 51.1176 14.3415 51.376 14.462C51.6774 14.5826 51.8669 14.7979 51.8582 15.151ZM46.2604 15.108C46.2949 15.151 46.3207 15.1941 46.3638 15.2199C46.8805 15.5472 47.3025 15.9692 47.6297 16.4859C47.7072 16.6151 47.7589 16.5806 47.8278 16.4859C47.9053 16.3653 47.9914 16.2447 48.0776 16.1328C48.3531 15.7797 48.6804 15.4869 49.0593 15.2457C49.1196 15.2027 49.266 15.1596 49.1024 15.0563C48.5857 14.729 48.1637 14.3156 47.8364 13.7989C47.7589 13.6697 47.6986 13.6956 47.6297 13.8075C47.268 14.3415 46.8116 14.7721 46.2604 15.108Z" fill="#010000"/>
<path d="M51.7377 19.6382C51.7377 19.3196 51.9013 19.0785 52.2027 18.9579C52.53 18.8287 52.8659 18.7254 53.1759 18.5704C53.7357 18.3034 54.0113 17.8125 54.1921 17.2527C54.2438 17.0891 54.3041 16.9341 54.373 16.7704C54.4935 16.469 54.7433 16.314 55.0619 16.3226C55.3633 16.3226 55.6217 16.5035 55.7337 16.7963C55.8542 17.0977 55.9576 17.3991 56.0781 17.6919C56.2848 18.1828 56.6638 18.4928 57.1547 18.6737C57.3958 18.7684 57.6369 18.8546 57.8781 18.9493C58.1881 19.0699 58.369 19.3282 58.369 19.6382C58.369 19.9397 58.1795 20.2066 57.8781 20.3272C57.6111 20.4306 57.3441 20.5253 57.0771 20.6286C56.4657 20.8698 56.1298 21.3434 55.9404 21.9377C55.8801 22.1185 55.8112 22.2994 55.7423 22.4802C55.6303 22.7644 55.3633 22.9539 55.0619 22.9539C54.7519 22.9539 54.5021 22.7903 54.3816 22.4888C54.2782 22.2305 54.1835 21.9721 54.0888 21.7051C53.8476 21.0678 53.3567 20.7061 52.7281 20.4995C52.5128 20.4306 52.2888 20.3617 52.0994 20.2411C51.841 20.1119 51.7377 19.9138 51.7377 19.6382ZM55.0878 18.8546C55.0361 18.889 55.0016 18.8976 54.9844 18.9148C54.795 19.156 54.5796 19.3799 54.3299 19.5694C54.2524 19.6296 54.2954 19.6813 54.3557 19.7244C54.5796 19.9052 54.7863 20.1033 54.9586 20.3358C55.0189 20.4219 55.0705 20.4219 55.1394 20.3272C55.3031 20.1033 55.5011 19.9052 55.7337 19.733C55.837 19.6641 55.8198 19.6038 55.7337 19.5349C55.5097 19.3627 55.3117 19.1646 55.1394 18.9407C55.1136 18.9148 55.105 18.8804 55.0878 18.8546Z" fill="#010000"/>
<path d="M56.2676 15.1338C56.2676 14.8066 56.4657 14.5482 56.7929 14.4276C57.1374 14.3071 57.4819 14.1951 57.8005 14.0229C58.3086 13.7473 58.5412 13.2736 58.722 12.7483C58.7737 12.5933 58.834 12.4383 58.8943 12.2918C59.0148 11.9904 59.2818 11.8096 59.5918 11.8096C59.8933 11.8182 60.1516 12.0163 60.2722 12.3177C60.41 12.6622 60.5047 13.0239 60.6856 13.3511C60.9353 13.8162 61.3573 14.0745 61.8482 14.2468C62.029 14.3071 62.2099 14.376 62.3908 14.4449C62.6922 14.5654 62.8902 14.7893 62.8989 15.1252C62.9075 15.4611 62.7352 15.6936 62.4252 15.8228C62.0979 15.952 61.7707 16.0639 61.452 16.2103C60.9181 16.4601 60.6339 16.9251 60.4617 17.4677C60.3928 17.683 60.3239 17.8983 60.2119 18.105C60.0569 18.372 59.8244 18.4753 59.5315 18.4581C59.2387 18.4409 59.032 18.2858 58.9201 18.0189C58.7737 17.6744 58.6617 17.3213 58.5067 16.9854C58.2397 16.4256 57.7316 16.1673 57.1805 15.9864C57.0168 15.9347 56.8532 15.8745 56.6982 15.8056C56.4054 15.6678 56.2676 15.4439 56.2676 15.1338ZM60.3841 15.0994C60.3497 15.0908 60.3239 15.0822 60.298 15.0649C60.0569 14.8841 59.8416 14.6774 59.6607 14.4276C59.5746 14.3157 59.5229 14.3932 59.4799 14.4535C59.3076 14.6688 59.1096 14.8669 58.8856 15.0391C58.7823 15.1252 58.8167 15.1769 58.9029 15.2372C59.1182 15.3922 59.299 15.5817 59.4627 15.797C59.5488 15.9089 59.6091 15.9089 59.6952 15.797C59.8588 15.5817 60.0569 15.3922 60.2722 15.2286C60.298 15.2027 60.3239 15.1683 60.3841 15.0994Z" fill="#010000"/>
<path d="M46.2604 15.1083C46.8115 14.7638 47.268 14.3419 47.6125 13.7993C47.6814 13.6873 47.7417 13.6615 47.8192 13.7907C48.1464 14.3074 48.5684 14.7208 49.0851 15.048C49.2488 15.1514 49.1024 15.1944 49.0421 15.2375C48.6718 15.4786 48.3359 15.7715 48.0603 16.1245C47.9742 16.2365 47.8967 16.3571 47.8105 16.4776C47.7416 16.5724 47.6986 16.6068 47.6125 16.4776C47.2852 15.9609 46.8632 15.5389 46.3465 15.2117C46.3207 15.2031 46.2948 15.1514 46.2604 15.1083Z" fill="#E1F4FB"/>
<path d="M55.0878 18.8535C55.105 18.888 55.1222 18.9224 55.1395 18.9482C55.3117 19.1722 55.5098 19.3702 55.7337 19.5425C55.8198 19.6114 55.837 19.6717 55.7337 19.7406C55.5098 19.9042 55.3117 20.1023 55.1395 20.3348C55.0706 20.4209 55.0275 20.4209 54.9586 20.3434C54.7777 20.1195 54.5797 19.9214 54.3558 19.7319C54.2955 19.6889 54.261 19.6372 54.3299 19.5769C54.5711 19.3875 54.7864 19.1635 54.9844 18.9224C55.0017 18.8966 55.0275 18.888 55.0878 18.8535Z" fill="#E1F4FB"/>
<path d="M60.3841 15.0988C60.3238 15.1677 60.3066 15.2107 60.2722 15.228C60.0569 15.3916 59.8588 15.5811 59.6951 15.7964C59.609 15.9083 59.5487 15.9083 59.4626 15.7964C59.299 15.5811 59.1181 15.3916 58.9028 15.2366C58.8253 15.1763 58.7823 15.1246 58.8856 15.0385C59.1009 14.8663 59.299 14.6682 59.4798 14.4529C59.5229 14.3926 59.5832 14.3151 59.6607 14.427C59.8416 14.6682 60.0482 14.8835 60.298 15.0643C60.3238 15.0816 60.3497 15.0816 60.3841 15.0988Z" fill="#E1F4FB"/>
<path d="M23.0336 30.0672L32.438 35.3809L57.7833 32.4786L54.2265 24.7105L49.6104 22.9537L35.6245 22.5059L27.2019 23.6943L23.9379 27.3286L23.0336 30.0672Z" fill="#2854A3"/>
<path d="M23.4814 29.9121H56.3795L58.7306 33.9426L60.9181 37.1893L60.9611 42.0465L60.9181 46.5162L18.8223 46.275L19.0549 38.4036L20.6998 33.7445L23.4814 29.9121Z" fill="#2854A3"/>
<path d="M55.2427 52.9843C55.1394 52.9843 55.0274 52.9757 54.9241 52.9757C44.891 52.9757 34.8494 52.9757 24.8163 52.9757C24.7044 52.9757 24.5838 52.9843 24.4718 52.9929C23.4901 52.9929 22.4997 53.036 21.5523 52.726C21.1304 52.5882 20.7256 52.4331 20.338 52.2006C19.7094 51.8303 19.1926 51.3308 18.762 50.7366C18.6673 50.4093 18.4606 50.1251 18.3487 49.7979C18.1247 49.1778 18.0128 48.5405 18.0128 47.886C18.0128 45.0957 18.0042 42.3054 18.0128 39.5151C18.0214 37.7582 18.5812 36.1736 19.5802 34.7354C19.8127 34.3995 20.0366 34.055 20.2519 33.7191C20.3639 33.5469 20.3467 33.5211 20.1486 33.478C19.4166 33.3058 18.6845 33.1594 17.9611 32.9613C17.3238 32.7804 16.9277 32.3326 16.8157 31.6781C16.7038 31.0494 16.7124 30.4293 17.1171 29.8868C17.4099 29.4992 17.8061 29.2839 18.297 29.215C18.8912 29.1289 19.4768 28.9997 20.0797 28.905C20.45 28.8447 20.8117 28.7328 21.2079 28.8189C21.759 28.9481 22.1294 29.2753 22.3705 29.7834C22.3963 29.8351 22.3877 29.9298 22.4738 29.9298C22.56 29.9298 22.5513 29.8437 22.5772 29.7834C23.1456 28.4486 23.6967 27.1051 24.291 25.7874C24.9024 24.4267 25.9273 23.4708 27.2966 22.8593C28.0372 22.5321 28.8209 22.4374 29.6046 22.3254C30.7156 22.1704 31.8265 22.0412 32.9375 21.9379C34.3412 21.8087 35.7364 21.7226 37.1488 21.6709C39.431 21.5848 41.7132 21.6192 43.9868 21.7226C45.4164 21.7914 46.8373 21.912 48.2497 22.067C49.3262 22.1876 50.4114 22.2823 51.462 22.5235C53.0897 22.9024 54.3471 23.8239 55.2169 25.2707C55.5872 25.8908 55.8197 26.5798 56.1125 27.2343C56.4828 28.0869 56.8359 28.9395 57.1976 29.8007C57.2149 29.8437 57.2149 29.904 57.2752 29.9126C57.3527 29.9212 57.3613 29.8523 57.3871 29.8007C57.7144 29.017 58.4378 28.7155 59.0406 28.7844C59.4109 28.8275 59.7727 28.8964 60.143 28.9653C60.5736 29.0428 60.9956 29.1461 61.4348 29.1978C62.2013 29.2839 62.8558 29.8523 62.9591 30.6274C63.0538 31.3336 63.0194 32.014 62.4682 32.5651C62.1237 32.9096 61.6759 33.0043 61.2281 33.1077C60.6597 33.2369 60.0999 33.3574 59.5315 33.4866C59.3421 33.5297 59.454 33.6416 59.4971 33.7105C59.764 34.1239 60.031 34.5373 60.3066 34.9507C60.8922 35.8119 61.297 36.7506 61.5381 37.7668C61.6415 38.206 61.7276 38.6539 61.7276 39.1103C61.7362 42.0815 61.7362 45.0526 61.7362 48.0238C61.7362 48.4974 61.6587 48.9625 61.5295 49.4189C61.4606 49.4362 61.4606 49.4792 61.4778 49.5309C61.4692 49.5826 61.452 49.6256 61.4434 49.6773C61.3745 49.6945 61.3659 49.7376 61.3917 49.7892C61.3487 50.0562 61.1936 50.2715 61.0817 50.5127C61.0558 50.5816 61.0214 50.6418 60.9956 50.7021C60.8233 50.9346 60.6683 51.1672 60.4702 51.3739C59.7813 52.1059 58.9287 52.5623 57.9641 52.8035C57.5163 52.9154 57.0426 53.0015 56.569 52.9929C56.1211 52.9843 55.6819 52.9843 55.2427 52.9843ZM57.3957 33.2283C57.3785 33.2024 57.3699 33.1938 57.3613 33.1766C57.3613 33.1594 57.3527 33.1508 57.3441 33.1421C57.3441 33.1163 57.3354 33.1077 57.3096 33.1077L57.301 33.0991C57.2924 33.0819 57.2838 33.0646 57.2665 33.0474C57.2665 33.0302 57.2579 33.0216 57.2493 33.013C57.1288 32.7718 56.991 32.5393 56.8015 32.3412C56.8015 32.3326 56.8015 32.324 56.7929 32.3154C56.7843 32.2465 56.7498 32.1948 56.6982 32.1604L56.6895 32.1518C56.6895 32.1259 56.6809 32.1173 56.6551 32.1173C56.6465 32.1001 56.6293 32.0742 56.6206 32.057C56.612 31.9881 56.5776 31.9365 56.5259 31.902L56.5173 31.8934C56.5173 31.8676 56.5087 31.8589 56.4828 31.8503L56.4742 31.8417C56.4656 31.8245 56.4484 31.8073 56.4398 31.79C56.4398 31.7728 56.4312 31.7642 56.4226 31.7556C56.4139 31.6695 56.3623 31.6006 56.302 31.5489L56.2934 31.5403C56.2762 31.3767 56.19 31.2303 56.1298 31.0752C55.5097 29.6112 54.881 28.1385 54.2609 26.6745C53.615 25.1502 52.4869 24.1856 50.8592 23.8928C49.7138 23.6861 48.5511 23.5655 47.3885 23.445C46.157 23.3158 44.9169 23.2297 43.6853 23.1608C42.5313 23.1005 41.3773 23.0919 40.2233 23.066C39.6807 23.0574 39.1382 23.0833 38.587 23.0919C37.6655 23.1091 36.7354 23.1263 35.8139 23.178C34.3068 23.2641 32.7997 23.3847 31.3012 23.5655C30.4055 23.6775 29.5099 23.7722 28.6228 23.9445C27.8994 24.0909 27.2708 24.4267 26.711 24.9004C26.1081 25.4171 25.712 26.063 25.4105 26.7864C24.8766 28.0955 24.3082 29.3959 23.7484 30.6963C23.6795 30.8513 23.714 30.9202 23.8948 30.9116C24.3513 30.903 24.8163 30.9116 25.2728 30.9116C34.9355 30.9116 44.6068 30.9116 54.2695 30.9116C54.4504 30.9116 54.6313 30.903 54.8035 30.9461C54.8207 30.9547 54.8466 30.9633 54.8638 30.9805C55.2083 31.2475 55.2944 31.592 55.1566 31.9967L55.148 32.0053C55.1221 32.0053 55.1135 32.014 55.1221 32.0398C55.1049 32.0656 55.0791 32.1001 55.0619 32.1259C55.0446 32.1431 55.036 32.1518 55.0188 32.169C54.9499 32.1776 54.9068 32.2206 54.8724 32.2809C54.8466 32.2895 54.8293 32.2982 54.8035 32.2982C54.7174 32.324 54.6313 32.3498 54.5451 32.3757C54.4849 32.3757 54.4332 32.3671 54.3729 32.3671C44.2968 32.3671 34.2207 32.3671 24.1446 32.3671C24.0585 32.3671 23.9723 32.3757 23.8862 32.3757C23.5848 32.3757 23.2834 32.3757 22.9819 32.3671C22.87 32.3671 22.8183 32.4273 22.758 32.5048C22.0346 33.6158 21.3026 34.7268 20.5792 35.8377C20.14 36.5181 19.8127 37.2501 19.6405 38.051C19.6319 38.0682 19.6319 38.0855 19.6232 38.1027C19.6232 38.1285 19.6146 38.163 19.6146 38.1888C19.5888 38.1974 19.5802 38.206 19.5974 38.2319C19.5802 38.318 19.5716 38.3955 19.5543 38.4816C19.5285 38.5075 19.5285 38.5419 19.5371 38.5763C19.5371 38.6366 19.5285 38.6883 19.5285 38.7486C19.5027 38.7658 19.4941 38.7744 19.5285 38.7916C19.4768 39.0156 19.4424 39.2481 19.4596 39.4806C19.451 39.5409 19.4424 39.6098 19.4424 39.6701C19.4424 41.78 19.4424 43.89 19.4424 46.0086C19.4424 46.0688 19.451 46.1377 19.4596 46.198C19.4596 46.2239 19.4682 46.2497 19.4682 46.2755C19.4682 46.7061 19.4768 47.1367 19.4768 47.5673C19.4855 47.8688 19.4768 48.1702 19.5199 48.463C19.6835 49.5826 20.2175 50.4352 21.2337 50.9691C22.0174 51.3825 22.87 51.4772 23.7312 51.4772C34.4101 51.4858 45.0805 51.4858 55.7594 51.4772C56.4915 51.4772 57.2149 51.4341 57.9211 51.1844C58.5067 50.9777 59.032 50.6677 59.4368 50.1854C59.454 50.1596 59.4712 50.1337 59.4971 50.1165C59.5057 50.0993 59.5229 50.0821 59.5315 50.0648C59.8846 49.6428 60.0655 49.152 60.1516 48.6094C60.1946 48.4888 60.2377 48.3769 60.2119 48.2477C60.2377 47.8601 60.2377 47.4726 60.2291 47.0851C60.2205 47.0248 60.2033 46.9817 60.1344 47.0334C47.3455 47.0334 34.5566 47.0334 21.7676 47.0334C21.7246 46.9989 21.6901 47.0248 21.6471 47.0334C21.1304 47.0937 20.5964 46.9214 20.5189 46.2669C20.5275 46.2239 20.5447 46.1808 20.5533 46.1291C20.5792 46.1205 20.5878 46.1119 20.5792 46.0861C20.6481 45.7933 20.8375 45.621 21.1304 45.5521C21.3801 45.4918 21.6299 45.5349 21.8796 45.5263C34.5479 45.5263 47.2163 45.5263 59.8846 45.5263C59.9621 45.5263 60.0396 45.5263 60.1171 45.5263C60.1688 45.5263 60.2205 45.5091 60.2205 45.4402C60.2635 45.3885 60.2463 45.3282 60.2463 45.2765C60.2463 43.313 60.2463 41.3494 60.2463 39.3945C60.2463 39.0672 60.2033 38.74 60.1344 38.4213C60.0999 38.1457 60.0224 37.8788 59.9535 37.6032C59.9535 37.5257 59.9191 37.4568 59.876 37.3879C59.876 37.3707 59.8674 37.362 59.8674 37.3448C59.8415 37.2673 59.8329 37.1812 59.7985 37.1037C59.6607 36.7937 59.566 36.4664 59.3334 36.1994C59.3248 36.1822 59.3162 36.1564 59.3076 36.1391C59.3076 36.0789 59.2732 36.0358 59.2301 36.01C59.2301 35.9497 59.187 35.9152 59.144 35.8808C59.144 35.8635 59.1354 35.8549 59.1268 35.8463C59.1268 35.8205 59.1181 35.8119 59.0923 35.8119L59.0837 35.8033C59.0837 35.7688 59.0751 35.743 59.0406 35.7258L59.032 35.7171C59.032 35.6913 59.0234 35.6827 58.9976 35.6827C58.9803 35.6482 58.9631 35.6224 58.9459 35.588C58.8253 35.3468 58.6875 35.1143 58.4981 34.9162C58.4981 34.9076 58.4981 34.899 58.4895 34.8904C58.4808 34.8215 58.4464 34.7698 58.3947 34.7354C58.3947 34.7268 58.3861 34.7181 58.3689 34.7181C58.3431 34.632 58.3 34.5545 58.2225 34.5028C58.2225 34.4856 58.2225 34.477 58.2053 34.4684C58.2053 34.4426 58.1967 34.4339 58.1708 34.4339L58.1622 34.4253C58.1622 34.3909 58.1536 34.3651 58.1191 34.3478L58.1105 34.3392C58.0416 34.1756 57.9469 34.0292 57.8263 33.9C57.8005 33.8053 57.7574 33.7191 57.6713 33.6675C57.6713 33.6589 57.6713 33.6503 57.6627 33.6416C57.6283 33.5383 57.5766 33.4436 57.4905 33.3747C57.4905 33.3574 57.4818 33.3488 57.4732 33.3402C57.4732 33.3144 57.4646 33.3058 57.4388 33.3058L57.4302 33.2972C57.4388 33.2627 57.4302 33.2369 57.3957 33.2196L57.3871 33.211C57.4388 33.2369 57.4216 33.2283 57.3957 33.2283ZM18.2195 31.1097C18.2195 31.4886 18.2453 31.5317 18.6156 31.6178C19.3907 31.7987 20.1658 31.9537 20.9323 32.1431C21.1476 32.1948 21.2854 32.1776 21.3801 31.9709C21.4146 31.902 21.4662 31.8417 21.5093 31.7728C21.5523 31.7125 21.5696 31.6436 21.5351 31.5661C21.3543 31.17 21.182 30.7738 21.0012 30.3691C20.9495 30.2571 20.872 30.2313 20.7514 30.2485C20.0797 30.3604 19.4079 30.4724 18.7448 30.593C18.2539 30.6877 18.2195 30.7308 18.2195 31.1097ZM61.4951 31.1183C61.4951 30.7222 61.4951 30.7049 61.1075 30.6274C60.3927 30.4896 59.6693 30.3691 58.9545 30.2485C58.8339 30.2313 58.765 30.2915 58.722 30.3949C58.6014 30.6791 58.4981 30.9719 58.3431 31.2303C58.145 31.5575 58.2053 31.8073 58.4292 32.0742C58.5067 32.169 58.5756 32.1948 58.6875 32.169C59.4971 31.9881 60.298 31.8073 61.1075 31.6178C61.4951 31.5317 61.4951 31.5231 61.4951 31.1183Z" fill="#010000"/>
<path d="M61.297 52.063C61.3659 52.0716 61.409 52.1146 61.4434 52.1663C61.4434 52.2266 61.4693 52.2524 61.5296 52.2524C61.6673 52.3988 61.7104 52.5797 61.7104 52.7691C61.7104 53.7423 61.7276 54.7241 61.7104 55.6972C61.6932 56.6187 61.1334 57.1785 60.3239 57.411C60.2377 57.4369 60.1344 57.4197 60.0483 57.4197C58.7823 57.4197 57.5249 57.4024 56.259 57.4283C55.3375 57.4455 54.5366 56.6962 54.5193 55.7575C54.5107 55.3442 54.5107 54.9222 54.5193 54.5088C54.5279 54.2504 54.5968 54.0179 54.8552 53.8801C54.9155 53.8973 54.9499 53.8715 54.9586 53.8112C55.0188 53.8026 55.0705 53.7854 55.1308 53.7768C55.1566 53.8112 55.1911 53.8026 55.2255 53.8026C55.5786 53.7251 55.8628 53.9232 55.9489 54.2676C56.0609 54.7155 56.0178 55.1633 56.0264 55.6111C56.0351 55.9039 56.0781 55.9556 56.3795 55.9556C57.5336 55.9556 58.6876 55.9556 59.8416 55.9556C60.1516 55.9556 60.2033 55.8953 60.2033 55.5939C60.2033 54.6724 60.2033 53.7595 60.2033 52.838C60.2033 52.2783 60.5047 51.9424 60.9956 51.9596C61.0559 51.9768 61.1248 51.9941 61.1851 52.0113C61.1937 52.0716 61.2367 52.0802 61.297 52.063Z" fill="#010000"/>
<path d="M24.5838 53.7675C24.9197 53.8278 25.1694 54.0861 25.1781 54.4306C25.1867 54.9043 25.1953 55.378 25.1781 55.8516C25.1522 56.5061 24.6355 57.1348 24.0154 57.3415C23.8174 57.4104 23.6279 57.419 23.4298 57.419C22.1638 57.419 20.9065 57.419 19.6405 57.419C18.8051 57.419 18.0301 56.687 18.0128 55.8688C17.987 54.8009 17.9956 53.7331 18.0042 52.6652C18.0042 52.2604 18.2367 52.0537 18.7449 51.9504C19.1152 51.9417 19.4597 52.2776 19.4597 52.6479C19.4597 53.6125 19.4597 54.5856 19.4597 55.5502C19.4597 55.8516 19.5544 55.9464 19.8558 55.9464C20.4587 55.9464 21.0615 55.9464 21.6643 55.9464C22.2241 55.9464 22.7839 55.9464 23.3437 55.9464C23.5332 55.9464 23.6623 55.8861 23.6968 55.6622C23.7571 55.2832 23.7398 54.9043 23.7226 54.5254C23.6968 54 24.0585 53.7158 24.4719 53.6986C24.4633 53.8019 24.5063 53.8278 24.5838 53.7675Z" fill="#010000"/>
<path d="M24.4632 53.7077C24.0498 53.7163 23.6881 54.0091 23.714 54.5344C23.7312 54.9134 23.7484 55.2923 23.6881 55.6712C23.6537 55.8951 23.5331 55.9554 23.335 55.9554C22.7753 55.9554 22.2155 55.9554 21.6557 55.9554C21.0529 55.9554 20.45 55.9554 19.8472 55.9554C19.5457 55.9554 19.451 55.8607 19.451 55.5593C19.451 54.5947 19.451 53.6215 19.451 52.657C19.451 52.2867 19.1065 51.9508 18.7362 51.9594C18.7534 51.5547 18.7104 51.1499 18.7534 50.7451C19.184 51.3307 19.6921 51.8302 20.3294 52.2092C20.7084 52.4331 21.1217 52.5967 21.5437 52.7345C22.4997 53.0445 23.4815 52.9929 24.4632 53.0015C24.4718 53.2254 24.4718 53.4665 24.4632 53.7077Z" fill="#343D44"/>
<path d="M60.9956 51.9593C60.5047 51.9507 60.2033 52.278 60.2033 52.8378C60.2033 53.7593 60.2033 54.6721 60.2033 55.5936C60.2033 55.9037 60.143 55.9553 59.8416 55.9553C58.6876 55.9553 57.5336 55.9553 56.3795 55.9553C56.0781 55.9553 56.0351 55.9037 56.0265 55.6108C56.0178 55.163 56.0609 54.7152 55.9489 54.2674C55.8628 53.9229 55.5786 53.7248 55.2255 53.8023C55.1911 53.8109 55.1566 53.8109 55.1308 53.7765C55.2514 53.7076 55.2944 53.6128 55.2772 53.4751C55.26 53.3114 55.2944 53.1478 55.2514 52.9842C55.6906 52.9842 56.1298 52.9842 56.5604 52.9842C57.0341 52.9928 57.4991 52.9067 57.9556 52.7947C58.9201 52.5536 59.7727 52.0971 60.4617 51.3651C60.6597 51.1584 60.8148 50.9259 60.987 50.6934C60.987 51.1154 60.987 51.5373 60.9956 51.9593Z" fill="#394147"/>
<path d="M24.5838 53.7681C24.5063 53.8198 24.4633 53.8026 24.4633 53.6992C24.5149 53.7078 24.558 53.7251 24.5838 53.7681Z" fill="#394147"/>
<path d="M61.4606 49.5221C61.4434 49.4704 61.4434 49.4274 61.5123 49.4102C61.5295 49.4618 61.5037 49.4963 61.4606 49.5221Z" fill="#394147"/>
<path d="M54.95 53.8112C54.9414 53.8715 54.9069 53.8973 54.8466 53.8801C54.8638 53.8284 54.8897 53.8026 54.95 53.8112Z" fill="#394147"/>
<path d="M61.3745 49.7809C61.3572 49.7206 61.3659 49.6862 61.4261 49.6689C61.4434 49.7206 61.4175 49.7551 61.3745 49.7809Z" fill="#394147"/>
<path d="M61.297 52.0626C61.2367 52.0798 61.2023 52.0712 61.1851 52.0023C61.2367 51.9937 61.2712 52.0281 61.297 52.0626Z" fill="#394147"/>
<path d="M61.5295 52.2521C61.4693 52.2521 61.4434 52.2263 61.4434 52.166C61.4951 52.1746 61.5295 52.2005 61.5295 52.2521Z" fill="#394147"/>
<path d="M21.7849 47.0762C34.5738 47.0762 47.3627 47.0762 60.1516 47.0762C60.1688 47.1192 60.2033 47.1278 60.2463 47.1278C60.2549 47.5154 60.2635 47.9029 60.2291 48.2905C60.0827 48.3852 60.1688 48.5316 60.1602 48.6522C60.0741 49.1861 59.8932 49.677 59.5401 50.1076C59.5315 50.1248 59.5143 50.1421 59.5057 50.1593C59.4885 50.1851 59.4712 50.211 59.4454 50.2282C59.3248 50.2454 59.2129 50.2799 59.0837 50.2799C48.0689 50.2799 37.0454 50.2799 26.0306 50.2799C25.4364 50.2799 24.8508 50.1679 24.2996 49.9612C23.1284 49.522 22.2672 48.7469 21.8452 47.5498C21.8107 47.3948 21.6729 47.2484 21.7849 47.0762Z" fill="#3568AE"/>
<path d="M21.7848 47.076C21.6643 47.2483 21.8021 47.4033 21.8537 47.5411C22.2843 48.7382 23.1369 49.5219 24.3082 49.9525C24.8593 50.1592 25.445 50.2711 26.0392 50.2711C37.054 50.2711 48.0774 50.2711 59.0923 50.2711C59.2128 50.2711 59.3334 50.2367 59.454 50.2194C59.0492 50.7017 58.5325 51.0118 57.9383 51.2184C57.2407 51.4596 56.5086 51.5113 55.7766 51.5113C45.0977 51.5113 34.4273 51.5199 23.7484 51.5113C22.8872 51.5113 22.0346 51.4079 21.2509 51.0031C20.2347 50.4692 19.6921 49.6166 19.5371 48.497C19.494 48.1956 19.5026 47.8942 19.494 47.6014C19.4854 47.1708 19.4854 46.7402 19.4768 46.3096C19.8299 46.3096 20.183 46.3182 20.5361 46.3182C20.6136 46.9641 21.1475 47.1449 21.6643 47.0847C21.7073 47.0674 21.7504 47.033 21.7848 47.076Z" fill="#033A6D"/>
<path d="M20.5448 46.3097C20.1917 46.3097 19.8386 46.301 19.4855 46.301C19.4855 46.2752 19.4769 46.2494 19.4769 46.2235C19.5199 46.1546 19.5027 46.0857 19.5027 46.0169C19.5027 43.9155 19.5027 41.8142 19.5027 39.7128C19.5027 39.6439 19.5199 39.5664 19.4769 39.5061C19.4596 39.2736 19.4855 39.0497 19.5458 38.8172C19.5458 38.7999 19.5458 38.7827 19.5458 38.7741C19.5458 38.7138 19.5544 38.6622 19.5544 38.6019C19.5888 38.576 19.5888 38.5416 19.5716 38.5071C19.5888 38.421 19.5974 38.3435 19.6146 38.2574C19.6233 38.2402 19.6233 38.2316 19.6319 38.2143C19.6319 38.1885 19.6405 38.154 19.6405 38.1282C19.6491 38.111 19.6491 38.0938 19.6577 38.0765C19.8213 37.2756 20.1486 36.5436 20.5964 35.8632C21.3198 34.7523 22.0519 33.6413 22.7753 32.5304C22.8269 32.4443 22.8872 32.3926 22.9992 32.3926C23.3006 32.4012 23.602 32.4012 23.9035 32.4012C23.5417 33.0643 23.1714 33.7274 22.8097 34.3992C22.4308 35.114 22.1294 35.8632 21.9313 36.6555C21.9141 36.7072 21.9313 36.7675 21.9313 36.8536C22.0346 36.7933 22.1294 36.7761 22.2327 36.802C21.8796 36.9484 21.5868 37.1637 21.406 37.5081C21.2854 37.7407 21.1993 37.9904 21.1476 38.2574C21.0443 38.8688 21.0615 39.4631 21.2251 40.0659C21.3112 40.3587 21.4749 40.5999 21.6299 40.8582C21.5782 40.953 21.5696 41.0649 21.5696 41.1683C21.5696 42.5204 21.5696 43.8638 21.5696 45.2159C21.5696 45.4915 21.5696 45.4915 21.8452 45.4915C34.5566 45.4915 47.268 45.4915 59.9794 45.4915C60.0655 45.4915 60.1516 45.4915 60.2377 45.4915C60.2377 45.5604 60.1947 45.569 60.1344 45.5776C60.0569 45.5776 59.9794 45.5776 59.9018 45.5776C47.2335 45.5776 34.5652 45.5776 21.8968 45.5776C21.6471 45.5776 21.3973 45.5432 21.1476 45.6035C20.8548 45.6724 20.6653 45.8446 20.5964 46.1374C20.5878 46.1546 20.5792 46.1633 20.5706 46.1805C20.562 46.2149 20.5534 46.2666 20.5448 46.3097Z" fill="#3568AE"/>
<path d="M18.2195 31.1094C18.2195 30.7305 18.2539 30.6874 18.7448 30.6013C19.4166 30.4807 20.0883 30.3774 20.7514 30.2568C20.8634 30.2396 20.9495 30.2654 21.0012 30.3774C21.182 30.7735 21.3543 31.1697 21.5351 31.5745C21.5696 31.652 21.5523 31.7123 21.5093 31.7812C21.4662 31.85 21.4059 31.9017 21.3801 31.9792C21.2854 32.1945 21.1562 32.2118 20.9323 32.1515C20.1658 31.962 19.3821 31.7984 18.6156 31.6261C18.2453 31.5314 18.2195 31.4883 18.2195 31.1094Z" fill="#033A6D"/>
<path d="M61.4951 31.1175C61.4951 31.5222 61.4951 31.5222 61.0989 31.617C60.2894 31.8064 59.4884 31.9873 58.6789 32.1681C58.5756 32.194 58.4981 32.1681 58.4205 32.0734C58.1966 31.8064 58.1363 31.5481 58.3344 31.2294C58.4981 30.971 58.5928 30.6782 58.7134 30.394C58.7564 30.2907 58.8253 30.2218 58.9459 30.2476C59.6607 30.3682 60.3841 30.4888 61.0989 30.6266C61.4951 30.7127 61.4951 30.7213 61.4951 31.1175Z" fill="#033A6D"/>
<path d="M30.483 37.5337C31.2323 37.594 31.9815 37.6629 32.7308 37.7145C33.6523 37.7834 34.5738 37.8523 35.4953 37.9126C36.8301 37.9901 38.1564 38.0935 39.4913 38.1021C40.9381 38.1107 42.3849 38.0332 43.8317 37.9385C44.5724 37.8868 45.3216 37.8437 46.0623 37.792C47.0871 37.7232 48.1119 37.6543 49.1281 37.5423C49.8085 37.4734 50.2391 38.059 49.9463 38.6619C49.3779 39.8503 48.7923 41.0302 48.2842 42.2359C48.0086 42.8732 47.6038 43.0885 46.9321 43.1057C45.468 43.1487 43.9954 43.2779 42.5313 43.364C41.627 43.4157 40.7228 43.5018 39.8271 43.4846C38.7162 43.4674 37.6052 43.364 36.5029 43.3038C35.1336 43.2263 33.7642 43.1574 32.4035 43.0885C32.0504 43.0712 31.7921 42.9076 31.6371 42.5804C31.017 41.2627 30.3969 39.9451 29.7855 38.6188C29.5013 38.0246 29.9577 37.4906 30.483 37.5337ZM31.6715 39.1097C31.6887 39.1786 31.6973 39.2217 31.7146 39.2561C32.0591 39.9967 32.4121 40.746 32.7566 41.4866C32.7911 41.5641 32.8514 41.6158 32.9547 41.6158C33.9709 41.6675 34.9872 41.7278 36.0034 41.788C37.2091 41.8569 38.4061 41.9258 39.6118 41.9947C40.3697 42.0378 41.1189 41.9258 41.8682 41.9C42.428 41.8828 42.9878 41.8397 43.5389 41.8053C44.5982 41.745 45.6575 41.6761 46.7168 41.6158C46.8804 41.6072 46.9665 41.5555 47.0268 41.4177C47.1646 41.1077 47.311 40.8063 47.4488 40.5048C47.6641 40.0484 47.8794 39.592 48.0947 39.1269C47.9225 39.0752 47.7761 39.1355 47.621 39.1528C46.3206 39.2475 45.0202 39.3681 43.7198 39.4369C42.3849 39.5058 41.0414 39.6006 39.6979 39.5834C37.9239 39.5575 36.1498 39.4456 34.3757 39.3078C33.902 39.2733 33.4198 39.2647 32.9375 39.2044C32.5327 39.17 32.1021 39.1528 31.6715 39.1097Z" fill="#010000"/>
<path d="M31.6715 39.1104C32.1107 39.1534 32.5327 39.1706 32.9461 39.2137C33.4284 39.2654 33.902 39.2826 34.3843 39.317C36.1584 39.4548 37.9325 39.5668 39.7066 39.5926C41.05 39.6099 42.3849 39.5151 43.7284 39.4462C45.0288 39.3773 46.3292 39.2568 47.6296 39.162C47.7761 39.1534 47.9225 39.0845 48.1033 39.1362C47.888 39.6012 47.6727 40.0577 47.4574 40.5141C47.311 40.8155 47.1732 41.117 47.0354 41.427C46.9751 41.5648 46.889 41.6165 46.7254 41.6251C45.6661 41.6767 44.6068 41.7456 43.5475 41.8145C42.9878 41.849 42.428 41.892 41.8768 41.9093C41.1275 41.9351 40.3783 42.0471 39.6204 42.004C38.4147 41.9351 37.2177 41.8662 36.012 41.7973C34.9958 41.737 33.9795 41.6767 32.9633 41.6251C32.86 41.6165 32.8083 41.5734 32.7652 41.4959C32.4121 40.7553 32.0677 40.006 31.7232 39.2654C31.6973 39.2223 31.6887 39.1792 31.6715 39.1104Z" fill="#033A6D"/>
<path d="M54.5796 32.3928H53.305V30.9287H54.5796C54.9843 30.9287 55.3116 31.256 55.3116 31.6607C55.3116 32.0655 54.9843 32.3928 54.5796 32.3928Z" fill="#010000"/>
<path d="M24.6699 30.4287C27.4861 30.4546 46.9924 30.601 55.0963 30.4373C55.2513 30.4373 55.3461 30.2737 55.2858 30.1273L54.2609 27.759C53.2361 25.3734 50.7989 23.8233 48.0947 23.8233L43.4011 23.4788C41.0587 23.3065 38.7162 23.3065 36.3737 23.4788L31.7835 23.8233C29.174 23.8233 26.8057 25.2701 25.7206 27.5265L24.4718 30.1101C24.4116 30.2565 24.5149 30.4287 24.6699 30.4287Z" fill="#C3E5EF"/>
<path d="M52.6677 38.0166L57.3957 37.6377L57.8177 39.4721L57.5421 40.3505L55.036 41.4873L50.5147 41.4356L51.2553 39.739L52.6677 38.0166Z" fill="white"/>
<path d="M58.6531 38.9298C58.6703 39.5671 58.567 40.1182 58.2569 40.6091C57.8694 41.2378 57.2665 41.5392 56.5517 41.6339C55.7336 41.7459 54.9241 41.8665 54.1059 41.9784C53.1241 42.1162 52.151 42.2454 51.1692 42.3746C50.9195 42.409 50.6697 42.4349 50.4286 42.4779C50.1099 42.5382 49.8516 42.4607 49.6535 42.2023C49.4554 41.944 49.4554 41.6684 49.6018 41.3928C50.2391 40.2216 50.8592 39.0331 51.6429 37.948C51.7204 37.8446 51.8065 37.7499 51.884 37.6466C52.1682 37.2418 52.5816 37.1298 53.0553 37.0782C53.7442 37.0093 54.4332 36.9145 55.1308 36.8543C55.8197 36.8026 56.5173 36.7165 57.2149 36.7337C57.766 36.7509 58.2914 37.1901 58.4808 37.7757C58.5928 38.1805 58.6875 38.5767 58.6531 38.9298ZM57.1976 38.9814C57.189 38.7834 57.1977 38.5853 57.1201 38.3872C57.0685 38.2408 56.991 38.2063 56.8532 38.215C56.4828 38.2494 56.1125 38.2666 55.7422 38.3011C54.8896 38.3786 54.037 38.413 53.193 38.5336C53.0725 38.5508 52.9864 38.6025 52.9175 38.7058C52.5041 39.2656 52.1338 39.8513 51.7979 40.4541C51.7376 40.5661 51.5912 40.7038 51.6515 40.7814C51.7376 40.8933 51.9185 40.8072 52.0563 40.79C53.5031 40.5919 54.9499 40.3852 56.3967 40.1785C56.7498 40.1268 57.0426 39.9804 57.146 39.5584C57.1718 39.3604 57.189 39.1709 57.1976 38.9814Z" fill="#010000"/>
<path d="M22.2413 37.5254L26.0737 37.5426L27.8219 38.1713L29.1482 40.5999L29.3549 41.7109L25.7637 41.3147L22.5514 40.6946L21.7332 38.4813L22.2413 37.5254Z" fill="white"/>
<path d="M21.6299 40.8492C21.4748 40.5908 21.3112 40.3497 21.2251 40.0569C21.0529 39.4626 21.0442 38.8598 21.1476 38.2483C21.1906 37.9813 21.2768 37.7402 21.4059 37.4991C21.5868 37.1546 21.8796 36.9307 22.2327 36.7929C22.2413 36.7929 22.2585 36.7929 22.2672 36.7843C22.3619 36.767 22.4652 36.7498 22.56 36.7412C23.2059 36.7412 23.8432 36.8101 24.4804 36.8532C25.023 36.8876 25.557 36.9479 26.0995 36.991C26.1254 36.991 26.1598 36.991 26.1856 36.9996C26.3407 37.0599 26.4957 37.0943 26.6593 37.0771C26.7196 37.0771 26.7713 37.0857 26.8315 37.0857C26.9693 37.1374 27.1157 37.1718 27.2621 37.1632C27.2794 37.1632 27.288 37.1718 27.3052 37.1718C27.3569 37.2149 27.4085 37.2579 27.4774 37.2579C28.0114 37.6971 28.3645 38.2828 28.7176 38.8598C29.2171 39.6693 29.6735 40.5047 30.1213 41.34C30.2678 41.6242 30.2936 41.8998 30.1041 42.1668C29.9147 42.4424 29.6477 42.5113 29.3118 42.4682C28.1233 42.296 26.9263 42.141 25.7378 41.9773C25.0144 41.874 24.2996 41.7534 23.5762 41.6587C23.2661 41.6156 22.9475 41.5898 22.6461 41.5037C22.2413 41.3917 21.9227 41.142 21.6299 40.8492ZM22.5341 38.9631C22.5427 39.0923 22.5427 39.2215 22.56 39.3507C22.6202 39.8415 22.8269 40.0741 23.2575 40.1602C23.5159 40.2119 23.7829 40.2377 24.0412 40.2722C24.8163 40.3841 25.5828 40.4875 26.3579 40.5994C26.8832 40.6769 27.4085 40.7458 27.9339 40.8233C27.9856 40.8319 28.0545 40.8492 28.0975 40.8061C28.1406 40.7458 28.0803 40.6941 28.0545 40.6511C27.6755 39.9707 27.2621 39.3076 26.8057 38.6789C26.7454 38.6014 26.6765 38.567 26.5732 38.5411C26.2029 38.4636 25.8153 38.455 25.4364 38.4206C24.5666 38.3431 23.6968 38.2828 22.8183 38.2139C22.7064 38.2053 22.6547 38.2483 22.6116 38.3517C22.5513 38.5497 22.5427 38.7564 22.5341 38.9631Z" fill="#010000"/>
<path d="M55.2858 30.0928L54.261 27.7245C53.2361 25.339 50.7989 23.7888 48.0947 23.7888L43.4012 23.4443C42.8328 23.4013 42.2558 23.3668 41.6874 23.3496L46.2432 30.4804C49.6794 30.4718 52.8314 30.4546 55.0964 30.4029C55.2514 30.3943 55.3461 30.2306 55.2858 30.0928Z" fill="#E1F4FB"/>
<path d="M15.16 30.2319C15.4727 29.5897 14.9048 28.7134 14.5931 28.1984C13.6645 26.6508 12.0094 25.9044 10.2682 26.2053C9.15733 26.4 8.29009 26.9728 7.60982 27.8823C7.04081 28.652 6.89121 29.5625 6.73471 30.5449L6.39906 32.7137C6.36446 32.9429 6.32766 33.1724 6.29115 33.4001L6.29073 33.4027C6.25424 33.6302 6.21788 33.857 6.18376 34.083L6.18319 34.0868C6.0629 34.8086 5.95113 35.5305 5.83914 36.2542L5.83881 36.2563L5.80384 36.4681C5.73648 36.8743 5.67018 37.2742 5.63436 37.6682L5.63416 37.6704C5.6099 37.913 5.58382 38.1509 5.55798 38.3866C5.50939 38.83 5.46158 39.2662 5.42801 39.7138L11.1328 34.1556C11.0758 34.1119 11.0189 34.0682 10.9619 34.0245L10.951 34.0161C10.3471 33.553 9.74208 33.089 9.12302 32.642C7.93456 31.7894 7.46089 30.1875 8.15847 28.844C8.69242 27.802 9.57085 27.2594 10.7335 27.2078C11.6377 27.1647 12.387 27.5178 13.0243 28.1465L15.16 30.2319Z" fill="#FFD298"/>
<path d="M5.25646 48.6948C5.24785 50.9591 5.24785 53.2245 5.25646 55.4629V55.4639C5.25646 55.6372 5.27218 55.7805 5.32114 55.9274L5.3225 55.9315C5.48153 56.4375 5.82945 56.7107 6.33412 56.7839C6.81311 56.8533 7.19393 56.6495 7.50715 56.2229C7.66446 55.9959 7.7122 55.7349 7.74611 55.4043C7.78545 55.0158 7.83728 54.6172 7.88855 54.2229L7.88885 54.2205C7.92667 53.9296 7.96417 53.6411 7.99613 53.3607C8.02299 53.1156 8.0476 52.8663 8.07236 52.6154L9.10679 43.795C9.11422 43.7095 9.14147 43.6012 9.22963 43.5164C9.32176 43.4278 9.43657 43.4068 9.52779 43.4068H9.53036H9.53294H9.53551H9.53808H9.54066H9.54323H9.54581H9.54838H9.55096H9.55353H9.55611H9.55868H9.56126H9.56384H9.56641H9.56899H9.57157H9.57414H9.57672H9.5793H9.58187H9.58445H9.58703H9.58961H9.59219H9.59476H9.59734H9.59992H9.6025H9.60508H9.60766H9.61024H9.61282H9.6154H9.61798H9.62056H9.62314H9.62572H9.6283H9.63088H9.63346H9.63604H9.63862H9.6412H9.64378H9.64637H9.64895H9.65153H9.65411H9.65669H9.65928H9.66186H9.66444H9.66703H9.66961H9.67219H9.67478H9.67736H9.67994H9.68253H9.68511H9.6877H9.69028H9.69286H9.69545H9.69803H9.70062H9.7032H9.70579H9.70837H9.71096H9.71354H9.71613H9.71872H9.7213H9.72389H9.72648H9.72906H9.73165H9.73424H9.73682H9.73941H9.742H9.74458H9.74717H9.74976H9.75235H9.75493H9.75752H9.76011H9.7627H9.76529H9.76788H9.77046H9.77305H9.77564H9.77823H9.78082H9.78341H9.786H9.78859H9.79118H9.79377H9.79636H9.79895H9.80154H9.80413H9.80672H9.80931H9.8119H9.81449H9.81708H9.81967H9.82226H9.82485H9.82744H9.83003H9.83263H9.83522H9.83781H9.8404H9.84299H9.84558H9.84818H9.85077H9.85336H9.85595H9.85854H9.86114H9.86373H9.86632H9.86892H9.87151H9.8741H9.87669H9.87929H9.88188H9.88447H9.88707H9.88966H9.89225H9.89485H9.89744H9.90004H9.90263H9.90522H9.90782H9.91041H9.91301H9.9156H9.9182H9.92079H9.92339H9.92598H9.92857H9.93117H9.93376H9.93636H9.93895H9.94155H9.94414H9.94674H9.94934H9.95193H9.95453H9.95712H9.95972H9.96231H9.96491H9.9675H9.9701H9.9727H9.97529H9.97789H9.98049H9.98308H9.98568H9.98827H9.99087H9.99347H9.99606H9.99866H10.0013H10.0039H10.0065H10.009H10.0116H10.0142H10.0168H10.0194H10.022H10.0246H10.0272H10.0298H10.0324H10.035H10.0376H10.0402H10.0428H10.0454H10.048H10.0506H10.0532H10.0558H10.0584H10.061H10.0636H10.0662H10.0688H10.0714H10.074H10.0766H10.0792H10.0818H10.0844H10.087H10.0896H10.0922H10.0948H10.0974H10.1H10.1026H10.1052H10.1078H10.1104H10.113H10.1156H10.1182H10.1208H10.1234H10.1259H10.1285H10.1311H10.1337H10.1363H10.1389H10.1415H10.1441H10.1467H10.1493H10.1519H10.1545H10.1571H10.1597H10.1623H10.1649H10.1675H10.1701H10.1727H10.1753H10.1779H10.1805H10.1831H10.1857H10.1883H10.1909H10.1935H10.1961H10.1987H10.2013H10.2039H10.2065H10.2091H10.2117H10.2143H10.2169H10.2195H10.2221H10.2247H10.2273H10.2299H10.2325H10.2351H10.2377H10.2403H10.2429H10.2455H10.2481H10.2507H10.2533H10.2559H10.2585H10.2611H10.2637H10.2663H10.2689H10.2715H10.2741H10.2767H10.2793H10.2819H10.2845H10.2871H10.2897H10.2923H10.2949H10.2975H10.3001H10.3027H10.3053H10.3078H10.3104H10.313H10.3156H10.3182H10.3208H10.3234H10.326H10.3286H10.3312H10.3338H10.3364H10.339H10.3416H10.3442H10.3468H10.3494H10.352H10.3546H10.3572H10.3598H10.3624H10.365H10.3676H10.3702H10.3728H10.3754H10.378H10.3806H10.3832H10.3858H10.3884H10.391H10.3936H10.3962H10.3988H10.4013H10.4039H10.4065H10.4091H10.4117H10.4143H10.4169H10.4195H10.4221H10.4247H10.4273H10.4299H10.4325H10.4351H10.4377H10.4403H10.4429H10.4455H10.4481H10.4507H10.4533H10.4559H10.4584H10.461H10.4636H10.4662H10.4688H10.4714H10.474H10.4766H10.4792H10.4818H10.4844H10.487H10.4896H10.4922H10.4948H10.4974H10.5H10.5025H10.5051H10.5077H10.5103H10.5129H10.5155H10.5181H10.5207H10.5233H10.5259H10.5285H10.5311H10.5337H10.5362H10.5388H10.5414H10.544H10.5466H10.5492H10.5518H10.5544H10.557H10.5596H10.5622H10.5648H10.5673H10.5699H10.5725H10.5751H10.5777H10.5803H10.5829H10.5855H10.5881H10.5907H10.5932H10.5958H10.5984H10.601H10.6036H10.6062H10.6088H10.6114H10.614H10.6165H10.6191H10.6217H10.6243H10.6269H10.6295H10.6321H10.6347H10.6372H10.6398H10.6424H10.645H10.6476H10.6502H10.6528H10.6554H10.6579H10.6605H10.6631H10.6657H10.6683H10.6709H10.6735H10.676H10.6786H10.6812H10.6838H10.6864H10.689H10.6916H10.6941H10.6967H10.6993H10.7019H10.7045H10.7071H10.7096H10.7122H10.7148H10.7174H10.72H10.7226H10.7251H10.7277H10.7303H10.7329H10.7355H10.738H10.7406H10.7432H10.7458H10.7484H10.751H10.7535H10.7561H10.7587H10.7613H10.7639H10.7664H10.769H10.7716H10.7742H10.7768H10.7793H10.7819H10.7845H10.7871H10.7896H10.7922H10.7948H10.7974H10.8H10.8025H10.8051H10.8077H10.8103H10.8128H10.8154H10.818H10.8206H10.8231H10.8257H10.8283H10.8309H10.8335H10.836H10.8386H10.8412H10.8437H10.8463H10.8489H10.8515H10.854H10.8565C10.8964 43.4068 10.9909 43.4067 11.0782 43.4475C11.1301 43.4717 11.1849 43.5123 11.2245 43.5768C11.2634 43.6402 11.2763 43.7081 11.2763 43.7687L12.0511 52.3722C12.1103 52.8629 12.1633 53.3535 12.2162 53.8432L12.2183 53.8628C12.2724 54.3634 12.3264 54.8631 12.387 55.3606L12.392 55.405C12.4331 55.7691 12.4739 56.1316 12.7056 56.4543C13.2051 57.1519 14.2472 57.2294 14.8156 56.7385C15.2117 56.394 15.4012 55.9806 15.4012 55.4639C15.4055 52.4884 15.4055 49.5108 15.4055 46.5321V37.8926C15.4055 37.8926 15.2549 37.2643 14.6741 36.8073C14.0933 36.3503 13.7847 36.1633 13.2168 35.7303L13.2031 35.7199C12.9096 35.4961 12.6159 35.2723 12.3181 35.0533C11.9206 34.7584 11.5267 34.4576 11.1328 34.1556L5.42801 39.7138L5.25646 48.6948Z" fill="#FFD298"/>
<path d="M5.42801 39.7138L5.25646 48.6948C5.24785 50.9591 5.24785 53.2245 5.25646 55.4629V55.4639C5.25646 55.6372 5.27218 55.7805 5.32114 55.9274L5.3225 55.9315C5.48153 56.4375 5.82945 56.7107 6.33412 56.7839C6.81311 56.8533 7.19393 56.6495 7.50715 56.2229C7.66446 55.9959 7.7122 55.7349 7.74611 55.4043C7.78545 55.0158 7.83728 54.6172 7.88855 54.2229L7.88885 54.2205C7.92667 53.9296 7.96417 53.6411 7.99613 53.3607C8.02299 53.1156 8.0476 52.8663 8.07236 52.6154L9.10679 43.795C9.11422 43.7095 9.14147 43.6012 9.22963 43.5164C9.32176 43.4278 9.43657 43.4068 9.52779 43.4068H9.53036H9.53294H9.53551H9.53808H9.54066H9.54323H9.54581H9.54838H9.55096H9.55353H9.55611H9.55868H9.56126H9.56384H9.56641H9.56899H9.57157H9.57414H9.57672H9.5793H9.58187H9.58445H9.58703H9.58961H9.59219H9.59476H9.59734H9.59992H9.6025H9.60508H9.60766H9.61024H9.61282H9.6154H9.61798H9.62056H9.62314H9.62572H9.6283H9.63088H9.63346H9.63604H9.63862H9.6412H9.64378H9.64637H9.64895H9.65153H9.65411H9.65669H9.65928H9.66186H9.66444H9.66703H9.66961H9.67219H9.67478H9.67736H9.67994H9.68253H9.68511H9.6877H9.69028H9.69286H9.69545H9.69803H9.70062H9.7032H9.70579H9.70837H9.71096H9.71354H9.71613H9.71872H9.7213H9.72389H9.72648H9.72906H9.73165H9.73424H9.73682H9.73941H9.742H9.74458H9.74717H9.74976H9.75235H9.75493H9.75752H9.76011H9.7627H9.76529H9.76788H9.77046H9.77305H9.77564H9.77823H9.78082H9.78341H9.786H9.78859H9.79118H9.79377H9.79636H9.79895H9.80154H9.80413H9.80672H9.80931H9.8119H9.81449H9.81708H9.81967H9.82226H9.82485H9.82744H9.83003H9.83263H9.83522H9.83781H9.8404H9.84299H9.84558H9.84818H9.85077H9.85336H9.85595H9.85854H9.86114H9.86373H9.86632H9.86892H9.87151H9.8741H9.87669H9.87929H9.88188H9.88447H9.88707H9.88966H9.89225H9.89485H9.89744H9.90004H9.90263H9.90522H9.90782H9.91041H9.91301H9.9156H9.9182H9.92079H9.92339H9.92598H9.92857H9.93117H9.93376H9.93636H9.93895H9.94155H9.94414H9.94674H9.94934H9.95193H9.95453H9.95712H9.95972H9.96231H9.96491H9.9675H9.9701H9.9727H9.97529H9.97789H9.98049H9.98308H9.98568H9.98827H9.99087H9.99347H9.99606H9.99866H10.0013H10.0039H10.0065H10.009H10.0116H10.0142H10.0168H10.0194H10.022H10.0246H10.0272H10.0298H10.0324H10.035H10.0376H10.0402H10.0428H10.0454H10.048H10.0506H10.0532H10.0558H10.0584H10.061H10.0636H10.0662H10.0688H10.0714H10.074H10.0766H10.0792H10.0818H10.0844H10.087H10.0896H10.0922H10.0948H10.0974H10.1H10.1026H10.1052H10.1078H10.1104H10.113H10.1156H10.1182H10.1208H10.1234H10.1259H10.1285H10.1311H10.1337H10.1363H10.1389H10.1415H10.1441H10.1467H10.1493H10.1519H10.1545H10.1571H10.1597H10.1623H10.1649H10.1675H10.1701H10.1727H10.1753H10.1779H10.1805H10.1831H10.1857H10.1883H10.1909H10.1935H10.1961H10.1987H10.2013H10.2039H10.2065H10.2091H10.2117H10.2143H10.2169H10.2195H10.2221H10.2247H10.2273H10.2299H10.2325H10.2351H10.2377H10.2403H10.2429H10.2455H10.2481H10.2507H10.2533H10.2559H10.2585H10.2611H10.2637H10.2663H10.2689H10.2715H10.2741H10.2767H10.2793H10.2819H10.2845H10.2871H10.2897H10.2923H10.2949H10.2975H10.3001H10.3027H10.3053H10.3078H10.3104H10.313H10.3156H10.3182H10.3208H10.3234H10.326H10.3286H10.3312H10.3338H10.3364H10.339H10.3416H10.3442H10.3468H10.3494H10.352H10.3546H10.3572H10.3598H10.3624H10.365H10.3676H10.3702H10.3728H10.3754H10.378H10.3806H10.3832H10.3858H10.3884H10.391H10.3936H10.3962H10.3988H10.4013H10.4039H10.4065H10.4091H10.4117H10.4143H10.4169H10.4195H10.4221H10.4247H10.4273H10.4299H10.4325H10.4351H10.4377H10.4403H10.4429H10.4455H10.4481H10.4507H10.4533H10.4559H10.4584H10.461H10.4636H10.4662H10.4688H10.4714H10.474H10.4766H10.4792H10.4818H10.4844H10.487H10.4896H10.4922H10.4948H10.4974H10.5H10.5025H10.5051H10.5077H10.5103H10.5129H10.5155H10.5181H10.5207H10.5233H10.5259H10.5285H10.5311H10.5337H10.5362H10.5388H10.5414H10.544H10.5466H10.5492H10.5518H10.5544H10.557H10.5596H10.5622H10.5648H10.5673H10.5699H10.5725H10.5751H10.5777H10.5803H10.5829H10.5855H10.5881H10.5907H10.5932H10.5958H10.5984H10.601H10.6036H10.6062H10.6088H10.6114H10.614H10.6165H10.6191H10.6217H10.6243H10.6269H10.6295H10.6321H10.6347H10.6372H10.6398H10.6424H10.645H10.6476H10.6502H10.6528H10.6554H10.6579H10.6605H10.6631H10.6657H10.6683H10.6709H10.6735H10.676H10.6786H10.6812H10.6838H10.6864H10.689H10.6916H10.6941H10.6967H10.6993H10.7019H10.7045H10.7071H10.7096H10.7122H10.7148H10.7174H10.72H10.7226H10.7251H10.7277H10.7303H10.7329H10.7355H10.738H10.7406H10.7432H10.7458H10.7484H10.751H10.7535H10.7561H10.7587H10.7613H10.7639H10.7664H10.769H10.7716H10.7742H10.7768H10.7793H10.7819H10.7845H10.7871H10.7896H10.7922H10.7948H10.7974H10.8H10.8025H10.8051H10.8077H10.8103H10.8128H10.8154H10.818H10.8206H10.8231H10.8257H10.8283H10.8309H10.8335H10.836H10.8386H10.8412H10.8437H10.8463H10.8489H10.8515H10.854H10.8565C10.8964 43.4068 10.9909 43.4067 11.0782 43.4475C11.1301 43.4717 11.1849 43.5123 11.2245 43.5768C11.2634 43.6402 11.2763 43.7081 11.2763 43.7687L12.0511 52.3722C12.1103 52.8629 12.1633 53.3535 12.2162 53.8432M5.42801 39.7138C5.46158 39.2662 5.50939 38.83 5.55798 38.3866C5.58382 38.1509 5.6099 37.913 5.63416 37.6704L5.63436 37.6682C5.67018 37.2742 5.73648 36.8743 5.80384 36.4681M5.42801 39.7138L11.1328 34.1556M5.42801 39.7138C5.42801 39.7138 8.178 37.0345 11.1328 34.1556M12.2162 53.8432L12.2183 53.8628M12.2162 53.8432C12.2169 53.8497 12.2176 53.8562 12.2183 53.8628M12.387 55.3606C12.3887 55.3754 12.3903 55.3902 12.392 55.405M12.387 55.3606C12.3264 54.8631 12.2724 54.3634 12.2183 53.8628M12.387 55.3606L12.392 55.405M12.392 55.405C12.4331 55.7691 12.4739 56.1316 12.7056 56.4543C13.2051 57.1519 14.2472 57.2294 14.8156 56.7385C15.2117 56.394 15.4012 55.9806 15.4012 55.4639C15.4055 52.4884 15.4055 49.5108 15.4055 46.5321V37.8926C15.4055 37.8926 15.2549 37.2643 14.6741 36.8073C14.0933 36.3503 13.7847 36.1633 13.2168 35.7303M15.16 30.2319C15.4727 29.5897 14.9048 28.7134 14.5931 28.1984C13.6645 26.6508 12.0094 25.9044 10.2682 26.2053C9.15733 26.4 8.29009 26.9728 7.60982 27.8823C7.04081 28.652 6.89121 29.5625 6.73471 30.5449L6.39906 32.7137C6.36446 32.9429 6.32766 33.1724 6.29115 33.4001L6.29073 33.4027C6.25424 33.6302 6.21788 33.857 6.18376 34.083L6.18319 34.0868C6.0629 34.8086 5.95113 35.5305 5.83914 36.2542L5.83881 36.2563M15.16 30.2319C14.326 29.4175 13.0243 28.1465 13.0243 28.1465M15.16 30.2319L13.0243 28.1465M15.16 30.2319C13.9473 31.4135 12.5175 32.8064 11.1328 34.1556M5.83881 36.2563C5.82722 36.3271 5.81551 36.3977 5.80384 36.4681M5.83881 36.2563L5.80384 36.4681M13.2168 35.7303L13.2031 35.7199M13.2168 35.7303C13.2122 35.7268 13.2077 35.7233 13.2031 35.7199M10.9619 34.0245C11.0189 34.0682 11.0758 34.1119 11.1328 34.1556M10.9619 34.0245L10.951 34.0161M10.9619 34.0245C10.9583 34.0217 10.9546 34.0189 10.951 34.0161M13.0243 28.1465C12.387 27.5178 11.6377 27.1647 10.7335 27.2078C9.57085 27.2594 8.69242 27.802 8.15847 28.844C7.46089 30.1875 7.93456 31.7894 9.12302 32.642C9.74208 33.089 10.3471 33.553 10.951 34.0161M11.1328 34.1556C11.5267 34.4576 11.9206 34.7584 12.3181 35.0533C12.6159 35.2723 12.9096 35.4961 13.2031 35.7199" stroke="black" stroke-width="0.7"/>
<path d="M9.10408 29.3214C8.69952 30.0008 8.72427 30.7023 9.14571 31.4057C9.27865 31.6193 9.45731 31.7893 9.66638 31.9525C9.77096 32.0342 9.88004 32.1118 9.99438 32.1931L9.99648 32.1946C10.1098 32.2752 10.2284 32.3596 10.3433 32.4497M9.10408 29.3214C9.48916 28.6745 10.086 28.3343 10.8564 28.3497L10.8578 28.3498M10.8578 28.3498C11.3807 28.3573 11.8378 28.5677 12.2194 28.9415ZM12.2194 28.9415C12.4602 29.1771 12.7004 29.4145 12.9408 29.6521ZM12.2194 28.9415L12.9408 29.6521ZM12.9408 29.6521C12.9431 29.6543 12.9454 29.6566 12.9477 29.6589C13.5093 30.2138 14.0729 30.7707 14.6519 31.3135L12.9477 29.6589L12.9408 29.6521Z" fill="#FFD298"/>
<path d="M9.10408 29.3214C8.69952 30.0008 8.72427 30.7023 9.14571 31.4057C9.27865 31.6193 9.45731 31.7893 9.66638 31.9525C9.77096 32.0342 9.88004 32.1118 9.99438 32.1931L9.99648 32.1946C10.1098 32.2752 10.2284 32.3596 10.3433 32.4497C10.8961 32.8767 11.4529 33.2942 12.0126 33.7139L12.0162 33.7167C12.2207 33.8701 12.4256 34.0237 12.6308 34.1782C12.9988 34.4552 13.3649 34.7336 13.7309 35.0121C14.2344 35.3952 14.738 35.7783 15.247 36.1575C15.5958 36.4121 15.9827 36.4803 16.4182 36.4102L20.7236 35.0876C21.6707 34.789 22.6086 34.4905 23.5554 34.1834C23.6988 34.1365 23.8498 34.0931 23.9953 34.0513L24.0129 34.0462C24.0904 34.0238 24.1661 34.002 24.2381 33.9804C24.4583 33.914 24.6645 33.8434 24.8571 33.7492C25.4429 33.4557 25.6963 32.769 25.4509 32.1548C25.2253 31.5983 24.5557 31.2739 23.9466 31.4333C23.3343 31.5956 22.7155 31.736 22.1006 31.8755L22.0924 31.8774C21.8598 31.9301 21.6278 31.9827 21.3969 32.0363C20.2721 32.308 18.2828 32.797 17.1547 33.0537L17.1308 33.0598C17.0409 33.0827 16.9134 33.1152 16.7819 33.111C16.6191 33.1059 16.4583 33.0472 16.3072 32.9084L14.6519 31.3135C14.0729 30.7707 13.5093 30.2138 12.9477 29.6589L12.9408 29.6521L12.2194 28.9415C11.8378 28.5677 11.3807 28.3573 10.8578 28.3498L10.8564 28.3497C10.086 28.3343 9.48916 28.6745 9.10408 29.3214Z" fill="#FFD298"/>
<path d="M14.6519 31.3135L16.3072 32.9084C16.4583 33.0472 16.6191 33.1059 16.7819 33.111C16.9134 33.1152 17.0409 33.0827 17.1308 33.0598M14.6519 31.3135C14.0729 30.7707 13.5093 30.2138 12.9477 29.6589M14.6519 31.3135L12.9477 29.6589M17.1308 33.0598C17.1391 33.0577 17.1471 33.0557 17.1547 33.0537M17.1308 33.0598L17.1547 33.0537M17.1547 33.0537C18.2828 32.797 20.2721 32.308 21.3969 32.0363C21.6278 31.9827 21.8598 31.9301 22.0924 31.8774M22.0924 31.8774L22.1006 31.8755M22.0924 31.8774C22.0951 31.8767 22.0979 31.8761 22.1006 31.8755M23.9953 34.0513C23.8498 34.0931 23.6988 34.1365 23.5554 34.1834C22.6086 34.4905 21.6707 34.789 20.7236 35.0876L16.4182 36.4102C15.9827 36.4803 15.5958 36.4121 15.247 36.1575C14.738 35.7783 14.2344 35.3952 13.7309 35.0121C13.3649 34.7336 12.9988 34.4552 12.6308 34.1782C12.4256 34.0237 12.2207 33.8701 12.0162 33.7167M23.9953 34.0513L24.0129 34.0462M23.9953 34.0513C24.0012 34.0496 24.007 34.0479 24.0129 34.0462M12.0162 33.7167L12.0126 33.7139M12.0162 33.7167C12.015 33.7157 12.0138 33.7148 12.0126 33.7139M12.2194 28.9415C11.8378 28.5677 11.3807 28.3573 10.8578 28.3498L10.8564 28.3497C10.086 28.3343 9.48916 28.6745 9.10408 29.3214C8.69952 30.0008 8.72427 30.7023 9.14571 31.4057C9.27865 31.6193 9.45731 31.7893 9.66638 31.9525C9.77096 32.0342 9.88004 32.1118 9.99438 32.1931L9.99648 32.1946C10.1098 32.2752 10.2284 32.3596 10.3433 32.4497C10.8961 32.8767 11.4529 33.2942 12.0126 33.7139M12.2194 28.9415C12.4602 29.1771 12.7004 29.4145 12.9408 29.6521M12.2194 28.9415L12.9408 29.6521M12.9408 29.6521L12.9477 29.6589M12.9408 29.6521C12.9431 29.6543 12.9454 29.6566 12.9477 29.6589M24.0129 34.0462C24.0904 34.0238 24.1661 34.002 24.2381 33.9804C24.4583 33.914 24.6645 33.8434 24.8571 33.7492C25.4429 33.4557 25.6963 32.769 25.4509 32.1548C25.2253 31.5983 24.5557 31.2739 23.9466 31.4333C23.3343 31.5956 22.7155 31.736 22.1006 31.8755" stroke="black" stroke-width="0.7"/>
<path d="M15.4037 17.192H15.4169C17.7142 17.1273 19.629 19.0901 19.6209 21.385C19.6128 23.7021 17.735 25.5879 15.3935 25.5797C13.0854 25.5716 11.1993 23.6941 11.2074 21.3523C11.2074 19.0997 13.0971 17.1354 15.4037 17.192Z" fill="#FFD298" stroke="black" stroke-width="0.7"/>
<path d="M22.3942 28.8609C22.7645 28.7834 23.1348 28.7834 23.5051 28.8867C23.6171 28.9212 23.7463 28.9126 23.8668 28.9298C24.4094 29.0934 24.9778 29.1968 25.5376 29.2829C26.5883 29.4465 27.0791 30.4197 26.8638 31.1345C26.7691 31.4531 26.726 31.7804 26.6572 32.1077C26.4418 33.1411 26.2179 34.1746 26.0285 35.2166C25.8735 36.052 25.0467 36.6204 24.0994 36.3878C23.5568 36.2501 23.0056 36.1209 22.4459 36.0606C22.1961 35.9486 21.9205 35.9486 21.6622 35.8711C21.421 35.8022 21.2143 35.6644 21.0163 35.518C20.9646 35.4061 20.8354 35.3458 20.8182 35.2166L20.8266 35.214C21.7797 34.9134 22.7329 34.6129 23.6774 34.3037C24.1252 34.1573 24.5903 34.0626 25.0122 33.8559C25.7184 33.5114 26.0285 32.6847 25.727 31.944C25.4515 31.2637 24.6505 30.8934 23.9271 31.0742C23.0831 31.2895 22.2306 31.479 21.378 31.6771C21.2918 31.6943 21.1971 31.7029 21.1024 31.7115C21.2316 31.0828 21.3349 30.4369 21.4899 29.8169C21.6019 29.3432 21.9636 29.059 22.3942 28.8609Z" fill="#DDDDDD"/>
</svg>
