<svg width="69" height="69" viewBox="0 0 69 69" fill="none" xmlns="http://www.w3.org/2000/svg">
<path d="M55.5352 44.8516C57.5352 44.293 58.7617 42.625 58.8711 40.6211C58.8711 39.5078 58.8711 38.3945 58.8711 37.2812C58.8711 34.832 56.9805 32.9414 54.4219 32.832C53.1953 32.832 51.9727 32.832 50.6367 32.832C50.1914 32.832 50.1914 32.7187 50.1914 32.2734C50.1914 30.7148 50.1914 29.1563 50.1914 27.6016C50.1914 26.4883 50.1914 26.4883 51.3047 26.375C54.3086 26.1523 56.6484 23.8164 57.0938 20.9219C57.6484 16.582 57.6484 12.3516 57.2031 8.01172C56.8711 4.89844 55.0898 2.67187 52.3047 2.11328C50.8594 1.78125 49.4141 1.89062 47.9648 1.78125C47.2969 1.78125 46.8516 2.00391 46.7422 2.67187C46.6289 3.44922 47.0742 3.89453 47.8555 3.89453C48.7461 3.89453 49.5234 4.00781 50.4141 4.00781C53.3086 4.11719 54.8672 5.56641 55.1992 8.45703C55.4219 11.0195 55.4219 13.6875 55.4219 16.25C55.4219 17.6953 55.3125 19.2539 55.0898 20.6992C54.7539 22.5937 53.418 23.9258 51.5273 24.2617C49.8594 24.4844 48.4102 24.4844 46.9648 24.4844C44.1836 24.5938 41.3984 24.707 38.6172 24.707C33.1641 24.707 27.6016 24.8164 22.1484 24.5938C20.8125 24.5938 19.4766 24.5937 18.1406 24.3711C18.0273 24.3711 18.0273 24.3711 17.918 24.3711H17.8047C15.6914 24.2617 14.0234 22.4805 13.9102 20.2539C13.8008 19.2539 13.6875 18.25 13.6875 17.3594C13.6875 14.3555 13.5781 11.2422 13.9102 8.23438C14.2461 5.89844 15.8047 4.33984 17.8047 4.11719H17.918C18.0273 4.11719 18.1406 4.11719 18.1406 4.11719C18.6953 4.11719 19.2539 4.00781 19.9219 4.00781C23.3711 3.89453 26.7109 3.78516 30.1602 3.78516C33.0547 3.78516 36.0586 3.78516 38.9531 3.78516C39.8438 3.78516 40.6211 3.78516 41.3984 3.89453C42.0664 4.00781 42.8477 4.00781 43.625 3.89453C44.4062 3.78516 44.7383 3.33984 44.6289 2.67187C44.5156 1.89062 43.9609 1.89062 43.4023 1.66797H42.7344C42.625 1.78125 42.5117 1.78125 42.4023 1.78125H41.6211C41.3984 1.78125 41.2891 1.89062 41.0664 1.66797H40.2852C40.0664 1.78125 39.7305 1.66797 39.5078 1.78125H37.3945C36.7266 1.78125 36.168 1.89062 35.5 1.66797H33.0547C32.6094 1.78125 32.0508 1.66797 31.6055 1.78125H30.4922C30.4922 1.78125 30.4922 1.78125 30.3828 1.78125C30.1602 1.78125 29.9375 1.89062 29.6016 1.66797H29.3789C29.0469 1.78125 28.8242 1.78125 28.4922 1.66797H28.2695C27.9336 1.78125 27.7109 1.78125 27.3789 1.66797H26.8203C26.4883 1.78125 26.1523 1.78125 25.8203 1.66797H25.0391C24.9297 1.89062 24.707 1.78125 24.5938 1.78125C22.2578 1.89062 20.0313 2.00391 17.6953 2.00391C14.6914 2.11328 12.1289 4.45312 11.7969 7.45703C11.2422 12.0195 11.2422 16.4727 11.7969 21.0352C11.9062 22.1484 12.3516 23.2578 13.1328 24.1484C14.4687 25.707 16.1367 26.4883 18.1406 26.5977C18.5859 26.5977 18.5859 26.7109 18.5859 27.1562C18.5859 28.9336 18.5859 30.7148 18.5859 32.6094C18.5859 32.9414 18.4727 33.0547 18.1406 33.0547C16.918 33.0547 15.582 33.0547 14.3555 33.0547C11.9062 33.0547 10.0156 34.9453 10.0156 37.3945C10.0156 38.3945 10.0156 39.5078 10.0156 40.5078C10.0156 42.8477 11.1289 44.293 13.3555 44.9609C13.6875 45.0742 13.8008 45.2969 13.6875 45.5195C13.4648 46.2969 13.3555 47.0742 13.2422 47.8555C13.1328 48.5234 13.2422 48.9688 13.9102 49.3008C14.2461 49.5234 14.4688 49.4141 14.6914 49.3008C15.0234 49.0781 15.2461 48.6328 15.2461 48.3008C15.4687 47.5195 15.582 46.7422 15.6914 45.8516C15.8047 45.5195 15.9141 45.2969 16.25 45.2969C17.8047 45.2969 19.3633 45.2969 20.9219 45.2969C21.2578 45.2969 21.3672 45.5195 21.3672 45.8516C21.2578 46.1836 21.1445 46.6289 21.0352 46.9648C21.0352 46.9648 21.0352 46.9648 21.0352 47.0742C19.6992 51.75 18.5859 56.5352 17.582 61.4336C17.3594 62.6562 17.1406 63.7695 16.918 64.9922C16.8047 65.4375 16.582 65.6602 16.1367 65.5508C15.8047 65.5508 15.3594 65.5508 15.0234 65.5508H14.9141H14.8008C14.5781 65.5508 14.3555 65.5508 14.1328 65.5508C13.2422 65.5508 13.2422 65.5508 13.2422 64.6602C13.2422 61.3203 13.6875 57.9805 14.2461 54.6445C14.3555 53.8633 14.5781 53.1953 14.5781 52.418C14.5781 51.6406 14.3555 51.3047 13.5781 51.3047C12.7969 51.418 12.5742 51.6406 12.4648 52.418C12.3516 53.418 12.1289 54.4219 12.0195 55.3125C11.4648 58.9844 11.1289 62.7695 11.1289 66.5508C11.1289 67.4414 11.4648 67.7773 12.3516 67.7773C14.0234 67.7773 15.6914 67.7773 17.3594 67.7773C18.25 67.7773 18.5859 67.5547 18.6953 66.6641C19.2539 63.5469 19.9219 60.3203 20.5898 57.2031C20.6992 56.7578 20.8125 56.5352 21.3672 56.5352C29.9375 56.5352 38.6172 56.5352 47.1875 56.5352C47.6328 56.5352 47.8555 56.6484 47.9648 57.0938C48.6328 60.207 49.3008 63.4336 49.9688 66.5508C50.1914 67.4414 50.4141 67.6641 51.3047 67.6641C52.9727 67.6641 54.6445 67.6641 56.4258 67.6641C57.2031 67.6641 57.6484 67.332 57.5352 66.4414C57.4258 64.6602 57.4258 62.8789 57.3164 60.9883C56.8711 55.7578 56.0898 50.6367 54.9766 45.5195C55.0898 45.0742 55.1992 44.9609 55.5352 44.8516ZM42.2891 27.2656C42.2891 28.9336 42.2891 30.6055 42.2891 32.3867C42.2891 32.832 42.1797 32.9414 41.7344 32.9414C39.2852 32.9414 36.9492 32.9414 34.5 32.9414C32.0508 32.9414 29.7148 32.9414 27.2656 32.9414C26.8203 32.9414 26.7109 32.832 26.7109 32.3867C26.7109 30.7148 26.7109 29.0469 26.7109 27.2656C26.7109 26.8203 26.8203 26.8203 27.2656 26.8203C32.0508 26.9336 36.9492 26.9336 41.7344 26.8203C42.1797 26.7109 42.2891 26.8203 42.2891 27.2656ZM22.8164 49.0781C23.1484 47.7422 23.5938 46.5195 23.9258 45.2969C24.0391 44.9609 24.2617 44.9609 24.4844 44.9609C26.375 44.9609 28.3789 44.9609 30.2695 44.9609C34.9453 44.9609 39.6211 44.9609 44.293 44.9609C44.8516 44.9609 45.0742 45.1836 45.1836 45.6289C45.5195 46.7422 45.8516 47.9648 46.1836 49.0781H22.8164Z" fill="#010101"/>
<path d="M37.6172 1.66797C36.9492 1.55859 36.2813 1.78125 35.7227 1.55859C36.3906 1.55859 37.0586 1.55859 37.6172 1.55859C37.6172 1.55859 37.6172 1.55859 37.6172 1.66797Z" fill="#131313"/>
<path d="M33.1641 1.55859C32.7188 1.78125 32.1641 1.66797 31.7188 1.66797V1.55859C32.2734 1.55859 32.7188 1.55859 33.1641 1.55859Z" fill="#131313"/>
<path d="M31.8281 1.55859V1.66797C31.4961 1.66797 31.0508 1.66797 30.7148 1.66797C30.7148 1.66797 30.7148 1.66797 30.7148 1.55859C31.0508 1.55859 31.3828 1.55859 31.8281 1.55859Z" fill="#222222"/>
<path d="M27.043 1.55859C26.7109 1.78125 26.375 1.78125 26.043 1.55859C26.375 1.55859 26.7109 1.55859 27.043 1.55859Z" fill="#B3B3B3"/>
<path d="M28.4922 1.55859C28.1562 1.78125 27.9336 1.78125 27.6016 1.55859C27.8242 1.55859 28.1562 1.55859 28.4922 1.55859Z" fill="#767676"/>
<path d="M29.6016 1.55859C29.2695 1.78125 29.0469 1.78125 28.7148 1.55859C29.0469 1.55859 29.2695 1.55859 29.6016 1.55859Z" fill="#565656"/>
<path d="M30.6055 1.55859V1.66797C30.3828 1.66797 30.0469 1.78125 29.8242 1.55859C30.1602 1.55859 30.3828 1.55859 30.6055 1.55859Z" fill="#343434"/>
<path d="M39.0625 1.66797C38.8398 1.66797 38.5078 1.66797 38.2851 1.66797C38.2851 1.66797 38.1719 1.66797 38.2851 1.55859C38.5078 1.55859 38.8398 1.55859 39.0625 1.55859C39.0625 1.55859 39.0625 1.55859 39.0625 1.66797Z" fill="#333333"/>
<path d="M40.3984 1.55859C40.1758 1.78125 39.8437 1.66797 39.6211 1.66797C39.6211 1.66797 39.5078 1.66797 39.6211 1.55859C39.9531 1.55859 40.1758 1.55859 40.3984 1.55859Z" fill="#555554"/>
<path d="M38.2852 1.55859V1.66797C38.0625 1.66797 37.8398 1.66797 37.6172 1.66797V1.55859C37.8398 1.55859 38.0625 1.55859 38.2852 1.55859Z" fill="#222222"/>
<path d="M39.6211 1.55859V1.66797C39.3984 1.66797 39.1758 1.66797 38.9531 1.66797V1.55859C39.1758 1.55859 39.3984 1.55859 39.6211 1.55859Z" fill="#454545"/>
<path d="M41.7344 1.66797C41.5117 1.66797 41.3984 1.78125 41.1758 1.55859C41.3984 1.55859 41.5117 1.55859 41.7344 1.66797C41.7344 1.55859 41.7344 1.55859 41.7344 1.66797Z" fill="#878787"/>
<path d="M41.7344 1.66797C41.7344 1.55859 41.7344 1.55859 41.7344 1.66797C41.8438 1.55859 41.957 1.55859 42.0664 1.55859C42.0664 1.55859 42.0664 1.55859 42.0664 1.66797C41.957 1.66797 41.8438 1.66797 41.7344 1.66797Z" fill="#9A9A9A"/>
<path d="M42.0664 1.66797C42.0664 1.55859 42.0664 1.55859 42.0664 1.66797C42.1797 1.55859 42.2891 1.55859 42.4023 1.55859C42.4023 1.55859 42.4023 1.55859 42.4023 1.66797C42.4023 1.66797 42.1797 1.66797 42.0664 1.66797Z" fill="#ABABAB"/>
<path d="M42.5117 1.66797C42.5117 1.55859 42.5117 1.55859 42.5117 1.66797C42.625 1.55859 42.7344 1.55859 42.8477 1.55859C42.8477 1.78125 42.625 1.66797 42.5117 1.66797Z" fill="#BCBCBB"/>
<path d="M46.6289 2.67187C46.7422 3.44922 47.0742 3.67187 47.8555 3.78516C48.7461 3.78516 49.7461 3.89453 50.6367 3.89453C53.1953 4.00781 54.8672 5.45312 55.1992 8.01172C55.7578 12.2422 55.7578 16.582 55.1992 20.8125C54.9766 22.8164 53.3086 24.3711 51.3047 24.4844C46.8516 24.8164 42.4024 24.8164 37.9492 24.9297C31.6055 24.9297 25.375 24.9297 19.0313 24.5938C18.8086 24.5938 18.4727 24.4844 18.25 24.4844C17.1406 23.7031 16.6953 22.5937 16.582 21.3672C16.0274 17.918 16.1367 14.4688 16.25 11.0195C16.25 9.68359 16.3594 8.34766 16.582 7.01172C16.8047 5.78516 17.25 4.5625 18.25 3.78516C24.0391 3.44922 29.8242 3.33984 35.6133 3.33984C38.2852 3.33984 40.9531 3.44922 43.625 3.44922C44.4063 3.44922 44.7383 3.22656 44.8516 2.44922C45.4063 2.78125 45.9649 2.67187 46.6289 2.67187Z" fill="#2D57A7"/>
<path d="M15.0234 65.5508C14.4688 65.5508 13.6875 65.7734 13.2422 65.4375C12.9102 65.2148 13.1328 64.3242 13.1328 63.7695C13.2422 59.9844 13.8008 56.3125 14.3555 52.5273C14.4688 51.5273 14.3555 51.3047 13.5781 50.9727C13.6875 50.4141 13.8008 49.7461 13.9102 49.1914C14.6914 49.1914 15.0234 48.9688 15.1367 48.1875C15.3594 47.2969 15.4688 46.2969 15.6914 45.4062C15.6914 45.0742 15.9141 44.9609 16.25 44.9609C18.0274 44.9609 19.6992 44.9609 21.4805 44.9609C21.8125 44.9609 21.9258 45.0742 21.8125 45.4062C21.7031 45.9648 21.4805 46.4062 21.3672 46.9648C20.3672 47.0742 19.3633 46.9648 18.25 46.9648C17.582 46.9648 17.4727 47.0742 17.3594 47.7422C16.582 51.75 15.9141 55.7578 15.582 59.875C15.4688 61.543 15.2461 63.1016 15.2461 64.7695C15.2461 64.9922 15.2461 65.2148 15.0234 65.5508Z" fill="#CF916D"/>
<path d="M21.1445 34.7227C21.3672 34.7227 21.5898 34.7227 21.8125 34.7227C32.6094 34.7227 43.4023 34.7227 54.1992 34.7227C56.0898 34.7227 56.9805 35.7227 56.9805 37.5039C56.9805 38.5078 56.9805 39.5078 56.9805 40.5078C56.9805 41.8438 55.9805 42.957 54.5312 42.957C43.5156 42.957 32.3867 42.957 21.3672 42.957C21.2578 42.957 21.2578 42.957 21.1445 42.957C20.4766 42.625 20.2539 41.957 20.1445 41.3984C19.8086 39.7305 19.8086 38.0625 20.1445 36.3906C20.2539 35.7227 20.4766 35.0547 21.1445 34.7227Z" fill="#2D57A7"/>
<path d="M21.1445 34.7227C20.3672 35.5 20.1445 36.5039 20.1445 37.5039C20.1445 38.7305 20.0313 39.8438 20.2539 41.0664C20.3672 41.8438 20.6992 42.4023 21.1445 42.957C18.918 42.957 16.6953 42.957 14.3555 42.957C13.1328 42.957 12.1289 41.957 12.1289 40.7305C12.1289 39.5078 12.1289 38.2852 12.1289 37.0586C12.1289 35.8359 13.2422 34.7227 14.4688 34.7227C16.6953 34.7227 18.918 34.7227 21.1445 34.7227Z" fill="#2A377F"/>
<path d="M53.418 46.7422C53.9766 49.0781 54.3086 51.418 54.6445 53.6406C55.1992 57.4258 55.6445 61.2109 55.7578 64.9922C55.7578 65.4375 55.6445 65.5508 55.1992 65.5508C54.6445 65.5508 54.0859 65.5508 53.6406 65.5508C53.418 65.3281 53.418 65.1055 53.3086 64.7695C52.1953 58.9844 50.8594 53.3086 49.3008 47.6328C49.0781 46.7422 49.1914 46.5195 50.1914 46.5195C50.9727 46.5195 51.8594 46.5195 52.6406 46.5195C52.9727 46.5195 53.1953 46.5195 53.418 46.7422Z" fill="#D9A889"/>
<path d="M15.0234 65.5508C15.0234 63.1016 15.2461 60.6524 15.4687 58.0938C15.8047 54.4219 16.4727 50.8594 17.1406 47.2969C17.25 46.8516 17.3594 46.6289 17.8047 46.7422C18.8086 46.7422 19.6992 46.7422 20.6992 46.7422C20.9219 46.7422 21.1445 46.7422 21.2578 46.8516C20.6992 49.1914 20.0312 51.5274 19.4766 53.7539C18.5859 57.4258 17.8047 61.2109 17.0273 64.9922C16.918 65.4375 16.8047 65.5508 16.3594 65.4375C16.0273 65.5508 15.582 65.5508 15.0234 65.5508Z" fill="#D9A889"/>
<path d="M18.1406 3.89453C17.4727 4.78516 16.8047 5.67578 16.6953 6.78906C16.582 7.56641 16.4727 8.34766 16.3594 9.125C16.1367 11.9062 16.1367 14.6914 16.25 17.582C16.25 18.918 16.4727 20.1445 16.582 21.4805C16.6953 22.7031 17.3594 23.5938 18.1406 24.4844C16.0273 24.4844 14.2461 22.9258 13.9102 20.9219C13.3555 17.4727 13.3555 14.0234 13.5781 10.5742C13.6875 9.57031 13.6875 8.45703 13.9102 7.45703C14.2461 5.45312 16.1367 3.89453 18.1406 3.89453Z" fill="#2A377F"/>
<path d="M53.418 46.7422C52.3047 46.7422 51.1953 46.7422 49.9687 46.7422C49.4141 46.7422 49.3008 46.9648 49.5234 47.4102C50.3047 50.082 50.9727 52.8633 51.6406 55.6445C52.418 58.7617 52.9727 61.8789 53.6406 65.1055C53.6406 65.2148 53.6406 65.4375 53.6406 65.5508C51.8594 65.6602 51.8594 65.6602 51.5273 63.9922C50.3047 57.8711 48.8555 51.75 47.0742 45.7422C46.8516 45.1836 46.9648 45.0742 47.6328 45.0742C49.1914 45.0742 50.8594 45.0742 52.418 45.0742C52.75 45.0742 52.9727 45.1836 52.9727 45.5195C53.1953 45.8516 53.3086 46.2969 53.418 46.7422Z" fill="#CF916D"/>
<path d="M47.0742 52.6406C47.6328 54.3086 47.6328 54.3086 45.9648 54.3086C38.0625 54.3086 30.0469 54.3086 22.1484 54.3086C21.3672 54.3086 21.3672 54.3086 21.5898 53.6406C21.7031 53.3086 21.8125 52.9727 21.8125 52.75C22.0352 52.5273 22.3711 52.5273 22.7031 52.5273C30.4922 52.5273 38.3945 52.5273 46.1836 52.5273C46.5195 52.418 46.8516 52.418 47.0742 52.6406Z" fill="#CF916C"/>
<path d="M47.0742 52.6406C38.6172 52.6406 30.2695 52.6406 21.8125 52.6406C22.0352 51.082 22.0352 51.082 23.5938 51.082C30.9375 51.082 38.3945 51.082 45.7422 51.082C46.4062 51.082 46.8516 51.3047 46.8516 51.9727C46.9648 52.1953 47.0742 52.418 47.0742 52.6406Z" fill="#D9A889"/>
<path d="M22.1484 32.832C20.6992 32.9414 20.6992 32.9414 20.6992 31.4961C20.6992 30.0469 20.6992 28.6016 20.6992 27.1562C20.6992 26.7109 20.8125 26.5977 21.2578 26.5977C22.2578 26.7109 23.2578 26.7109 24.3711 26.7109C24.707 26.7109 24.9297 26.8203 24.9297 27.2656C24.9297 27.6016 24.9297 27.9336 24.9297 28.2695C24.3711 28.6016 23.8164 28.4922 23.2578 28.3789C22.4805 28.3789 22.4805 28.3789 22.4805 29.1562C22.4805 30.1602 22.4805 31.0508 22.4805 32.0508C22.3711 32.2734 22.3711 32.6094 22.1484 32.832Z" fill="#CF916C"/>
<path d="M48.3008 28.0469C48.3008 29.4922 48.3008 30.9375 48.3008 32.3867C48.3008 32.7187 48.1875 32.832 47.8555 32.832C47.0742 32.832 46.2969 32.832 45.5195 32.832C45.2969 32.6094 45.2969 32.3867 45.2969 32.1641C45.2969 31.0508 45.2969 30.0469 45.2969 28.9336C45.2969 28.1562 45.5195 27.9336 46.2969 27.9336C46.9648 27.8242 47.6328 27.7109 48.3008 28.0469Z" fill="#D9A889"/>
<path d="M48.3008 28.0469C47.6328 28.0469 47.0742 28.0469 46.4062 28.0469C45.8516 28.0469 45.5195 28.1562 45.6289 28.8242C45.6289 30.1602 45.6289 31.3828 45.6289 32.7188C44.1836 32.832 44.1836 32.832 44.1836 31.3828C44.1836 29.9375 44.1836 28.6016 44.1836 27.1562C44.1836 26.7109 44.293 26.5977 44.7383 26.5977C45.7422 26.5977 46.8516 26.5977 47.8555 26.4883C48.1875 26.4883 48.3008 26.5977 48.3008 26.9336C48.3008 27.3789 48.3008 27.7109 48.3008 28.0469Z" fill="#CF916D"/>
<path d="M22.1484 32.832C22.1484 31.4961 22.1484 30.0469 22.1484 28.7148C22.1484 28.1563 22.3711 28.0469 22.8164 28.1563C23.4805 28.3789 24.1484 28.2695 24.8164 28.2695C24.8164 29.7148 24.8164 31.0508 24.8164 32.4961C24.8164 32.832 24.707 32.9414 24.3711 32.9414C23.7031 32.832 22.9258 32.832 22.1484 32.832Z" fill="#D9A889"/>
</svg>
