<svg width="69" height="69" viewBox="0 0 69 69" fill="none" xmlns="http://www.w3.org/2000/svg">
<path d="M26.4883 36.3906C27.043 37.0586 26.9336 37.3945 26.375 38.0625C24.8164 39.9531 22.9258 41.6211 20.6992 42.7344C20.3672 42.957 20.1445 43.0703 20.2539 43.5156C20.4766 45.0742 20.4766 46.7422 19.5859 48.1875C19.3633 48.5234 19.6992 48.6328 19.8086 48.7461C21.7031 50.5273 23.2578 52.6406 24.4844 54.9766C24.9297 55.7578 24.8164 56.0898 24.2617 56.6484C23.5938 56.9805 23.1484 56.8711 22.8164 56.2031C22.2578 55.3125 21.8125 54.4219 21.1445 53.5312C20.2539 52.418 19.4766 51.3047 18.4727 50.3047L18.3633 50.1914C18.0274 49.7461 17.6953 49.7461 17.25 50.082C16.918 50.4141 17.3594 50.6367 17.4727 50.8594C19.1406 53.418 20.2539 56.2031 20.4766 59.3164C20.4766 59.7617 20.5899 60.207 20.5899 60.6523C20.4766 61.4336 20.0313 61.8789 19.3633 61.8789C18.6953 61.8789 18.25 61.4336 18.25 60.543C18.1406 57.0937 16.918 53.9766 14.9141 51.1953C14.4688 50.4141 13.5781 50.5273 12.9102 50.5273C12.5742 50.5273 12.5742 50.8594 12.5742 51.082C12.5742 55.3125 12.5742 59.6523 12.5742 63.8789C12.5742 64.8828 12.5742 64.8828 13.5781 64.8828C17.3594 64.8828 21.1445 64.8828 25.0391 64.8828C25.9297 64.8828 25.9297 64.8828 25.707 63.9922C25.4844 62.9922 25.1524 62.1016 24.8164 61.0976C24.707 60.7656 24.5938 60.4297 24.5938 60.0976C24.5938 59.5391 24.8164 59.207 25.375 58.9844C26.1524 58.8711 26.4883 59.0937 26.7109 59.7617C27.2656 61.3203 27.7109 62.8789 28.0469 64.4375C28.3789 65.7734 27.3789 66.9961 25.9297 66.9961C24.2617 66.9961 22.5938 66.9961 20.9219 66.9961C18.25 66.9961 15.4688 66.9961 12.7969 66.9961C11.1289 66.9961 10.3516 66.2187 10.3516 64.5469C10.3516 59.6523 10.3516 54.7539 10.3516 49.8594C10.3516 49.5234 10.3516 49.3008 10.2383 48.9687C9.23829 47.1875 9.34766 45.4062 10.1289 43.7383C10.2383 43.4023 10.3516 43.0703 10.3516 42.7344C10.3516 32.0508 10.3516 21.3672 10.3516 10.6836C10.3516 10.4609 10.5742 10.1289 10.1289 10.0156C9.79298 9.90624 9.46094 10.0156 9.23829 10.3516C7.90235 12.0195 5.78516 12.5742 3.78516 11.7969C2.00391 11.1289 0.667976 9.12499 0.777351 7.23437C0.890632 5.12109 2.33594 3.22655 4.33985 2.78124C6.23048 2.33593 7.90235 2.89452 9.12501 4.33984C9.34766 4.67577 9.6836 4.78515 10.0156 4.78515C26.2656 4.78515 42.4024 4.78515 58.6484 4.78515C58.9844 4.78515 59.207 4.67577 59.5391 4.45312C60.7656 2.89452 62.4336 2.33593 64.4375 2.78124C66.3281 3.22655 67.5547 4.56249 68 6.45312C68 6.5664 68.1094 6.67577 68.1094 6.78905C68.1094 7.23437 68.1094 7.5664 68.1094 8.01171C67.7774 9.5703 66.9961 10.7969 65.5508 11.5742C63.5469 12.6875 61.0977 12.1289 59.6524 10.4609C59.5391 10.3516 59.5391 10.2383 59.4297 10.1289C59.207 10.0156 58.9844 10.1289 58.7617 10.1289C58.5391 10.1289 58.6484 10.4609 58.6484 10.5742C58.6484 12.7969 58.6484 15.0234 58.6484 17.3594C58.6484 18.1406 58.4258 18.4726 57.6484 18.6953C57.0938 18.6953 56.7578 18.4726 56.5352 18.0273C56.4258 17.8047 56.4258 17.582 56.4258 17.3594C56.4258 15.2461 56.4258 13.0195 56.4258 10.9062C56.4258 10.4609 56.2031 10.3516 55.7578 10.3516C55.6445 10.3516 55.5352 10.3516 55.3125 10.3516C49.6367 10.3516 43.8477 10.3516 38.1719 10.3516C37.8399 10.3516 37.2813 10.2383 37.1719 10.7969C37.1719 14.9141 37.6172 18.918 38.2852 22.8164C38.7305 25.2617 39.3984 27.6016 40.2852 29.9375C41.3984 32.832 42.957 35.6133 45.1836 37.8398C46.4063 39.0625 47.7422 40.1758 49.5234 40.9531C49.0781 40.2851 48.8555 39.7305 48.5234 39.0625C47.5195 37.1719 46.7422 35.0547 46.0742 33.0547C46.0742 32.9414 46.0742 32.9414 46.0742 32.832C45.9649 32.1641 46.1836 31.4961 46.8516 31.3828C47.4102 31.1601 47.9649 31.4961 48.3008 32.1641C48.6328 33.0547 48.9688 34.0547 49.3008 34.9453C50.1914 37.2812 51.3047 39.5078 52.75 41.6211C53.0859 42.0664 53.418 42.2891 53.9766 42.4023C54.6445 42.5117 55.3125 42.5117 55.9805 42.5117C56.3125 42.5117 56.5352 42.2891 56.5352 41.957C56.5352 41.7344 56.5352 41.5117 56.5352 41.2891C56.5352 35.168 56.5352 28.9336 56.5352 22.8164C56.5352 22.4805 56.5352 22.1484 56.6484 21.8125C56.7578 21.2578 57.2031 21.0351 57.7578 21.0351C58.6484 21.2578 58.7617 21.4805 58.7617 22.4805C58.7617 29.1562 58.7617 35.9453 58.7617 42.625C58.7617 43.0703 58.8711 43.4023 58.9844 43.7383C59.7617 45.5195 59.9844 47.2969 58.8711 48.9687C58.7617 49.1914 58.7617 49.5234 58.7617 49.7461C58.7617 54.6445 58.7617 59.5391 58.7617 64.4375C58.7617 66.1055 57.9805 66.8867 56.3125 66.8867C52.082 66.8867 47.7422 66.8867 43.5156 66.8867C41.6211 66.8867 40.7305 65.8828 41.1758 63.9922C42.4024 58.6484 44.6289 53.7539 48.4102 49.5234C48.8555 49.0781 49.4141 48.7461 49.6367 48.1875C49.8594 47.6328 49.1914 47.1875 49.0781 46.6289C48.7461 45.5195 48.8555 44.293 48.9688 43.1797C48.9688 42.8476 48.9688 42.7344 48.6328 42.5117C43.7383 39.9531 40.8438 35.8359 38.7305 30.8281C36.9492 26.4883 36.0586 21.9258 35.6133 17.25C35.3906 14.9141 35.2774 12.6875 35.168 10.3516C35.168 10.0156 35.168 9.68359 34.7227 9.68359C34.168 9.68359 34.168 9.90624 34.168 10.3516C34.168 14.6914 33.7227 19.1406 32.832 23.3711C32.1641 26.7109 31.0508 30.0469 29.4922 33.1641C28.9336 34.3906 28.7149 34.5 27.8242 34.2773C27.2656 34.168 27.2656 33.7226 27.2656 33.2773C27.2656 32.832 27.4883 32.3867 27.7109 32.0508C29.8242 27.8242 30.7149 23.3711 31.2734 18.8086C31.6055 16.1367 31.8281 13.4648 31.8281 10.7969C31.8281 10.4609 31.6055 10.3516 31.2734 10.3516C31.1602 10.3516 31.0508 10.3516 30.9375 10.3516C25.1524 10.3516 19.3633 10.3516 13.5781 10.3516C13.2422 10.3516 12.7969 10.2383 12.6875 10.7969C12.6875 19.5859 12.6875 28.4922 12.6875 37.2812C12.6875 38.7305 12.6875 40.2851 12.6875 41.7344C12.6875 42.5117 12.7969 42.5117 13.4649 42.5117C15.1367 42.625 16.25 42.0664 17.1406 40.5078C18.4727 38.0625 19.6992 35.6133 20.4766 33.0547C20.5899 32.7187 20.6992 32.3867 20.9219 32.0508C21.2578 31.4961 21.8125 31.2734 22.2578 31.4961C22.8164 31.7187 23.1484 32.1641 23.0352 32.832C23.0352 33.0547 22.9258 33.2773 22.8164 33.5C22.0352 36.0586 21.0352 38.5078 19.5859 40.9531C20.8125 40.3984 21.8125 39.6211 22.7031 38.8398C23.5938 38.1719 24.2617 37.2812 25.0391 36.5039C25.5977 36.0586 25.9297 36.0586 26.4883 36.3906Z" fill="#010101"/>
<path d="M26.4883 36.3906C25.8203 36.0586 25.375 36.2812 24.9297 36.8359C23.4805 38.6172 21.8125 40.0664 19.6992 41.0664C19.5859 41.1758 19.4766 41.2891 19.2539 41.1758C19.3633 40.9531 19.4766 40.7305 19.5859 40.5078C20.9219 38.0625 21.9258 35.5 22.8164 32.9414C23.0352 32.2734 22.8164 31.7187 22.1484 31.6055C21.5898 31.4961 21.1445 31.7187 20.9219 32.3867C20.2539 34.5 19.4766 36.6133 18.3633 38.6172C17.6953 39.8437 17.0273 40.9531 16.25 42.0664C16.1367 42.2891 15.9141 42.4023 15.6914 42.5117C14.8008 42.7344 13.8008 42.7344 12.9102 42.7344C12.6875 42.7344 12.4648 42.625 12.4648 42.4023C12.4648 42.2891 12.4648 42.1797 12.4648 42.1797C12.4648 31.9414 12.4648 21.5898 12.4648 11.3516C12.4648 11.2422 12.4648 11.1289 12.4648 10.9062C12.6875 10.6836 13.0195 10.6836 13.3555 10.6836C19.2539 10.6836 25.2617 10.6836 31.1602 10.6836C31.4961 10.6836 31.8281 10.6836 32.0508 10.9062C32.0508 13.6875 31.8281 16.3594 31.4961 19.0312C31.0508 22.8164 30.1602 26.5977 28.7148 30.1602C28.3789 31.0508 27.9336 31.8281 27.6016 32.6094C27.2656 33.1641 27.2656 33.7227 27.8242 34.168C27.3789 35.0547 26.9336 35.7227 26.4883 36.3906Z" fill="#2D57A7"/>
<path d="M57.5352 21.1445C56.7578 21.3672 56.5352 21.5898 56.5352 22.4805C56.5352 28.9336 56.5352 35.5 56.5352 41.957C56.5352 42.625 56.3125 42.7344 55.7578 42.7344C52.5273 42.5117 53.1953 42.8477 51.6406 40.3984C50.1914 38.0625 49.0781 35.5 48.3008 32.832C48.1875 32.6094 48.1875 32.4961 48.0781 32.2734C47.8555 31.7187 47.2969 31.4961 46.8516 31.6055C46.2969 31.8281 46.0742 32.2734 46.2969 32.9414C46.8516 34.7227 47.4102 36.5039 48.3008 38.1719C48.7461 39.1758 49.3008 40.1758 49.8594 41.2891C49.5234 41.2891 49.1914 41.0664 48.9688 40.9531C45.6289 39.0625 43.293 36.168 41.5117 32.832C39.6211 29.0469 38.5078 25.0391 37.8398 20.8125C37.2812 17.582 37.0586 14.2461 37.0586 11.0195C37.2812 10.7969 37.6172 10.7969 37.9492 10.7969C43.8477 10.7969 49.8594 10.7969 55.7578 10.7969C56.0898 10.7969 56.4258 10.7969 56.6484 11.0195C56.6484 13.2422 56.6484 15.3594 56.6484 17.582C56.6484 18.25 56.9805 18.6953 57.6484 18.8086C57.5352 19.4766 57.5352 20.3672 57.5352 21.1445Z" fill="#2D57A7"/>
<path d="M25.375 59.0938C24.707 59.4297 24.707 59.9844 24.9297 60.6523C25.375 61.9883 25.8203 63.3242 26.1523 64.6602C26.2656 64.9922 26.2656 65.2148 25.8203 65.2148C21.5898 65.2148 17.25 65.2148 13.0195 65.2148C12.6875 65.2148 12.4648 65.2148 12.4648 64.7695C12.4648 60.207 12.4648 55.6445 12.4648 51.082C13.3555 50.8594 14.2461 50.8594 15.0234 51.1953C17.0273 53.8633 18.25 56.9805 18.4727 60.3203C18.5859 61.3203 18.918 61.8789 19.5859 61.7656C20.2539 61.6562 20.5898 61.2109 20.4766 60.0977C20.2539 56.7578 19.1406 53.6406 17.3594 50.8594C17.4727 50.4141 17.8047 50.1914 18.5859 50.1914C20.3672 51.8594 21.7031 53.8633 22.9258 55.8672C23.2578 56.5352 23.7031 56.7578 24.3711 56.5352C24.707 57.4258 25.0391 58.3164 25.375 59.0938Z" fill="#2D57A7"/>
<path d="M56.5352 51.082C56.5352 55.6445 56.5352 60.207 56.5352 64.7695C56.5352 65.1055 56.4258 65.2148 56.0898 65.2148C51.75 65.2148 47.4102 65.2148 43.1797 65.2148C42.8477 65.2148 42.7344 65.2148 42.8477 64.7695C44.0703 59.4297 46.4063 54.5312 50.1914 50.5273C50.3047 50.414 50.4141 50.3047 50.5273 50.1914C51.1953 50.082 51.6406 50.3047 51.75 50.8594C50.1914 53.1953 49.1914 55.7578 48.7461 58.539C48.6328 59.207 48.6328 59.875 48.5234 60.543C48.5234 61.3203 48.8555 61.8789 49.5234 61.8789C50.082 61.8789 50.5273 61.4336 50.5273 60.6523C50.6367 57.2031 51.8594 54.0859 53.9766 51.1953C54.8672 50.8594 55.6445 50.8594 56.5352 51.082Z" fill="#2D57A7"/>
<path d="M57.8711 8.125C57.6484 8.125 57.4258 8.125 57.3164 8.125C42.0664 8.125 26.9336 8.125 11.6836 8.125C11.4648 8.125 11.2422 8.125 11.1289 8.125C10.7969 7.78906 10.7969 7.34375 11.1289 7.01172C11.3516 7.01172 11.5742 7.01172 11.6836 7.01172C26.9336 7.01172 42.0664 7.01172 57.3164 7.01172C57.5352 7.01172 57.7578 7.01172 57.8711 7.01172C58.2031 7.34375 58.2031 7.78906 57.8711 8.125Z" fill="#868B93"/>
<path d="M2.78125 7.56639C2.78125 6.0078 4.11719 4.78514 5.56641 4.78514C7.12109 4.78514 8.34766 6.12108 8.34766 7.56639C8.34766 9.12498 7.01172 10.3515 5.56641 10.3515C4.11719 10.3515 2.78125 9.12498 2.78125 7.56639Z" fill="#B3D0D5"/>
<path d="M66.2188 7.5664C66.2188 9.12499 64.9922 10.3516 63.4336 10.3516C61.8789 10.3516 60.6523 9.12499 60.6523 7.5664C60.6523 6.0078 61.8789 4.78515 63.4336 4.78515C64.8828 4.67577 66.2188 6.0078 66.2188 7.5664Z" fill="#B3D0D5"/>
<path d="M57.2031 45.4062C57.4258 45.7422 57.4258 46.0742 57.4258 46.5195C57.5351 47.8555 56.9805 48.4101 55.6445 48.5234C54.3086 48.6328 52.9726 48.5234 51.75 47.8555C51.082 47.5195 50.6367 46.8515 50.5273 46.0742C50.4141 45.7422 50.5273 45.4062 50.5273 45.0742C50.5273 44.5156 50.6367 44.4062 51.1953 44.5156C53.0859 45.0742 54.8672 45.2969 56.7578 45.2969C56.9805 45.2969 57.0937 45.2969 57.2031 45.4062Z" fill="#2A377F"/>
<path d="M18.3633 45.9648C18.25 47.0742 17.582 47.7422 16.582 48.0781C15.1367 48.6328 13.6875 48.5234 12.2422 48.3008C12.0195 48.3008 11.9063 48.0781 11.7969 47.8555C11.4648 47.0742 11.3516 46.1836 11.7969 45.4062C12.5742 45.1836 13.4648 45.4062 14.2461 45.2969C15.3594 45.1836 16.582 44.9609 17.6953 44.6289C18.3633 44.4062 18.3633 44.5156 18.3633 45.1836C18.3633 45.4062 18.4727 45.6289 18.3633 45.9648Z" fill="#2A377F"/>
<path d="M31.9414 10.9062C25.375 10.9062 18.918 10.9062 12.3516 10.9062C12.2422 10.3516 12.3516 10.1289 13.0195 10.1289C19.0313 10.1289 25.1523 10.1289 31.1602 10.1289C31.9414 10.1289 32.1641 10.3516 31.9414 10.9062Z" fill="#2A377F"/>
<path d="M56.5352 10.9062C49.9688 10.9062 43.5156 10.9062 36.9492 10.9062C36.836 10.3516 37.0586 10.1289 37.6172 10.1289C43.625 10.1289 49.7461 10.1289 55.7578 10.1289C56.5352 10.1289 56.6485 10.3516 56.5352 10.9062Z" fill="#2A377F"/>
<path d="M18.3633 45.9649C18.25 45.5195 18.5859 44.9609 18.25 44.7383C17.918 44.6289 17.4727 44.8516 17.0273 44.9609C15.582 45.2969 14.0234 45.5195 12.5742 45.5195C12.3516 45.5195 12.1289 45.5195 11.9062 45.4063C11.9062 44.8516 12.2422 44.7383 12.6875 44.7383C14.4688 44.8516 16.25 44.6289 17.918 43.9609C18.3633 43.8477 18.4727 43.9609 18.5859 44.4063C18.4727 44.8516 18.4727 45.4063 18.3633 45.9649Z" fill="#1E2353"/>
<path d="M57.2031 45.4062C56.5352 45.6289 55.7578 45.6289 55.0898 45.5195C53.7539 45.4062 52.418 45.1836 51.082 44.7383C50.75 44.6289 50.6367 44.7383 50.6367 45.0742C50.6367 45.4062 50.6367 45.7422 50.6367 46.0742C50.5273 45.8516 50.5273 45.7422 50.5273 45.5195C50.4141 43.8476 50.4141 43.8476 51.9727 44.293C53.418 44.6289 54.8672 44.8516 56.3125 44.7383C56.9805 44.7383 57.2031 44.8516 57.2031 45.4062Z" fill="#1E2353"/>
<path d="M15.0234 51.1953C14.1328 51.1953 13.2422 51.1953 12.4648 51.082C12.3516 50.5273 12.5742 50.3047 13.1328 50.414C13.4648 50.5273 13.9101 50.5273 14.3555 50.5273C14.6914 50.5273 14.8008 50.8594 15.0234 51.1953Z" fill="#2A377F"/>
<path d="M56.5352 51.082C55.7578 51.1953 54.8672 51.1953 53.9766 51.1953C54.1992 50.9727 54.3086 50.6367 54.5312 50.5273C55.0898 50.4141 55.7578 50.4141 56.3125 50.4141C56.7578 50.4141 56.5352 50.75 56.5352 51.082Z" fill="#2A377F"/>
<path d="M18.4727 50.1914C18.0274 50.4141 17.582 50.3047 17.25 50.8594C17.1406 50.6367 16.582 50.4141 16.918 50.082C17.3594 49.5234 18.0274 49.6367 18.4727 50.1914Z" fill="#2A377F"/>
<path d="M51.75 50.8594C51.5273 50.414 50.9727 50.414 50.5273 50.1914C51.082 49.6367 51.3047 49.5234 51.9727 49.9687C52.1953 50.082 52.1953 50.1914 52.082 50.3047C51.9727 50.5273 51.8594 50.75 51.75 50.8594Z" fill="#2A377F"/>
<path d="M11.1289 7.01171C11.1289 7.45702 11.1289 7.78905 11.1289 8.23436C10.7969 8.12499 10.3516 8.45702 10.3516 7.78905C10.4609 7.23436 10.3516 6.78905 11.1289 7.01171Z" fill="#666B73"/>
<path d="M57.8711 8.125C57.8711 7.67969 57.8711 7.34375 57.8711 6.89844C58.0937 7.01172 58.6484 6.56641 58.5391 7.34375C58.5391 7.90234 58.6484 8.34766 57.8711 8.125Z" fill="#666B73"/>
<path d="M24.2617 23.1484C24.1484 24.9297 24.0391 26.7109 23.7031 28.4922C23.5938 29.1562 23.1484 29.6016 22.5938 29.4922C22.0352 29.3789 21.7031 28.8242 21.8125 28.1562C22.1484 26.2656 22.3711 24.2617 22.3711 22.3711C22.3711 22.1484 22.3711 21.8125 22.4805 21.5898C22.5938 21.0352 22.8164 20.6992 23.4805 20.6992C24.0391 20.6992 24.3711 21.0352 24.4844 21.5898C24.3711 22.0352 24.2617 22.5937 24.2617 23.1484Z" fill="#010101"/>
<path d="M14.2461 33.2773C14.2461 32.1641 14.2461 31.1602 14.2461 30.0469C14.2461 29.2695 14.5781 28.9336 15.2461 28.9336C15.8047 28.9336 16.25 29.3789 16.25 30.0469C16.25 32.1641 16.25 34.3906 16.25 36.5039C16.25 37.1719 15.8047 37.6172 15.2461 37.6172C14.6914 37.6172 14.2461 37.1719 14.2461 36.5039C14.2461 35.3906 14.2461 34.3906 14.2461 33.2773Z" fill="#010101"/>
<path d="M47.1875 28.3789C47.1875 28.9336 46.8516 29.3789 46.2969 29.4922C45.7422 29.6016 45.2969 29.1563 45.1836 28.6016C44.8516 26.7109 44.6289 24.9297 44.6289 23.0352C44.6289 22.5938 44.6289 22.2578 44.6289 21.8125C44.6289 21.1445 44.9609 20.8125 45.5195 20.8125C46.0742 20.8125 46.5195 21.1445 46.5195 21.8125C46.6289 23.4805 46.6289 25.1523 46.8516 26.8203C47.0742 27.2656 47.1875 27.8242 47.1875 28.3789Z" fill="#010101"/>
<path d="M54.7539 33.2773C54.7539 34.3906 54.7539 35.3906 54.7539 36.5039C54.7539 37.1719 54.4219 37.6172 53.7539 37.6172C53.1953 37.6172 52.75 37.1719 52.75 36.5039C52.75 34.3906 52.75 32.1641 52.75 30.0469C52.75 29.2695 53.1953 28.9336 53.7539 28.9336C54.3086 28.9336 54.7539 29.3789 54.7539 30.0469C54.7539 31.1602 54.7539 32.1641 54.7539 33.2773Z" fill="#010101"/>
<path d="M15.9141 58.3164C15.9141 58.8711 15.9141 59.4297 15.9141 59.9844C15.9141 60.6523 15.4687 60.9883 14.9141 61.0977C14.3555 61.0977 13.9102 60.6523 13.9102 59.9844C13.9102 58.8711 13.9102 57.7578 13.9102 56.6484C13.9102 55.9805 14.3555 55.5352 14.9141 55.6445C15.4687 55.6445 15.8047 56.0898 15.8047 56.6484C16.0273 57.2031 15.9141 57.7578 15.9141 58.3164Z" fill="#010101"/>
<path d="M53.0859 58.2031C53.0859 57.6484 53.0859 57.0938 53.0859 56.5352C53.0859 55.8672 53.5312 55.5352 54.0859 55.5352C54.6445 55.5352 55.0898 55.8672 55.0898 56.5352C55.0898 57.6484 55.0898 58.7617 55.0898 59.875C55.0898 60.543 54.6445 60.875 54.0859 60.875C53.5312 60.875 53.0859 60.4297 53.0859 59.875C52.9726 59.4297 53.0859 58.8711 53.0859 58.2031Z" fill="#010101"/>
</svg>
