<svg width="69" height="69" viewBox="0 0 69 69" fill="none" xmlns="http://www.w3.org/2000/svg">
<g clip-path="url(#clip0_241_44)">
<path d="M46.0742 45.1836C46.7422 45.4062 46.8516 45.8516 46.8516 46.5195C46.8516 52.9727 46.8516 59.4297 46.8516 65.7734C46.8516 66.9961 46.1836 67.7773 45.0742 68.2227C32.0508 68.2227 18.918 68.2227 5.89844 68.2227C4.5625 67.8867 4.00781 67.1094 4.00781 65.6602C4.00781 61.9883 4.00781 58.2031 4.00781 54.5312C4.00781 46.5195 4.00781 38.5078 4.00781 30.4922C4.00781 30.2695 4.00781 30.0469 4.00781 29.8242C4.00781 29.3789 3.78516 29.1562 3.33984 29.1562C3.22656 29.1562 3.11719 29.1562 3.00391 29.1562C1.78125 28.9336 1.11328 28.2695 0.890625 27.043C0.890625 26.8203 0.890625 26.5977 0.890625 26.2656C1 25.5977 1.44531 25.0391 2.00391 24.5938C9.34766 19.2539 16.6953 13.8008 24.0391 8.34766C25.0391 7.56641 26.043 7.56641 27.043 8.34766C29.3789 10.1289 31.7187 11.7969 34.168 13.5781C34.832 14.1328 34.9453 14.4687 34.6094 15.2461C34.2773 15.9141 33.7227 16.0273 33.0547 15.6914C32.3867 15.2461 31.7188 14.8008 31.0508 14.2461C29.4922 13.1328 27.9336 11.9062 26.375 10.7969C25.5977 10.2383 25.5977 10.2383 24.8164 10.7969C17.8047 16.0273 10.7969 21.1445 3.78516 26.375C4.00781 26.4883 4.23047 26.375 4.45312 26.375C10.3516 26.375 16.25 26.375 22.1484 26.375C22.8164 26.375 23.4805 26.4883 23.8164 27.1562C23.9258 27.3789 24.0391 27.6016 23.9258 27.8242C23.9258 27.9336 23.9258 27.9336 23.9258 28.0469C23.7031 28.8242 23.1484 29.0469 22.3711 29.0469C20.4766 29.0469 18.5859 29.0469 16.6953 29.0469C13.6875 29.0469 10.5742 29.0469 7.56641 29.0469C6.67578 29.0469 6.67578 29.0469 6.67578 29.9375C6.67578 41.6211 6.67578 53.1953 6.67578 64.8828C6.67578 65.7734 6.67578 65.7734 7.56641 65.7734C13.9102 65.7734 20.3672 65.7734 26.7109 65.7734C27.4883 65.7734 27.6016 65.7734 27.6016 64.8828C27.6016 61.8789 27.6016 58.8711 27.6016 55.9805C27.6016 51.9727 30.9375 48.8555 34.9453 48.9688C38.1719 49.0781 41.1758 51.8594 41.3984 55.0898C41.3984 58.4258 41.3984 61.6562 41.3984 64.9922C41.3984 65.6602 41.5117 65.7734 42.1797 65.7734C42.625 65.7734 43.1797 65.7734 43.625 65.7734C44.293 65.7734 44.4062 65.6602 44.4062 64.9922C44.4062 64.7695 44.4062 64.5469 44.4062 64.3242C44.4062 58.6484 44.4062 52.8633 44.4062 47.1875C44.4062 46.8516 44.4062 46.5195 44.4062 46.1836C44.6289 45.1836 45.1836 44.8516 46.0742 45.1836Z" fill="#010101"/>
<path d="M0.890625 27.043H0.777344C0.777344 26.8203 0.777344 26.5977 0.777344 26.375H0.890625C0.890625 26.5977 0.890625 26.8203 0.890625 27.043Z" fill="#CFD0D0"/>
<path d="M36.3907 16.6953C39.0625 14.5781 41.9571 14.0234 45.0742 15.4688C45.5196 15.6914 45.6289 15.3594 45.7422 15.1367C49.4141 11.1289 53.086 7.12109 56.6485 3.11719C57.9805 1.66797 59.5391 0.777344 61.543 0.777344C64.2149 0.777344 66.5508 2.33594 67.5547 4.78516C68.5547 7.23437 68.1094 10.0156 66.2188 11.7969C64.1016 13.8008 61.8789 15.8047 59.6524 17.8047C57.6485 19.5859 55.6446 21.4805 53.6407 23.2578C53.3086 23.4805 53.3086 23.7031 53.418 24.0391C54.7539 27.043 54.1992 30.3828 51.8594 32.832C51.3047 33.3867 50.8594 33.9453 50.1914 34.168C49.8594 34.2773 49.9688 34.5 49.8594 34.7227C49.4141 36.5039 48.8555 38.3945 48.4102 40.1758C48.1875 41.3984 47.5196 42.0664 46.5196 42.5117C46.1836 42.625 45.9649 42.7344 45.6289 42.8477C45.2969 43.1797 44.8516 43.293 44.4063 43.293C43.7383 43.293 43.0703 43.293 42.2891 43.293C40.1758 43.0703 38.1719 42.5117 36.2813 41.5117C34.2774 40.5078 32.4961 39.2852 30.8282 37.6172C28.2696 34.9453 26.5977 31.9414 25.8203 28.3789C25.8203 28.1563 25.7071 27.9336 25.7071 27.7109C25.4844 26.375 25.375 25.0391 25.7071 23.7031C25.9297 22.8164 26.1524 21.9258 26.8203 21.2578C27.1563 20.8125 27.6016 20.5898 28.1563 20.4766C29.4922 20.1445 30.8282 19.8086 32.1641 19.4766C32.7188 19.3633 33.3868 19.1406 33.9453 19.0312C34.2774 18.918 34.5 18.6953 34.7227 18.4727C35.168 17.6953 35.7227 17.0273 36.3907 16.6953Z" fill="#010101"/>
<path d="M42.4023 43.0703C43.5156 43.0703 44.7383 43.1797 45.8516 42.8477C45.8516 43.4023 45.8516 43.9609 45.8516 44.5156C45.8516 44.7383 45.9648 44.9609 46.0742 45.1836C44.9609 45.1836 44.6289 45.5195 44.6289 46.6289C44.6289 52.8633 44.6289 59.0938 44.6289 65.3281C44.6289 65.8828 44.5156 65.9961 43.9609 65.9961C43.293 65.9961 42.5117 65.9961 41.8438 65.9961C41.3984 65.9961 41.1758 65.8828 41.1758 65.4375C41.1758 62.6562 41.1758 59.9844 41.1758 57.2031C41.1758 56.5352 41.1758 55.7578 41.1758 55.0898C41.6211 55.3125 41.5117 55.7578 41.5117 56.0898C41.5117 58.9844 41.5117 61.7656 41.5117 64.6602C41.5117 64.8828 41.5117 65.1055 41.5117 65.3281C41.5117 65.4375 41.6211 65.5508 41.7344 65.5508C41.8438 65.5508 41.957 65.4375 41.957 65.3281C42.0664 64.9922 41.957 64.7695 41.957 64.4375C41.957 57.7578 41.957 50.9727 41.957 44.293C42.1797 43.8477 42.0664 43.4023 42.4023 43.0703Z" fill="#CFD8DB"/>
<path d="M36.168 9.79297C33.9453 9.79297 32.2734 8.01172 32.2734 5.89844C32.2734 3.78516 34.0547 2.00391 36.168 2.00391C38.3945 2.00391 40.0664 3.78516 40.0664 5.89844C40.0664 8.01172 38.2852 9.79297 36.168 9.79297Z" fill="#010101"/>
<path d="M55.3125 40.1758C57.5352 40.1758 59.207 41.957 59.207 44.0703C59.207 46.1836 57.4258 47.9648 55.1992 47.9648C52.9727 47.9648 51.3047 46.1836 51.3047 43.9609C51.3047 41.8438 53.0859 40.0664 55.3125 40.1758Z" fill="#010101"/>
<path d="M36.3906 16.6953C35.8359 17.3594 35.0547 17.8047 34.7227 18.8086C34.7227 18.918 34.5 18.918 34.2773 19.0312C33.6094 19.1406 32.9414 19.3633 32.2734 19.4766C32.0508 19.0313 32.3867 18.6953 32.6094 18.4727C32.832 18.1406 33.2773 17.8047 33.6094 17.4727C33.5 17.1406 33.1641 17.1406 32.9414 16.918C30.3828 15.0234 27.7109 13.0195 25.1523 11.1289C25.0391 11.0195 24.8164 10.9062 24.707 10.6836C25.4844 10.0156 25.4844 10.0156 26.2656 10.6836C28.3789 12.2422 30.4922 13.9102 32.7188 15.4688C33.5 16.0273 33.832 16.0273 34.6094 15.3594C35.168 15.8047 35.8359 16.25 36.3906 16.6953Z" fill="#2A377F"/>
<path d="M12.5742 8.125C12.5742 8.79297 10.461 11.0195 9.79299 10.9063C9.34768 10.9063 9.01565 10.6836 8.79299 10.2383C8.57033 9.90625 8.57033 9.46094 8.90237 9.125C9.57033 8.45703 10.1289 7.78906 10.7969 7.23438C11.1289 6.89844 11.5742 6.89844 12.0196 7.1211C12.3516 7.34375 12.5742 7.67969 12.5742 8.125Z" fill="#010101"/>
<path d="M16.4726 2.00391C16.918 2.00391 17.25 2.22656 17.4726 2.67188C17.6953 3.11719 17.6953 3.44922 17.3594 3.78516C16.8047 4.45313 16.1367 5.00781 15.582 5.56641C15.1367 5.89844 14.5781 5.89844 14.1328 5.56641C13.6875 5.23047 13.5781 4.5625 13.9101 4.11719C14.5781 3.44922 15.2461 2.78125 15.914 2.11328C16.0273 2.00391 16.25 2.00391 16.4726 2.00391Z" fill="#010101"/>
<path d="M17.6953 9.6836C17.6953 10.2383 17.4726 10.5742 17.0273 10.7969C16.582 11.0195 16.25 11.0195 15.914 10.6836C15.2461 10.1289 14.5781 9.46094 14.0234 8.79297C13.6875 8.34766 13.6875 7.78907 14.1328 7.34376C14.5781 6.89844 15.0234 6.89844 15.4687 7.23438C16.25 7.78907 16.9179 8.57032 17.4726 9.23829C17.582 9.34766 17.582 9.57032 17.6953 9.6836Z" fill="#020202"/>
<path d="M12.5742 4.67578C12.5742 5.23047 12.3516 5.56641 11.9063 5.67578C11.5742 5.89844 11.1289 5.89844 10.7969 5.56641C10.1289 5.00781 9.57031 4.45313 9.01563 3.78516C8.57031 3.33985 8.57031 2.78125 9.01563 2.33594C9.34766 1.89063 10.0156 1.78125 10.3516 2.11328C11.1289 2.67188 11.6836 3.33985 12.3516 4.11719C12.5742 4.33985 12.5742 4.5625 12.5742 4.67578Z" fill="#010101"/>
<path d="M57.9805 34.5C57.6484 34.5 57.2031 34.5 56.8711 34.5C56.3125 34.5 55.7578 33.9453 55.7578 33.3867C55.7578 32.832 56.2031 32.2734 56.8711 32.2734C57.6484 32.2734 58.4258 32.2734 59.207 32.2734C59.875 32.2734 60.207 32.832 60.207 33.3867C60.207 33.9453 59.7617 34.5 59.0938 34.5C58.8711 34.5 58.4258 34.5 57.9805 34.5Z" fill="#010101"/>
<path d="M62.5469 30.0469C62.5469 30.4922 62.5469 30.8281 62.5469 31.2734C62.5469 31.8281 62.1016 32.1641 61.543 32.2734C60.9883 32.3867 60.4297 31.9414 60.4297 31.3828C60.3203 30.4922 60.3203 29.4922 60.4297 28.6016C60.543 28.0469 60.9883 27.7109 61.543 27.8242C62.1016 27.9336 62.5469 28.2695 62.5469 28.8242C62.5469 29.2695 62.5469 29.6016 62.5469 30.0469Z" fill="#020202"/>
<path d="M62.5469 36.7266C62.5469 37.1719 62.5469 37.5039 62.5469 37.9492C62.5469 38.5078 62.1016 38.9531 61.543 38.9531C60.9883 39.0625 60.4297 38.6172 60.3203 38.0625C60.207 37.1719 60.207 36.2813 60.3203 35.3906C60.4297 34.832 60.875 34.3906 61.543 34.5C62.1016 34.5 62.5469 34.9453 62.5469 35.6133C62.5469 35.9453 62.5469 36.3906 62.5469 36.7266Z" fill="#020202"/>
<path d="M64.8828 32.2734C65.2148 32.2734 65.6602 32.2734 65.9961 32.2734C66.6641 32.2734 67.1094 32.7187 67.1094 33.3867C67.1094 33.9453 66.6641 34.5 66.1055 34.5C65.3281 34.5 64.5469 34.5 63.7695 34.5C63.1016 34.5 62.6562 33.9453 62.6562 33.3867C62.6562 32.832 63.1016 32.2734 63.7695 32.2734C64.1016 32.2734 64.4375 32.2734 64.8828 32.2734Z" fill="#010101"/>
<path d="M42.4023 43.0703C42.4023 50.4141 42.4023 57.7578 42.4023 65.1055C42.4023 65.3281 42.625 65.7734 42.0664 65.8828C41.6211 65.9961 41.2891 65.8828 41.2891 65.2148C41.2891 62.1016 41.2891 59.0937 41.2891 55.9805C41.2891 55.6445 41.3984 55.3125 41.1758 54.9766C40.6211 51.5273 37.9492 49.0781 34.7227 49.0781C30.9375 48.9688 27.8242 51.9727 27.8242 55.7578C27.8242 58.9844 27.8242 62.1016 27.8242 65.3281C27.8242 65.7734 27.7109 65.9961 27.1562 65.9961C20.4766 65.9961 13.6875 65.9961 7.01172 65.9961C6.45313 65.9961 6.45312 65.8828 6.45312 65.3281C6.45312 53.418 6.45312 41.3984 6.45312 29.4922C6.45312 28.9336 6.56641 28.8242 7.12109 28.8242C12.2422 28.8242 17.3594 28.8242 22.4805 28.8242C23.1484 28.8242 23.7031 28.6016 23.9258 27.8242C24.2617 27.8242 24.2617 28.1563 24.3711 28.3789C25.1523 31.3828 26.5977 34.0547 28.7148 36.3906C30.4922 38.2852 32.6094 39.7305 34.9453 40.6211C35.5 40.8437 36.0586 41.1758 36.6133 41.2891C38.3945 42.1797 40.2852 42.7344 42.4023 43.0703Z" fill="#F4F4F4"/>
<path d="M24.8164 10.6836C26.043 11.3516 27.043 12.2422 28.1562 13.0195C29.9375 14.3555 31.7188 15.6914 33.5 16.918C33.832 17.1406 34.0547 17.3594 33.6094 17.6953C33.0547 18.1406 32.4961 18.5859 32.4961 19.3633C31.1602 19.6992 29.8242 20.1445 28.4922 20.4766C28.0469 20.5898 27.4883 20.8125 27.1562 21.1445C26.7109 21.4805 26.1523 21.5898 25.5977 21.7031C25.0391 21.8125 24.5937 22.1484 24.3711 22.7031C23.8164 23.9258 23.8164 25.2617 23.9258 26.5977C23.9258 26.8203 24.0391 27.1562 23.7031 27.2656C23.3711 26.7109 22.8164 26.5977 22.2578 26.5977C16.1367 26.5977 10.1289 26.5977 4.00781 26.5977C3.78516 26.5977 3.5625 26.5977 3.33984 26.5977C3.33984 26.375 3.44922 26.375 3.5625 26.2656C10.5742 21.1445 17.4727 16.0273 24.3711 10.9062C24.4844 10.7969 24.5938 10.7969 24.8164 10.6836Z" fill="#2D57A7"/>
<path d="M36.7266 65.8828C34.6094 65.8828 32.6094 65.8828 30.4922 65.8828C30.1602 65.8828 30.0469 65.7734 30.0469 65.4375C30.0469 62.1016 30.0469 58.8711 30.0469 55.5352C30.1602 53.0859 32.2734 51.1953 34.6094 51.3047C36.0586 52.082 36.6133 53.418 36.8359 54.9766C36.9492 55.6445 36.8359 56.3125 36.8359 56.9805C36.8359 57.2031 36.8359 57.4258 36.6133 57.4258C36.5039 57.4258 36.2812 57.3164 36.168 57.2031C35.3906 56.7578 34.7227 57.0937 34.6094 57.9805C34.5 58.6484 34.5 59.3164 34.6094 59.9844C34.7227 60.875 35.2773 61.2109 36.0586 60.875C36.2812 60.7656 36.3906 60.543 36.6133 60.7656C36.7266 60.9883 36.7266 61.3203 36.7266 61.543C36.7266 62.6562 36.7266 63.6562 36.7266 64.7695C36.9492 65.3281 36.9492 65.6602 36.7266 65.8828Z" fill="#A0532D"/>
<path d="M36.6133 57.5352C36.9492 55.5352 36.7266 53.6406 35.2773 52.082C35.0547 51.8594 34.832 51.6406 34.6094 51.418C36.8359 51.418 38.9531 53.1953 38.9531 55.4219C39.0625 58.7617 38.9531 62.2109 38.9531 65.5508C38.9531 65.8828 38.8398 65.9961 38.3945 65.9961C37.8398 65.9961 37.1719 65.9961 36.6133 65.9961C36.6133 64.5469 36.6133 62.9922 36.6133 61.543C36.6133 61.3203 36.7266 61.0977 36.5039 60.9883C36.5039 59.7617 36.5039 58.6484 36.6133 57.5352Z" fill="#793F22"/>
<path d="M36.5039 41.2891C35.0547 40.9531 33.6094 40.2852 32.2734 39.5078C28.4922 37.2813 25.9297 34.0547 24.4844 29.9375C24.2617 29.2695 24.1484 28.4922 23.8164 27.8242V27.7109C24.5938 27.3789 25.2617 27.3789 26.043 27.7109C26.5977 30.4922 27.7109 33.0547 29.3789 35.3906C31.1602 37.8398 33.3867 39.7305 36.168 41.0664C36.2812 41.1758 36.3906 41.2891 36.5039 41.2891Z" fill="#CFD8DB"/>
<path d="M26.1523 27.8242C25.375 27.8242 24.707 27.8242 23.9258 27.8242C23.9258 27.6016 23.8164 27.4883 23.8164 27.2656C23.8164 26.4883 23.8164 25.8203 23.8164 25.0391C23.8164 24.0391 24.0391 23.1484 24.4844 22.2578C24.5938 21.9258 24.8164 21.8125 25.1523 21.7031C25.8203 21.5898 26.4883 21.3672 27.1562 21.2578C26.043 22.9258 25.8203 24.8164 26.043 26.7109C26.043 27.043 26.043 27.3789 26.1523 27.8242Z" fill="#2A377F"/>
<path d="M43.5157 40.8438C42.7344 40.8438 42.0664 40.7305 41.3985 40.6211C40.9532 40.5078 40.9532 40.3984 41.0664 40.0664C41.3985 38.9531 41.7344 37.7266 42.0664 36.6133C42.2891 35.8359 41.9571 35.2773 41.2891 35.0547C40.6211 34.9453 40.1758 35.2773 39.9532 36.0586C39.6211 37.1719 39.2852 38.2852 39.0625 39.3984C38.9532 39.7305 38.9532 39.9531 38.5078 39.7305C37.0586 39.0625 35.6133 38.2852 34.3907 37.1719C34.0547 36.9492 34.168 36.8359 34.3907 36.5039C35.5 35.3906 36.6133 34.2774 37.7266 33.1641C38.1719 32.7188 38.2852 32.2734 37.9492 31.8281C37.7266 31.3828 37.3946 31.1602 36.836 31.2734C36.5039 31.2734 36.168 31.4961 35.9453 31.8281C34.8321 32.9414 33.8321 33.9453 32.7188 35.0547C32.3867 35.3906 32.2735 35.2773 32.0508 35.0547C31.0508 33.832 30.1602 32.3867 29.4922 30.9375C29.3789 30.6055 29.4922 30.4922 29.7149 30.3828C30.8282 30.0469 32.0508 29.8242 33.1641 29.4922C33.9453 29.2695 34.3907 28.7149 34.168 28.0469C33.9453 27.3789 33.3867 27.1563 32.6094 27.3789C31.4961 27.7109 30.3828 28.0469 29.1563 28.2695C28.8242 28.3789 28.6016 28.3789 28.6016 27.9336C28.3789 26.4883 28.2696 25.1524 28.6016 23.8164C28.7149 23.3711 29.0469 23.0352 29.6016 22.9258C31.4961 22.4805 33.2774 22.0352 35.168 21.4805C35.5 21.3672 35.7227 21.4805 35.9453 21.7031C39.9532 25.707 43.8477 29.6016 47.8555 33.6094C48.0782 33.832 48.1875 34.0547 48.0782 34.3906C47.5196 36.2813 47.0742 38.1719 46.5196 40.0664C46.4063 40.3984 46.1836 40.6211 45.8516 40.7305C44.961 40.7305 44.293 40.8438 43.5157 40.8438Z" fill="#FFDFB1"/>
<path d="M51.1953 20.9219C49.9687 19.6992 48.7461 18.4727 47.4101 17.25C47.0742 16.918 47.4101 16.6953 47.5195 16.4727C48.9687 14.9141 50.414 13.2422 51.8594 11.6836C53.9765 9.34765 56.0898 7.12109 58.0937 4.78515C58.9844 4.00781 59.7617 3.33984 60.875 3.22656C61.5429 3.0039 62.1015 3.33984 62.5469 3.89453C64.3242 6.23047 64.1015 9.34765 62.1015 11.3516C60.0976 13.2422 58.0937 15.0234 56.0898 16.918C54.6445 18.25 53.3086 19.4766 51.75 20.8125C51.6406 20.8125 51.5273 21.0352 51.1953 20.9219Z" fill="#A0532D"/>
<path d="M48.7461 31.0508C48.6328 30.9375 48.4102 30.8281 48.3008 30.7148C44.6289 27.043 41.0664 23.4805 37.3945 19.9219C37.0586 19.5859 36.9492 19.3633 37.3945 18.918C38.7305 17.582 40.2852 16.8047 42.1797 17.0273C42.625 17.1406 42.957 17.3594 43.293 17.6953C45.0742 19.4766 46.8516 21.1445 48.5235 23.0352C50.3047 25.1523 50.5274 28.6016 49.0781 30.8281C48.9688 30.9375 48.8555 31.0508 48.7461 31.0508Z" fill="#A0532D"/>
<path d="M51.1953 20.9219C51.9727 20.2539 52.8633 19.4766 53.6406 18.8086C56.3125 16.3594 58.9844 13.8008 61.7656 11.3516C62.9922 10.2383 63.6562 8.90234 63.6562 7.34374C63.6562 5.89843 63.2148 4.67577 62.2109 3.67187C61.8789 3.22655 61.3203 3.22655 60.875 3.22655C62.7695 2.67187 65.2148 4.0078 65.7734 6.34374C66.2187 8.23437 65.5508 9.68359 64.1016 10.9062C61.8789 12.9101 59.7617 14.8008 57.5352 16.8047C55.9805 18.25 54.3086 19.6992 52.75 21.1445C51.9727 21.9258 51.9727 21.9258 51.1953 20.9219Z" fill="#783F22"/>
<path d="M48.7461 31.0508C49.5234 29.7148 49.9688 28.3789 49.8594 26.8203C49.7461 25.375 49.3008 24.1484 48.3008 23.0352C46.7422 21.2578 44.9609 19.5859 43.293 17.918C42.957 17.582 42.625 17.3594 42.2891 17.0273C43.625 17.0273 44.7383 17.582 45.7422 18.4727C47.4102 20.1445 49.0781 21.7031 50.6367 23.3711C52.75 25.4844 52.75 28.9336 50.6367 31.1602C49.5234 32.1641 49.8594 32.3867 48.7461 31.0508Z" fill="#793F22"/>
<path d="M36.168 7.56641C35.2773 7.56641 34.5 6.89844 34.5 5.89844C34.5 5.00781 35.2773 4.23047 36.168 4.23047C37.0586 4.23047 37.8398 5.00781 37.8398 5.89844C37.8398 6.78906 37.1719 7.56641 36.168 7.56641Z" fill="#4050A2"/>
<path d="M55.1992 45.7422C54.3086 45.7422 53.5312 44.9609 53.5312 44.0703C53.5312 43.1797 54.3086 42.4023 55.1992 42.4023C56.2031 42.4023 56.8711 43.1797 56.8711 44.0703C56.9805 44.9609 56.2031 45.7422 55.1992 45.7422Z" fill="#4050A2"/>
<path d="M16.582 49.0781C18.3633 49.0781 20.1445 49.0781 21.9258 49.0781C22.9258 49.0781 23.2578 49.5234 23.2578 50.4141C23.2578 53.9766 23.2578 57.6484 23.2578 61.2109C23.2578 62.1016 22.8164 62.5469 21.9258 62.5469C18.3633 62.5469 14.6914 62.5469 11.1289 62.5469C10.2383 62.5469 9.79297 62.1016 9.79297 61.2109C9.79297 57.6484 9.79297 53.9766 9.79297 50.4141C9.79297 49.4141 10.2383 49.0781 11.1289 49.0781C13.0195 49.0781 14.8008 49.0781 16.582 49.0781Z" fill="#010101"/>
<path d="M16.582 32.2734C18.3633 32.2734 20.1445 32.2734 21.9258 32.2734C22.9258 32.2734 23.2578 32.7188 23.2578 33.6094C23.2578 37.1719 23.2578 40.8438 23.2578 44.4062C23.2578 45.2969 22.8164 45.7422 21.9258 45.7422C18.3633 45.7422 14.6914 45.7422 11.1289 45.7422C10.2383 45.7422 9.79297 45.2969 9.79297 44.4062C9.79297 40.8438 9.79297 37.1719 9.79297 33.6094C9.79297 32.7188 10.2383 32.2734 11.1289 32.2734C13.0195 32.2734 14.8008 32.2734 16.582 32.2734Z" fill="#010101"/>
<path d="M36.6133 57.5352C36.8359 58.6484 36.8359 59.875 36.6133 60.9883C36.2813 61.4336 35.8359 61.6563 35.168 61.4336C34.7227 61.0977 34.5 60.6524 34.5 60.0977C34.5 59.5391 34.5 58.8711 34.5 58.3164C34.5 57.7578 34.7227 57.2031 35.2773 57.0938C35.8359 56.8711 36.2813 56.9805 36.6133 57.5352Z" fill="#010101"/>
<path d="M19.3633 54.7539C17.6953 54.7539 17.6953 54.7539 17.6953 53.0859C17.6953 52.5274 17.4727 51.8594 17.8047 51.5274C18.1406 51.1953 18.918 51.418 19.4766 51.418C20.0313 51.418 20.6992 51.1953 21.0352 51.5274C21.2578 51.8594 21.1445 52.5274 21.1445 53.0859C21.1445 53.6406 21.3672 54.4219 21.0352 54.7539C20.5899 54.8672 19.9219 54.7539 19.3633 54.7539Z" fill="#37A4DD"/>
<path d="M13.6875 51.3047C14.2461 51.418 15.0235 51.082 15.3594 51.418C15.582 51.75 15.4688 52.418 15.4688 52.9727C15.4688 54.6445 15.4688 54.6445 13.8008 54.6445C13.2422 54.6445 12.5742 54.8672 12.2422 54.5313C11.9063 54.1992 12.1289 53.5313 12.1289 52.9727C12.1289 52.9727 12.1289 52.9727 12.1289 52.8633C12.1289 52.3047 11.9063 51.6406 12.2422 51.3047C12.4649 51.082 13.2422 51.418 13.6875 51.3047Z" fill="#38A4DC"/>
<path d="M19.3633 56.9805C19.9219 56.9805 20.5899 56.7578 20.9219 56.9805C21.2578 57.3164 21.0352 57.9805 21.0352 58.5391C21.0352 59.0937 21.2578 59.7617 20.9219 60.0976C20.5899 60.4297 19.9219 60.207 19.3633 60.207C18.8086 60.207 18.1406 60.4297 17.8047 60.0976C17.4727 59.7617 17.6953 59.0937 17.6953 58.5391C17.6953 56.9805 17.6953 56.9805 19.3633 56.9805Z" fill="#38A4DC"/>
<path d="M13.6875 60.3203C13.2422 60.3203 12.5742 60.4297 12.2422 60.207C11.9063 59.875 12.1289 59.207 12.1289 58.6485C12.1289 58.0938 11.9063 57.4258 12.2422 57.0938C12.5742 56.7578 13.2422 56.9805 13.8008 56.9805C14.3555 56.9805 15.0235 56.7578 15.3594 57.0938C15.6914 57.4258 15.4688 58.0938 15.4688 58.6485C15.4688 59.207 15.6914 59.875 15.3594 60.207C15.0235 60.543 14.2461 60.207 13.6875 60.3203Z" fill="#38A4DC"/>
<path d="M21.1445 36.168C21.0352 36.7266 21.3672 37.3945 21.0352 37.8398C20.6992 38.1719 20.0313 37.9492 19.4766 37.9492C18.918 37.9492 18.25 38.1719 17.8047 37.8398C17.4727 37.5039 17.6953 36.8359 17.6953 36.2812C17.6953 35.7227 17.4727 35.0547 17.8047 34.7227C18.1406 34.5 18.8086 34.6094 19.3633 34.6094C19.9219 34.6094 20.6992 34.3906 21.0352 34.7227C21.2578 34.9453 21.0352 35.6133 21.1445 36.168Z" fill="#37A4DD"/>
<path d="M15.4688 36.168C15.4688 37.8398 15.4688 37.8398 13.8008 37.8398C13.2422 37.8398 12.5742 38.0625 12.2422 37.7266C11.9063 37.3945 12.1289 36.7266 12.1289 36.168C12.1289 35.6133 11.9063 34.9453 12.2422 34.6094C12.5742 34.2773 13.2422 34.5 13.8008 34.5C14.3555 34.5 15.0235 34.2773 15.3594 34.6094C15.582 34.9453 15.4688 35.6133 15.4688 36.168Z" fill="#38A4DC"/>
<path d="M21.1445 41.8438C21.1445 42.4023 21.2578 43.0703 21.0352 43.4023C20.6992 43.7383 20.0313 43.5156 19.4766 43.5156C18.918 43.5156 18.25 43.7383 17.918 43.4023C17.582 43.0703 17.8047 42.2891 17.8047 41.7344C17.8047 40.1758 17.8047 40.1758 19.3633 40.1758C19.8086 40.1758 20.2539 40.1758 20.5899 40.1758C21.0352 40.1758 21.1445 40.2852 21.1445 40.7305C21.0352 41.0664 21.0352 41.5117 21.1445 41.8438C21.0352 41.8438 21.0352 41.8438 21.1445 41.8438Z" fill="#38A4DC"/>
<path d="M13.8008 43.5156C12.0195 43.5156 12.0195 43.5156 12.0195 41.8438C12.0195 41.2891 11.7969 40.6211 12.1289 40.2852C12.4649 39.9531 13.2422 40.1758 13.8008 40.1758C15.3594 40.1758 15.4688 40.1758 15.3594 41.8438C15.3594 42.4024 15.582 43.0703 15.2461 43.4024C15.0234 43.7383 14.2461 43.4024 13.8008 43.5156Z" fill="#38A4DC"/>
</g>
<defs>
<clipPath id="clip0_241_44">
<rect width="69" height="69" fill="white"/>
</clipPath>
</defs>
</svg>
