<svg width="68" height="68" viewBox="0 0 68 68" fill="none" xmlns="http://www.w3.org/2000/svg">
<path d="M18.4258 40.5806V44.529C18.4258 44.9677 18.3161 45.1871 17.7677 45.1871H11.6258C11.1871 45.1871 10.9677 45.0774 10.9677 44.529V36.4129C10.9677 36.0839 11.0774 35.7548 11.6258 35.7548H17.7677C18.3161 35.7548 18.4258 35.9742 18.4258 36.5226C18.3161 37.8387 18.4258 39.2645 18.4258 40.5806Z" fill="#A3BAF2"/>
<path d="M30.0516 14.8065C29.8323 16.8903 30.0516 19.6323 29.7226 21.6065C29.7226 21.8258 29.3936 22.0452 29.2839 22.1548C25.5548 24.7871 21.3871 26.3226 17.1097 27.2C15.6839 27.4194 14.2581 27.6387 12.7226 27.7484C12.5032 27.7484 12.0645 27.9677 12.0645 27.529C12.0645 27.0903 11.6258 26.3226 12.2839 26.1032C13.3806 25.7742 14.3677 25.1161 15.3548 24.7871C20.5097 22.7032 24.8968 20.1807 28.9548 16.3419C29.3935 16.0129 29.7226 15.1355 30.0516 14.8065Z" fill="#2B2B2B"/>
<path d="M16.671 35.4258C15.3548 35.4258 13.929 35.4258 12.7226 35.4258C12.7226 33.5613 12.7226 31.8064 12.7226 30.0516C12.7226 29.6129 12.7226 29.0645 12.7226 28.7355C14.0387 28.6258 15.3548 28.4064 16.671 28.2968C16.671 30.4903 16.671 32.9032 16.671 35.4258Z" fill="#F8941E"/>
<path d="M16.7806 18.2065C16.7806 18.8645 16.7806 19.5226 16.7806 20.071C16.7806 20.2903 16.5613 20.6194 16.4516 20.6194C15.3548 21.2774 14.1484 21.8258 13.0516 22.4839C12.7226 22.5935 12.6129 22.4839 12.6129 22.0452C12.6129 21.1677 12.6129 20.2903 12.6129 19.5226C14.0387 19.0839 15.3548 18.7548 16.7806 18.2065Z" fill="#2B2B2B"/>
<path d="M43.3226 11.8452C41.8968 11.9548 41.2387 12.3935 40.471 13.1613C39.7032 13.8194 38.7161 14.6968 37.729 15.1355C36.3032 15.9032 35.0968 16.671 34.1097 17.8774C33.2323 18.9742 31.8065 20.2903 30.6 21.3871C30.4903 21.3871 30.0516 20.5097 29.9419 20.5097C30.0516 19.8516 30.0516 19.0839 30.1613 18.4258C30.4903 16.1226 30.929 13.929 32.0258 11.8452C32.7936 10.3097 33.8903 8.99354 35.7548 8.55483C36.3032 8.44516 36.8516 8.44516 37.5097 8.55483C38.7161 8.77419 39.8129 8.44516 40.5807 7.45806C41.5677 6.14193 42.8839 5.92258 44.4194 6.8C49.7936 9.65161 52.9742 14.0387 53.3032 20.1806C53.4129 22.4839 53.3032 24.6774 53.1936 26.9806C52.9742 31.5871 53.3032 36.1935 55.0581 40.5806C55.0581 40.6903 55.0581 40.6903 55.1677 40.9097C52.0968 39.2645 48.4774 39.2645 44.8581 39.3742C44.8581 37.9484 44.4194 37.8387 44.7484 35.8645C44.8581 35.3161 44.9677 34 45.1871 34C48.3677 31.9161 49.1355 30.0516 49.7936 26.4323C50.0129 24.7871 50.2323 23.6903 50.2323 21.9355C50.2323 21.6064 49.9032 20.9484 49.6839 20.729C48.8065 19.7419 48.0387 18.9742 47.0516 17.9871C45.4065 16.4516 44.3097 14.2581 43.871 12.2839C43.6516 11.2968 43.7613 10.9677 42.9936 10.2C42.6645 9.87096 42.9936 9.43225 42.5548 9.87096C42.2258 10.2 41.6774 9.76129 42.1161 10.2C42.3355 10.2 42.8839 11.5161 43.3226 11.8452Z" fill="#2B2B2B"/>
<path d="M12.1742 45.7355C13.8194 45.7355 15.4645 45.7355 17.2194 45.7355C17.2194 45.9548 17.2194 46.1742 17.2194 46.3936C17.2194 50.7806 17.2194 55.2774 17.2194 59.6645C17.2194 60.871 16.8903 61.2 15.6839 61.2C14.8064 61.2 13.929 61.2 13.0516 61.2C12.3935 61.2 12.0645 60.871 12.0645 60.2129C12.0645 55.4968 12.0645 50.7806 12.0645 46.0645C12.0645 45.8452 12.1742 45.8452 12.1742 45.7355Z" fill="#A3BAF2"/>
<path d="M12.6129 25.0064C12.6129 24.6774 12.6129 24.3484 12.6129 24.2387C12.5032 23.471 12.8323 23.3613 13.3806 23.1419C13.929 23.0323 14.4774 22.8129 14.9161 22.4839C15.4645 22.1548 16.0129 22.0452 16.3419 21.7161C16.7806 23.0323 16.5613 23.2516 15.5742 23.6903C14.6968 24.129 13.7097 24.5677 12.6129 25.0064Z" fill="#F8941E"/>
<path d="M13.1613 19.0839C13.1613 16.3419 13.1613 13.8194 13.1613 11.4065C13.1613 11.0774 13.1613 10.529 13.271 10.2C13.3806 9.32258 14.0387 8.77419 14.8064 8.77419C15.4645 8.77419 16.2323 9.43226 16.2323 10.0903C16.3419 11.2968 16.3419 12.5032 16.3419 13.8194C16.3419 15.1355 16.3419 16.1226 16.4516 17.329C16.4516 17.6581 16.3419 17.9871 16.0129 18.0968C14.9161 18.3161 14.0387 18.7548 13.1613 19.0839Z" fill="#F8941E"/>
<path d="M32.5742 20.2903C32.2452 22.4839 32.2452 24.4581 32.9032 26.4323C33.3419 27.9677 33.3419 29.2839 33.1226 30.7097C32.4645 34.1097 32.5742 37.4 33.2323 40.6903C33.5613 42.0065 33.4516 43.4323 33.4516 44.7484C33.4516 45.2968 33.2323 46.0645 32.9032 46.6129C31.6968 48.5871 31.2581 50.671 31.1484 52.8645C31.1484 52.9742 31.1484 53.0839 31.1484 53.4129C30.4903 52.2065 29.9419 51.2194 29.8323 49.9032C29.7226 49.0258 29.8323 48.2581 29.7226 47.3807C29.7226 47.0516 30.0516 46.1742 29.8323 46.0645C29.6129 45.9548 29.1742 46.0645 28.9548 46.1742C28.1871 46.7226 28.1871 47.929 27.8581 48.9161C27.7484 49.1355 27.3097 49.2452 27.2 49.5742C27.0903 49.5742 27.0903 49.5742 26.9806 49.5742C26.7613 48.8065 26.4323 47.929 26.3226 47.1613C26.1032 45.8452 26.4323 44.7484 26.7613 43.5419C28.1871 39.0452 29.2839 34.5484 30.7097 30.0516C30.7097 27.3097 30.6 26.6516 30.271 24.7871C30.271 24.5677 30.1613 24.129 30.1613 23.9097C29.9419 21.6065 30.4903 21.6065 32.5742 20.2903Z" fill="#2B2B2B"/>
<path d="M21.6064 61.8581C21.7161 61.7484 21.6064 61.529 21.6064 61.3097C21.6064 58.3484 21.6064 55.4968 21.6064 52.4258C21.6064 49.4645 22.4839 46.9419 24.129 44.6387C24.2387 44.4194 25.4452 43.871 25.6645 43.4323C25.3355 46.0645 25.5548 48.3677 27.3097 50.3419C27.529 50.5613 27.3097 51.329 27.6387 51.2194C27.8581 51.1097 28.0774 50.7806 28.0774 50.4516C28.1871 50.0129 28.5161 49.2452 28.6258 48.9161C28.9548 49.9032 29.0645 50.4516 29.5032 51.2194C30.0516 52.5355 30.8193 53.6323 31.4774 54.6193C31.5871 54.8387 31.8064 55.4968 32.0258 55.4968C32.2452 55.3871 32.3548 54.9484 32.4645 54.729C32.4645 54.6194 32.4645 54.5097 32.4645 54.4C32.3548 51.8774 32.4645 49.1355 33.7806 46.8323C34.5484 45.4064 34.9871 43.871 34.8774 42.1161C34.7677 41.0194 34.6581 39.9226 34.5484 38.8258H34.7677C35.5355 42.6645 37.8387 44.7484 41.129 44.9677C42.6645 45.0774 43.9806 44.7484 45.1871 43.7613C46.9419 42.5548 47.8193 40.8 48.1484 38.7161C48.4774 38.7161 48.8064 38.7161 49.1355 38.7161C53.9613 39.2645 57.471 41.6774 59.7742 45.9548C60.7613 47.929 61.4193 50.0129 61.4193 52.2064C61.4193 55.1677 61.4193 57.9097 61.4193 60.871C61.4193 60.9806 61.4193 61.2 61.4193 61.3097C61.4193 61.4194 61.4193 61.529 61.4193 61.529H21.6064V61.8581Z" fill="#B76E78"/>
<path d="M38.3871 38.8258C36.9613 38.8258 35.6452 38.8258 34.329 38.8258C34.2194 38.8258 34 38.3871 33.8903 38.2774C33.5613 35.7548 33.671 33.2323 34.1097 30.8194C34.1097 30.6 34.2194 30.271 34.2194 29.7226C34.329 29.9419 34.4387 30.1613 34.5484 30.271C35.5355 31.6968 36.5226 32.9032 37.8387 33.8903C37.9484 34 38.1677 34.329 38.1677 34.4387C38.3871 35.7548 38.3871 37.2903 38.3871 38.8258Z" fill="#2B2B2B"/>
<path d="M44.4194 39.5936C45.0774 39.5936 46.6129 39.5936 47.1613 39.5936C47.271 41.8968 44.8581 44.3097 42.1161 44.6387C38.8258 44.8581 36.1935 42.6645 35.8645 39.5936C36.5226 39.5936 37.729 39.5936 38.2774 39.5936C38.7161 41.5677 39.4839 42.4452 41.5677 42.4452C43.6516 42.2258 43.871 41.4581 44.4194 39.5936Z" fill="#9C525C"/>
<path d="M50.0129 22.8129C50.0129 23.0322 50.0129 23.1419 50.0129 23.3613C50.0129 26.5419 49.1355 29.5032 47.1613 32.0258C43.9806 36.0839 38.8258 35.9742 35.6452 31.9161C33.3419 29.0645 32.7935 25.7742 32.9032 22.1548C33.1226 18.8645 34.7677 16.7806 37.6194 15.2452C38.8258 14.6968 39.7032 13.7097 40.8 12.8323C41.3484 12.3935 41.8968 11.8452 42.5548 11.8452C42.7742 11.8452 43.1032 12.0645 43.1032 12.1742C44.0903 15.2452 45.9548 17.7677 48.4774 19.8516C49.6839 20.729 50.1226 21.6064 50.0129 22.8129Z" fill="#FFD298"/>
<path d="M62.0774 52.3161C61.9677 48.4774 60.5419 45.1871 57.8 42.5548C56.8129 41.6774 56.1548 40.5806 55.7161 39.3742C54.071 35.0968 53.7419 30.6 54.1806 25.9935C54.5097 22.4839 54.5097 19.0839 53.3032 15.7935C52.4258 13.0516 51 10.529 48.4774 8.77419C47.6 8.11613 46.7226 7.56774 45.7355 6.90968C43.6516 5.48387 41.3484 5.48387 39.5935 7.67742C39.2645 8.11613 38.8258 8.22581 38.2774 8.11613C35.5355 7.56774 33.5613 8.66452 32.0258 10.8581C31.3677 11.7355 30.8194 12.7226 30.1613 13.4903C26.7613 17.5484 22.4839 20.5097 17.7677 22.8129C17.7677 22.8129 17.6581 22.8129 17.4387 22.8129C17.5484 22.1548 17.6581 21.4968 17.8774 20.8387C18.0968 19.8516 18.0968 18.8645 17.7677 17.8774C17.6581 17.6581 17.5484 17.329 17.5484 17.1097C17.5484 14.9161 17.4387 12.7226 17.4387 10.4194C17.4387 8.99355 16.3419 7.7871 14.9161 7.67742C13.6 7.56774 12.3935 8.44516 12.0645 9.87097C12.0645 10.0903 12.0645 10.2 11.9548 10.4194C11.6258 13.4903 12.2839 16.671 11.4064 19.7419C11.1871 20.2903 11.2968 20.9484 11.4064 21.6065C11.4064 22.0452 11.6258 22.4839 11.7355 23.0323C11.7355 23.9097 11.7355 24.7871 11.7355 25.6645C11.7355 25.9935 11.5161 26.4323 11.5161 26.7613C11.5161 28.0774 11.7355 29.3935 11.7355 30.6C11.7355 31.9161 11.7355 33.1226 11.6258 34.4387C11.6258 34.6581 11.6258 34.8774 11.6258 35.0968C10.6387 35.4258 10.2 35.8645 10.2 36.7419C10.2 39.2645 10.2 41.7871 10.2 44.3097C10.2 44.7484 10.4194 45.1871 10.6387 45.4065C10.9677 45.7355 11.0774 46.0645 11.0774 46.5032C11.0774 50.8903 11.0774 55.2774 11.0774 59.6645C11.0774 61.0903 11.9548 61.9677 13.4903 62.0774C14.3677 62.0774 15.3548 62.0774 16.2323 62.0774C17.6581 62.0774 18.5355 61.2 18.5355 59.6645C18.5355 58.4581 18.5355 57.1419 18.5355 55.8258C18.5355 55.3871 18.4258 54.9484 18.9742 54.729C19.0839 54.729 19.1935 54.4 19.1935 54.1806C19.1935 53.8516 19.3032 53.4129 19.1935 53.0839C19.1935 52.7548 18.9742 52.5355 18.7548 52.3161C18.4258 51.9871 18.4258 51.6581 18.7548 51.4387C18.9742 51.2194 19.1935 51 19.1935 50.7806C19.1935 49.9032 19.1935 49.0258 19.1935 48.1484C19.1935 47.929 19.0839 47.7097 18.8645 47.4903C18.3161 47.1613 18.2064 46.0645 18.6452 45.7355C19.1935 45.2968 19.3032 44.7484 19.3032 44.2V37.1806C19.3032 35.8645 19.0839 35.5355 17.8774 35.0968V28.4065C21.9355 27.529 25.7742 26.1032 29.2839 23.6903C29.3935 24.5677 29.5032 25.2258 29.6129 25.9935C29.8323 27.6387 30.0516 29.3935 29.5032 31.0387C28.5161 34.4387 27.4194 37.9484 26.3226 41.3484C26.2129 41.6774 25.9935 42.1161 25.6645 42.3355C22.8129 45.0774 21.1677 48.4774 21.0581 52.4258C21.0581 55.3871 21.0581 58.3484 21.0581 61.2C21.0581 61.3097 21.0581 61.4194 21.0581 61.529C21.2774 61.7484 21.4968 62.0774 21.6064 62.0774C21.8258 62.0774 22.0452 61.7484 22.2645 61.529C22.3742 61.4194 22.2645 61.2 22.2645 60.9806C22.2645 58.2387 22.2645 55.4968 22.2645 52.6452C22.2645 49.9032 23.1419 47.4903 24.6774 45.2968C24.7871 45.0774 25.0064 44.9677 25.2258 44.6387C24.8968 47.1613 25.5548 49.3548 27.2 51.2194C27.4194 51.4387 27.7484 51.6581 28.0774 51.5484C28.2968 51.4387 28.5161 51.1097 28.5161 50.7806C28.6258 50.3419 28.6258 49.9032 28.7355 49.5742C29.0645 50.4516 29.1742 51.2194 29.5032 51.9871C30.0516 53.1936 30.7097 54.2903 31.3677 55.2774C31.4774 55.4968 32.0258 55.6065 32.2452 55.6065C32.4645 55.4968 32.5742 55.0581 32.6839 54.8387C32.6839 54.729 32.6839 54.6194 32.6839 54.5097C32.5742 52.0968 32.6839 49.5742 34 47.3806C34.7677 46.0645 35.2065 44.6387 35.0968 42.9936C34.9871 42.0065 34.8774 40.9097 34.7677 39.9226H35.0968C35.8645 43.5419 38.0581 45.5161 41.2387 45.7355C42.6645 45.8452 43.9806 45.5161 45.1871 44.6387C46.8323 43.5419 47.7097 41.8968 48.0387 39.9226C48.3677 39.9226 48.6968 39.9226 49.0258 39.9226C53.6323 40.471 57.0323 42.6645 59.2258 46.7226C60.2129 48.5871 60.7613 50.5613 60.7613 52.6452C60.7613 55.3871 60.7613 58.0194 60.7613 60.7613C60.7613 60.871 60.7613 61.0903 60.7613 61.2C60.7613 61.3097 60.7613 61.4194 60.7613 61.4194C60.7613 61.7484 60.9806 62.0774 61.4194 61.9677C61.9677 61.9677 62.0774 61.6387 62.0774 61.0903C62.0774 58.2387 62.0774 55.2774 62.0774 52.3161ZM13.271 11.4065C13.271 10.9677 13.271 10.6387 13.3806 10.3097C13.4903 9.54194 14.0387 9.10323 14.8064 9.10323C15.4645 9.10323 16.1226 9.65161 16.1226 10.3097C16.2323 11.4065 16.2323 12.5032 16.2323 13.6C16.2323 14.6968 16.2323 15.6839 16.3419 16.7806C16.3419 17.1097 16.2323 17.329 15.9032 17.4387C15.0258 17.7677 14.2581 18.0968 13.3806 18.3161V11.4065H13.271ZM12.6129 19.7419C14.0387 19.3032 15.2452 18.9742 16.671 18.5355C16.671 19.0839 16.671 19.6323 16.671 20.071C16.671 20.2903 16.4516 20.5097 16.3419 20.5097C15.2452 21.0581 14.1484 21.4968 13.1613 22.0452C12.8323 22.1548 12.7226 22.0452 12.7226 21.7161V19.7419H12.6129ZM12.9419 24.129C12.8323 23.5806 13.1613 23.471 13.6 23.3613C14.0387 23.2516 14.4774 23.0323 14.9161 22.9226C15.3548 22.7032 15.7935 22.5935 16.1226 22.3742C16.4516 23.3613 16.3419 23.471 15.4645 23.8C14.5871 24.129 13.8194 24.4581 12.9419 24.7871C12.9419 24.4581 13.0516 24.3484 12.9419 24.129ZM17.1097 59.3355C17.1097 60.4323 16.7806 60.7613 15.6839 60.7613C14.8064 60.7613 14.0387 60.7613 13.1613 60.7613C12.5032 60.7613 12.1742 60.4323 12.1742 59.7742C12.1742 55.2774 12.1742 50.7806 12.1742 46.2839C12.1742 46.1742 12.1742 46.1742 12.2839 46.0645H17.1097C17.1097 46.2839 17.1097 46.5032 17.1097 46.7226V59.3355ZM17.9871 36.9613C17.9871 38.1677 17.9871 39.3742 17.9871 40.471C17.9871 41.6774 17.9871 42.7742 17.9871 43.9806C17.9871 44.4194 17.8774 44.529 17.4387 44.529C15.5742 44.529 13.8194 44.529 11.9548 44.529C11.5161 44.529 11.4064 44.4194 11.4064 43.9806C11.4064 41.5677 11.4064 39.1548 11.4064 36.7419C11.4064 36.4129 11.5161 36.1935 11.9548 36.1935C13.8194 36.1935 15.5742 36.1935 17.4387 36.1935C17.8774 36.4129 17.9871 36.6323 17.9871 36.9613ZM12.8323 35.0968V28.9548C14.0387 28.8452 15.1355 28.6258 16.3419 28.5161V35.0968H12.8323ZM29.2839 21.7161C29.2839 21.9355 28.9548 22.1548 28.7355 22.2645C25.2258 24.6774 21.3871 26.2129 17.329 26.9806C16.0129 27.2 14.6968 27.4194 13.271 27.529C13.0516 27.529 12.6129 27.7484 12.6129 27.3097C12.6129 26.871 12.2839 26.3226 12.9419 26.1032C13.929 25.7742 14.8064 25.4452 15.6839 25.1161C20.5097 23.1419 25.0065 20.6194 28.7355 17C29.0645 16.671 29.3935 16.3419 29.7226 16.0129C29.6129 17.8774 29.5032 19.8516 29.2839 21.7161ZM33.3419 44.529C33.3419 45.0774 33.1226 45.7355 32.7935 46.2839C31.6968 48.1484 31.2581 50.1226 31.1484 52.2065C31.1484 52.3161 31.1484 52.4258 31.1484 52.7548C30.4903 51.6581 30.271 50.5613 30.1613 49.3548C30.0516 48.4774 30.1613 47.4903 30.1613 46.6129C30.1613 46.2839 30.0516 45.9548 29.8323 45.8452C29.6129 45.7355 29.1742 45.8452 28.9548 45.9548C28.1871 46.5032 27.8581 47.3806 27.529 48.2581C27.4194 48.5871 27.4194 48.8065 27.3097 49.1355C27.3097 49.1355 27.2 49.1355 27.0903 49.1355C26.871 48.3677 26.5419 47.6 26.4323 46.8323C26.2129 45.6258 26.5419 44.529 26.871 43.4323C28.1871 39.1548 29.5032 34.9871 30.7097 30.7097C31.2581 28.9548 30.929 27.2 30.6 25.4452C30.6 25.2258 30.4903 25.0065 30.4903 24.7871C30.271 22.5935 30.3806 22.5935 32.2452 21.3871C31.9161 23.471 31.9161 25.3355 32.5742 27.2C33.0129 28.6258 33.0129 29.9419 32.7935 31.2581C32.1355 34.4387 32.2452 37.6194 32.9032 40.6903C33.4516 41.8968 33.3419 43.2129 33.3419 44.529ZM33.671 22.2645C33.8903 19.1935 35.4258 17.329 38.0581 15.9032C39.1548 15.3548 40.0323 14.4774 41.0194 13.7097C41.5677 13.271 42.0065 12.8323 42.6645 12.8323C42.8839 12.8323 43.2129 13.0516 43.2129 13.1613C44.0903 16.0129 45.8452 18.3161 48.1484 20.2903C49.0258 21.0581 49.4645 21.8258 49.3548 22.9226C49.3548 23.1419 49.3548 23.2516 49.3548 23.471C49.3548 26.4323 48.5871 29.1742 46.7226 31.4774C43.7613 35.2065 39.0452 35.0968 36.0839 31.3677C34.1097 28.6258 33.4516 25.5548 33.671 22.2645ZM43.6516 39.3742C43.6516 40.471 42.7742 41.2387 41.6774 41.2387C40.471 41.2387 39.5935 40.5806 39.4839 39.4839C39.3742 38.0581 39.4839 36.6323 39.4839 35.3161H43.6516V36.9613C43.6516 37.729 43.6516 38.6065 43.6516 39.3742ZM34.4387 38.4968C34.329 38.4968 34.1097 38.1677 34 37.9484C33.671 35.8645 33.7806 33.7806 34.2194 31.8065C34.2194 31.5871 34.329 31.3677 34.329 30.929C34.4387 31.1484 34.5484 31.2581 34.6581 31.3677C35.5355 32.5742 36.5226 33.5613 37.729 34.329C37.8387 34.4387 38.0581 34.6581 38.0581 34.7677C38.0581 35.9742 38.0581 37.1806 38.0581 38.3871C36.8516 38.4968 35.6452 38.4968 34.4387 38.4968ZM42.1161 44.3097C39.1548 44.529 36.7419 42.5548 36.5226 39.9226H38.1677C38.6064 41.6774 39.8129 42.6645 41.6774 42.6645C43.4323 42.6645 44.529 41.6774 44.9677 39.9226H46.6129C46.7226 41.8968 44.529 44.0903 42.1161 44.3097ZM44.9677 38.4968C44.9677 37.1806 44.9677 35.9742 44.9677 34.7677C44.9677 34.6581 45.1871 34.4387 45.2968 34.4387C48.3677 32.4645 49.9032 29.6129 50.4516 26.1032C50.671 24.4581 50.5613 22.8129 50.5613 21.2774C50.5613 20.9484 50.2323 20.4 50.0129 20.1806C49.1355 19.3032 48.1484 18.4258 47.1613 17.4387C45.7355 16.0129 44.8581 14.2581 44.4194 12.2839C44.2 11.2968 43.7613 10.4194 42.9935 9.76129C42.6645 9.43226 42.3355 9.32258 41.8968 9.76129C41.5677 10.0903 41.6774 10.4194 42.0064 10.7484C42.2258 10.9677 42.4452 11.1871 42.6645 11.5161C41.3484 11.6258 40.471 12.2839 39.7032 13.0516C38.9355 13.7097 38.1677 14.3677 37.2903 14.8065C35.9742 15.5742 34.7677 16.5613 33.7806 17.6581C32.9032 18.7548 31.8064 19.8516 30.7097 20.8387C30.6 20.8387 30.6 20.729 30.4903 20.729C30.6 20.071 30.6 19.4129 30.7097 18.7548C31.0387 16.5613 31.4774 14.4774 32.4645 12.5032C33.2323 10.9677 34.2194 9.76129 35.9742 9.32258C36.5226 9.2129 37.071 9.2129 37.6194 9.32258C38.8258 9.54194 39.8129 9.32258 40.5806 8.33548C41.5677 7.12903 42.7742 6.90968 44.2 7.67742C49.3548 10.4194 52.3161 14.5871 52.6452 20.4C52.7548 22.4839 52.6452 24.6774 52.5355 26.871C52.3161 31.2581 52.6452 35.6452 54.1806 39.8129C54.1806 39.9226 54.1806 39.9226 54.2903 40.1419C51.5484 38.4968 48.3677 38.3871 44.9677 38.4968Z" fill="black"/>
<path d="M7.34839 18.2065C7.7871 18.4258 8.22581 18.6452 8.55484 18.8645C8.88387 19.0839 9.10323 19.1935 9.54193 18.9742C9.87097 18.6452 10.3097 18.6452 10.529 18.9742C10.7484 19.3032 10.6387 19.6323 10.3097 19.9613C9.65161 20.5097 8.77419 20.6194 8.00645 20.071C7.67742 19.7419 7.34839 19.5226 6.90968 19.8516C6.8 19.9613 6.25161 19.8516 6.14194 19.7419C6.03226 19.5226 6.03226 19.0839 6.14194 18.9742C6.47097 18.6452 6.90968 18.4258 7.34839 18.2065Z" fill="black"/>
<path d="M9.2129 17.4387C8.77419 17.2194 8.33548 17 8.00645 16.7806C7.67742 16.5613 7.45806 16.4516 7.12903 16.671C6.8 16.8903 6.36129 16.8903 6.14193 16.5613C5.92258 16.1226 6.03226 15.7935 6.47097 15.5742C7.12903 15.0258 7.89677 15.0258 8.66452 15.5742C9.10323 15.9032 9.43226 16.1226 9.87097 15.6839C9.98064 15.5742 10.529 15.6839 10.6387 15.9032C10.7484 16.0129 10.7484 16.5613 10.6387 16.671C10.0903 17 9.65161 17.2194 9.2129 17.4387Z" fill="black"/>
<path d="M9.2129 26.7613C8.77419 26.5419 8.33548 26.3226 8.00645 26.1032C7.67742 25.8839 7.45806 25.7742 7.01935 25.9936C6.69032 26.2129 6.36129 26.2129 6.03226 25.8839C5.8129 25.5548 5.92258 25.2258 6.25161 24.8968C7.01935 24.3484 7.7871 24.3484 8.55484 24.8968C8.88387 25.2258 9.2129 25.3355 9.65161 25.0065C9.98065 24.7871 10.3097 24.8968 10.529 25.2258C10.6387 25.4452 10.529 25.8839 10.4194 25.9936C10.0903 26.3226 9.65161 26.4323 9.2129 26.7613Z" fill="black"/>
<path d="M9.2129 23.5806C8.77419 23.3613 8.33548 23.1419 8.00645 22.9226C7.67742 22.7032 7.45806 22.5935 7.12903 22.9226C6.8 23.1419 6.47097 23.1419 6.14194 22.8129C5.8129 22.4839 6.03226 22.1548 6.36129 21.8258C7.01935 21.2774 7.89677 21.1677 8.66452 21.8258C8.99355 22.1548 9.32258 22.2645 9.87097 21.9355C9.98065 21.8258 10.529 21.9355 10.6387 22.0452C10.9677 22.2645 10.8581 22.7032 10.529 22.9226C9.98065 23.2516 9.65161 23.3613 9.2129 23.5806Z" fill="black"/>
<path d="M39.4839 35.3161C40.9097 35.3161 42.2258 35.3161 43.6516 35.3161C43.6516 35.7548 43.6516 36.4129 43.6516 36.9613C43.6516 37.729 43.6516 38.6065 43.6516 39.3742C43.6516 40.471 42.7742 41.2387 41.6774 41.2387C40.471 41.2387 39.5935 40.5806 39.4839 39.4839C39.3742 38.0581 39.4839 36.6323 39.4839 35.3161Z" fill="#FFD298"/>
<path d="M12.8323 42.0065C12.8323 41.0194 13.7097 40.1419 14.6968 40.1419C15.6839 40.1419 16.5613 41.0194 16.5613 42.0065C16.5613 42.9936 15.7936 43.871 14.6968 43.871C13.6 43.871 12.8323 42.9936 12.8323 42.0065ZM15.3548 42.0065C15.0258 41.7871 14.8065 41.4581 14.5871 41.4581C14.3677 41.4581 14.2581 41.7871 14.0387 42.0065C14.2581 42.2258 14.3677 42.4452 14.5871 42.4452C14.8065 42.4452 15.0258 42.2258 15.3548 42.0065Z" fill="black"/>
<path d="M15.5742 42.0065C15.1355 42.3355 14.9161 42.6645 14.5871 42.5548C14.2581 42.5548 14.1484 42.1161 13.929 42.0065C14.2581 41.6774 14.3677 41.4581 14.5871 41.3484C14.8065 41.3484 15.1355 41.7871 15.5742 42.0065Z" fill="#F8CE15"/>
<path d="M13.8194 38.3871V37.5097C13.8194 37.071 14.0387 36.6323 14.5871 36.6323C15.1355 36.6323 15.3548 36.9613 15.3548 37.5097V38.3871C15.3548 38.9355 15.1355 39.2645 14.5871 39.2645C14.0387 39.1548 13.8194 38.9355 13.8194 38.3871Z" fill="black"/>
<path d="M58.0194 24.3484C57.3613 24.8968 57.2516 25.8839 57.8 26.5419C57.8 26.6516 57.9097 26.6516 57.8 26.7613C57.3613 27.529 56.9226 28.2968 56.4839 29.0645C56.4839 29.1742 56.3742 29.1742 56.2645 29.1742C54.4 29.8323 52.5355 30.4903 50.671 31.2581C50.5613 31.2581 50.5613 31.2581 50.4516 31.3677C50.3419 31.5871 50.2323 31.6968 50.0129 31.9161C50.0129 32.0258 50.0129 32.0258 50.0129 32.1355C50.0129 32.2452 50.1226 32.2452 50.2323 32.2452H50.3419C51.8774 31.9161 53.4129 31.5871 54.9484 31.2581C55.0581 31.2581 55.0581 31.2581 55.1677 31.2581V31.3677C54.9484 31.6968 54.729 32.1355 54.5097 32.4645C53.9613 33.4516 53.6323 34.4387 52.9742 35.4258C52.8645 35.5355 52.8645 35.5355 52.9742 35.6452C53.0839 35.7548 52.8645 35.9742 52.9742 35.8645C53.0839 35.8645 53.3032 35.7548 53.4129 35.7548C53.5226 35.7548 53.6323 35.6452 53.6323 35.5355C54.8387 34 56.0452 32.3548 57.2516 30.8194C57.2516 30.7097 57.3613 30.7097 57.471 30.7097C58.3484 30.4903 59.1161 30.3806 59.9935 30.1613C60.1032 30.1613 60.1032 30.1613 60.2129 30.271C60.2129 30.3807 60.3226 30.3806 60.4323 30.4903C60.9806 30.929 61.529 31.0387 62.1871 30.8194C62.8452 30.6 63.1742 30.1613 63.2839 29.3936C63.3935 28.7355 63.0645 28.1871 62.5161 27.8581C61.529 27.3097 60.3226 27.8581 60.1032 29.0645C60.1032 29.1742 60.1032 29.1742 59.9935 29.1742C59.6645 29.1742 59.2258 29.2839 58.8968 29.2839C58.6774 29.2839 58.4581 29.2839 58.2387 29.1742C58.129 29.1742 58.129 29.0645 58.129 28.9548C58.129 28.7355 58.129 28.4065 58.2387 28.1871C58.3484 27.8581 58.5677 27.6387 58.6774 27.3097C58.6774 27.2 58.7871 27.2 58.8968 27.2C59.5548 27.3097 60.3226 26.9806 60.5419 26.3226C60.871 25.6645 60.6516 24.8968 60.2129 24.4581C59.5548 23.8 58.5677 23.8 58.0194 24.3484ZM61.4194 28.6258C61.6387 28.4065 62.0774 28.5161 62.2968 28.7355C62.5161 28.9548 62.4065 29.3936 62.1871 29.6129C61.9677 29.8323 61.529 29.7226 61.3097 29.5032C61.0903 29.2839 61.0903 28.8452 61.4194 28.6258ZM58.5677 25.8839C58.3484 25.6645 58.4581 25.2258 58.6774 25.0065C59.0065 24.7871 59.3355 24.8968 59.5548 25.1161C59.7742 25.3355 59.6645 25.7742 59.4452 25.9936C59.2258 26.2129 58.7871 26.2129 58.5677 25.8839Z" fill="black"/>
<path d="M52.0968 31.1484C52.5355 30.929 53.0839 30.8194 53.5226 30.6C54.8387 30.1613 56.1548 29.6129 57.471 29.1742C57.5806 29.1742 57.5806 29.1742 57.6903 29.1742C58.0194 29.5032 58.4581 29.6129 59.0064 29.6129C59.2258 29.6129 59.4452 29.6129 59.6645 29.5032C59.7742 29.5032 59.6645 29.6129 59.6645 29.6129C59.6645 29.6129 59.5548 29.7226 59.4452 29.7226C58.8968 29.8323 58.3484 29.9419 57.9097 30.0516C57.3613 30.1613 56.8129 30.271 56.3742 30.3806C55.8258 30.4903 55.1677 30.6 54.6194 30.7097C53.8516 30.8194 53.1935 31.0387 52.4258 31.1484C52.2064 31.1484 52.0968 31.2581 52.0968 31.1484Z" fill="#E1E6F5"/>
<path d="M52.0968 31.1484C52.7548 31.0387 53.3032 30.929 53.8516 30.8194C54.1806 30.7097 54.6194 30.7097 54.9484 30.6C55.7161 30.3807 56.5935 30.271 57.3613 30.0516C57.8 29.9419 58.2387 29.8323 58.6774 29.8323C58.8968 29.8323 59.1161 29.7226 59.3355 29.7226C59.4452 29.7226 59.5548 29.7226 59.4452 29.6129C59.6645 29.6129 59.9935 29.5032 60.2129 29.5032C60.2129 29.5032 60.3226 29.6129 60.2129 29.7226C59.1161 29.9419 58.0194 30.1613 56.9226 30.3807C54.8387 30.8194 52.8645 31.2581 50.7806 31.6968H50.671C51.329 31.3678 51.6581 31.2581 52.0968 31.1484Z" fill="#C7CCEC"/>
<path d="M56.0452 30.929C56.3742 30.8194 56.5935 30.8194 56.9226 30.7097C56.8129 30.929 56.5935 31.1484 56.4839 31.2581C55.8258 32.1355 55.0581 33.0129 54.4 34C54.4 34 54.4 34 54.2903 34.1097V34C54.729 33.2323 55.1677 32.4645 55.6065 31.6968C55.7161 31.4774 55.8258 31.2581 56.0452 30.929Z" fill="#9CA0BE"/>
<path d="M58.6774 26.6516C58.5677 26.6516 58.4581 26.6516 58.4581 26.7613C58.3484 26.7613 58.3484 26.7613 58.3484 26.6516C58.4581 26.5419 58.3484 26.4323 58.2387 26.3226C57.8 25.8839 57.8 25.1161 58.2387 24.5677C58.6774 24.129 59.4452 24.129 59.8839 24.5677C60.1032 24.7871 60.2129 25.0065 60.2129 25.3355C60.1032 25.3355 60.1032 25.3355 60.1032 25.2258C59.9935 25.1161 59.9935 25.0065 59.8839 25.0065C59.7742 24.7871 59.6645 24.6774 59.4452 24.5677C59.0065 24.3484 58.5677 24.4581 58.2387 24.7871C57.9097 25.1161 57.9097 25.6645 58.129 25.9935C58.129 26.1032 58.2387 26.1032 58.2387 26.2129C58.3484 26.3226 58.3484 26.4323 58.4581 26.4323C58.6774 26.5419 58.6774 26.6516 58.6774 26.6516Z" fill="#F5B840"/>
<path d="M60.4323 29.6129C60.4323 29.5032 60.4323 29.5032 60.4323 29.3936C60.5419 29.3936 60.5419 29.2839 60.6516 29.2839C60.7613 29.2839 60.7613 29.2839 60.7613 29.3936C60.871 29.5032 60.871 29.6129 60.9806 29.6129C61.0903 29.8323 61.2 29.9419 61.4194 30.0516C61.8581 30.271 62.2968 30.1613 62.6258 29.8323C62.9548 29.5032 62.9548 28.9548 62.7355 28.6258C62.7355 28.5161 62.6258 28.5161 62.6258 28.4065C62.5161 28.2968 62.5161 28.1871 62.4065 28.1871C62.4065 28.1871 62.2968 28.0774 62.4065 28.0774C62.8452 28.2968 63.1742 28.6258 63.1742 29.1742C63.1742 29.7226 62.9548 30.0516 62.5161 30.271C62.0774 30.4903 61.6387 30.4903 61.2 30.1613C61.0903 30.0516 60.9806 29.9419 60.871 29.7226C60.6516 29.6129 60.5419 29.6129 60.4323 29.6129Z" fill="#F5B840"/>
<path d="M56.0452 30.929C56.0452 31.0387 55.9355 31.2581 55.8258 31.3677C55.4968 32.0258 55.0581 32.6839 54.729 33.3419C54.6194 33.5613 54.5097 33.7806 54.4 34C54.4 34 54.2903 34.1097 54.4 34.1097C54.1806 34.4387 53.8516 34.7677 53.6323 35.2064C53.6323 35.2064 53.6323 35.0968 53.7419 35.0968C54.5097 33.7806 55.2774 32.4645 56.0452 31.1484C55.8258 31.0387 55.9355 30.929 56.0452 30.929Z" fill="#848AB4"/>
<path d="M60.871 29.6129C60.7613 29.5032 60.7613 29.3935 60.6516 29.2839C60.6516 29.2839 60.6516 29.1742 60.5419 29.1742C60.5419 28.8452 60.6516 28.5161 60.871 28.2968C61.2 27.8581 61.7484 27.7484 62.2968 27.9677C62.4065 28.0774 62.5161 28.1871 62.5161 28.4064H62.4065C62.0774 28.0774 61.529 28.0774 61.2 28.4064C60.871 28.6258 60.7613 29.1742 60.871 29.6129Z" fill="#F3A83C"/>
<path d="M59.9936 25.1161C60.1032 25.2258 60.2129 25.4452 60.3226 25.4452C60.4323 26.3226 59.5548 26.9806 58.6774 26.6516C58.5677 26.5419 58.4581 26.3226 58.3484 26.2129H58.4581C58.7871 26.5419 59.3355 26.5419 59.6645 26.2129C59.9936 25.9936 60.1032 25.4452 59.9936 25.0065C59.9936 25.1161 59.9936 25.1161 59.9936 25.1161Z" fill="#F3A83C"/>
<path d="M58.2387 26.7613L58.3484 26.871C58.2387 27.0903 58.129 27.3097 58.0194 27.529C57.9097 27.529 57.9097 27.6387 57.8 27.7484C57.5806 28.0774 57.471 28.4065 57.2516 28.7355C57.2516 28.7355 57.2516 28.8452 57.1419 28.8452C57.0323 28.8452 57.0323 28.9548 56.9226 28.9548C57.471 28.0774 57.9097 27.4194 58.2387 26.7613Z" fill="#848AB4"/>
<path d="M57.2516 28.7355C57.3613 28.5161 57.5806 28.1871 57.6903 27.9677C57.8 27.8581 57.8 27.7484 57.9097 27.529C57.9097 27.4194 58.0194 27.4194 58.129 27.4194C58.0194 27.529 58.0194 27.7484 57.9097 27.8581C57.8 28.0774 57.8 28.2968 57.6903 28.4065V28.5161C57.5806 28.6258 57.471 28.7355 57.2516 28.7355Z" fill="#9CA0BE"/>
<path d="M57.1419 29.5032C57.2516 29.3936 57.2516 29.3936 57.471 29.5032C57.5806 29.6129 57.5806 29.6129 57.471 29.8323C57.3613 29.9419 57.3613 29.9419 57.1419 29.8323C57.0323 29.6129 57.0323 29.6129 57.1419 29.5032Z" fill="black"/>
<path d="M58.129 25.3355C58.0194 25.6645 58.129 25.9936 58.3484 26.3226C58.3484 26.3226 58.3484 26.3226 58.4581 26.3226C59.0065 26.7613 59.7742 26.5419 59.9936 25.9936C60.1032 25.7742 60.1032 25.4452 59.9936 25.2258V25.1161C59.9936 25.1161 59.9935 25.0065 59.8839 25.0065C59.6645 24.6774 59.3355 24.5677 58.8968 24.5677C58.4581 24.6774 58.2387 24.8968 58.129 25.3355ZM59.5548 25.2258C59.7742 25.4452 59.6645 25.8839 59.4452 26.1032C59.1161 26.3226 58.7871 26.2129 58.5677 25.9936C58.3484 25.7742 58.4581 25.3355 58.6774 25.1161C59.0065 24.8968 59.4452 24.8968 59.5548 25.2258Z" fill="black"/>
<path d="M60.7613 28.8452C60.6516 29.0645 60.6516 29.2839 60.7613 29.5032V29.6129L60.871 29.7226C61.0903 30.0516 61.4194 30.1613 61.8581 30.1613C62.2968 30.1613 62.5161 29.9419 62.6258 29.5032C62.8452 29.0645 62.7355 28.7355 62.4065 28.4065C62.4065 28.4065 62.4064 28.4065 62.2968 28.4065C61.8581 27.9677 60.9806 28.1871 60.7613 28.8452ZM62.1871 28.8452C62.4064 29.0645 62.2968 29.5032 62.0774 29.7226C61.8581 29.9419 61.4194 29.8323 61.2 29.6129C60.9806 29.2839 61.0903 28.9548 61.3097 28.7355C61.6387 28.5161 62.0774 28.5161 62.1871 28.8452Z" fill="black"/>
<path d="M54.1806 32.9032C54.1806 32.9032 54.1806 33.7806 54.5097 35.3161L53.0839 35.8645C53.0839 35.8645 52.8645 34.7677 52.7548 33.671L54.1806 32.9032Z" fill="black"/>
<path d="M39.7032 22.2645C39.3742 21.9355 38.9355 21.9355 38.7161 22.2645C38.1677 22.8129 37.2903 22.8129 36.7419 22.2645C36.4129 21.9355 35.9742 21.9355 35.7548 22.2645C35.4258 22.5936 35.4258 23.0323 35.7548 23.2516C36.3032 23.8 36.9613 24.0194 37.729 24.0194C38.4968 24.0194 39.2645 23.6903 39.7032 23.2516C40.0323 23.0323 40.0323 22.5936 39.7032 22.2645Z" fill="black"/>
<path d="M45.1871 24.129C45.9548 24.129 46.7226 23.8 47.1613 23.3613C47.4903 23.0322 47.4903 22.5935 47.1613 22.3742C46.8323 22.0452 46.3935 22.0452 46.1742 22.3742C45.6258 22.9226 44.7484 22.9226 44.2 22.3742C43.871 22.0452 43.4323 22.0452 43.2129 22.3742C42.8839 22.7032 42.8839 23.1419 43.2129 23.3613C43.6516 23.9097 44.4194 24.129 45.1871 24.129Z" fill="black"/>
<path d="M44.0903 31.5871C44.4194 31.3677 44.529 30.929 44.3097 30.6C44.0903 30.271 43.6516 30.1613 43.3226 30.3806C42.2258 31.1484 40.8 31.1484 39.7032 30.3806C39.3742 30.1613 38.9355 30.271 38.7161 30.6C38.4968 30.929 38.6064 31.3677 38.9355 31.5871C39.7032 32.1355 40.6903 32.3548 41.5677 32.3548C42.4452 32.3548 43.3226 32.1355 44.0903 31.5871Z" fill="black"/>
</svg>
