<svg width="860" height="461" viewBox="0 0 860 461" fill="none" xmlns="http://www.w3.org/2000/svg">
<path d="M370.616 441.797C370.017 441.839 369.418 441.881 368.818 441.923C368.818 441.923 368.973 442.07 368.973 442.07C368.872 440.113 368.77 438.157 368.649 435.811C365.687 435.811 362.778 435.811 360.152 435.811C359.378 437.924 358.646 439.92 357.914 441.917L358.07 442.064C357.969 440.107 357.869 438.149 357.749 435.806C354.783 435.806 351.873 435.806 349.24 435.806C348.478 437.935 347.758 439.945 347.039 441.954L347.191 442.094C347.059 440.051 346.927 438.007 346.778 435.702C343.687 435.702 340.806 435.702 338.574 435.702C337.575 438.016 336.76 439.905 335.944 441.795L336.079 441.965C336.079 439.928 336.079 437.892 336.079 435.794C332.683 435.794 329.813 435.794 326.87 435.794C326.87 438.099 326.87 440.03 326.87 441.962L327.013 441.798C326.356 441.796 325.699 441.794 325.043 441.793L325.178 441.965C325.178 439.929 325.178 437.893 325.178 435.794C321.781 435.794 318.914 435.794 315.97 435.794C315.97 438.101 315.97 440.032 315.97 441.962L316.114 441.797C315.511 441.836 314.909 441.875 314.307 441.914L314.466 442.064C314.365 440.018 314.264 437.972 314.152 435.697C311.122 435.697 308.359 435.697 305.788 435.697C304.915 437.792 304.08 439.793 303.245 441.793L303.38 441.963C303.38 439.928 303.38 437.894 303.38 435.811C299.998 435.811 297.126 435.811 294.171 435.811C294.171 438.102 294.171 440.031 294.171 441.961L294.315 441.797C293.657 441.797 292.998 441.797 292.34 441.797L292.477 441.965C292.477 439.93 292.477 437.895 292.477 435.792C289.121 435.792 286.248 435.792 283.269 435.792C283.269 438.097 283.269 440.03 283.269 441.962L283.41 441.795C282.755 441.795 282.099 441.795 281.442 441.795L281.577 441.963C281.577 439.926 281.577 437.889 281.577 435.792C278.221 435.792 275.346 435.792 272.369 435.792C272.369 438.096 272.369 440.029 272.369 441.963L272.511 441.797C271.853 441.796 271.196 441.795 270.538 441.795L270.676 441.964C270.676 439.927 270.676 437.89 270.676 435.793C267.325 435.793 264.45 435.793 261.469 435.793C261.469 438.099 261.469 440.031 261.469 441.963L261.611 441.795C260.954 441.795 260.299 441.795 259.642 441.795L259.777 441.963C259.777 439.926 259.777 437.889 259.777 435.791C256.42 435.791 253.545 435.791 250.568 435.791C250.568 438.097 250.568 440.03 250.568 441.963L250.71 441.797C250.051 441.797 249.392 441.796 248.734 441.796L248.874 441.963C248.874 439.927 248.874 437.891 248.874 435.79C245.549 435.79 242.674 435.79 239.666 435.79C239.666 438.092 239.666 440.028 239.666 441.963L239.804 441.797C239.148 441.797 238.492 441.796 237.835 441.796L237.975 441.963C237.975 439.927 237.975 437.891 237.975 435.794C234.64 435.794 231.762 435.794 228.767 435.794C228.767 438.093 228.767 440.028 228.767 441.964L228.906 441.796C228.249 441.795 227.591 441.795 226.933 441.795L227.075 441.964C227.075 439.93 227.075 437.897 227.075 435.796C223.734 435.796 220.863 435.796 217.866 435.796C217.866 438.101 217.866 440.032 217.866 441.964L218.006 441.795C217.349 441.795 216.692 441.796 216.034 441.796L216.175 441.964C216.175 439.93 216.175 437.895 216.175 435.794C212.829 435.794 209.957 435.794 206.967 435.794C206.967 438.099 206.967 440.032 206.967 441.965L207.107 441.798C206.449 441.797 205.79 441.797 205.131 441.796L205.273 441.963C205.273 439.93 205.273 437.897 205.273 435.79C201.962 435.79 199.088 435.79 196.063 435.79C196.063 438.096 196.063 440.03 196.063 441.965L196.199 441.798C195.372 439.87 194.546 437.942 193.569 435.665C191.29 435.665 188.484 435.665 185.4 435.665C185.237 437.958 185.088 440.031 184.941 442.104L185.09 441.967C184.403 439.937 183.717 437.907 182.961 435.671C180.4 435.671 177.6 435.671 174.536 435.671C174.355 437.967 174.192 440.036 174.029 442.104L174.176 441.972C173.528 440.065 172.88 438.158 172.074 435.786C169.653 435.786 166.768 435.786 163.612 435.786C163.445 437.974 163.288 440.045 163.129 442.117L163.274 441.986C162.602 439.945 161.93 437.904 161.194 435.669C158.592 435.669 155.793 435.669 152.723 435.669C152.554 437.951 152.4 440.019 152.247 442.087L152.397 441.949C151.734 440.057 151.072 438.163 150.241 435.791C147.855 435.791 144.968 435.791 141.804 435.791C141.638 437.973 141.481 440.046 141.324 442.12L141.468 441.992C140.839 440.07 140.209 438.149 139.434 435.779C136.982 435.779 134.101 435.779 130.96 435.779C130.769 437.994 130.591 440.059 130.412 442.124L130.552 442.001C129.929 440.077 129.307 438.153 128.539 435.78C126.084 435.78 123.202 435.78 120.047 435.78C119.869 437.97 119.701 440.036 119.533 442.102L119.678 441.971C119.039 440.059 118.4 438.148 117.608 435.779C115.179 435.779 112.3 435.779 109.139 435.779C108.966 437.966 108.803 440.031 108.64 442.095L108.787 441.96C108.143 440.053 107.499 438.146 106.699 435.78C104.269 435.78 101.385 435.78 98.2595 435.78C98.072 437.987 97.8961 440.055 97.7201 442.123L97.8624 441.996C97.2516 440.067 96.6409 438.137 95.8973 435.786C93.4124 435.786 90.5312 435.786 87.3904 435.786C87.1936 437.981 87.0089 440.042 86.8242 442.102L86.9671 441.975C86.3583 440.04 85.7496 438.105 85.0148 435.77C82.4976 435.77 79.6089 435.77 76.5086 435.77C76.2982 438.001 76.1041 440.064 75.9099 442.127L76.0468 442.007C75.4401 440.074 74.8334 438.14 74.0911 435.774C71.607 435.774 68.7298 435.774 65.5802 435.774C65.3874 437.978 65.2074 440.04 65.0274 442.101L65.1704 441.973C64.5528 440.043 63.9353 438.113 63.1823 435.761C60.6941 435.761 57.8068 435.761 54.7065 435.761C54.4962 438 54.302 440.066 54.1085 442.132L54.244 442.014C53.6703 440.058 53.0973 438.103 52.4063 435.746C49.8851 435.746 46.9762 435.746 43.8536 435.746C43.6244 437.987 43.4127 440.055 43.2011 442.123L43.3359 442.008C42.7595 440.065 42.1831 438.122 41.4841 435.763C38.9695 435.763 36.0715 435.763 32.9529 435.763C32.7305 437.979 32.5228 440.046 32.3159 442.113L32.4547 441.991C31.8709 440.046 31.2871 438.101 30.5847 435.76C28.023 435.76 25.1438 435.76 22.0434 435.76C21.8243 437.99 21.6228 440.049 21.4205 442.108L21.5608 441.984C20.9601 439.939 20.3601 437.893 19.6907 435.613C17.1358 435.613 14.3536 435.613 11.196 435.613C10.9614 437.818 10.7315 439.976 10.5016 442.135L10.6338 442.021C10.0776 440.044 9.52211 438.068 8.80484 435.518C6.10696 435.518 3.06326 435.518 0.0188757 435.518C0.0128085 435.021 0.00674132 434.523 0 434.027C3.1664 434.027 6.33954 433.9 9.49717 434.066C12.0602 434.202 13.1759 433.334 13.7671 430.692C16.7185 417.516 18.6762 404.351 18.5838 390.707C18.2252 337.677 18.0721 284.639 18.6519 231.613C18.8366 214.708 21.488 197.827 23.0944 180.943C24.1973 169.351 25.4444 157.773 27.2996 146.123C28.116 153.884 28.9526 161.641 29.7447 169.405C31.482 186.433 33.2246 203.462 34.8978 220.498C35.2375 223.96 35.4378 227.451 35.4398 230.928C35.4742 288.508 35.2322 346.089 35.7014 403.666C35.7789 413.196 38.6857 422.754 40.7776 432.189C41.5353 435.606 44.6734 434.268 46.6917 433.157C48.5085 432.158 49.9478 430.472 51.5556 429.091C76.5922 407.587 101.635 386.09 126.649 364.56C127.859 363.519 128.821 362.19 129.898 360.995L129.76 361.138C131.113 360.247 132.577 359.486 133.804 358.444C145.345 348.645 157.034 339.006 168.261 328.858C172.624 324.914 177.349 323.346 183.782 323.014C140.426 360.012 97.6386 396.525 54.8514 433.039C55.1548 433.399 55.4581 433.759 55.7608 434.119C102.194 394.524 148.627 354.929 195.301 315.128C241.968 354.929 288.409 394.54 334.851 434.149C335.158 433.788 335.466 433.428 335.774 433.067C292.995 396.558 250.218 360.049 206.723 322.929C212.996 323.473 217.573 324.735 221.894 328.473C261.394 362.649 301.106 396.579 340.758 430.578C341.907 431.563 342.972 432.708 344.266 433.448C347.183 435.115 349.596 434.089 350.269 430.857C352.888 418.277 355.368 405.796 355.27 392.72C354.874 339.991 354.667 287.252 355.34 234.528C355.586 215.203 358.416 195.907 360.167 176.606C361.11 166.219 362.264 155.85 363.895 145.48C365.779 164.065 367.365 182.686 369.608 201.227C374.193 239.15 371.551 277.206 372.07 315.2C372.476 344.894 371.768 374.607 372.388 404.294C372.581 413.545 375.416 422.755 377.293 431.932C377.475 432.816 379.41 433.825 380.601 433.925C383.88 434.199 387.196 434.02 390.887 434.02C390.98 435.979 391.055 437.557 391.181 440.181C389.936 432.045 384.662 437.096 382.176 435.48C381.162 437.921 380.356 439.86 379.55 441.799L379.68 441.967C379.68 439.93 379.68 437.895 379.68 435.796C376.261 435.796 373.394 435.796 370.471 435.796C370.471 438.104 370.471 440.033 370.471 441.962L370.616 441.797ZM113.417 404.565C115.362 406.029 117.308 407.493 119.439 409.097C120.878 405.155 122.289 401.288 123.916 396.831C125.796 399.012 127.203 400.645 128.844 402.548C130.366 398.226 131.79 394.182 133.61 389.016C135.523 391.384 136.802 392.965 138.348 394.877C139.929 390.528 141.334 386.664 142.956 382.204C144.831 384.392 146.238 386.035 147.874 387.945C149.403 383.653 150.84 379.618 152.632 374.587C154.504 377.023 155.812 378.724 157.453 380.858C159.155 376.117 160.544 372.248 162.15 367.773C164.057 370.042 165.447 371.699 167.098 373.665C168.604 369.312 170.014 365.241 171.627 360.583C173.493 362.516 174.902 363.975 176.646 365.781C178.147 361.616 179.544 357.737 181.164 353.244C183.009 355.381 184.472 357.075 186.137 359.002C187.703 354.573 189.13 350.536 190.558 346.498C191.118 346.466 191.677 346.434 192.237 346.402C192.922 348.809 194.187 351.213 194.201 353.624C194.349 378.77 194.285 403.917 194.322 429.064C194.324 430.604 194.673 432.143 194.861 433.682C195.321 433.632 195.781 433.583 196.241 433.533C196.241 431.746 196.241 429.959 196.241 428.173C196.245 403.329 196.291 378.486 196.203 353.642C196.191 350.507 196.809 348.09 200.131 346.562C201.592 350.752 202.997 354.784 204.483 359.046C206.228 356.989 207.647 355.317 209.444 353.199C211.043 357.7 212.429 361.602 213.815 365.503C214.23 365.731 214.644 365.959 215.059 366.188C216.183 364.355 217.308 362.524 218.811 360.075C220.68 365.478 222.057 369.459 223.484 373.585C225.176 371.665 226.676 369.962 228.484 367.909C230.128 372.431 231.538 376.311 233.261 381.053C235.066 378.535 236.323 376.782 237.979 374.472C239.866 379.809 241.275 383.797 242.729 387.911C244.587 385.84 245.983 384.282 247.742 382.32C249.403 386.928 250.789 390.769 252.534 395.609C254.336 392.994 255.496 391.311 257.039 389.072C258.924 394.42 260.336 398.426 261.798 402.573C263.586 400.493 264.97 398.884 266.765 396.795C268.412 401.436 269.796 405.337 271.429 409.938C273.251 407.685 274.541 406.088 276.288 403.926C278.059 408.917 279.511 413.012 281.01 417.235C282.773 415.141 284.143 413.512 285.514 411.883C286.031 411.94 286.549 411.998 287.066 412.056C288.31 419.215 289.554 426.374 290.804 433.557C298.597 433.557 306.733 433.557 315.595 433.557C314.147 432.298 313.395 431.568 312.568 430.935C274.493 401.776 236.392 372.65 198.375 343.416C195.97 341.566 194.463 341.716 192.174 343.48C166.885 362.962 141.512 382.337 116.189 401.775C115.163 402.563 114.397 403.692 113.51 404.661C112.124 405.427 110.62 406.037 109.371 406.984C99.636 414.368 89.9461 421.812 80.252 429.251C78.6415 430.487 77.0796 431.785 74.6797 433.707C83.9449 433.707 92.0986 433.707 99.7304 433.707C101.06 426.197 102.326 419.053 103.59 411.909C104.074 411.888 104.557 411.866 105.04 411.845C106.511 413.576 107.984 415.306 109.87 417.524C111.137 412.897 112.277 408.732 113.417 404.565ZM37.3233 433.919C37.8754 433.808 38.4275 433.698 38.9797 433.587C38.7673 432.252 38.681 430.882 38.3244 429.587C34.0565 414.09 33.5947 398.284 33.7376 382.312C34.0437 348.066 33.3271 313.807 33.9668 279.57C34.6672 242.058 32.3981 204.779 27.9387 167.582C27.7884 166.327 27.4527 165.094 27.2039 163.85C25.9271 169.457 25.3177 174.987 24.8074 180.526C23.211 197.868 20.5314 215.198 20.2961 232.56C19.6638 279.225 20.0628 325.904 20.0925 372.578C20.1053 392.098 21.1731 411.693 15.3972 430.747C15.1215 431.656 15.3621 432.722 15.3621 433.715C15.8057 433.755 16.2493 433.796 16.6929 433.836C18.5258 425.391 20.3588 416.945 22.1742 408.581C25.6406 408.581 28.6176 408.581 31.8467 408.581C33.6918 417.122 35.5079 425.52 37.3233 433.919ZM364.035 163.321C363.762 163.319 363.49 163.316 363.218 163.313C362.754 167.641 362.239 171.965 361.834 176.298C360.117 194.683 357.201 213.055 356.968 231.461C356.303 283.857 356.572 336.266 356.852 388.668C356.923 401.94 355.932 414.938 352.591 427.766C352.098 429.662 351.852 431.623 351.492 433.554C352.07 433.67 352.648 433.787 353.227 433.903C355.096 425.42 356.966 416.938 358.805 408.594C362.294 408.594 365.282 408.594 368.437 408.594C370.298 417.131 372.123 425.5 374.092 434.535C375.134 433.422 375.511 433.192 375.487 433.016C375.289 431.519 375.134 429.999 374.751 428.543C371.259 415.273 370.182 401.815 370.406 388.084C370.798 364.009 370.839 339.918 370.448 315.842C369.829 277.718 372.651 239.52 367.963 201.475C366.399 188.789 365.33 176.041 364.035 163.321Z" fill="white"/>
<path d="M129.693 360.807C128.343 361.611 126.847 362.243 125.666 363.243C106.926 379.113 88.2267 395.03 69.5169 410.935C68.843 411.507 68.1516 412.061 66.6895 413.265C67.243 411.353 67.4676 410.301 67.8469 409.308C74.2799 392.475 80.6833 375.629 87.2582 358.851C87.8878 357.245 89.3452 355.361 90.8672 354.789C116.132 345.307 141.47 336.014 166.796 326.693C167.046 326.601 167.373 326.715 168.217 326.766C167.057 327.856 166.202 328.73 165.275 329.521C154.264 338.898 143.227 348.246 132.245 357.657C131.186 358.564 130.444 359.84 129.555 360.947C129.555 360.95 129.693 360.807 129.693 360.807Z" fill="white"/>
<path d="M222.465 325.662C248.282 335.266 274.108 344.849 299.893 354.539C301.136 355.006 302.539 356.221 303.003 357.424C309.902 375.271 316.658 393.175 323.426 411.073C323.569 411.453 323.444 411.935 323.444 413.265C289.275 383.959 255.621 355.094 221.967 326.229C222.132 326.04 222.298 325.851 222.465 325.662Z" fill="white"/>
<path d="M318.151 390.37C315.986 342.052 320.677 293.505 313.2 244.378C306.143 284.676 309.174 324.447 307.972 364.027C307.866 320.634 305.587 277.153 313.174 235.074C321.53 285.96 317.389 338.242 318.151 390.37Z" fill="white"/>
<path d="M77.0484 245.142C75.8738 260.523 73.9392 275.89 73.6842 291.287C73.1592 323.014 73.5305 354.757 73.5331 386.493C73.5331 387.785 73.5331 389.077 73.5331 390.37C73.7139 338.396 69.6213 286.282 77.76 235.074C81.6743 242.945 85.774 345.389 82.3013 364.521C82.3013 344.51 82.703 324.489 82.1877 304.493C81.6782 284.719 80.2441 264.972 79.2154 245.214C78.4935 245.19 77.7709 245.166 77.0484 245.142Z" fill="white"/>
<path d="M183.663 321.487C183.539 320.221 183.453 319.346 183.322 318.009C182.93 319.509 182.646 320.595 182.363 321.681C181.961 321.633 181.56 321.584 181.158 321.536C182.01 313.705 182.86 305.875 183.707 298.085C188.3 296.989 189.219 298.384 192.982 311.951C193.865 315.136 189.816 319.442 183.663 321.487Z" fill="white"/>
<path d="M207.541 316.657C207.452 318.359 207.389 319.568 207.318 320.934C206.814 320.961 206.27 321.161 206.003 320.978C203.068 318.976 199.926 317.167 197.361 314.778C195.667 313.2 202.198 297.402 204.542 296.842C205.242 296.675 206.059 296.978 207.216 297.111C208.156 305.261 209.09 313.354 210.024 321.447C209.59 321.525 209.155 321.602 208.721 321.68C208.366 320.169 208.011 318.658 207.541 316.657Z" fill="white"/>
<path d="M215.858 441.139C215.858 447.339 215.858 453.539 215.858 460.053C212.943 460.053 210.388 460.053 207.174 460.053C207.174 453.781 207.174 447.461 207.174 441.141L207.037 441.309C210.023 441.309 213.009 441.309 215.995 441.309L215.858 441.139Z" fill="white"/>
<path d="M204.907 441.139C204.907 447.34 204.907 453.541 204.907 460.053C202.029 460.053 199.469 460.053 196.22 460.053C196.22 453.779 196.22 447.46 196.22 441.141L196.088 441.309C199.074 441.308 202.06 441.307 205.046 441.307L204.907 441.139Z" fill="white"/>
<path d="M185.139 441.282C188.047 441.282 190.955 441.282 194.097 441.282C194.097 447.593 194.097 453.647 194.097 460.053C191.457 460.053 188.874 460.053 185.295 460.053C185.295 453.83 185.295 447.482 185.291 441.139C185.285 441.143 185.139 441.282 185.139 441.282Z" fill="white"/>
<path d="M174.189 441.277C177.093 441.277 179.996 441.277 183.148 441.277C183.148 447.571 183.148 453.633 183.148 460.053C180.55 460.053 177.977 460.053 174.344 460.053C174.344 453.831 174.344 447.483 174.339 441.139C174.334 441.143 174.189 441.277 174.189 441.277Z" fill="white"/>
<path d="M163.24 441.277C166.144 441.277 169.047 441.277 172.199 441.277C172.199 447.556 172.199 453.624 172.199 460.053C169.601 460.053 167.024 460.053 163.393 460.053C163.393 453.838 163.393 447.485 163.388 441.139C163.382 441.144 163.24 441.277 163.24 441.277Z" fill="white"/>
<path d="M152.291 441.283C155.197 441.283 158.103 441.283 161.249 441.283C161.249 447.603 161.249 453.653 161.249 460.053C158.621 460.053 156.044 460.053 152.447 460.053C152.447 453.826 152.447 447.48 152.443 441.139C152.438 441.143 152.291 441.283 152.291 441.283Z" fill="white"/>
<path d="M141.342 441.275C144.244 441.275 147.147 441.275 150.3 441.275C150.3 447.559 150.3 453.626 150.3 460.053C147.705 460.053 145.129 460.053 141.494 460.053C141.494 453.835 141.494 447.484 141.489 441.139C141.483 441.144 141.342 441.275 141.342 441.275Z" fill="white"/>
<path d="M130.395 441.27C133.293 441.27 136.191 441.27 139.353 441.27C139.353 447.529 139.353 453.609 139.353 460.053C136.795 460.053 134.23 460.053 130.543 460.053C130.543 453.842 130.543 447.487 130.538 441.139C130.532 441.145 130.395 441.27 130.395 441.27Z" fill="white"/>
<path d="M119.445 441.278C122.347 441.278 125.249 441.278 128.404 441.278C128.404 447.558 128.404 453.624 128.404 460.053C125.816 460.053 123.25 460.053 119.597 460.053C119.597 453.833 119.597 447.484 119.592 441.139C119.587 441.143 119.445 441.278 119.445 441.278Z" fill="white"/>
<path d="M108.496 441.281C111.398 441.281 114.301 441.281 117.454 441.281C117.454 447.578 117.454 453.638 117.454 460.053C114.852 460.053 112.277 460.053 108.651 460.053C108.651 453.831 108.651 447.483 108.646 441.139C108.641 441.143 108.496 441.281 108.496 441.281Z" fill="white"/>
<path d="M97.5469 441.273C100.446 441.273 103.345 441.273 106.505 441.273C106.505 447.531 106.505 453.607 106.505 460.053C103.932 460.053 101.363 460.053 97.6972 460.053C97.6972 453.842 97.6972 447.488 97.6913 441.139C97.686 441.143 97.5469 441.273 97.5469 441.273Z" fill="white"/>
<path d="M10.9492 441.261C13.8396 441.261 16.73 441.261 19.9076 441.261C19.9076 447.487 19.9076 453.579 19.9076 460.053C17.3915 460.053 14.8433 460.053 11.0908 460.053C11.0908 453.85 11.0908 447.491 11.0843 441.139C11.0777 441.145 10.9492 441.261 10.9492 441.261Z" fill="white"/>
<path d="M21.8984 441.271C24.7907 441.271 27.683 441.271 30.8568 441.271C30.8568 447.53 30.8568 453.608 30.8568 460.053C28.3241 460.053 25.7671 460.053 22.0461 460.053C22.0461 453.839 22.0461 447.486 22.0402 441.139C22.0349 441.145 21.8984 441.271 21.8984 441.271Z" fill="white"/>
<path d="M31.8516 441.269C35.0654 441.269 38.2793 441.269 41.8053 441.269C41.8053 447.523 41.8053 453.602 41.8053 460.053C38.9844 460.053 36.1431 460.053 32.0149 460.053C32.0149 453.838 32.0149 447.486 32.0083 441.139C32.0018 441.144 31.8516 441.269 31.8516 441.269Z" fill="white"/>
<path d="M86.5977 441.273C89.4941 441.273 92.3905 441.273 95.556 441.273C95.556 447.548 95.556 453.618 95.556 460.053C92.9845 460.053 90.421 460.053 86.7476 460.053C86.7476 453.837 86.7476 447.485 86.7424 441.139C86.7371 441.143 86.5977 441.273 86.5977 441.273Z" fill="white"/>
<path d="M75.6484 441.267C78.8631 441.267 82.0785 441.267 85.6021 441.267C85.6021 447.516 85.6021 453.596 85.6021 460.053C82.7711 460.053 79.9268 460.053 75.8106 460.053C75.8106 453.843 75.8106 447.488 75.8041 441.139C75.7968 441.145 75.6484 441.267 75.6484 441.267Z" fill="white"/>
<path d="M64.6992 441.275C67.9181 441.275 71.1371 441.275 74.6529 441.275C74.6529 447.558 74.6529 453.625 74.6529 460.053C71.7968 460.053 68.9487 460.053 64.8667 460.053C64.8667 453.833 64.8667 447.484 64.8609 441.139C64.8543 441.144 64.6992 441.275 64.6992 441.275Z" fill="white"/>
<path d="M53.75 441.266C56.9661 441.266 60.1822 441.266 63.7037 441.266C63.7037 447.507 63.7037 453.592 63.7037 460.053C60.8792 460.053 58.0357 460.053 53.9107 460.053C53.9107 453.846 53.9107 447.49 53.9034 441.139C53.8969 441.145 53.75 441.266 53.75 441.266Z" fill="white"/>
<path d="M42.8008 441.263C46.0124 441.263 49.224 441.263 52.7545 441.263C52.7545 447.503 52.7545 453.591 52.7545 460.053C49.9652 460.053 47.1322 460.053 42.961 460.053C42.961 453.842 42.961 447.487 42.9537 441.139C42.9464 441.145 42.8008 441.263 42.8008 441.263Z" fill="white"/>
<path d="M358.183 441.139C358.183 447.364 358.183 453.588 358.183 460.053C354.83 460.053 352.225 460.053 349.375 460.053C349.375 453.776 349.375 447.733 349.375 441.283C352.458 441.283 355.394 441.283 358.333 441.285C358.337 441.288 358.183 441.139 358.183 441.139Z" fill="white"/>
<path d="M368.808 441.139C368.808 447.364 368.808 453.588 368.808 460.053C365.455 460.053 362.85 460.053 360 460.053C360 453.776 360 447.733 360 441.283C363.083 441.283 366.019 441.283 368.958 441.285C368.962 441.288 368.808 441.139 368.808 441.139Z" fill="white"/>
<path d="M378.808 441.139C378.808 447.364 378.808 453.588 378.808 460.053C375.455 460.053 372.85 460.053 370 460.053C370 453.776 370 447.733 370 441.283C373.083 441.283 376.019 441.283 378.958 441.285C378.962 441.288 378.808 441.139 378.808 441.139Z" fill="white"/>
<path d="M390.832 441.051C390.832 447.305 390.832 453.558 390.832 460.053C387.089 460.053 384.181 460.053 381 460.053C381 453.747 381 447.675 381 441.195C384.441 441.195 387.719 441.195 391 441.198C391.004 441.201 390.832 441.051 390.832 441.051Z" fill="white"/>
<path d="M347.237 441.139C347.237 447.347 347.237 453.557 347.237 460.053C343.944 460.053 341.344 460.053 338.426 460.053C338.426 453.849 338.426 447.7 338.426 441.275C341.512 441.275 344.446 441.275 347.384 441.278C347.388 441.281 347.237 441.139 347.237 441.139Z" fill="white"/>
<path d="M336.288 441.139C336.288 447.337 336.288 453.535 336.288 460.053C333.009 460.053 330.17 460.053 326.634 460.053C326.634 453.775 326.634 447.458 326.634 441.142L326.48 441.307C329.798 441.308 333.117 441.309 336.434 441.31L336.288 441.139Z" fill="white"/>
<path d="M325.354 441.139C325.354 447.338 325.354 453.537 325.354 460.053C322.401 460.053 319.845 460.053 316.667 460.053C316.667 453.781 316.667 447.462 316.667 441.143L316.527 441.31C319.513 441.311 322.5 441.312 325.486 441.313L325.354 441.139Z" fill="white"/>
<path d="M314.382 441.139C314.382 447.362 314.382 453.585 314.382 460.053C311.054 460.053 308.443 460.053 305.578 460.053C305.578 453.781 305.578 447.74 305.578 441.285C308.646 441.285 311.589 441.285 314.536 441.287C314.54 441.29 314.382 441.139 314.382 441.139Z" fill="white"/>
<path d="M0.996094 460.053C0.996094 453.881 0.996094 448.106 0.996094 442.135C3.69604 442.135 6.1346 442.135 8.95906 442.135C8.95906 448.008 8.95906 453.884 8.95906 460.053C6.42468 460.053 3.88117 460.053 0.996094 460.053Z" fill="white"/>
<path d="M303.457 441.139C303.457 447.337 303.457 453.535 303.457 460.053C300.487 460.053 297.934 460.053 294.769 460.053C294.769 453.778 294.769 447.46 294.769 441.142L294.629 441.307C297.615 441.308 300.601 441.309 303.587 441.31L303.457 441.139Z" fill="white"/>
<path d="M292.505 441.142C292.505 447.34 292.505 453.539 292.505 460.053C289.576 460.053 287.025 460.053 283.817 460.053C283.817 453.772 283.817 447.455 283.817 441.139L283.68 441.307C286.666 441.308 289.652 441.309 292.638 441.31L292.505 441.142Z" fill="white"/>
<path d="M281.556 441.139C281.556 447.339 281.556 453.539 281.556 460.053C278.622 460.053 276.065 460.053 272.869 460.053C272.869 453.779 272.869 447.46 272.869 441.14L272.73 441.307C275.716 441.307 278.702 441.307 281.689 441.308L281.556 441.139Z" fill="white"/>
<path d="M270.607 441.139C270.607 447.339 270.607 453.539 270.607 460.053C267.671 460.053 265.117 460.053 261.922 460.053C261.922 453.776 261.922 447.457 261.922 441.14L261.783 441.309C264.77 441.309 267.756 441.309 270.742 441.309L270.607 441.139Z" fill="white"/>
<path d="M259.66 441.139C259.66 447.338 259.66 453.538 259.66 460.053C256.717 460.053 254.161 460.053 250.972 460.053C250.972 453.779 250.972 447.46 250.972 441.141L250.834 441.308C253.82 441.308 256.806 441.309 259.792 441.309L259.66 441.139Z" fill="white"/>
<path d="M248.707 441.139C248.707 447.338 248.707 453.536 248.707 460.053C245.801 460.053 243.245 460.053 240.019 460.053C240.019 453.773 240.019 447.457 240.019 441.139L239.885 441.307C242.871 441.307 245.857 441.307 248.843 441.306L248.707 441.139Z" fill="white"/>
<path d="M237.757 441.139C237.757 447.338 237.757 453.536 237.757 460.053C234.838 460.053 232.282 460.053 229.071 460.053C229.071 453.775 229.071 447.457 229.071 441.139L228.936 441.308C231.921 441.308 234.907 441.308 237.894 441.308L237.757 441.139Z" fill="white"/>
<path d="M226.807 441.139C226.807 447.336 226.807 453.534 226.807 460.053C223.903 460.053 221.35 460.053 218.123 460.053C218.123 453.772 218.123 447.455 218.123 441.139L217.986 441.309C220.972 441.309 223.959 441.309 226.945 441.309L226.807 441.139Z" fill="white"/>
<path d="M187.129 285.018C190.237 286.872 192.976 289.819 195.594 289.713C198.431 289.599 201.156 286.641 204.05 284.848C202.898 286.699 201.944 289.905 199.835 291.215C196.953 293.005 197.087 294.989 197.636 297.425C198.822 302.698 198.84 307.767 195.63 312.721C192.871 308.283 192.153 303.789 193.348 298.874C194.123 295.686 194.618 292.749 190.641 290.686C188.887 289.777 188.177 286.816 187.129 285.018Z" fill="white"/>
<path d="M310.555 310.73C312.321 310.73 313.794 310.73 315.532 310.73C315.532 313.362 315.532 315.849 315.532 318.693C313.994 318.693 312.444 318.693 310.555 318.693C310.555 316.15 310.555 313.449 310.555 310.73Z" fill="white"/>
<path d="M309.561 298.786C309.561 295.859 309.561 293.005 309.561 289.826C311.537 289.826 313.367 289.826 315.533 289.826C315.533 292.664 315.533 295.513 315.533 298.786C313.679 298.786 311.748 298.786 309.561 298.786Z" fill="white"/>
<path d="M309.561 362.494C311.794 362.494 313.524 362.494 315.533 362.494C315.533 365.181 315.533 367.677 315.533 370.457C313.535 370.457 311.708 370.457 309.561 370.457C309.561 367.796 309.561 365.307 309.561 362.494Z" fill="white"/>
<path d="M315.533 360.504C313.119 360.504 311.504 360.504 309.561 360.504C309.561 357.866 309.561 355.359 309.561 352.541C311.422 352.541 313.294 352.541 315.533 352.541C315.533 355.159 315.533 357.759 315.533 360.504Z" fill="white"/>
<path d="M315.533 341.59C315.533 344.756 315.533 347.556 315.533 350.549C313.44 350.549 311.622 350.549 309.561 350.549C309.561 347.512 309.561 344.707 309.561 341.59C311.498 341.59 313.318 341.59 315.533 341.59Z" fill="white"/>
<path d="M315.533 329.645C313.377 329.645 311.639 329.645 309.561 329.645C309.561 326.662 309.561 323.793 309.561 320.686C311.582 320.686 313.414 320.686 315.533 320.686C315.533 323.646 315.533 326.39 315.533 329.645Z" fill="white"/>
<path d="M74.6523 289.826C76.9302 289.826 78.5681 289.826 80.6246 289.826C80.6246 292.772 80.6246 295.652 80.6246 298.786C78.6523 298.786 76.7715 298.786 74.6523 298.786C74.6523 295.76 74.6523 292.986 74.6523 289.826Z" fill="white"/>
<path d="M309.561 339.598C309.561 336.814 309.561 334.375 309.561 331.635C311.561 331.635 313.381 331.635 315.533 331.635C315.533 334.197 315.533 336.735 315.533 339.598C313.684 339.598 311.861 339.598 309.561 339.598Z" fill="white"/>
<path d="M80.6253 350.549C78.8893 350.549 77.4304 350.549 75.6484 350.549C75.6484 347.623 75.6484 344.749 75.6484 341.59C77.2784 341.59 78.8224 341.59 80.6253 341.59C80.6253 344.475 80.6253 347.242 80.6253 350.549Z" fill="white"/>
<path d="M80.6253 329.645C78.9048 329.645 77.4274 329.645 75.6484 329.645C75.6484 326.644 75.6484 323.758 75.6484 320.686C77.3936 320.686 78.8642 320.686 80.6253 320.686C80.6253 323.573 80.6253 326.342 80.6253 329.645Z" fill="white"/>
<path d="M80.6253 319.69C78.9599 319.69 77.474 319.69 75.6484 319.69C75.6484 316.735 75.6484 313.832 75.6484 310.73C77.3138 310.73 78.8116 310.73 80.6253 310.73C80.6253 313.676 80.6253 316.573 80.6253 319.69Z" fill="white"/>
<path d="M75.6484 331.635C77.3885 331.635 78.8636 331.635 80.6253 331.635C80.6253 334.266 80.6253 336.773 80.6253 339.598C79.0921 339.598 77.5293 339.598 75.6484 339.598C75.6484 337.144 75.6484 334.655 75.6484 331.635Z" fill="white"/>
<path d="M74.6523 351.547C76.8184 351.547 78.5587 351.547 80.6246 351.547C80.6246 354.559 80.6246 357.37 80.6246 360.506C78.7255 360.506 76.8586 360.506 74.6523 360.506C74.6523 357.691 74.6523 354.882 74.6523 351.547Z" fill="white"/>
<path d="M75.6484 362.494C77.5059 362.494 78.9684 362.494 80.6253 362.494C80.6253 365.422 80.6253 368.134 80.6253 371.197C78.9567 371.283 77.5022 371.358 75.6484 371.453C75.6484 368.358 75.6484 365.53 75.6484 362.494Z" fill="white"/>
<path d="M310.555 279.869C312.091 279.869 313.3 279.869 314.802 279.869C315.042 282.491 315.271 284.984 315.532 287.832C313.698 287.832 312.249 287.832 310.555 287.832C310.555 285.292 310.555 282.687 310.555 279.869Z" fill="white"/>
<path d="M315.533 300.775C315.533 303.611 315.533 305.973 315.533 308.738C313.529 308.738 311.659 308.738 309.561 308.738C309.561 306.138 309.561 303.653 309.561 300.775C311.471 300.775 313.35 300.775 315.533 300.775Z" fill="white"/>
<path d="M80.1989 279.869C80.339 282.487 80.4738 285.007 80.6246 287.832C78.5586 287.832 76.897 287.832 74.6523 287.832C74.8117 285.211 74.9645 282.701 75.1365 279.869C76.8053 279.869 78.3155 279.869 80.1989 279.869Z" fill="white"/>
<path d="M80.6253 300.775C80.6253 303.475 80.6253 305.94 80.6253 308.738C78.9985 308.738 77.4843 308.738 75.6484 308.738C75.6484 306.245 75.6484 303.686 75.6484 300.775C77.1066 300.775 78.6299 300.775 80.6253 300.775Z" fill="white"/>
<path d="M310.555 372.451C312.523 372.451 313.897 372.451 315.532 372.451C315.532 375.306 315.532 378.071 315.532 380.835C315.118 381.026 314.704 381.218 314.291 381.411C313.106 378.568 311.92 375.726 310.555 372.451Z" fill="white"/>
<path d="M75.6484 381.065C75.6484 378.258 75.6484 375.452 75.6484 372.451C77.0424 372.451 78.5035 372.451 80.6253 372.451C79.3212 375.703 78.1763 378.557 77.0314 381.411C76.5704 381.296 76.1094 381.18 75.6484 381.065Z" fill="white"/>
<path d="M310.555 277.879C310.703 275.306 310.677 273.162 311.018 271.106C311.155 270.278 312.098 269.643 312.674 268.92C313.088 269.625 313.751 270.275 313.869 271.045C314.205 273.243 314.32 275.489 314.536 277.879C313.062 277.879 311.852 277.879 310.555 277.879Z" fill="white"/>
<path d="M79.6299 277.879C78.2276 277.879 77.2187 277.879 75.6484 277.879C76.0712 275.068 76.4582 272.492 76.8452 269.916C77.6451 270.427 78.9904 270.791 79.1413 271.476C79.5606 273.382 79.4831 275.422 79.6299 277.879Z" fill="white"/>
<path d="M21.8984 247.019C21.8984 242.602 21.8984 238.458 21.8984 234.078C25.3127 234.078 28.3978 234.078 31.8521 234.078C31.8521 238.364 31.8521 242.51 31.8521 247.019C28.7559 247.019 25.5373 247.019 21.8984 247.019Z" fill="white"/>
<path d="M31.8509 358.513C28.6299 358.513 25.9611 358.513 22.8926 358.513C22.8926 353.92 22.8926 349.409 22.8926 344.576C25.8565 344.576 28.7424 344.576 31.8509 344.576C31.8509 349.237 31.8509 353.652 31.8509 358.513Z" fill="white"/>
<path d="M31.8521 278.875C28.3408 278.875 25.2796 278.875 21.8984 278.875C21.8984 274.507 21.8984 270.375 21.8984 265.934C25.1921 265.934 28.3717 265.934 31.8521 265.934C31.8521 270.203 31.8521 274.346 31.8521 278.875Z" fill="white"/>
<path d="M22.8926 376.432C26.0347 376.432 28.7339 376.432 31.8509 376.432C31.8509 380.978 31.8509 385.491 31.8509 390.368C29.0929 390.368 26.1753 390.368 22.8926 390.368C22.8926 385.893 22.8926 381.378 22.8926 376.432Z" fill="white"/>
<path d="M31.8509 297.789C31.8509 302.22 31.8509 306.272 31.8509 310.73C28.9498 310.73 26.1076 310.73 22.8926 310.73C22.8926 306.519 22.8926 302.257 22.8926 297.789C25.834 297.789 28.5917 297.789 31.8509 297.789Z" fill="white"/>
<path d="M31.8521 313.717C31.8521 317.935 31.8521 322.158 31.8521 326.658C28.4964 326.658 25.3387 326.658 21.8984 326.658C21.8984 322.383 21.8984 318.279 21.8984 313.717C25.0372 313.717 28.3135 313.717 31.8521 313.717Z" fill="white"/>
<path d="M21.8984 294.801C21.8984 290.45 21.8984 286.263 21.8984 281.859C25.3024 281.859 28.398 281.859 31.8521 281.859C31.8521 286.153 31.8521 290.331 31.8521 294.801C28.5825 294.801 25.3806 294.801 21.8984 294.801Z" fill="white"/>
<path d="M22.8926 360.504C26.0649 360.504 28.76 360.504 31.8509 360.504C31.8509 365.047 31.8509 369.545 31.8509 374.441C29.0577 374.441 26.1401 374.441 22.8926 374.441C22.8926 369.968 22.8926 365.465 22.8926 360.504Z" fill="white"/>
<path d="M31.8521 329.645C31.8521 334.08 31.8521 338.187 31.8521 342.586C28.4588 342.586 25.3099 342.586 21.8984 342.586C21.8984 338.207 21.8984 334.104 21.8984 329.645C25.1499 329.645 28.293 329.645 31.8521 329.645Z" fill="white"/>
<path d="M31.8509 250.006C31.8509 254.529 31.8509 258.618 31.8509 262.947C28.8323 262.947 26.0526 262.947 22.8926 262.947C22.8926 258.719 22.8926 254.535 22.8926 250.006C25.7891 250.006 28.6662 250.006 31.8509 250.006Z" fill="white"/>
<path d="M21.8984 405.301C21.8984 400.959 21.8984 396.854 21.8984 392.359C25.1757 392.359 28.3422 392.359 31.8521 392.359C31.8521 396.583 31.8521 400.802 31.8521 405.301C28.6519 405.301 25.5926 405.301 21.8984 405.301Z" fill="white"/>
<path d="M22.8034 218.15C25.6702 218.15 28.019 218.15 30.9593 218.15C31.252 222.389 31.5386 226.541 31.8521 231.092C28.483 231.092 25.5778 231.092 21.8984 231.092C22.1891 226.948 22.4784 222.807 22.8034 218.15Z" fill="white"/>
<path d="M30.8555 216.159C27.9801 216.159 25.7621 216.159 22.8926 216.159C23.3401 211.593 23.7643 207.265 24.1943 202.879C27.9648 201.48 29.8303 202.2 29.8844 206.18C29.9275 209.361 30.4819 212.534 30.8555 216.159Z" fill="white"/>
<path d="M28.8662 199.999C27.457 200.081 26.4174 200.142 24.8848 200.232C25.3323 195.384 25.7461 190.897 26.16 186.41C26.5907 186.372 27.0214 186.333 27.4514 186.295C27.912 190.754 28.3726 195.213 28.8662 199.999Z" fill="white"/>
<path d="M359.328 247.019C359.328 242.722 359.328 238.554 359.328 234.078C362.282 234.078 365.133 234.078 368.286 234.078C368.286 238.315 368.286 242.474 368.286 247.019C365.566 247.019 362.721 247.019 359.328 247.019Z" fill="white"/>
<path d="M368.286 390.368C365.08 390.368 362.32 390.368 359.328 390.368C359.328 385.674 359.328 381.227 359.328 376.432C362.236 376.432 365.1 376.432 368.286 376.432C368.286 380.967 368.286 385.526 368.286 390.368Z" fill="white"/>
<path d="M359.328 358.513C359.328 353.795 359.328 349.331 359.328 344.576C362.358 344.576 365.191 344.576 368.286 344.576C368.286 349.243 368.286 353.697 368.286 358.513C365.466 358.513 362.643 358.513 359.328 358.513Z" fill="white"/>
<path d="M368.286 278.875C365.125 278.875 362.384 278.875 359.328 278.875C359.328 274.523 359.328 270.345 359.328 265.934C362.342 265.934 365.191 265.934 368.286 265.934C368.286 270.243 368.286 274.321 368.286 278.875Z" fill="white"/>
<path d="M368.286 310.73C365.187 310.73 362.351 310.73 359.328 310.73C359.328 306.32 359.328 302.19 359.328 297.789C362.34 297.789 365.171 297.789 368.286 297.789C368.286 301.997 368.286 306.13 368.286 310.73Z" fill="white"/>
<path d="M368.286 312.721C368.286 317.596 368.286 321.946 368.286 326.657C365.32 326.657 362.492 326.657 359.328 326.657C359.328 322.173 359.328 317.594 359.328 312.721C362.245 312.721 365.092 312.721 368.286 312.721Z" fill="white"/>
<path d="M368.286 329.645C368.286 333.962 368.286 338.069 368.286 342.586C365.351 342.586 362.508 342.586 359.328 342.586C359.328 338.473 359.328 334.238 359.328 329.645C362.08 329.645 364.93 329.645 368.286 329.645Z" fill="white"/>
<path d="M359.328 281.859C362.481 281.859 365.243 281.859 368.286 281.859C368.286 286.219 368.286 290.366 368.286 294.801C365.325 294.801 362.469 294.801 359.328 294.801C359.328 290.569 359.328 286.426 359.328 281.859Z" fill="white"/>
<path d="M368.286 374.441C365.248 374.441 362.454 374.441 359.328 374.441C359.328 369.869 359.328 365.381 359.328 360.504C362.159 360.504 365.047 360.504 368.286 360.504C368.286 364.9 368.286 369.379 368.286 374.441Z" fill="white"/>
<path d="M359.328 262.947C359.328 258.481 359.328 254.401 359.328 250.006C362.326 250.006 365.158 250.006 368.286 250.006C368.286 254.244 368.286 258.437 368.286 262.947C365.395 262.947 362.566 262.947 359.328 262.947Z" fill="white"/>
<path d="M359.328 392.359C362.445 392.359 365.225 392.359 368.286 392.359C368.286 396.71 368.286 400.86 368.286 405.301C365.302 405.301 362.431 405.301 359.328 405.301C359.328 400.949 359.328 396.689 359.328 392.359Z" fill="white"/>
<path d="M369.283 232.087C365.295 232.087 362.226 232.087 358.334 232.087C358.65 227.372 358.954 222.85 359.27 218.15C362.419 218.15 364.975 218.15 368.047 218.15C368.45 222.69 368.84 227.09 369.283 232.087Z" fill="white"/>
<path d="M361.595 202.223C363.356 202.223 364.469 202.223 366.006 202.223C366.431 206.832 366.848 211.351 367.292 216.159C364.873 216.159 362.825 216.159 360.324 216.159C360.75 211.494 361.16 206.997 361.595 202.223Z" fill="white"/>
<path d="M364.556 186.295C365.124 190.84 365.692 195.386 366.297 200.232C364.555 200.232 363.232 200.232 361.32 200.232C361.868 195.503 362.392 190.987 362.916 186.471C363.463 186.412 364.009 186.354 364.556 186.295Z" fill="white"/>
<path d="M463.326 300.633C460.992 300.633 458.841 300.633 456.511 300.633C457.481 286.722 458.446 272.884 459.411 259.047C459.13 258.988 458.849 258.928 458.567 258.869C458.376 259.37 458.049 259.861 458.013 260.374C457.157 272.382 456.321 284.392 455.506 296.403C455.179 301.234 455.062 301.349 449.779 300.666C449.987 298.284 450.211 295.884 450.406 293.482C451.61 278.639 452.946 263.805 453.973 248.95C455.151 231.922 456.346 214.885 456.989 197.832C457.576 182.275 457.455 166.692 457.596 151.121C457.626 147.856 456.139 145.107 454.297 142.502C453.377 141.202 452.644 139.77 451.794 138.342C456.129 136.77 460.888 139.937 461.609 144.592C461.784 145.727 461.778 146.899 461.756 148.053C461.448 164.241 461.116 180.428 460.807 196.617C460.761 199.037 460.801 201.459 460.801 203.88C461.085 203.926 461.37 203.972 461.655 204.018C461.799 203.41 462.055 202.805 462.07 202.193C462.213 196.55 462.335 190.905 462.424 185.26C462.627 172.403 462.79 159.546 463.014 146.69C463.055 144.327 462.36 142.291 460.933 140.446C460.444 139.814 460.055 139.104 459.34 137.993C462.286 137.993 464.843 137.993 467.672 137.993C467.279 159.816 466.885 181.749 466.487 203.841C468.719 203.841 470.79 203.841 473.02 203.841C473.049 203.341 473.105 202.829 473.105 202.317C473.113 181.77 473.105 161.223 473.153 140.676C473.155 139.622 472.458 137.777 474.376 137.804C476.225 137.831 475.352 139.61 475.354 140.563C475.409 160.838 475.396 181.113 475.396 201.388C475.396 202.187 475.396 202.988 475.396 203.89C477.724 203.89 479.811 203.89 482.199 203.89C482.199 203.001 482.215 202.155 482.196 201.31C481.757 181.178 481.309 161.045 480.877 140.912C480.808 137.72 480.892 137.662 483.999 137.657C485.681 137.655 487.363 137.657 489.471 137.657C488.862 138.556 488.527 139.192 488.063 139.713C486.248 141.748 485.436 144.144 485.486 146.828C485.826 165.398 486.181 183.968 486.561 202.537C486.572 203.049 486.921 203.554 487.113 204.062C487.324 203.991 487.536 203.919 487.747 203.848C487.765 203.531 487.804 203.213 487.797 202.896C487.397 184.804 487.011 166.711 486.568 148.62C486.496 145.651 487.148 142.966 488.845 140.531C490.71 137.858 493.008 137.075 496.712 138.136C495.969 139.539 495.438 141.009 494.524 142.18C492.118 145.262 490.891 148.713 490.923 152.578C491.034 165.974 490.988 179.376 491.408 192.763C491.824 206.017 492.528 219.27 493.47 232.497C495.057 254.742 496.933 276.966 498.682 299.199C498.713 299.591 498.686 299.988 498.686 300.516C497.034 300.516 495.431 300.516 493.408 300.516C492.388 286.653 491.367 272.762 490.346 258.871C489.955 258.9 489.564 258.93 489.173 258.96C490.149 272.815 491.124 286.67 492.11 300.665C489.807 300.665 487.667 300.665 485.274 300.665C484.704 286.794 484.136 272.963 483.563 259.02C480.829 259.02 478.289 259.02 475.517 259.02C475.517 259.937 475.517 260.734 475.517 261.53C475.517 273.776 475.517 286.023 475.516 298.27C475.516 298.814 475.65 299.414 475.463 299.886C475.305 300.281 474.778 300.763 474.402 300.775C474.013 300.787 473.386 300.353 473.26 299.98C473.051 299.364 473.141 298.639 473.141 297.96C473.138 285.849 473.141 273.739 473.142 261.628C473.142 260.822 473.142 260.015 473.142 259.054C470.439 259.054 467.896 259.054 465.092 259.054C464.505 272.874 463.918 286.7 463.326 300.633ZM466.349 207.913C465.964 223.49 465.586 238.811 465.207 254.125C467.942 254.125 470.473 254.125 473.038 254.125C473.038 238.605 473.038 223.276 473.038 207.913C470.733 207.913 468.585 207.913 466.349 207.913ZM483.403 254.17C482.979 238.621 482.561 223.307 482.142 207.938C479.849 207.938 477.785 207.938 475.62 207.938C475.62 223.384 475.62 238.704 475.62 254.17C478.183 254.17 480.654 254.17 483.403 254.17ZM487.634 207.726C487.371 207.839 487.108 207.953 486.846 208.066C486.846 208.396 486.833 208.726 486.848 209.055C487.48 223.437 488.115 237.819 488.753 252.201C488.771 252.607 488.744 253.041 488.88 253.41C488.998 253.729 489.317 253.974 489.547 254.252C489.769 253.913 490.087 253.599 490.186 253.226C490.285 252.852 490.167 252.42 490.145 252.013C489.777 245.301 489.362 238.592 489.055 231.877C488.714 224.416 488.483 216.949 488.167 209.486C488.14 208.893 487.818 208.313 487.634 207.726ZM458.713 254.273C458.923 254.287 459.133 254.301 459.344 254.316C459.458 253.861 459.654 253.41 459.676 252.95C460.361 238.482 461.036 224.014 461.672 209.544C461.697 208.989 461.313 208.417 461.12 207.852C460.885 208.395 460.468 208.93 460.443 209.482C459.783 223.815 459.161 238.15 458.548 252.485C458.522 253.077 458.654 253.677 458.713 254.273Z" fill="white"/>
<path d="M385.262 459.741C386.836 458.667 388.119 457.798 389.396 456.918C399.988 449.61 409.727 441.381 417.026 430.635C421.053 424.706 423.849 418.225 424.255 410.958C424.78 401.567 420.975 394.34 412.988 389.362C411.379 388.36 409.677 387.509 407.878 385.995C411.213 385.141 414.505 383.994 417.892 383.489C427.921 381.997 437.447 384.304 446.87 387.57C450.318 388.766 451.963 390.787 452.708 394.293C455.036 405.256 454.993 416.325 454.509 427.411C454.087 437.085 452.687 446.628 449.754 455.901C448.415 460.134 448.024 460.381 443.39 459.585C443.743 458.705 444.075 457.861 444.422 457.022C447.032 450.714 449.304 444.281 449.614 437.408C449.747 434.473 449.475 431.381 448.661 428.571C446.722 421.878 440.556 419.35 434.239 422.328C430.699 423.998 427.981 426.633 425.768 429.804C422.926 433.875 420.282 438.093 417.28 442.04C413.047 447.604 408.606 453.012 404.142 458.395C403.493 459.178 402.24 459.858 401.245 459.889C396.352 460.04 391.451 459.959 386.554 459.949C386.243 459.948 385.933 459.852 385.262 459.741Z" fill="white"/>
<path d="M540.51 386.554C539.137 387.353 537.969 388.033 536.802 388.713C526.29 394.836 522.262 404.331 525.081 416.234C527.337 425.761 532.788 433.375 539.387 440.313C545.792 447.047 552.944 452.882 560.697 457.993C561.429 458.476 562.15 458.976 562.871 459.464C562.768 459.656 562.712 459.861 562.65 459.863C558.45 459.974 554.248 460.166 550.048 460.134C547.117 460.111 544.546 458.773 542.688 456.623C539.227 452.618 535.899 448.482 532.752 444.225C529.236 439.471 526.008 434.504 522.605 429.665C520.468 426.624 517.901 424.03 514.468 422.424C507.66 419.24 501.504 422.098 499.594 429.359C497.84 436.028 499.286 442.461 501.217 448.811C502.319 452.435 503.705 455.973 505 459.658C504.436 459.731 504.046 459.802 503.653 459.83C500.295 460.065 500.367 460.037 499.222 456.847C496.092 448.124 494.569 439.097 494.185 429.881C493.678 417.713 493.258 405.545 495.984 393.517C496.639 390.624 498.127 388.911 500.912 387.9C509.485 384.787 518.208 382.652 527.413 383.085C532.167 383.308 537.912 384.791 540.51 386.554Z" fill="white"/>
<path d="M498.598 459.696C497.038 459.696 495.633 459.696 493.766 459.696C493.026 455.664 492.233 451.559 491.528 447.44C490.784 443.087 490.358 438.665 489.374 434.37C487.791 427.462 484.037 422.314 476.614 420.869C470.477 419.675 464.464 422.772 461.288 428.546C459.138 432.454 458.635 436.781 457.978 441.086C457.035 447.26 455.988 453.417 454.974 459.649C453.11 459.649 451.575 459.649 450.15 459.649C451.423 454.084 452.884 448.565 453.929 442.969C457.14 425.779 456.673 408.595 453.329 391.475C452.986 389.719 453.236 388.727 454.889 387.917C468.109 381.439 481.223 381.862 494.293 388.346C495.328 388.859 495.501 389.469 495.284 390.612C491.189 412.101 491.46 433.472 497.19 454.674C497.632 456.306 498.102 457.931 498.598 459.696Z" fill="white"/>
<path d="M382.688 386.849C383.474 386.017 383.985 385.01 384.739 384.772C386.593 384.187 388.578 383.562 390.476 383.653C397.676 383.998 404.607 385.577 410.947 389.187C421.078 394.955 424.948 404.029 422.261 416.088C421.605 419.027 420.422 421.848 419.379 425.034C418.929 424.508 418.808 424.43 418.785 424.331C417.942 420.618 416.393 420.006 413.567 422.535C411.967 423.967 410.488 425.65 409.353 427.468C401.329 440.325 390.547 450.287 377.578 457.954C376.038 458.864 374.208 459.685 372.47 459.782C367.88 460.035 363.267 459.867 358.561 459.867C358.561 457.641 358.561 455.562 358.561 453.304C360.005 453.019 361.458 452.761 362.898 452.444C382.838 448.049 397.091 436.537 405.667 418.045C407.402 414.305 408.114 410.268 407.665 406.108C406.639 396.591 400.513 391.517 392.099 388.68C389.318 387.742 386.293 387.525 382.688 386.849Z" fill="white"/>
<path d="M590.157 453.082C590.157 455.407 590.157 457.507 590.157 459.766C589.63 459.831 589.118 459.945 588.606 459.949C586.157 459.969 583.679 459.718 581.265 460.008C576.29 460.607 572.177 458.83 568.1 456.241C556.964 449.168 547.667 440.274 540.426 429.232C539.272 427.474 537.999 425.791 536.714 424.124C536.222 423.485 535.575 422.954 534.947 422.436C532.229 420.193 530.472 420.773 529.676 424.151C524.45 416.246 522.117 400.761 533.83 391.774C541.846 385.624 551.211 383.315 561.259 383.871C563.785 384.011 564.851 384.951 565.513 386.783C561.896 387.649 558.119 388.169 554.626 389.458C542.687 393.862 538.005 404.239 542.315 416.237C547.679 431.172 558.198 441.278 572.237 448.069C577.848 450.782 583.64 452.852 590.157 453.082Z" fill="white"/>
<path d="M463.286 68.1803C463.286 54.1526 463.286 40.294 463.286 26.2402C470.568 26.2402 477.852 26.2402 485.245 26.2402C485.245 40.1613 485.245 54.0183 485.245 68.0406C483.749 68.0406 482.242 68.0406 480.412 68.0406C480.412 60.5251 480.412 53.0541 480.412 45.583C480.166 45.5536 479.919 45.5243 479.673 45.4949C479.501 46.4807 479.187 47.4658 479.18 48.4533C479.136 54.3033 479.164 60.1536 479.167 66.004C479.168 68.4076 479.136 68.4317 476.333 68.0239C476.333 65.1569 476.333 62.2507 476.333 59.3441C476.333 55.3981 476.257 51.4497 476.369 47.5066C476.415 45.868 475.823 45.3859 474.269 45.3324C472.53 45.2724 472.298 46.0937 472.313 47.5634C472.376 53.686 472.25 59.8115 472.387 65.9317C472.436 68.0905 471.653 68.6114 469.448 68.0345C469.292 60.5994 469.574 53.0292 469.282 45.4867C468.969 45.4789 468.656 45.4716 468.343 45.4638C468.262 46.1244 468.111 46.7845 468.109 47.4454C468.09 53.4325 468.098 59.4196 468.097 65.4067C468.096 68.3113 468.094 68.3146 465.163 68.2762C464.624 68.2697 464.086 68.2227 463.286 68.1803ZM467.953 41.7779C468.227 41.8571 468.502 41.9359 468.776 42.0151C468.99 41.4093 469.357 40.8104 469.387 40.1956C469.476 38.3651 469.39 36.5264 469.452 34.6939C469.555 31.6644 471.242 29.9588 474.106 29.8984C477.042 29.8367 478.974 31.5905 479.128 34.5971C479.226 36.4946 479.117 38.4023 479.183 40.3026C479.201 40.8361 479.511 41.3599 479.818 42.2792C480.8 39.8168 480.781 33.7407 479.933 32.0126C478.78 29.662 476.814 28.4508 474.237 28.3626C471.856 28.2814 469.256 29.9821 468.459 32.2029C467.332 35.3454 467.785 38.5762 467.953 41.7779ZM476.165 41.8412C476.165 39.2669 476.294 36.9008 476.085 34.5653C476.025 33.8958 474.904 32.7483 474.423 32.8217C473.669 32.9369 472.526 33.8521 472.46 34.52C472.221 36.9028 472.366 39.324 472.366 41.8412C473.675 41.8412 474.795 41.8412 476.165 41.8412Z" fill="white"/>
<path d="M484.75 114.475C484.75 117.203 484.731 119.845 484.76 122.487C484.771 123.498 484.577 124.176 483.357 124.256C482.041 124.342 481.901 123.49 481.878 122.585C481.826 120.479 481.786 118.369 481.86 116.264C481.917 114.658 481.216 114.078 479.683 114.179C478.618 114.248 477.545 114.192 476.214 114.192C476.214 117.652 476.214 120.81 476.214 124.051C474.88 124.051 473.81 124.051 472.422 124.051C472.422 121.477 472.322 118.915 472.458 116.365C472.543 114.768 472.005 114.105 470.434 114.164C469.292 114.207 468.147 114.173 466.803 114.173C466.803 117.559 466.803 120.794 466.803 124.097C465.817 124.097 465.033 124.097 464.055 124.097C464.055 121.433 463.982 118.857 464.083 116.289C464.141 114.8 463.617 114.187 462.131 114.166C460.711 114.146 459.744 114.446 459.766 116.13C459.797 118.371 459.768 120.613 459.75 122.854C459.74 124.165 459.101 124.538 457.808 124.006C457.773 123.512 457.704 122.98 457.704 122.448C457.697 109.93 457.699 97.4114 457.699 84.893C457.699 84.8248 457.675 84.7444 457.703 84.6909C457.999 84.1223 458.303 83.5581 458.605 82.9927C458.996 83.5842 459.706 84.1651 459.726 84.7689C459.83 87.8947 459.804 91.0275 459.725 94.1549C459.689 95.5874 459.911 96.4263 461.659 96.461C463.376 96.4953 464.016 95.8169 464.013 94.2195C464.008 91.1581 464.019 88.0964 464.039 85.0351C464.046 84.0529 463.754 82.9196 465.437 82.9478C467.025 82.9747 466.682 84.0647 466.689 84.9489C466.714 88.0103 466.694 91.072 466.705 94.1337C466.707 94.7983 466.768 95.4625 466.807 96.2345C468.671 96.2345 470.393 96.2345 472.339 96.2345C472.339 92.7282 472.338 89.3444 472.339 85.9609C472.339 82.742 472.34 82.742 476.034 83.1454C476.034 86.0589 476.034 89.021 476.034 91.9828C476.034 96.8762 476.034 96.8766 481.015 96.3582C481.145 96.3447 481.269 96.2802 481.742 96.1292C481.742 94.2423 481.742 92.2359 481.742 90.2294C481.742 88.3924 481.799 86.5533 481.723 84.7195C481.672 83.4973 482.127 82.9629 483.348 82.9813C484.622 83 484.69 83.8067 484.683 84.7783C484.662 88.0437 484.755 91.312 484.646 94.5742C484.59 96.2504 485.427 96.4304 486.765 96.4668C488.189 96.5051 488.65 96.0018 488.609 94.5738C488.515 91.3108 488.613 88.0429 488.567 84.7779C488.547 83.3601 489.023 82.7139 490.661 83.1641C490.707 83.7181 490.798 84.3084 490.799 84.8991C490.807 97.3494 490.805 109.8 490.805 122.25C490.805 122.454 490.878 122.707 490.786 122.854C490.482 123.333 490.117 123.774 489.776 124.23C489.415 123.792 488.773 123.372 488.743 122.912C488.621 121.083 488.69 119.242 488.69 117.405C488.689 113.973 488.583 113.885 484.75 114.475ZM476.399 99.3232C476.399 103.355 476.399 107.183 476.399 111.049C478.171 111.049 479.812 111.049 481.499 111.049C481.499 107.062 481.499 103.239 481.499 99.3232C479.763 99.3232 478.165 99.3232 476.399 99.3232ZM472.116 99.3783C470.329 99.3783 468.692 99.3783 467.078 99.3783C467.078 103.43 467.078 107.259 467.078 111.139C468.805 111.139 470.399 111.139 472.116 111.139C472.116 107.202 472.116 103.374 472.116 99.3783ZM488.68 99.3983C487.336 99.3983 486.165 99.3983 484.951 99.3983C484.951 103.405 484.951 107.257 484.951 111.246C486.336 111.109 488.366 112.619 488.595 110.16C488.926 106.615 488.68 103.016 488.68 99.3983ZM463.708 111.156C463.708 107.107 463.708 103.274 463.708 99.2954C462.848 99.2513 462.098 99.1023 461.391 99.2146C460.896 99.2929 460.061 99.7191 460.054 100.007C459.963 103.71 459.994 107.417 459.994 111.156C461.382 111.156 462.457 111.156 463.708 111.156Z" fill="white"/>
<path d="M450 135.498C450 132.508 450 129.55 450 126.459C466.203 126.459 482.351 126.459 498.654 126.459C498.654 129.423 498.654 132.374 498.654 135.498C482.503 135.498 466.308 135.498 450 135.498Z" fill="white"/>
<path d="M493.275 81.131C480.574 81.131 467.961 81.131 455.224 81.131C455.224 77.5504 455.224 74.0499 455.224 70.3848C467.912 70.3848 480.52 70.3848 493.275 70.3848C493.275 73.9127 493.275 77.4692 493.275 81.131Z" fill="white"/>
<path d="M446.663 374.313C447.018 372.319 447.359 370.52 447.652 368.713C447.832 367.602 448.363 367.082 449.557 367.084C466.34 367.117 483.123 367.121 499.907 367.137C500.036 367.137 500.165 367.212 500.548 367.329C501.016 369.512 501.511 371.822 502.045 374.313C483.56 374.313 465.205 374.313 446.663 374.313Z" fill="white"/>
<path d="M452.007 341.633C452.266 339.51 452.511 337.504 452.771 335.381C467.03 335.381 481.216 335.381 495.655 335.381C495.928 337.387 496.207 339.437 496.506 341.633C481.59 341.633 466.871 341.633 452.007 341.633Z" fill="white"/>
<path d="M492.929 309.572C488.403 309.572 484.333 309.572 480.263 309.572C473.059 309.571 465.855 309.59 458.652 309.56C456.155 309.549 455.859 309.184 455.885 306.675C455.931 302.105 455.931 302.109 460.514 302.11C470.436 302.111 480.359 302.141 490.28 302.074C491.826 302.064 492.509 302.461 492.522 304.078C492.536 305.816 492.769 307.553 492.929 309.572Z" fill="white"/>
<path d="M500.219 365.722C496.732 365.722 493.627 365.722 490.239 365.722C489.395 358.324 488.553 350.946 487.7 343.475C490.526 343.475 493.485 343.475 496.673 343.475C497.845 350.824 499.014 358.16 500.219 365.722Z" fill="white"/>
<path d="M458.497 365.74C455.043 365.74 451.876 365.74 448.474 365.74C448.843 363.106 449.181 360.577 449.552 358.054C450.173 353.828 450.875 349.614 451.417 345.378C451.611 343.867 452.236 343.203 453.74 343.229C455.899 343.267 458.059 343.239 460.489 343.239C459.819 350.808 459.164 358.203 458.497 365.74Z" fill="white"/>
<path d="M495.44 333.806C492.772 333.806 490.289 333.897 487.826 333.722C487.383 333.691 486.698 332.579 486.667 331.941C486.358 325.632 486.178 319.318 485.927 313.006C485.867 311.513 486.312 310.671 487.983 310.751C489.603 310.829 491.23 310.768 493.125 310.768C493.891 318.388 494.646 325.911 495.44 333.806Z" fill="white"/>
<path d="M510.271 365.899C507.766 365.899 505.543 365.97 503.327 365.874C501.86 365.81 501.01 364.922 500.802 363.419C499.938 357.172 499.035 350.929 498.209 344.676C498.15 344.228 498.472 343.419 498.822 343.275C502.037 341.948 505.049 343.402 505.857 346.748C507.364 352.999 508.753 359.278 510.271 365.899Z" fill="white"/>
<path d="M450.565 343.095C449.398 350.861 448.283 358.285 447.165 365.729C444.14 365.729 441.433 365.729 438.466 365.729C439.135 362.63 439.802 359.622 440.431 356.607C441.194 352.952 441.947 349.295 442.66 345.631C443.015 343.802 443.976 342.919 445.909 343.074C447.251 343.182 448.608 343.095 450.565 343.095Z" fill="white"/>
<path d="M462.702 311.02C462.232 318.557 461.764 326.051 461.285 333.723C458.503 333.723 455.895 333.723 453.041 333.723C453.851 326.132 454.648 318.664 455.463 311.02C457.862 311.02 460.17 311.02 462.702 311.02Z" fill="white"/>
<path d="M474.687 0.161533C474.783 2.14349 474.962 4.12668 474.946 6.10783C474.934 7.5893 475.412 8.35922 476.899 8.89645C482.668 10.9797 483.344 12.3391 482.097 18.6695C476.891 18.6695 471.656 18.6695 466.248 18.6695C466.248 16.7255 466.11 14.8338 466.285 12.9718C466.478 10.9343 468.043 10.0538 469.833 9.52146C473.274 8.49802 473.874 7.64278 473.857 4.01319C473.851 2.72196 473.981 1.43032 474.05 0.138672C474.263 0.146428 474.475 0.154185 474.687 0.161533Z" fill="white"/>
<path d="M503.615 333.752C501.227 333.752 499.082 333.752 496.763 333.752C495.936 326.219 495.116 318.755 494.265 311.014C496.225 311.014 497.999 311.014 500.055 311.014C501.211 318.394 502.39 325.928 503.615 333.752Z" fill="white"/>
<path d="M454.242 310.789C453.4 318.548 452.596 325.965 451.772 333.561C449.519 333.561 447.339 333.561 445.014 333.561C446.143 326.287 447.235 319.118 448.419 311.964C448.493 311.512 449.251 310.897 449.745 310.843C451.141 310.69 452.565 310.789 454.242 310.789Z" fill="white"/>
<path d="M444.087 384.857C444.723 382.178 445.209 379.71 445.943 377.318C446.136 376.688 447.073 375.888 447.702 375.857C450.744 375.705 453.798 375.788 457.253 375.788C456.765 378.866 456.513 381.82 455.78 384.649C455.187 386.938 453.003 387.815 450.522 387.256C450.06 387.152 449.601 387.014 449.159 386.844C447.519 386.215 445.888 385.565 444.087 384.857Z" fill="white"/>
<path d="M491.382 375.768C494.754 375.768 497.869 375.667 500.967 375.849C501.622 375.888 502.565 376.864 502.774 377.582C503.451 379.916 503.849 382.331 504.407 384.963C502.164 385.803 500.007 386.792 497.748 387.405C495.461 388.026 493.015 386.326 492.589 383.973C492.11 381.327 491.798 378.65 491.382 375.768Z" fill="white"/>
<path d="M483.399 24.5029C477.325 24.5029 471.326 24.5029 465.342 24.5029C465.229 24.218 465.116 24.0388 465.089 23.8474C464.621 20.5639 464.794 20.3594 468.018 20.3586C472.287 20.3574 476.555 20.3566 480.823 20.359C483.733 20.3606 483.871 20.5129 483.613 23.493C483.585 23.8163 483.48 24.1331 483.399 24.5029Z" fill="white"/>
<path d="M505.716 384.432C504.97 381.52 504.276 378.808 503.506 375.797C506.54 375.797 509.233 375.738 511.919 375.848C512.432 375.87 513.179 376.459 513.368 376.957C513.986 378.586 514.396 380.293 514.943 382.163C511.874 382.918 508.949 383.637 505.716 384.432Z" fill="white"/>
<path d="M442.813 384.398C439.586 383.612 436.641 382.893 433.746 382.188C433.722 381.876 433.678 381.742 433.707 381.626C435.077 375.99 435.078 375.99 440.826 375.99C442.107 375.99 443.388 375.99 444.929 375.99C444.543 377.544 444.212 378.896 443.872 380.245C443.544 381.548 443.208 382.85 442.813 384.398Z" fill="white"/>
<path d="M435.852 374.699C436.607 372 437.261 369.664 437.935 367.258C440.83 367.258 443.576 367.258 446.671 367.258C446.216 369.496 445.866 371.616 445.303 373.678C445.181 374.125 444.31 374.63 443.764 374.653C441.26 374.757 438.75 374.699 435.852 374.699Z" fill="white"/>
<path d="M512.717 374.633C509.808 374.633 507.237 374.706 504.677 374.574C504.129 374.546 503.299 373.861 503.151 373.325C502.613 371.383 502.309 369.376 501.869 367.147C504.141 367.147 506.222 367.07 508.294 367.172C509.934 367.252 511.086 368.146 511.517 369.796C511.908 371.289 512.262 372.791 512.717 374.633Z" fill="white"/>
<path d="M475.438 322.57C475.439 325.767 475.44 328.963 475.438 332.16C475.438 332.965 475.586 334.057 474.345 333.784C473.831 333.671 473.152 332.712 473.145 332.13C473.066 325.466 473.081 318.801 473.154 312.136C473.159 311.683 473.827 311.238 474.187 310.789C474.603 311.248 475.367 311.696 475.381 312.167C475.484 315.632 475.436 319.102 475.438 322.57Z" fill="white"/>
<path d="M475.443 354.422C475.442 357.675 475.489 360.93 475.396 364.181C475.381 364.706 474.75 365.213 474.404 365.728C473.978 365.206 473.188 364.689 473.18 364.161C473.088 357.791 473.075 351.418 473.166 345.049C473.175 344.436 474.025 343.835 474.484 343.229C474.804 343.842 475.381 344.447 475.4 345.07C475.496 348.185 475.444 351.304 475.443 354.422Z" fill="white"/>
<path d="M451.448 335.12C451.381 335.894 451.35 336.428 451.288 336.958C451.109 338.494 450.917 340.029 450.705 341.777C448.338 341.777 446.075 341.777 443.532 341.777C443.875 339.795 444.129 337.942 444.559 336.132C444.656 335.721 445.346 335.193 445.79 335.166C447.598 335.056 449.417 335.12 451.448 335.12Z" fill="white"/>
<path d="M496.979 335.123C498.183 335.123 499.122 335.123 500.061 335.123C503.97 335.122 503.973 335.121 504.54 338.985C504.658 339.785 504.749 340.588 504.922 341.928C502.761 341.928 500.766 342.01 498.788 341.863C498.372 341.832 497.785 341.008 497.68 340.47C497.354 338.812 497.224 337.115 496.979 335.123Z" fill="white"/>
<path d="M494.291 309.286C494.107 306.942 493.929 304.674 493.742 302.293C495.534 302.293 497.132 302.293 499.006 302.293C499.274 304.577 499.539 306.833 499.826 309.286C497.891 309.286 496.241 309.286 494.291 309.286Z" fill="white"/>
<path d="M454.721 302.096C454.721 303.177 454.77 303.921 454.713 304.657C454.285 310.236 454.813 309.763 448.694 309.385C449.029 307.141 449.314 304.917 449.747 302.723C449.804 302.436 450.617 302.161 451.098 302.124C452.232 302.036 453.377 302.096 454.721 302.096Z" fill="white"/>
<path d="M475.359 376.033C475.359 377.633 475.408 379.235 475.316 380.83C475.299 381.125 474.701 381.629 474.401 381.608C473.967 381.578 473.238 381.199 473.198 380.895C473.031 379.631 472.903 378.31 473.119 377.072C473.214 376.525 474.163 376.126 474.724 375.66C474.936 375.785 475.148 375.909 475.359 376.033Z" fill="white"/>
<path fill-rule="evenodd" clip-rule="evenodd" d="M801.069 172.768L804.484 460.044L657.409 459.83L683.661 459.652C683.661 459.652 690.362 381.754 673.787 315.957C673.787 315.957 670.469 297.957 662.142 315.957C653.826 333.933 632.381 394.909 625.888 459.784L551.033 459.675L588.802 253.687L625.263 239.859L623.728 261.312L738.134 221.633L740.829 195.865L801.069 172.768Z" fill="white"/>
<path d="M669.341 195.323C672.747 188.096 675.578 180.534 679.656 173.698C700.133 139.372 730.495 119.434 770.586 114.401C784.349 112.673 798.051 113.908 811.506 117.338C829.335 121.884 845.481 129.816 860.002 140.983C860.002 151.745 860.002 162.506 860.002 173.267C860.002 173.558 860.002 173.848 860.002 174.139C860.002 174.721 860.002 175.303 860.002 175.884C836.11 168.378 811.505 165.317 786.557 165.25C774.007 165.217 761.423 166.192 748.908 167.301C733.576 168.659 718.58 171.937 704.032 176.971C693.434 180.639 683.227 185.145 674.663 192.53C671.876 194.934 669.51 197.813 666.897 200.532C667.715 198.789 668.526 197.055 669.341 195.323Z" fill="white"/>
<path d="M669.311 310.373C669.311 310.373 638.164 360.571 633.104 460.047" stroke="white" stroke-miterlimit="10"/>
<path d="M660.862 246.157C660.885 235.075 662.435 224.179 664.481 213.313C665.867 205.952 668.356 199.371 674.536 194.74C675.419 194.078 676.225 193.312 677.101 192.641C684.593 186.9 692.976 182.857 701.757 179.643C726.698 170.516 752.628 167.306 778.967 166.787C793.275 166.505 807.527 167.408 821.721 169.343C834.732 171.115 847.526 173.806 860.002 177.97C860.002 194.742 860.002 211.514 860.002 228.286C859.803 228.19 859.604 228.096 859.407 227.999C852.43 224.564 852.444 224.563 852.009 216.795C851.711 211.469 851.441 206.138 850.98 200.825C850.895 199.841 850.187 198.487 849.375 198.057C833.812 189.791 818.191 181.638 802.579 173.468C802.205 173.272 801.792 173.152 801.212 172.925L801.004 173.207L740.97 196.694L738.285 222.897L660.893 250.022L660.862 246.157ZM703.074 234.058C703.881 233.849 704.636 233.706 705.355 233.457C709.157 232.143 712.938 230.766 716.753 229.491C718.016 229.069 718.63 228.508 718.576 227.011C718.447 223.472 718.534 219.925 718.534 216.278C717.331 216.364 716.337 216.436 715.303 216.51C715.884 214.672 716.54 212.971 716.947 211.211C717.449 209.042 717.378 206.682 715.55 205.287C713.478 203.708 711.078 204.32 708.943 205.629C703.895 208.724 702.661 214.657 706 220.472C705.043 220.804 704.118 221.126 703.074 221.488C703.074 225.57 703.074 229.696 703.074 234.058ZM700.799 234.052C700.828 234.052 700.858 234.052 700.887 234.052C700.887 229.563 700.887 225.075 700.887 220.587C700.858 220.587 700.828 220.586 700.799 220.586C700.799 225.075 700.799 229.563 700.799 234.052ZM686.643 231.082C686.74 233.882 686.666 236.688 686.666 239.973C689.533 238.965 692.106 238.057 694.683 237.156C698.721 235.744 698.721 235.746 698.721 231.446C698.721 228.041 698.721 224.638 698.721 221.084C698.119 220.965 697.549 220.852 697.104 220.764C697.505 218.71 698.185 216.766 698.16 214.831C698.142 213.436 697.502 211.228 696.572 210.863C695.272 210.353 693.165 210.774 691.891 211.583C687.303 214.493 686.186 221.698 689.728 226.405C686.416 226.678 686.565 228.838 686.643 231.082ZM684.51 239.743C684.538 239.754 684.566 239.766 684.594 239.777C684.594 235.646 684.594 231.515 684.594 227.384C684.566 227.384 684.538 227.384 684.51 227.383C684.51 231.503 684.51 235.623 684.51 239.743ZM674.771 237.012C674.801 239.233 674.778 241.453 674.778 244.135C677.441 243.194 679.895 242.38 682.292 241.42C682.628 241.286 682.84 240.441 682.845 239.922C682.89 235.847 682.87 231.771 682.87 227.393C682.061 227.59 681.511 227.724 680.81 227.895C681.312 225.867 682.004 223.987 682.188 222.057C682.362 220.227 682.003 218.345 681.872 216.392C676.037 217.927 673.573 226.787 677.155 232.371C674.356 232.871 674.743 235.011 674.771 237.012ZM671.774 244.565C671.797 244.565 671.821 244.565 671.845 244.565C671.845 241.178 671.845 237.791 671.845 234.404C671.821 234.404 671.798 234.404 671.774 234.404C671.774 237.79 671.774 241.177 671.774 244.565Z" fill="white"/>
<path d="M800.863 172.77L741.042 195.735L738.366 221.357L623.448 260.884L626.281 239.48L656.523 249.088" stroke="white" stroke-width="0.5" stroke-miterlimit="10"/>
<path d="M699.482 219.602L703.103 218.637V232.156L700.689 233.121L699.482 219.602Z" fill="white"/>
<path d="M683.793 224.511L687.414 223.465V238.11L685 239.156L683.793 224.511Z" fill="white"/>
<path d="M670.517 230.466L672.931 229.5V243.019L671.321 243.985L670.517 230.466Z" fill="white"/>
<path d="M625.862 239.156L657.242 250.02" stroke="white" stroke-width="0.5"/>
</svg>
