<?xml version="1.0" encoding="utf-8"?>
<!-- Generator: Adobe Illustrator 24.1.2, SVG Export Plug-In . SVG Version: 6.00 Build 0)  -->
<svg version="1.1" id="Layer_1" xmlns="http://www.w3.org/2000/svg" x="0px" y="0px"
	width="62" height="62" viewBox="0 0 62 62" fill="#000" xml:space="preserve">
<g>
	<path d="M56.9,51c0.5-0.3,0.9-0.2,1.3,0.2c0.3,0.3,0.6,0.6,0.8,1c0,0.3,0,0.5,0,0.8c-0.3,0.6-0.8,1-1.3,1.4c-1,1-2,2-3,2.9
		c-0.7,0.7-1.5,0.7-2.3,0c-1-1-2.1-2-3.1-3.1c-0.2-0.2-0.5-0.3-0.7-0.2c-0.2,0.1-0.1,0.3-0.1,0.5c0,0.6,0,1.2,0,1.8
		c0,0.8-0.5,1.4-1.4,1.4c-0.1,0-0.3,0-0.4,0c-11,0-22,0-33,0c-0.4,0-0.7,0-1.1-0.2c-0.4-0.2-0.7-0.5-0.7-0.9c0-2-0.2-3.9,0.4-5.9
		c1.2-3.6,4.5-6,8.3-6.1c1.7,0,3.4,0,5,0c0.4,0,0.5-0.1,0.5-0.5c0-1,0-0.9-0.9-1.3c-0.9-0.4-1.8-0.4-2.8-0.3
		c-1.1,0.1-2.2,0.2-3.2,0.2c-0.2,0-0.3,0.1-0.5,0.3c-0.4,0.7-1,1.3-1.7,1.7c-0.3,0.2-0.7,0.3-1.1,0.1c-0.4-0.2-0.6-0.1-0.8,0.2
		c-2.7,2.4-5.3,4.8-8,7.2C7,52.6,6.8,52.8,6.6,53c-0.8,0.7-1.9,0.6-2.5-0.1c-0.7-0.7-0.7-1.7,0-2.5c2-2.3,4.1-4.5,6.2-6.8
		c0.6-0.7,1.2-1.3,1.8-2c0.2-0.2,0.2-0.3,0.1-0.6c-0.3-0.5-0.2-1,0.2-1.5c0.5-0.5,1-1.2,1.7-1.5c0.2-0.1,0.2-0.2,0.2-0.3
		c0.1-1.2,0.1-2.4,0.2-3.6c0-0.3,0-0.5-0.2-0.7c-0.4-0.5-0.7-1.1-0.7-1.8c0-1,0-1.9,0-2.9c0-1,0.5-1.8,1.3-2.3
		c0.3-0.2,0.4-0.4,0.4-0.7c0-1.7-0.1-3.4,0.2-5.1c0.7-3.9,2.9-6.7,6.3-8.7c0.4-0.2,0.5-0.4,0.6-0.8c0.6-3.9,4-6.8,8-6.9
		c4-0.1,7.6,2.7,8.3,6.6c0.1,0.6,0.4,0.9,0.9,1.2c4.2,2.5,6.2,6.2,6.2,11c0,0.9,0,1.8,0,2.7c0,0.3,0.1,0.4,0.3,0.6
		c0.9,0.6,1.3,1.4,1.3,2.4c0,0.9,0,1.9,0,2.8c0,0.2,0,0.4-0.1,0.6c-0.4,0.7-0.2,1.3,0.1,1.9c0.3,0.7,0.3,1.4,0.2,2.2
		c0,0.2,0,0.3,0.1,0.5c0.8,0.8,1.5,1.6,2.4,2.4c0.1-0.4,0.1-0.6,0.2-0.8c0.4-1.1,1.4-1.7,2.5-1.5c1,0.2,1.8,1.1,1.9,2.2
		c0,1.5,0,3,0,4.4c0,0.3,0.1,0.6,0.2,0.9c0.5,1,0.7,2.1,0.5,3.3c0,0.2,0,0.3,0.1,0.5c0.4,0.4,0.4,0.8,0.1,1.2
		c-0.3,0.4-0.7,0.5-1.1,0.2c-0.8-0.4-1.1-1-0.9-1.9c0.2-0.9,0-1.8-0.4-2.6c-0.2-0.4-0.3-0.8-0.3-1.3c0-1.3,0-2.6,0-3.9
		c0-0.1,0-0.3,0-0.4c0-0.3-0.1-0.6-0.5-0.7c-0.4,0-0.5,0.3-0.5,0.7c0,0.5,0,1,0,1.5c0,0.2,0,0.4,0,0.5c-0.1,0.6-0.8,0.9-1.3,0.6
		c-0.1-0.1-0.3-0.2-0.4-0.3c-1.7-1.7-3.5-3.3-5.1-5c-0.2-0.2-0.3-0.4-0.6-0.4c0,0.3,0.2,0.4,0.3,0.6c1.2,1.2,2.5,2.5,3.7,3.7
		c0.2,0.2,0.4,0.4,0.5,0.6c0.2,0.5,0,0.9-0.4,1.2c-0.4,0.4-0.8,0.9-1.5,0.7c-0.2-0.1-0.3-0.2-0.4-0.3c-1.9-1.7-3.6-3.5-5.4-5.3
		c-0.2-0.2-0.3-0.5-0.6-0.3c-0.2,0.2,0.2,0.4,0.3,0.5c1.7,1.7,3.4,3.4,5.1,5.1c0.3,0.3,0.8,0.7,0.5,1.3c-0.3,0.6-0.7,1.1-1.4,1.3
		c-0.4,0.1-0.6-0.1-0.9-0.4c-1.8-1.7-3.6-3.5-5.4-5.3c-0.2-0.2-0.4-0.5-0.6-0.4c-0.2,0.2,0.2,0.4,0.3,0.6c1.6,1.7,3.3,3.3,4.9,4.9
		c1.1,1.1,0.8,2.2-0.7,2.7c-0.4,0-0.7-0.2-1-0.5c-1.3-1.2-2.5-2.5-3.8-3.7c-0.2-0.2-0.4-0.6-0.7-0.3c-0.2,0.2,0.2,0.4,0.4,0.6
		c2.4,2.3,4.7,4.7,7.1,7.1c1.2,1.2,2.6,1.7,4.3,1.4c0.5-0.1,0.9,0.1,1.2,0.4c1,1,1.9,1.9,2.9,2.9c0.5,0.5,0.5,0.5,0.9,0
		c0.1-0.1,0.2-0.2,0.3-0.3c0.8-0.8,1.6-1.6,2.4-2.4c0.2-0.2,0.3-0.4,0.1-0.6C56.5,51.8,56.5,51.4,56.9,51z"/>
	<path fill="#FEC886" d="M56.9,51c-0.4,0.5-0.3,0.9,0.1,1.3c0.2,0.2,0.2,0.3,0,0.5c-0.9,0.8-1.7,1.7-2.6,2.6c-0.3,0.1-0.4-0.2-0.6-0.3
		c-1-1-2-2-3-3c-0.3-0.3-0.6-0.4-1-0.3c-1.8,0.3-3.4-0.2-4.8-1.4c-0.7-0.7-1.4-1.4-2.1-2.1c-0.2-0.1-0.4-0.3-0.2-0.5
		c0.6-0.2,1-0.6,1.3-1.1c0.3-0.4,0-0.8-0.3-1.1c-1.8-1.7-3.5-3.5-5.3-5.2c-0.1-0.1-0.2-0.2-0.3-0.3c-0.2-0.2-0.3-0.4-0.1-0.6
		c0.2-0.2,0.4,0,0.6,0.1c1,1,2,2,3.1,3.1c0.8,0.8,1.7,1.7,2.5,2.5c0.6,0.5,0.9,0.5,1.5,0c0.1-0.1,0.2-0.2,0.3-0.3
		c0.6-0.6,0.6-1,0-1.6c-1.8-1.8-3.6-3.6-5.4-5.3c-0.1-0.1-0.2-0.2-0.3-0.3c-0.1-0.1-0.1-0.3,0-0.4c0.1-0.1,0.3-0.1,0.4,0
		c0.1,0.1,0.2,0.2,0.3,0.3c1.8,1.8,3.6,3.5,5.3,5.3c0.7,0.7,1,0.7,1.6,0c0.1-0.1,0.2-0.2,0.3-0.3c0.5-0.5,0.5-0.9,0-1.4
		c-1.3-1.3-2.6-2.6-3.9-3.9c-0.1-0.1-0.2-0.2-0.2-0.2c-0.2-0.2-0.4-0.4-0.1-0.6c0.2-0.2,0.4,0,0.6,0.1c1.8,1.8,3.5,3.5,5.3,5.3
		c0.2,0.2,0.4,0.4,0.7,0.4c0.5,0,0.8-0.3,0.9-0.8c0-0.6,0-1.2,0-1.8c0-0.4,0.1-0.8,0.6-0.8c0.4,0,0.6,0.3,0.6,0.8c0,1.5,0,3.1,0,4.6
		c0,0.3,0,0.5,0.2,0.8c0.6,1,0.7,2.1,0.5,3.2c-0.2,0.8,0.4,1.1,0.9,1.5c0.3,0.3,0.7,0.2,1.1-0.1C55.9,50,56.4,50.5,56.9,51z"/>
	<path d="M6.2,21.9c0-0.5,0.3-0.9,0.7-1c1.1-0.4,1.9-1.1,2.2-2.2c0.2-0.5,0.5-0.7,1-0.7c0.5,0,0.9,0.3,1.1,0.7
		c0.4,1.1,1.1,1.8,2.2,2.2c0.5,0.2,0.8,0.5,0.8,1.1c0,0.5-0.3,0.9-0.8,1.1c-1.1,0.4-1.8,1.1-2.2,2.2c-0.2,0.5-0.5,0.8-1.1,0.8
		c-0.5,0-0.9-0.3-1.1-0.8C8.8,24.1,8.1,23.4,7,23C6.5,22.8,6.2,22.5,6.2,21.9z"/>
	<path d="M51.9,25.9c-0.5,0-0.9-0.2-1-0.6c-0.4-1.2-1.1-2-2.3-2.3c-0.4-0.1-0.7-0.5-0.7-1c0-0.5,0.2-0.9,0.7-1
		c1.2-0.4,1.9-1.2,2.3-2.3c0.2-0.4,0.5-0.7,1-0.7c0.5,0,0.9,0.2,1,0.7c0.4,1.2,1.2,1.9,2.3,2.3c0.4,0.2,0.7,0.5,0.6,1
		c0,0.5-0.2,0.8-0.6,1c0,0-0.1,0-0.1,0.1c-1.1,0.4-1.8,1.1-2.2,2.2C52.7,25.7,52.4,25.9,51.9,25.9z"/>
	<path d="M14.8,13c-0.5,0-0.8-0.2-1-0.7c-0.3-0.9-0.9-1.5-1.8-1.8c-0.5-0.1-0.7-0.5-0.7-1c0-0.4,0.2-0.8,0.7-1
		c0.9-0.3,1.5-0.9,1.8-1.8c0.2-0.5,0.5-0.7,1-0.7c0.5,0,0.8,0.3,1,0.7c0.3,0.8,0.8,1.4,1.7,1.7c0.5,0.2,0.7,0.5,0.7,1
		c0,0.5-0.3,0.8-0.7,1c-0.8,0.3-1.4,0.8-1.7,1.7C15.7,12.7,15.4,13,14.8,13z"/>
	<path fill="#FEE1B7" d="M22.5,24.5c0.3-0.1,0.5-0.3,0.6-0.6c0.3-0.5,1.9-0.5,2.2,0c0.1,0.3,0.3,0.6,0.7,0.6c1.3,0,2.6,0.2,3.9-0.1
		c1.3-0.3,2.4-1,3.2-2.1c0.2-0.2,0.3-0.3,0.5,0c1.2,1.5,2.7,2.2,4.7,2.2c1,0,1.9,0,2.9,0c0.3,0,0.4,0.1,0.4,0.4c0,1.7,0,3.3,0,5
		c0,0.4-0.2,0.4-0.5,0.4c-2.8,0.4-4.7,2.3-5,5.1c-0.1,0.9,0.1,1.8,0.4,2.6c0.1,0.2,0.1,0.4,0,0.6c-0.3,0.6-0.3,1.2,0,1.7
		c0.2,0.3,0.1,0.4-0.2,0.5c-1.2,0.6-2.5,1.1-3.9,1.1c-1.9,0.1-3.8,0.2-5.7-0.2c-0.4-0.1-0.9-0.2-1.3-0.4c-0.4-0.1-0.5-0.3-0.4-0.7
		c0.4-2.6-0.3-4.9-2.2-6.8c-0.7-0.7-1.6-1.2-2.4-1.6c-0.2-0.2-0.2-0.5-0.2-0.7c0-2.1,0-4.2,0-6.4c0-0.8,0-0.8,0.8-0.8
		C21.6,24.5,22,24.6,22.5,24.5z"/>
	<path fill="#B47A4E" d="M25.3,23.9c-0.1-0.1-0.2-0.2-0.3-0.2c-0.5,0-1,0-1.6,0c-0.2,0-0.2,0.1-0.3,0.2c0-0.8-0.2-1-1.1-1.1
		c-0.9,0-1.8,0-2.6,0c-0.2-0.2-0.1-0.4-0.1-0.6c0.2-2.9,1.3-5.4,3.3-7.4c1.3-1.3,2.9-2.4,4.7-2.9c1.5-0.3,3.1-0.3,4.6-0.2
		c2.5,0.2,4.9,0.9,7,2.2c3.1,2,4.7,4.8,4.9,8.5c0.1,1,0,2.1,0.1,3.1c0,0.3,0,0.4-0.4,0.4c-0.3,0-0.4-0.2-0.4-0.4c0-0.3,0-0.7,0-1
		c0-1.1-0.6-1.7-1.6-1.7c-1.1,0-2.2,0-3.2,0c-1.5,0-2.7-0.6-3.6-1.9c-0.8-1.1-1.9-1.1-2.7,0c-0.9,1.2-2.1,1.9-3.6,1.9
		c-0.7,0-1.4,0-2.1,0C25.5,22.9,25.3,23.1,25.3,23.9z"/>
	<path fill="#B76E78" d="M36,50.6c0.7,0.2,0.9,0.1,1.3-0.5c0.5-0.7,1-1.5,1.4-2.2c0.2-0.3,0.3-0.3,0.6-0.1c1.4,1.5,2.9,2.9,4.4,4.4
		c0.8,0.8,1.8,1.5,2.9,1.7c0.3,0.1,0.4,0.2,0.3,0.5c0,0.5,0,0.9,0,1.4c0,0.4-0.1,0.5-0.5,0.5c-1.5,0-2.9,0-4.4,0c-2.9,0-5.8,0-8.8,0
		c0.1-0.4,0.4-0.7,0.6-1c0.3-0.6,0.7-1.1,1.1-1.6c0.4-0.6,0.3-0.8-0.1-1.3C35.1,51.7,35.5,51.1,36,50.6z"/>
	<path fill="#B76E78" d="M20.9,46.6c1.2,1.8,2.4,3.7,3.7,5.5c0.8,1.2,1.6,2.4,2.4,3.7c0.1,0.1,0.3,0.3,0.2,0.5c-0.2,0.1-0.3,0-0.5,0
		c-3.3,0-6.6,0-9.9,0c-0.6,0-0.7,0-0.7-0.6c0-1.2-0.1-2.5,0.1-3.7c0.5-2.1,1.6-3.9,3.4-5.1C20.1,46.7,20.5,46.4,20.9,46.6z"/>
	<path fill="#F7D4AA" d="M27.3,46.1c0.6-0.6,0.6-1.3,0.5-2c0-0.4,0.1-0.5,0.5-0.5c1.3,0,2.6,0,4,0c0.4,0,0.5,0.1,0.4,0.4
		c0,0.2,0,0.3,0,0.5c0,1.3,0.4,1.8,1.8,2c-1.2,1.8-2.3,3.5-3.5,5.2c-0.3,0-0.4-0.2-0.5-0.4c-1-1.5-2-3.1-3-4.6
		C27.4,46.6,27.2,46.4,27.3,46.1z"/>
	<path fill="#9A5729" d="M17.4,33.6c3.4-0.2,6.2,2.3,6.2,5.7c0,2.1,0.1,1.8-1.8,1.9c-1.2,0.1-2.4,0.2-3.6,0.1c0.9-0.5,1.7-1,2.6-1.5
		c0.3-0.1,0.5-0.3,0.6-0.6c0.1-0.3,0-0.7-0.2-0.9c-0.3-0.2-0.6-0.2-1,0c-0.9,0.5-1.8,1-2.7,1.6c-0.1,0.1-0.2,0.2-0.4,0.1
		c0.6-0.9,1.1-1.9,1.7-2.8c0.4-0.6,0.3-1-0.1-1.3c-0.5-0.3-0.9-0.2-1.3,0.4c-0.1,0-0.2-0.1-0.2-0.2C17.1,35.2,17.1,34.4,17.4,33.6z"
		/>
	<path fill="#B4794E" d="M30.3,6.1c3.5-0.1,6,2.7,6.4,5c-1-0.3-2.1-0.6-3.1-0.8c-2.2-0.3-4.3-0.3-6.5,0c-0.1,0-0.3,0-0.4,0
		c-0.2-0.2,0-0.5,0.1-0.7c0.6-1.4,1.6-2.5,2.8-3.3C29.8,6.2,30.1,6.1,30.3,6.1z"/>
	<path fill="#9A5729" d="M27.2,11.9c-1.3,0.6-2.5,1.2-3.6,2.1c-2.2,1.8-3.6,4.1-4.1,6.9c-0.1,0.7-0.2,1.3-0.2,2c-0.4,0-0.9,0-1.2,0.3
		c-0.4,0.3-0.6,0.6-0.6,1.1c0,0.5,0,0.9,0,1.4c0,0.3-0.2,0.3-0.4,0.3c-0.2,0-0.3,0-0.3-0.3c0-2.1-0.1-4.2,0.6-6.3
		c1.2-3.5,3.8-5.6,7.2-6.9C25.4,12.2,26.3,12,27.2,11.9z"/>
	<path fill="#DDF8FE" d="M36,50.6c-0.4,0.6-0.8,1.2-1.2,1.7c-0.5-0.2-0.9,0-1.2,0.4c-0.6,0.9-1.1,1.8-1.7,2.6c-0.8,1.2-2.4,1.2-3.2,0
		c-1.9-2.9-3.8-5.8-5.7-8.7c0-0.1-0.1-0.1-0.1-0.2c0.2,0,0.4,0,0.6,0c0.4-0.1,0.7,0.1,1,0.5c1.6,2.5,3.2,5,4.8,7.4
		c0.7,1.1,1.2,1.1,1.9,0c1.6-2.4,3.1-4.7,4.6-7.2c0.5-0.7,1-0.9,1.8-0.7c-0.5,0.8-1.1,1.6-1.6,2.4c-0.1,0.2-0.2,0.3-0.3,0.5
		C35.6,49.9,35.7,50.3,36,50.6z"/>
	<path fill="#91545E" d="M20.9,46.6c-0.9,0.1-1.5,0.7-2.1,1.2c-1.7,1.6-2.6,3.5-2.6,5.8c0,0.7,0,1.4,0,2.1c0,0.5,0.1,0.6,0.6,0.6
		c3.3,0,6.6,0,9.9,0c0.1,0,0.3,0,0.4,0c-0.1,0.1-0.3,0.1-0.5,0.1c-4.2,0-8.3,0-12.5,0c-0.4,0-0.6-0.1-0.6-0.6
		c0.1-1.2-0.1-2.4,0.2-3.6c0.6-3.2,3.7-5.7,6.9-5.7C20.8,46.5,20.9,46.5,20.9,46.6z"/>
	<path fill="#FEAE68" d="M42.7,47.7c0,0,0,0.1,0,0.1c1.2,1.1,2.2,2.5,3.6,3.2c1.1,0.6,2.4,0.8,3.6,0.5c0.4-0.1,0.6,0,0.8,0.3
		c1.1,1.1,2.2,2.2,3.2,3.2c0.1,0.1,0.2,0.2,0.4,0.3c-0.8,0.9-0.8,0.9-1.6,0.1c-0.9-0.9-1.8-1.8-2.7-2.7c-0.3-0.3-0.6-0.5-1.1-0.4
		c-1.6,0.4-3-0.1-4.2-1.3c-2.4-2.4-4.9-4.9-7.4-7.3c-0.1-0.1-0.2-0.2-0.3-0.3c-0.1-0.1-0.1-0.3,0-0.4c0.1-0.1,0.3-0.1,0.4,0
		c0.1,0.1,0.2,0.2,0.4,0.3c1.3,1.3,2.6,2.6,3.9,3.9C42.1,47.5,42.4,47.7,42.7,47.7z"/>
	<path fill="#CE8294" d="M41,32c2-0.5,4.5,1.1,4.6,3c-1.5-0.9-2.6-0.6-3.3,1.2c-1.4-1.1-2-1.2-3.1-0.3c-0.2,0-0.2-0.2-0.2-0.4
		C39.1,34,39.7,32.8,41,32z"/>
	<path fill="#FEC886" d="M22.5,24.5c-0.5,0.2-1,0.1-1.4,0.1c-0.4,0-0.5,0.1-0.5,0.5c0,2.4,0,4.9,0,7.3c-0.1,0-0.3-0.1-0.4-0.1
		c-1-0.3-1-0.3-1-1.4c0-2,0-4,0-6c0-0.4,0.1-0.5,0.5-0.5C20.5,24.5,21.5,24.5,22.5,24.5z"/>
	<path fill="#9A5729" d="M30.3,6.1C28.8,6.9,27.7,8,27,9.5c-0.1,0.2-0.2,0.5-0.3,0.8c-0.9,0.2-1.8,0.4-2.8,0.8C24.1,9,26.7,6,30.3,6.1z
		"/>
	<path fill="#FDE1B7" d="M17.4,29.8c0,0.6,0,1.2,0,1.8c0,0.3,0,0.4-0.3,0.4c-0.5,0-1.1,0.1-1.6,0.2c-0.3,0.1-0.4,0-0.4-0.2
		c-0.1-1.1-0.1-2.2,0-3.3c0.1-0.6,0.7-1,1.4-1c0.9,0,0.9,0,0.9,0.9C17.4,28.9,17.4,29.3,17.4,29.8z"/>
	<path fill="#E9BF91" d="M27.3,46.1c0,0.1,0.1,0.3,0.2,0.4c1.1,1.7,2.1,3.3,3.2,5c0.1,0.1,0.2,0.2,0.3,0.3c-0.2,0.4-0.5,0.7-0.7,1.2
		c-1.4-2.2-2.8-4.3-4.2-6.4C26.6,46.5,27,46.3,27.3,46.1z"/>
	<path fill="#FDE1B7" d="M45.5,31.7c-0.7-0.5-1.4-1-2.2-1.2c-0.2-0.1-0.2-0.2-0.2-0.3c0-0.7,0-1.5,0-2.2c0-0.3,0.1-0.3,0.3-0.3
		c0.4,0,0.8,0,1.2,0.1c0.5,0.2,0.8,0.6,0.8,1.2C45.5,29.8,45.5,30.7,45.5,31.7z"/>
	<path fill="#C6C7C9" d="M13.8,43c0.8,0.7,0.8,0.7,0,1.4c-2,1.8-4.1,3.6-6.1,5.5c-0.1,0-0.1,0-0.2-0.1c0.1-0.6,0.6-0.9,1-1.3
		c1.4-1.6,2.9-3.1,4.3-4.7c0.2-0.2,0.4-0.4,0.6-0.6C13.4,43,13.6,42.9,13.8,43z"/>
	<path fill="#B76E78" d="M41,32c-0.8,0.8-1.5,1.5-1.8,2.7c-0.1,0.4-0.3,0.8-0.1,1.3c-0.3,0.4-0.6,0.8-0.6,1.4c0,0.1,0.1,0.3-0.2,0.4
		c-0.2,0-0.4,0-0.5-0.3c-0.2-0.7-0.3-1.4-0.2-2.2C38,33.5,39.4,32.2,41,32z"/>
	<path fill="#7E441C" d="M17.4,33.6c0.1,0.7-0.1,1.5-0.1,2.2c0,0.2-0.1,0.4,0.1,0.5c-0.5,0.9-1,1.7-1.5,2.6c-0.1,0-0.1,0-0.2,0
		c0.1-0.7,0.1-1.3,0.1-2c0.1-0.8,0.2-1.6,0.2-2.5c0-0.6,0.2-0.8,0.7-0.8C16.9,33.6,17.1,33.6,17.4,33.6z"/>
	<path fill="#A6A8AB" d="M13.8,43c-0.5,0.2-0.7,0.6-1,0.9c-1.4,1.5-2.8,3.1-4.2,4.6c-0.4,0.4-0.7,0.8-1.1,1.2
		c-0.1,0.3-0.3,0.4-0.4,0.6c-0.5,0.5-1,0.9-1.5,1.4c-0.1,0.1-0.2,0.3-0.4,0.1c-0.2-0.2,0-0.3,0.1-0.4c2.6-2.9,5.2-5.7,7.8-8.6
		C13.5,42.4,13.6,42.9,13.8,43z"/>
	<path fill="#898B8D" d="M15.2,40.7c0.6,0.6,1.2,1.2,1.9,1.8c0.3,0.3-0.1,0.4-0.2,0.6c-0.1,0.1-0.2,0.4-0.5,0.1
		c-0.6-0.7-1.3-1.3-1.9-2C14.6,41,14.7,40.6,15.2,40.7z"/>
	<path fill="#FDFDFD" d="M35.5,43c0,0.7,0.2,1.3,0.8,1.8c-0.6,0.1-1.2,0-1.7,0c-0.1,0-0.2-0.1-0.2-0.2c0-0.4,0-0.8,0-1.2
		c0-0.1,0.1-0.2,0.2-0.2C34.9,43.2,35.1,43.1,35.5,43z"/>
	<path fill="#6A6B6E" d="M15.2,40.7c-0.4,0-0.5,0.4-0.8,0.5c-0.1-0.1-0.3-0.3-0.4-0.4c-0.3-0.2-0.3-0.4,0-0.7c0.3-0.3,0.5-0.3,0.7,0
		C14.8,40.4,15,40.5,15.2,40.7z"/>
	<path fill="#B6B7B9" d="M7.1,50.3C7,50,7.3,49.9,7.5,49.7c0,0,0.1,0.1,0.1,0.1C7.5,50,7.3,50.2,7.1,50.3z"/>
	<path fill="#FDCA00" d="M9.3,21.5c0.4-0.3,0.7-0.7,1-1.2c0.4,0.7,1,1.3,1.7,1.7c-0.5,0.3-0.8,0.6-1.2,0.9c0,0-0.1,0.1-0.1,0
		C10.1,22.5,9.6,22.1,9.3,21.5z"/>
	<path fill="#FCAD10" d="M9.3,21.5c0.5,0.5,1,0.9,1.5,1.4c-0.5,0.7-0.5,0.7-1,0.1c-0.3-0.4-0.7-0.7-1.2-1C8.8,21.7,9,21.6,9.3,21.5z"
		/>
	<path fill="#FDAD10" d="M50.9,21.4c0.4-0.4,0.7-0.7,1-1.2c0.4,0.7,1,1.3,1.7,1.7c-0.5,0.3-0.9,0.6-1.2,1c-0.1,0-0.1,0-0.2,0
		c-0.4-0.4-0.7-0.8-1.2-1.1C50.9,21.6,50.8,21.5,50.9,21.4z"/>
	<path fill="#F09400" d="M50.9,21.4c0.5,0.4,1,0.9,1.4,1.4c-0.1,0.2-0.3,0.4-0.5,0.7c-0.4-0.7-0.9-1.3-1.6-1.7
		C50.4,21.7,50.6,21.6,50.9,21.4z"/>
	<path fill="#EE9300" d="M15.4,9.9c-0.2,0.2-0.3,0.5-0.5,0.6c-0.3,0.1-0.3-0.4-0.5-0.5c-0.2-0.1-0.3-0.3-0.5-0.4
		c0.2-0.2,0.4-0.3,0.6-0.5C14.9,9.2,15.2,9.6,15.4,9.9z"/>
	<path fill="#F9AB0F" d="M15.4,9.9c-0.3-0.3-0.7-0.6-1-0.9c0.1-0.2,0.3-0.3,0.4-0.5c0.3,0.4,0.6,0.7,1.1,1C15.7,9.7,15.6,9.8,15.4,9.9
		z"/>
	<path d="M30.3,38.6c-1.7,0-3-0.6-4.2-1.6c-0.4-0.4-0.5-0.9-0.2-1.2c0.3-0.4,0.8-0.4,1.2,0c2,1.7,4.2,1.6,6.2,0
		c0.5-0.4,0.9-0.4,1.2,0c0.3,0.4,0.3,0.8-0.2,1.2C33.3,38.1,31.8,38.6,30.3,38.6z"/>
	<path d="M23.9,30.2c-1.1,0-2.1-0.4-2.9-1.2c-0.4-0.4-0.5-0.9-0.2-1.2c0.3-0.3,0.8-0.4,1.2,0c1.3,1,2.5,1,3.8,0
		c0.4-0.3,0.9-0.3,1.2,0c0.3,0.3,0.3,0.8-0.1,1.2C26.1,29.8,25.1,30.2,23.9,30.2z"/>
	<path d="M36.6,30.2c-1.1,0-2.1-0.4-3-1.2c-0.4-0.4-0.5-0.9-0.1-1.2c0.3-0.3,0.8-0.3,1.2,0c1.3,1,2.5,1,3.8,0c0.4-0.3,0.9-0.3,1.2,0
		c0.3,0.3,0.3,0.8-0.1,1.2C38.8,29.8,37.8,30.2,36.6,30.2z"/>
</g>
</svg>
