<svg width="68" height="68" viewBox="0 0 68 68" fill="none" xmlns="http://www.w3.org/2000/svg">
<path d="M54.5404 49.5122C51.2112 49.5122 48.5195 46.8206 48.5195 43.4914V12.9622C48.5195 9.63307 51.2112 6.94141 54.5404 6.94141C57.8695 6.94141 60.5612 9.63307 60.5612 12.9622V43.4914C60.5612 46.8206 57.8695 49.5122 54.5404 49.5122Z" fill="#B76E78"/>
<path d="M54.3987 9.7041C54.1154 9.7041 53.832 9.4916 53.832 9.20827C53.832 8.92493 54.0445 8.6416 54.3279 8.6416H54.5404C54.8237 8.6416 55.107 8.92493 55.107 9.20827C55.107 9.4916 54.8945 9.7041 54.5404 9.7041H54.3987Z" fill="#EFEFEF"/>
<path d="M50.7874 28.8298C50.504 28.8298 50.2207 28.5465 50.2207 28.2632V12.9632C50.2207 11.4048 50.9999 10.059 52.2749 9.27982C52.5582 9.13815 52.9124 9.20898 53.054 9.49232C53.1957 9.77565 53.1249 10.1298 52.8415 10.2715C51.8499 10.8382 51.2832 11.9007 51.2832 13.034V28.334C51.354 28.5465 51.0707 28.8298 50.7874 28.8298Z" fill="#EFEFEF"/>
<path d="M54.5406 50.0792C50.9281 50.0792 47.9531 47.1042 47.9531 43.4917V12.9625C47.9531 9.35 50.9281 6.375 54.5406 6.375C58.1531 6.375 61.1281 9.35 61.1281 12.9625V43.4917C61.1281 47.175 58.224 50.0792 54.5406 50.0792ZM54.5406 7.50833C51.4948 7.50833 49.0865 9.9875 49.0865 12.9625V43.4917C49.0865 46.5375 51.5656 48.9458 54.5406 48.9458C57.5156 48.9458 59.9948 46.4667 59.9948 43.4917V12.9625C59.9948 9.91667 57.5865 7.50833 54.5406 7.50833Z" fill="#221F1F"/>
<path d="M48.5195 28.2627V43.5627C48.5195 46.8919 51.2112 49.5835 54.5404 49.5835C57.8695 49.5835 60.5612 46.8919 60.5612 43.5627V28.2627H48.5195Z" fill="#464A51"/>
<path d="M50.7874 42.712C50.504 42.712 50.2207 42.4286 50.2207 42.1453V28.262C50.2207 27.9786 50.504 27.6953 50.7874 27.6953C51.0707 27.6953 51.354 27.9786 51.354 28.262V42.2161C51.354 42.4995 51.0707 42.712 50.7874 42.712Z" fill="#828A97"/>
<path d="M54.5406 50.0786C50.9281 50.0786 47.9531 47.1036 47.9531 43.4911V28.262C47.9531 27.9786 48.2365 27.6953 48.5198 27.6953H60.5615C60.8448 27.6953 61.1281 27.9786 61.1281 28.262V43.562C61.1281 47.1745 58.224 50.0786 54.5406 50.0786ZM49.0865 28.8286V43.562C49.0865 46.6078 51.5656 49.0161 54.5406 49.0161C57.5156 49.0161 59.9948 46.537 59.9948 43.562V28.8286H49.0865Z" fill="#221F1F"/>
<path d="M60.5615 33.0083H48.5198C48.2365 33.0083 47.9531 32.725 47.9531 32.4417C47.9531 32.1583 48.2365 31.875 48.5198 31.875H60.5615C60.8448 31.875 61.1281 32.1583 61.1281 32.4417C61.1281 32.725 60.9156 33.0083 60.5615 33.0083Z" fill="#221F1F"/>
<path d="M60.5615 37.0454H48.5198C48.2365 37.0454 47.9531 36.7621 47.9531 36.4788C47.9531 36.1954 48.2365 35.9121 48.5198 35.9121H60.5615C60.8448 35.9121 61.1281 36.1954 61.1281 36.4788C61.1281 36.7621 60.9156 37.0454 60.5615 37.0454Z" fill="#221F1F"/>
<path d="M57.2346 49.4425C56.9513 49.4425 56.668 49.1592 56.668 48.8758V28.4758C56.668 28.1925 56.9513 27.9092 57.2346 27.9092C57.518 27.9092 57.8013 28.1925 57.8013 28.4758V48.8758C57.8013 49.23 57.518 49.4425 57.2346 49.4425Z" fill="#221F1F"/>
<path d="M51.9221 49.4425C51.6388 49.4425 51.3555 49.1592 51.3555 48.8758V28.4758C51.3555 28.1925 51.6388 27.9092 51.9221 27.9092C52.2055 27.9092 52.4888 28.1925 52.4888 28.4758V48.8758C52.4888 49.23 52.2055 49.4425 51.9221 49.4425Z" fill="#221F1F"/>
<path d="M60.5615 41.1548H48.5198C48.2365 41.1548 47.9531 40.8715 47.9531 40.5882C47.9531 40.3048 48.2365 40.0215 48.5198 40.0215H60.5615C60.8448 40.0215 61.1281 40.3048 61.1281 40.5882C61.1281 40.8715 60.9156 41.1548 60.5615 41.1548Z" fill="#221F1F"/>
<path d="M6.94336 44.625H51.0725C53.1267 44.625 54.7559 46.2542 54.7559 48.3083V57.9417C54.7559 59.9958 53.1267 61.625 51.0725 61.625H6.94336" fill="#FFD298"/>
<path d="M51.0708 62.1211H6.94167C6.65833 62.1211 6.375 61.9086 6.375 61.6253C6.375 61.3419 6.65833 61.0586 6.94167 61.0586H51.0708C52.7708 61.0586 54.1875 59.6419 54.1875 57.9419V48.3086C54.1875 46.6086 52.7708 45.1919 51.0708 45.1919H6.94167C6.65833 45.1919 6.375 44.9086 6.375 44.6253C6.375 44.3419 6.65833 44.0586 6.94167 44.0586H51.0708C53.4083 44.0586 55.3208 45.9711 55.3208 48.3086V57.9419C55.3208 60.2086 53.4083 62.1211 51.0708 62.1211Z" fill="#221F1F"/>
<path d="M34.1417 47.3872H6.94167C6.65833 47.3872 6.375 47.1039 6.375 46.8206C6.375 46.5372 6.65833 46.2539 6.94167 46.2539H34.1417C34.425 46.2539 34.7083 46.5372 34.7083 46.8206C34.7083 47.1039 34.425 47.3872 34.1417 47.3872Z" fill="#DFB278"/>
<path d="M37.7555 47.3872H37.0471C36.7638 47.3872 36.4805 47.1039 36.4805 46.8206C36.4805 46.5372 36.7638 46.2539 37.0471 46.2539H37.7555C38.0388 46.2539 38.3221 46.5372 38.3221 46.8206C38.3221 47.1039 38.0388 47.3872 37.7555 47.3872Z" fill="#DFB278"/>
<path d="M42.5703 53.1247C42.5703 49.8664 45.1911 47.3164 48.3786 47.3164H58.0828C59.9953 47.3164 61.5536 48.8747 61.5536 50.7872V55.4622C61.5536 57.3747 59.9953 58.9331 58.0828 58.9331H48.3786C45.1911 58.9331 42.5703 56.3122 42.5703 53.1247Z" fill="#B76E78"/>
<path d="M58.085 59.5H48.3809C44.8392 59.5 42.0059 56.6667 42.0059 53.125C42.0059 49.5833 44.8392 46.75 48.3809 46.75H58.085C60.3517 46.75 62.1225 48.5917 62.1225 50.7875V55.4625C62.1225 57.6583 60.3517 59.5 58.085 59.5ZM48.3809 47.8125C45.4767 47.8125 43.1392 50.15 43.1392 53.0542C43.1392 55.9583 45.4767 58.2958 48.3809 58.2958H58.085C59.7142 58.2958 60.9892 56.95 60.9892 55.3917V50.7167C60.9892 49.0875 59.6434 47.8125 58.085 47.8125H48.3809V47.8125Z" fill="#221F1F"/>
<path d="M59.3596 55.6746C59.0763 55.6746 58.793 55.3913 58.793 55.1079V54.5413C58.793 54.2579 59.0763 53.9746 59.3596 53.9746C59.643 53.9746 59.9263 54.2579 59.9263 54.5413V55.1079C59.9263 55.4621 59.643 55.6746 59.3596 55.6746Z" fill="#FFCBC2"/>
<path d="M44.8362 53.6911C44.5529 53.6911 44.2695 53.4078 44.2695 53.1245C44.2695 50.8578 46.1112 48.9453 48.4487 48.9453H58.082C59.0737 48.9453 59.9237 49.7953 59.9237 50.787V52.487C59.9237 52.7703 59.6404 53.0536 59.357 53.0536C59.0737 53.0536 58.7904 52.7703 58.7904 52.487V50.787C58.7904 50.4328 58.507 50.0786 58.082 50.0786H48.3779C46.6779 50.0786 45.332 51.4245 45.332 53.1245C45.4029 53.4078 45.1195 53.6911 44.8362 53.6911Z" fill="#FFCBC2"/>
<path d="M21.5335 56.384C21.2501 56.384 20.9668 56.1007 20.9668 55.8173V50.1507C20.9668 49.8673 21.2501 49.584 21.5335 49.584C21.8168 49.584 22.1001 49.8673 22.1001 50.1507V55.8173C22.1001 56.1715 21.8168 56.384 21.5335 56.384Z" fill="#221F1F"/>
<path d="M21.5335 48.8754C21.2501 48.8754 20.9668 48.5921 20.9668 48.3087V47.5296C20.9668 47.2462 21.2501 46.9629 21.5335 46.9629C21.8168 46.9629 22.1001 47.2462 22.1001 47.5296V48.3087C22.1001 48.5921 21.8168 48.8754 21.5335 48.8754Z" fill="#221F1F"/>
<path d="M21.5335 59.2172C21.2501 59.2172 20.9668 58.9339 20.9668 58.6505V57.8714C20.9668 57.588 21.2501 57.3047 21.5335 57.3047C21.8168 57.3047 22.1001 57.588 22.1001 57.8714V58.6505C22.1001 59.0047 21.8168 59.2172 21.5335 59.2172Z" fill="#221F1F"/>
<path d="M17.9915 59.0036C17.8499 59.0036 17.7082 58.9328 17.5665 58.862C16.0082 57.3036 15.1582 55.2495 15.1582 53.0536C15.1582 50.8578 16.0082 48.8036 17.5665 47.2453C17.779 47.0328 18.1332 47.0328 18.3457 47.2453C18.5582 47.4578 18.5582 47.812 18.3457 48.0245C16.9999 49.3703 16.2915 51.1411 16.2915 53.0536C16.2915 54.9661 16.9999 56.737 18.3457 58.0828C18.5582 58.2953 18.5582 58.6495 18.3457 58.862C18.2749 58.9328 18.1332 59.0036 17.9915 59.0036Z" fill="#221F1F"/>
<path d="M41.3665 59.0036C41.2249 59.0036 41.0832 58.9328 40.9415 58.862C39.3832 57.3036 38.5332 55.2495 38.5332 53.0536C38.5332 50.8578 39.3832 48.8036 40.9415 47.2453C41.154 47.0328 41.5082 47.0328 41.7207 47.2453C41.9332 47.4578 41.9332 47.812 41.7207 48.0245C40.3749 49.3703 39.6665 51.1411 39.6665 53.0536C39.6665 54.9661 40.3749 56.737 41.7207 58.0828C41.9332 58.2953 41.9332 58.6495 41.7207 58.862C41.6499 58.9328 41.5082 59.0036 41.3665 59.0036Z" fill="#221F1F"/>
<path d="M60.4915 45.1919H48.6624C48.379 45.1919 48.0957 44.9086 48.0957 44.6253C48.0957 44.3419 48.379 44.0586 48.6624 44.0586H60.4915C60.7749 44.0586 61.0582 44.3419 61.0582 44.6253C61.0582 44.9086 60.7749 45.1919 60.4915 45.1919Z" fill="#221F1F"/>
</svg>
