<svg width="68" height="68" viewBox="0 0 68 68" fill="none" xmlns="http://www.w3.org/2000/svg">
<path d="M52.2781 35.331C52.8771 35.4508 53.0718 35.8401 53.0718 36.4242C53.0568 39.584 53.0268 42.7588 53.0718 45.9186C53.1317 49.4977 51.7988 52.4629 49.3279 54.9787C49.0134 55.2932 48.8786 55.5927 48.8786 56.042C48.9086 57.7941 48.8786 59.5612 48.8936 61.3133C48.8936 61.8075 48.7588 62.1819 48.3395 62.4365C48.1149 62.4365 47.8903 62.4365 47.6656 62.4365C47.4709 62.1969 47.1864 62.0022 47.1864 61.6578C47.1864 59.8308 47.2014 58.0038 47.2014 56.1768C47.2014 55.9821 47.2014 55.8323 46.9318 55.7874C46.1681 55.6676 45.4043 55.5029 44.6406 55.3531C43.9667 55.0686 43.9667 55.0686 43.9667 55.7724C43.9667 56.2816 43.9667 56.7758 43.9667 57.2849C43.9667 57.9888 43.6971 58.3033 43.143 58.3033C42.559 58.3183 42.2894 57.9738 42.2894 57.255C42.2894 56.4313 42.2745 55.6077 42.2894 54.784C42.3044 54.4845 42.1996 54.3198 41.93 54.1701C40.702 53.4962 39.6388 52.6276 38.7403 51.5643C38.6654 51.4745 38.6354 51.3097 38.4408 51.3846C38.4408 51.6841 38.4408 51.9836 38.4408 52.2832C38.4408 53.1817 38.4557 54.0802 38.4258 54.9787C38.4108 55.5178 38.0664 55.8174 37.5722 55.8174C37.093 55.8024 36.7935 55.5178 36.7635 55.0087C36.7485 54.6193 36.7635 54.23 36.7635 53.8256C36.7635 52.9421 36.7635 52.0585 36.7635 51.0102C35.7452 52.3131 34.6819 53.2865 33.424 54.0503C33.1993 54.185 33.2293 54.3947 33.2293 54.5894C33.2293 55.5029 33.2293 56.4164 33.2293 57.3448C33.2293 58.0187 32.9747 58.3183 32.4206 58.3332C31.8516 58.3482 31.5521 58.0187 31.5371 57.3598C31.5221 56.7009 31.5221 56.057 31.5371 55.398C31.5371 55.1435 31.5221 55.0087 31.1926 55.1435C30.4139 55.443 29.5903 55.6676 28.7666 55.7874C28.527 55.8174 28.4222 55.9372 28.4372 56.1917C28.4521 58.0187 28.4671 59.8607 28.4671 61.6877C28.4072 62.0322 28.1826 62.2718 27.913 62.4814C27.6884 62.4814 27.4638 62.4814 27.2391 62.4814C26.8348 62.1969 26.73 61.8075 26.7449 61.3283C26.7599 59.5762 26.7449 57.8241 26.7599 56.057C26.7599 55.8024 26.7449 55.6077 26.4904 55.443C23.7648 53.8556 22.1175 51.3996 20.9644 48.5543C20.6949 47.8804 20.4852 47.1915 20.2755 46.4877C20.0509 45.7688 20.1258 45.5891 20.7548 45.1998C21.4886 45.1848 21.6683 45.3046 21.8779 46.0084C22.1624 46.9219 22.462 47.8205 22.8513 48.689C23.8547 50.8755 25.2025 52.7624 27.329 53.9904C27.5386 54.1102 27.7483 54.215 28.0029 54.185C28.7966 54.0952 29.5753 53.9155 30.369 53.6459C30.2192 53.4213 30.0845 53.2116 29.9497 53.0169C29.77 52.7174 29.6651 52.2832 29.3956 52.1334C29.0661 51.9387 28.7516 52.373 28.4072 52.4778C27.943 52.6276 27.5985 52.4778 27.3739 52.0585C27.1493 51.6242 27.2691 51.2199 27.7034 50.9503C27.8831 50.8455 28.0628 50.7407 28.2575 50.6808C28.7217 50.546 28.7666 50.2764 28.6618 49.8422C28.4072 48.8238 28.4372 48.8238 27.3589 48.7939C27.329 48.7939 27.2841 48.7939 27.2541 48.7939C26.73 48.7639 26.4604 48.4794 26.4454 47.9852C26.4304 47.491 26.715 47.1616 27.2092 47.1166C27.5087 47.0867 27.8082 47.0867 28.1077 47.1166C28.4222 47.1466 28.557 47.0268 28.557 46.7273C28.557 46.5775 28.5719 46.4278 28.6169 46.278C28.7067 45.8587 28.9763 45.3945 28.8714 45.035C28.7516 44.6307 28.1377 44.6157 27.7633 44.3911C27.344 44.1365 27.2092 43.7172 27.4338 43.2829C27.6584 42.8486 28.0178 42.7138 28.4671 42.8636C28.8415 42.9834 29.2309 43.4027 29.5304 43.253C29.8299 43.0882 29.9497 42.5791 30.1593 42.2346C30.369 41.8752 30.7733 41.5308 30.7733 41.1863C30.7733 40.782 30.2043 40.6173 29.9048 40.3028C29.5453 39.9284 29.5154 39.5241 29.8299 39.1497C30.1444 38.7753 30.5637 38.7154 30.968 39.0149C31.2825 39.2395 31.6269 39.7188 31.8815 39.6738C32.211 39.6139 32.4506 39.1347 32.7351 38.8352C33.0496 38.5057 33.5438 38.2362 33.6187 37.8618C33.6935 37.4724 33.1245 37.2029 32.8699 36.8435C32.5854 36.4391 32.6153 36.0048 32.9747 35.6904C33.3341 35.3759 33.7684 35.3759 34.1278 35.7353C34.3525 35.9599 34.5621 36.1995 34.7568 36.4541C34.9215 36.6638 35.0413 36.7087 35.2959 36.529C36.2394 35.915 37.078 35.286 36.7935 33.9382C36.7036 33.474 37.093 33.2044 37.5722 33.1745C38.0514 33.1595 38.3509 33.3991 38.4408 33.8783C38.4707 34.073 38.4857 34.2976 38.4557 34.4923C38.3359 35.2111 38.5905 35.6904 39.2345 36.0348C39.6388 36.2445 39.9832 36.7985 40.3576 36.7985C40.732 36.7836 41.0016 36.1846 41.316 35.8401C41.6155 35.5107 41.945 35.3759 42.3643 35.5706C42.9484 35.8551 43.0083 36.4391 42.529 37.0232C42.2595 37.3526 41.7953 37.6671 41.7653 38.0116C41.7353 38.3859 42.2894 38.6255 42.574 38.94C42.8585 39.2545 43.1281 39.7637 43.4725 39.8236C43.8619 39.8835 44.1464 39.3294 44.5058 39.0748C44.5208 39.0598 44.5358 39.0449 44.5507 39.0449C44.97 38.7454 45.3894 38.7753 45.7038 39.1347C46.0333 39.4941 46.0034 39.9733 45.629 40.3328C45.2995 40.6622 44.6855 40.8868 44.6556 41.2762C44.6406 41.6506 45.0898 42.0549 45.3295 42.4443C45.8835 43.3578 45.8835 43.3578 46.9169 42.9385C46.9468 42.9235 46.9768 42.9085 47.0217 42.8935C47.5308 42.7138 47.9352 42.8636 48.1448 43.3278C48.3395 43.7771 48.2047 44.1665 47.7555 44.4061C47.456 44.5708 47.1565 44.7056 46.842 44.8404C46.6323 44.9302 46.5724 45.0201 46.6473 45.2597C46.797 45.7539 46.9318 46.263 46.9917 46.7872C47.0367 47.1166 47.1864 47.1166 47.426 47.1316C47.8903 47.1316 48.3695 47.0567 48.8038 47.2664C49.283 47.9253 49.238 48.3147 48.5941 48.7939C48.1898 48.7939 47.7705 48.7939 47.3661 48.8088C47.2164 48.8088 47.0966 48.7789 47.0217 48.9886C46.6024 50.2615 46.6772 50.4412 47.9052 50.9803C48.2646 51.2648 48.3844 51.6242 48.1748 52.0585C47.9352 52.5377 47.5308 52.6126 47.0516 52.4928C46.228 51.9986 46.228 51.9986 45.7787 52.7474C45.6889 52.8971 45.599 53.0319 45.5092 53.1667C45.1048 53.7657 45.1048 53.7657 45.8087 53.9304C45.8386 53.9454 45.8835 53.9304 45.9135 53.9304C46.4227 54.0802 46.9318 54.1401 47.456 54.2C47.6806 54.23 47.8453 54.185 48.0101 54.0203C50.1216 51.8938 51.4245 49.4228 51.4245 46.3529C51.4095 43.0583 51.4245 39.7637 51.4245 36.4841C51.3795 35.6904 51.5742 35.4657 52.2781 35.331ZM30.1444 47.7755C30.1444 49.4827 30.5337 50.8605 31.3723 52.0735C32.0912 53.1068 31.7767 53.0319 32.9148 52.373C33.2443 52.1783 33.2892 52.0435 33.0346 51.7141C32.0163 50.4262 31.5221 48.9586 31.8066 47.3113C32.3757 43.8969 34.5172 41.5308 37.1379 39.4941C37.4524 39.2545 37.8118 39.2695 38.1263 39.5091C40.3426 41.2163 42.2595 43.1931 43.3078 45.8587C44.0865 47.8654 43.9218 49.7823 42.6189 51.5344C42.0049 52.373 42.0049 52.358 43.0083 52.8223C43.3078 52.957 43.4875 52.972 43.7121 52.6725C44.2362 51.9687 44.7005 51.2199 45 50.3813C45.8087 48.0601 45.3295 45.8737 44.1763 43.8071C42.6489 41.0366 40.3876 38.9101 37.8867 37.0382C37.6021 36.8285 37.4524 36.9633 37.2577 37.113C35.6553 38.2661 34.1877 39.569 32.9448 41.0965C31.2975 43.1332 30.2043 45.3645 30.1444 47.7755ZM42.0648 47.7755C42.0648 47.3263 41.8252 46.5176 41.4508 45.7539C40.5972 44.0317 39.2494 42.6989 37.8417 41.4409C37.662 41.2912 37.5422 41.2912 37.3625 41.4409C35.7602 42.8336 34.4124 44.4061 33.7085 46.4427C33.2143 47.8953 33.3341 49.2731 34.2476 50.546C34.4872 50.8755 34.622 50.9653 34.9215 50.5909C35.6553 49.6924 36.2693 48.719 36.7186 47.6408C36.8833 47.2514 37.1079 46.9369 37.5722 46.9519C38.0214 46.9669 38.261 47.2514 38.4258 47.6408C38.9349 48.8089 39.6687 49.8571 40.4475 50.8455C40.6571 51.1001 40.7769 51.1151 40.9866 50.8605C41.6754 50.0967 42.0648 49.2132 42.0648 47.7755Z" fill="#040302"/>
<path d="M19.9308 42.6395C19.3467 42.6994 19.0322 42.4448 18.8675 41.8908C17.5946 37.6228 16.3067 33.3548 15.0338 29.0718C14.4497 27.11 15.528 25.0733 17.4299 24.4294C19.3617 23.7705 21.4283 24.7589 22.1621 26.7206C23.4949 30.2698 24.7828 33.819 26.0857 37.3831C26.2504 37.8474 26.49 38.1918 27.0141 38.2068C27.5832 38.2218 27.9726 37.8773 28.0175 37.3083C28.0325 37.1286 28.0325 36.9339 28.0325 36.7542C28.0325 28.4129 28.0325 20.0566 28.0325 11.7152C28.0325 9.70853 29.1706 8.16606 30.9677 7.7168C32.001 7.46222 32.9594 7.68685 33.8729 8.21099C34.412 6.1893 35.7298 5.00625 37.467 4.96132C39.3239 4.90142 40.6568 5.99462 41.3906 8.21099C42.0046 7.88153 42.6185 7.64192 43.3224 7.62695C45.389 7.58202 47.1561 9.22932 47.216 11.3109C47.231 12.1645 47.216 13.0331 47.216 13.8867C47.216 14.7403 47.216 15.6089 47.216 16.5224C47.8599 16.2079 48.4889 15.9533 49.1928 15.9383C51.2145 15.9233 52.9965 17.4658 53.0265 19.4875C53.0864 23.6656 53.0415 27.8288 53.0564 32.007C53.0564 32.5311 52.7419 32.7707 52.2777 32.8755C51.5289 32.7408 51.3792 32.5461 51.3792 31.7973C51.3792 30.9587 51.3642 30.1201 51.3792 29.2814C51.3792 29.0119 51.3343 28.8771 51.0198 28.8921C50.271 28.922 49.5372 28.907 48.7884 28.922C48.414 28.922 48.0397 28.937 47.6653 28.8921C47.2759 28.8471 47.201 29.0269 47.216 29.3713C47.231 30.8539 47.231 32.3214 47.216 33.804C47.216 34.4629 46.9165 34.8223 46.3774 34.8223C45.8383 34.8223 45.5388 34.4629 45.5388 33.804C45.5388 32.7557 45.5238 31.7075 45.5388 30.6592C45.5388 30.2998 45.4639 30.18 45.0745 30.18C44.0712 30.2099 43.0528 30.2249 42.0495 30.18C41.5253 30.15 41.2857 30.2848 41.3756 30.8389C41.4205 31.1833 41.2708 31.4679 40.9413 31.6176C40.6268 31.7674 40.3123 31.7524 40.0278 31.5577C39.6834 31.3181 39.6834 30.9737 39.6834 30.5993C39.6834 26.8554 39.6834 23.1116 39.6983 19.3677C39.6983 18.9783 39.6235 18.8585 39.2191 18.8735C38.1559 18.9035 37.0926 18.9035 36.0144 18.8735C35.5951 18.8585 35.5202 19.0083 35.5352 19.3827C35.5651 20.371 35.5501 21.3594 35.5501 22.3628C35.5501 25.1482 35.5501 27.9336 35.5501 30.7341C35.5501 31.2432 35.4154 31.6176 34.8463 31.7075C34.2473 31.7973 33.828 31.4379 33.8729 30.794C33.9028 30.2548 33.6932 30.1949 33.2439 30.1949C32.2555 30.2249 31.2672 30.2249 30.2638 30.1949C29.8295 30.18 29.6947 30.2998 29.6947 30.749C29.7247 32.9205 29.7097 35.0919 29.7097 37.2633C29.7097 38.4165 29.1406 39.2251 28.0924 39.6594C26.9093 40.1536 25.7712 39.8391 24.8277 38.7759C24.3635 37.8174 24.064 36.8141 23.7046 35.8257C23.5997 35.5412 23.4949 35.4513 23.1804 35.5861C22.5664 35.8407 21.9375 36.0653 21.3235 36.2899C20.7544 36.4846 20.2003 36.6943 19.6312 36.859C19.2419 36.9638 19.152 37.1136 19.2868 37.5179C19.7061 38.8058 20.0805 40.1237 20.4699 41.4265C20.6945 42.0854 20.5897 42.2951 19.9308 42.6395ZM47.246 27.08C47.231 27.1549 47.246 27.1849 47.3358 27.1849C47.83 27.1849 48.3092 27.1849 48.8034 27.1849C49.5522 27.1849 50.3009 27.1849 51.0347 27.2148C51.3043 27.2298 51.3942 27.1399 51.3792 26.8704C51.3642 26.1665 51.3642 25.4477 51.3792 24.7439C51.3792 24.4743 51.3043 24.3845 51.0347 24.3994C50.286 24.4144 49.5372 24.4144 48.8034 24.4294C48.3991 24.4294 47.9798 24.4294 47.5754 24.3994C47.3059 24.3845 47.231 24.4893 47.231 24.7439C47.246 25.5076 47.246 26.3013 47.246 27.08ZM20.7244 34.6277C21.3834 34.403 22.0573 34.1634 22.7312 33.9388C22.9408 33.8789 23.0007 33.789 22.9109 33.5794C22.6413 32.8905 22.3867 32.1867 22.1321 31.4828C22.0573 31.2732 21.9824 31.1833 21.7278 31.2881C21.1288 31.5427 20.5148 31.7524 19.9158 31.977C19.3317 32.1717 18.7477 32.3813 18.1636 32.5611C17.939 32.6359 17.8641 32.7258 17.954 32.9654C18.1786 33.6692 18.3883 34.3881 18.5979 35.1069C18.6578 35.3165 18.7477 35.3615 18.9573 35.2866C19.5414 35.047 20.1404 34.8373 20.7244 34.6277ZM17.5347 26.2564C16.7859 26.7506 16.4115 27.5143 16.6212 28.353C16.8159 29.1467 17.0704 29.9254 17.2951 30.7191C17.355 30.9587 17.4448 31.0635 17.7144 30.9587C18.2236 30.749 18.7477 30.5543 19.2718 30.3597C19.9008 30.15 20.5447 29.9254 21.1737 29.7157C21.3684 29.6558 21.4283 29.551 21.3534 29.3413C21.0539 28.5776 20.8143 27.7839 20.4699 27.0501C19.9457 25.9419 18.5979 25.5975 17.5347 26.2564ZM48.9082 22.6773C49.6121 22.6773 50.3309 22.6773 51.0347 22.7072C51.2893 22.7072 51.3942 22.6473 51.3942 22.3628C51.3792 21.4493 51.4241 20.5358 51.3792 19.6223C51.3043 17.99 49.5821 17.0914 48.2194 17.96C47.5455 18.3344 47.2759 18.9334 47.246 19.6672C47.216 20.1464 47.231 20.6406 47.246 21.1198C47.2609 21.629 47.0064 22.3328 47.3508 22.6174C47.6952 22.9019 48.3691 22.7072 48.9082 22.6773ZM39.7133 10.4423C39.7133 9.88824 39.7283 9.31917 39.7133 8.76508C39.6834 7.597 38.7699 6.66852 37.6767 6.63857C36.5535 6.62359 35.61 7.50714 35.5801 8.6902C35.5501 9.90321 35.5801 11.1162 35.5651 12.3442C35.5651 12.6587 35.6849 12.7186 35.9545 12.7186C37.0926 12.7036 38.2307 12.7036 39.3839 12.7186C39.6534 12.7186 39.7283 12.6287 39.7283 12.3592C39.6983 11.7003 39.7133 11.0713 39.7133 10.4423ZM43.4122 14.905C43.9963 14.905 44.5803 14.89 45.1494 14.905C45.4789 14.92 45.5537 14.8002 45.5537 14.4857C45.5388 13.4374 45.5687 12.3891 45.5388 11.3409C45.5088 10.2027 44.5953 9.3042 43.5021 9.28922C42.349 9.27425 41.4355 10.1428 41.4055 11.3259C41.3756 12.3891 41.4055 13.4524 41.3906 14.5306C41.3906 14.8301 41.4954 14.92 41.7799 14.905C42.319 14.89 42.8731 14.905 43.4122 14.905ZM31.8063 14.905C32.3304 14.905 32.8546 14.8751 33.3787 14.92C33.828 14.9499 33.9028 14.7852 33.9028 14.3809C33.8729 13.4075 33.9028 12.4341 33.8879 11.4607C33.8729 10.2027 33.0343 9.31917 31.8662 9.3042C30.7131 9.28922 29.7996 10.1728 29.7546 11.3858C29.7097 12.4341 29.7546 13.4823 29.7397 14.5306C29.7397 14.8301 29.8445 14.92 30.129 14.905C30.6831 14.89 31.2372 14.905 31.8063 14.905ZM45.5388 23.3062C45.5388 22.7072 45.5238 22.1082 45.5388 21.5092C45.5537 21.2097 45.4789 21.0899 45.1494 21.0899C44.0262 21.1048 42.9031 21.1048 41.7799 21.0899C41.4505 21.0899 41.3756 21.2097 41.3756 21.5092C41.3906 22.6922 41.3906 23.8603 41.3756 25.0434C41.3756 25.3429 41.4505 25.4777 41.7799 25.4627C42.9031 25.4477 44.0262 25.4477 45.1494 25.4627C45.4938 25.4627 45.5537 25.3279 45.5388 25.0284C45.5388 24.4743 45.5388 23.8903 45.5388 23.3062ZM33.8729 23.2613C33.8729 22.6623 33.8579 22.0633 33.8729 21.4643C33.8729 21.2246 33.8429 21.0899 33.5434 21.0899C32.3903 21.1048 31.2222 21.1048 30.0691 21.0899C29.7996 21.0899 29.7097 21.1797 29.7247 21.4493C29.7397 22.6623 29.7397 23.8753 29.7247 25.0883C29.7247 25.3878 29.8295 25.4777 30.1141 25.4627C31.2372 25.4477 32.3604 25.4477 33.4835 25.4627C33.828 25.4627 33.8879 25.3429 33.8879 25.0434C33.8579 24.4593 33.8729 23.8603 33.8729 23.2613ZM37.7216 14.3809C37.1375 14.3809 36.5685 14.3958 35.9844 14.3809C35.6849 14.3659 35.5501 14.4408 35.5651 14.7702C35.5951 15.4441 35.5951 16.118 35.5651 16.7919C35.5501 17.1064 35.655 17.2112 35.9695 17.1963C37.0926 17.1813 38.2158 17.1813 39.3389 17.1963C39.6235 17.1963 39.7433 17.1364 39.7283 16.8368C39.6983 16.148 39.7133 15.4591 39.7283 14.7553C39.7433 14.4707 39.6534 14.3659 39.3539 14.3659C38.7998 14.3958 38.2607 14.3809 37.7216 14.3809ZM31.8213 16.5972C31.2372 16.5972 30.6681 16.6122 30.0841 16.5972C29.8145 16.5972 29.7247 16.6871 29.7247 16.9566C29.7397 17.6605 29.7397 18.3793 29.7247 19.0832C29.7247 19.3677 29.8295 19.4276 30.0841 19.4276C31.2222 19.4126 32.3604 19.4126 33.4985 19.4276C33.798 19.4276 33.8729 19.3228 33.8729 19.0382C33.8579 18.3494 33.8579 17.6605 33.8729 16.9716C33.8879 16.6721 33.7681 16.5972 33.4835 16.5972C32.9294 16.5972 32.3753 16.5972 31.8213 16.5972ZM43.4122 19.4126C43.9963 19.4126 44.5654 19.3976 45.1494 19.4126C45.419 19.4126 45.5687 19.3827 45.5537 19.0532C45.5388 18.3494 45.5388 17.6305 45.5537 16.9267C45.5537 16.7021 45.5238 16.5823 45.2542 16.5823C44.0712 16.5972 42.9031 16.5972 41.72 16.5823C41.4804 16.5823 41.3906 16.6721 41.3906 16.9117C41.4055 17.6156 41.4055 18.3344 41.3906 19.0382C41.3756 19.3527 41.4954 19.4276 41.7799 19.4126C42.319 19.3976 42.8731 19.4126 43.4122 19.4126ZM31.8213 27.1549C31.2372 27.1549 30.6681 27.1699 30.0841 27.1549C29.8295 27.1549 29.6947 27.2298 29.7247 27.4994C29.7397 27.6641 29.7397 27.8438 29.7247 28.0085C29.6648 28.3979 29.8145 28.5177 30.2189 28.5177C31.1324 28.4877 32.0459 28.5027 32.9744 28.5027C33.9028 28.5027 33.8879 28.5027 33.8879 27.5892C33.8879 27.2448 33.813 27.125 33.4536 27.1549C32.9145 27.1849 32.3604 27.1549 31.8213 27.1549ZM43.4721 27.1549C42.8881 27.1549 42.319 27.1699 41.735 27.1549C41.4654 27.1399 41.3606 27.2448 41.3906 27.5143C41.4055 27.6791 41.4055 27.8588 41.3906 28.0235C41.3307 28.4129 41.4804 28.5327 41.8847 28.5177C42.7983 28.4877 43.7118 28.5027 44.6253 28.5027C45.5837 28.5027 45.5687 28.5027 45.5537 27.5593C45.5537 27.2448 45.4639 27.1399 45.1494 27.1549C44.5953 27.1699 44.0262 27.1549 43.4721 27.1549Z" fill="#030302"/>
<path d="M24.8581 38.7462C25.7866 39.8095 26.9248 40.124 28.1228 39.6298C29.1711 39.1805 29.7401 38.3868 29.7401 37.2337C29.7401 35.0623 29.7551 32.8908 29.7252 30.7194C29.7252 30.2701 29.8599 30.1503 30.2942 30.1653C31.2826 30.1953 32.271 30.1953 33.2743 30.1653C33.7386 30.1503 33.9482 30.2252 33.9033 30.7643C33.8584 31.4233 34.2777 31.7677 34.8767 31.6778C35.4308 31.603 35.5806 31.2136 35.5806 30.7044C35.5806 27.919 35.5806 25.1336 35.5806 22.3332C35.5806 21.3448 35.5955 20.3564 35.5656 19.353C35.5506 18.9787 35.6255 18.8289 36.0448 18.8439C37.1081 18.8738 38.1713 18.8738 39.2495 18.8439C39.6539 18.8289 39.7288 18.9637 39.7288 19.3381C39.7138 23.0819 39.7138 26.8258 39.7138 30.5697C39.7138 30.9291 39.7138 31.2885 40.0582 31.5281C40.3427 31.7228 40.6572 31.7377 40.9717 31.588C41.3012 31.4382 41.4509 31.1537 41.406 30.8093C41.3162 30.2402 41.5558 30.1204 42.0799 30.1503C43.0833 30.1953 44.1016 30.1803 45.1049 30.1503C45.4793 30.1354 45.5692 30.2701 45.5692 30.6296C45.5542 31.6778 45.5542 32.7261 45.5692 33.7744C45.5692 34.4333 45.8687 34.7927 46.4078 34.7927C46.9469 34.7927 47.2464 34.4333 47.2464 33.7744C47.2464 32.2918 47.2614 30.8242 47.2464 29.3417C47.2464 28.9972 47.3063 28.8175 47.6957 28.8625C48.0701 28.9074 48.4445 28.8774 48.8188 28.8924C48.8188 35.0024 48.8039 41.0974 48.8039 47.2074C48.3546 46.9827 47.8904 47.0726 47.4261 47.0726C47.1865 47.0726 47.0368 47.0576 46.9918 46.7282C46.9319 46.219 46.7972 45.6948 46.6474 45.2007C46.5725 44.9611 46.6324 44.8712 46.8421 44.7813C47.1566 44.6615 47.4561 44.5118 47.7556 44.3471C48.2198 44.0925 48.3396 43.7181 48.145 43.2688C47.9353 42.8046 47.531 42.6548 47.0218 42.8345C46.9918 42.8495 46.9469 42.8645 46.917 42.8795C45.8986 43.3138 45.8986 43.3138 45.3296 42.3853C45.09 41.9959 44.6257 41.5916 44.6557 41.2172C44.6707 40.8278 45.2846 40.6032 45.6291 40.2737C46.0035 39.9143 46.0184 39.4351 45.704 39.0757C45.3895 38.7163 44.9702 38.6863 44.5508 38.9859C44.5359 39.0008 44.5209 39.0158 44.5059 39.0158C44.1465 39.2704 43.862 39.8245 43.4726 39.7646C43.1282 39.7047 42.8736 39.1955 42.5741 38.881C42.2896 38.5665 41.7355 38.3269 41.7654 37.9525C41.7954 37.6081 42.2596 37.2936 42.5292 36.9642C43.0084 36.3801 42.9485 35.7961 42.3644 35.5116C41.9451 35.3019 41.6157 35.4516 41.3162 35.7811C41.0017 36.1255 40.7471 36.7246 40.3577 36.7395C39.9983 36.7545 39.6389 36.2004 39.2346 35.9758C38.5906 35.6314 38.336 35.1521 38.4558 34.4333C38.4858 34.2386 38.4858 34.014 38.4409 33.8193C38.351 33.3551 38.0515 33.1005 37.5723 33.1155C37.0931 33.1305 36.7037 33.415 36.7936 33.8792C37.0781 35.227 36.2395 35.856 35.296 36.47C35.0414 36.6347 34.9216 36.6048 34.7569 36.3951C34.5622 36.1405 34.3526 35.9009 34.1279 35.6763C33.7685 35.3318 33.3342 35.3169 32.9748 35.6314C32.6154 35.9458 32.5855 36.3801 32.87 36.7845C33.1246 37.1439 33.6937 37.4134 33.6188 37.8028C33.5439 38.1772 33.0347 38.4467 32.7352 38.7762C32.4507 39.0757 32.2111 39.5549 31.8816 39.6148C31.627 39.6597 31.2826 39.1805 30.9681 38.9559C30.5638 38.6564 30.1445 38.7163 29.83 39.0907C29.5155 39.4651 29.5455 39.8694 29.9049 40.2438C30.1894 40.5433 30.7585 40.723 30.7734 41.1273C30.7734 41.4718 30.3841 41.8162 30.1594 42.1756C29.9498 42.5201 29.83 43.0292 29.5305 43.194C29.2459 43.3437 28.8416 42.9244 28.4672 42.8046C28.018 42.6548 27.6585 42.7896 27.4339 43.2239C27.2093 43.6582 27.3441 44.0775 27.7634 44.3321C28.1378 44.5567 28.7518 44.5717 28.8716 44.976C28.9764 45.3354 28.7068 45.7997 28.617 46.219C28.587 46.3687 28.5721 46.5185 28.5571 46.6683C28.5421 46.9678 28.4073 47.0876 28.1078 47.0576C27.8083 47.0277 27.5088 47.0277 27.2093 47.0576C26.7151 47.1025 26.4306 47.432 26.4455 47.9262C26.4605 48.4204 26.7301 48.7049 27.2542 48.7349C27.2842 48.7349 27.3291 48.7349 27.359 48.7349C28.4373 48.7648 28.4073 48.7648 28.6619 49.7831C28.7667 50.2174 28.7218 50.487 28.2576 50.6218C28.0629 50.6817 27.8832 50.7865 27.7035 50.8913C27.2692 51.1459 27.1344 51.5652 27.374 51.9995C27.5986 52.4188 27.9431 52.5686 28.4073 52.4188C28.7518 52.314 29.0662 51.8797 29.3957 52.0744C29.6653 52.2241 29.7701 52.6584 29.9498 52.9579C30.0696 53.1676 30.2044 53.3623 30.3691 53.5869C29.5604 53.8565 28.7967 54.0362 28.003 54.126C27.7334 54.156 27.5387 54.0511 27.3291 53.9313C25.2026 52.7034 23.8548 50.8015 22.8514 48.63C22.4471 47.7615 22.1476 46.8629 21.878 45.9494C21.6534 45.2456 21.4887 45.1258 20.7549 45.1408C20.4853 44.3021 20.2158 43.4485 19.9612 42.6099C20.6201 42.2655 20.7249 42.0558 20.5153 41.3669C20.1259 40.0641 19.7515 38.7612 19.3322 37.4584C19.1974 37.054 19.2873 36.9043 19.6766 36.7994C20.2457 36.6347 20.7998 36.4251 21.3689 36.2304C21.6684 36.5898 21.7133 37.039 21.8631 37.4584C22.1476 38.2521 22.5819 38.8661 23.4804 39.0308C23.9746 39.1506 24.3939 38.881 24.8581 38.7462ZM38.4259 21.5844C38.4109 21.1052 38.0815 20.7757 37.6172 20.7757C37.138 20.7757 36.7786 21.1351 36.7936 21.6293C36.8085 22.0936 37.153 22.453 37.6022 22.453C38.0665 22.453 38.4259 22.0786 38.4259 21.5844ZM38.4259 25.1485C38.4109 24.6544 38.0515 24.3249 37.5573 24.3548C37.1081 24.3848 36.7786 24.7442 36.7936 25.2084C36.8085 25.6727 37.168 26.0321 37.6172 26.0321C38.0665 26.0321 38.4409 25.6427 38.4259 25.1485ZM38.4259 28.7876C38.4409 28.3233 38.1114 27.9639 37.6472 27.949C37.153 27.934 36.7936 28.2634 36.7786 28.7576C36.7636 29.2219 37.0931 29.5813 37.5423 29.6112C38.0365 29.6262 38.4109 29.2668 38.4259 28.7876Z" fill="#FFD298"/>
<path d="M48.788 47.2219C48.788 41.1119 48.803 35.0169 48.803 28.907C49.5518 28.907 50.2856 28.907 51.0344 28.877C51.3488 28.862 51.3938 29.0118 51.3938 29.2664C51.3788 30.105 51.3938 30.9436 51.3938 31.7822C51.3938 32.531 51.5585 32.7257 52.2923 32.8605C52.2923 33.6841 52.2923 34.5078 52.2923 35.3314C51.5885 35.4662 51.3938 35.6908 51.3938 36.4396C51.3938 39.7342 51.3788 43.0288 51.3938 46.3084C51.4088 49.3784 50.0909 51.8493 47.9794 53.9758C47.8146 54.1406 47.6499 54.1855 47.4253 54.1555C46.9011 54.0956 46.392 54.0208 45.8828 53.886C46.2572 53.4068 46.6466 52.9276 47.0209 52.4334C47.5002 52.5532 47.9045 52.4933 48.1441 51.9991C48.3538 51.5648 48.2489 51.2204 47.8745 50.9209C48.0842 50.1871 48.5035 49.5132 48.5634 48.7344C49.2074 48.2552 49.2673 47.8808 48.788 47.2219Z" fill="#DFB278"/>
<path d="M42.784 61.6436C39.4295 61.6436 36.075 61.6436 32.7205 61.6436C32.8103 61.5538 32.9301 61.4939 33.005 61.389C33.2746 61.0147 33.2895 60.6253 32.99 60.2659C32.6905 59.9215 32.3012 59.8915 31.9418 60.1311C31.5374 60.4007 31.5224 60.805 31.6572 61.2243C31.7171 61.434 31.9118 61.5238 32.0765 61.6586C30.8785 61.6586 29.6655 61.6586 28.4675 61.6736C28.4525 59.8466 28.4525 58.0046 28.4375 56.1776C28.4375 55.923 28.5274 55.8032 28.767 55.7733C29.6056 55.6535 30.4143 55.4288 31.193 55.1293C31.5224 55.0095 31.5374 55.1293 31.5374 55.3839C31.5374 56.0428 31.5224 56.6868 31.5374 57.3457C31.5524 58.0196 31.8519 58.349 32.421 58.3191C32.9601 58.3041 33.2147 58.0046 33.2296 57.3307C33.2296 56.4172 33.2296 55.5037 33.2296 54.5752C33.2296 54.3805 33.1847 54.1709 33.4243 54.0361C34.6823 53.2724 35.7605 52.299 36.7638 50.9961C36.7638 52.0444 36.7638 52.9279 36.7638 53.8115C36.7638 54.2008 36.7489 54.6052 36.7638 54.9945C36.7938 55.5037 37.0933 55.8032 37.5725 55.8032C38.0667 55.8182 38.4111 55.5037 38.4261 54.9646C38.4561 54.0661 38.4411 53.1675 38.4411 52.269C38.4411 51.9695 38.4411 51.67 38.4411 51.3705C38.6358 51.2956 38.6807 51.4753 38.7406 51.5502C39.6391 52.6284 40.7024 53.497 41.9304 54.1559C42.1999 54.3057 42.2898 54.4554 42.2898 54.7699C42.2598 55.5936 42.2748 56.4172 42.2898 57.2409C42.2898 57.9597 42.5743 58.3041 43.1434 58.2891C43.6975 58.2891 43.967 57.9597 43.967 57.2708C43.967 56.7616 43.967 56.2674 43.967 55.7583C43.967 55.0694 43.967 55.0694 44.6409 55.339C44.6409 57.4355 44.6409 59.5171 44.6409 61.6137C44.2516 61.6137 43.8622 61.6137 43.4728 61.6137C43.5477 61.5538 43.6226 61.4939 43.6825 61.434C44.0269 61.0446 44.0269 60.5205 43.6825 60.191C43.383 59.9065 42.8738 59.8915 42.5743 60.191C42.2299 60.5205 42.2299 61.0446 42.5743 61.434C42.6342 61.5238 42.7091 61.5837 42.784 61.6436ZM37.7522 57.2558C37.288 57.2558 36.9585 57.6003 36.9436 58.0645C36.9286 58.5587 37.303 58.9331 37.7672 58.9331C38.2165 58.9331 38.5609 58.5737 38.5759 58.1094C38.5908 57.6152 38.2464 57.2558 37.7522 57.2558Z" fill="#FFD298"/>
<path d="M30.1445 47.7767C30.2044 45.3656 31.2976 43.1343 32.915 41.1126C34.1579 39.5701 35.6255 38.2822 37.2279 37.1291C37.4226 36.9794 37.5873 36.8446 37.8569 37.0542C40.3728 38.9262 42.6191 41.0377 44.1466 43.8231C45.2847 45.8897 45.7789 48.0762 44.9702 50.3974C44.6707 51.236 44.2214 51.9698 43.6823 52.6886C43.4577 52.9881 43.278 52.9731 42.9785 52.8383C41.9751 52.3891 41.9751 52.4041 42.5891 51.5505C43.892 49.7834 44.0567 47.8665 43.278 45.8748C42.2297 43.2091 40.3129 41.2474 38.0965 39.5252C37.782 39.2856 37.4226 39.2556 37.1081 39.5102C34.4874 41.5469 32.3609 43.913 31.7769 47.3274C31.5073 48.9747 31.9865 50.4423 33.0048 51.7302C33.2594 52.0596 33.2295 52.1794 32.885 52.3891C31.7619 53.063 32.0764 53.1229 31.3426 52.0896C30.5339 50.8616 30.1445 49.4988 30.1445 47.7767Z" fill="#FFD298"/>
<path d="M42.0643 47.7765C42.0643 49.2141 41.6749 50.0977 41.001 50.8764C40.7764 51.131 40.6566 51.116 40.4619 50.8614C39.6682 49.8581 38.9494 48.8248 38.4402 47.6567C38.2755 47.2673 38.0209 46.9828 37.5866 46.9678C37.1224 46.9529 36.8978 47.2673 36.733 47.6567C36.2838 48.7349 35.6698 49.7083 34.936 50.6069C34.6365 50.9812 34.4867 50.8914 34.2621 50.5619C33.3636 49.289 33.2288 47.9113 33.723 46.4587C34.4268 44.422 35.7746 42.8346 37.377 41.4569C37.5567 41.3071 37.6765 41.2921 37.8562 41.4569C39.2789 42.7148 40.6117 44.0476 41.4653 45.7698C41.8247 46.5186 42.0643 47.3272 42.0643 47.7765ZM38.3803 44.8413C38.3803 44.3471 38.0808 44.0177 37.6166 44.0027C37.1224 43.9877 36.778 44.3172 36.778 44.8263C36.778 45.3205 37.1374 45.6949 37.6016 45.6799C38.0659 45.665 38.3803 45.3205 38.3803 44.8413Z" fill="#FFD298"/>
<path d="M44.6406 61.6429C44.6406 59.5463 44.6406 57.4647 44.6406 55.3682C45.4044 55.5179 46.1681 55.6826 46.9319 55.8025C47.2014 55.8474 47.2014 55.9822 47.2014 56.1918C47.1865 58.0188 47.1864 59.8458 47.1864 61.6728C46.3478 61.6578 45.4942 61.6429 44.6406 61.6429Z" fill="#DFB278"/>
<path d="M48.5783 48.749C48.5184 49.5277 48.0991 50.2016 47.8894 50.9354C46.6614 50.3963 46.5865 50.2166 47.0059 48.9437C47.0807 48.734 47.2005 48.764 47.3503 48.764C47.7546 48.749 48.159 48.749 48.5783 48.749Z" fill="#EEB080"/>
<path d="M47.021 52.4489C46.6467 52.9281 46.2573 53.4073 45.8829 53.9015C45.853 53.9015 45.808 53.9164 45.7781 53.9015C45.0742 53.7367 45.0742 53.7367 45.4786 53.1377C45.5684 53.0029 45.6583 52.8532 45.7481 52.7184C46.1974 51.9547 46.1974 51.9547 47.021 52.4489Z" fill="#EEB080"/>
<path d="M42.7824 61.6439C42.7076 61.584 42.6327 61.5241 42.5728 61.4642C42.2283 61.0748 42.2283 60.5357 42.5728 60.2212C42.8873 59.9367 43.3815 59.9367 43.681 60.2212C44.0254 60.5507 44.0254 61.0748 43.681 61.4642C43.6211 61.539 43.5462 61.584 43.4713 61.6439C43.2467 61.6439 43.0071 61.6439 42.7824 61.6439Z" fill="#090605"/>
<path d="M32.06 61.6435C31.9102 61.5087 31.7155 61.4188 31.6407 61.2092C31.5059 60.7899 31.5209 60.3855 31.9252 60.116C32.2846 59.8764 32.6889 59.9063 32.9735 60.2507C33.273 60.6101 33.258 60.9995 32.9885 61.3739C32.9136 61.4787 32.7938 61.5386 32.7039 61.6285C32.4943 61.6435 32.2846 61.6435 32.06 61.6435Z" fill="#090605"/>
<path d="M39.714 10.442C39.714 11.0709 39.699 11.7149 39.714 12.3439C39.714 12.6134 39.6391 12.7033 39.3695 12.7033C38.2314 12.6883 37.0933 12.6883 35.9401 12.7033C35.6556 12.7033 35.5508 12.6434 35.5508 12.3289C35.5658 11.1159 35.5358 9.90286 35.5658 8.67487C35.5957 7.49181 36.5392 6.60826 37.6623 6.62323C38.7705 6.63821 39.669 7.58166 39.699 8.74975C39.714 9.31881 39.714 9.87291 39.714 10.442Z" fill="#FFD298"/>
<path d="M43.4123 14.905C42.8732 14.905 42.3341 14.8901 41.78 14.905C41.4955 14.92 41.3906 14.8302 41.3906 14.5307C41.4056 13.4674 41.3757 12.4041 41.4056 11.3259C41.4356 10.1429 42.3491 9.27428 43.5022 9.28925C44.5954 9.30423 45.5089 10.2028 45.5388 11.3409C45.5688 12.3892 45.5388 13.4375 45.5538 14.4857C45.5538 14.8002 45.4789 14.92 45.1495 14.905C44.5654 14.8901 43.9964 14.905 43.4123 14.905Z" fill="#FFD298"/>
<path d="M31.8066 14.9043C31.2525 14.9043 30.6834 14.8893 30.1293 14.9043C29.8448 14.9193 29.725 14.8294 29.74 14.5299C29.7549 13.4816 29.71 12.4333 29.755 11.3851C29.7999 10.1571 30.7284 9.27352 31.8665 9.30347C33.0346 9.31845 33.8732 10.217 33.8882 11.4599C33.9031 12.4333 33.8732 13.4067 33.9031 14.3801C33.9181 14.7845 33.8283 14.9492 33.379 14.9193C32.8549 14.8743 32.3307 14.9043 31.8066 14.9043Z" fill="#FFD298"/>
<path d="M45.5382 23.306C45.5382 23.8901 45.5232 24.4741 45.5382 25.0432C45.5531 25.3427 45.4932 25.4775 45.1488 25.4775C44.0257 25.4625 42.9025 25.4625 41.7793 25.4775C41.4499 25.4775 41.375 25.3577 41.375 25.0582C41.39 23.8751 41.39 22.707 41.375 21.5239C41.375 21.2244 41.4349 21.0897 41.7793 21.1046C42.9025 21.1196 44.0257 21.1196 45.1488 21.1046C45.4783 21.1046 45.5531 21.2244 45.5382 21.5239C45.5382 22.108 45.5382 22.707 45.5382 23.306Z" fill="#FFD298"/>
<path d="M33.8734 23.261C33.8734 23.86 33.8584 24.459 33.8734 25.058C33.8884 25.3575 33.8135 25.4923 33.4691 25.4773C32.3459 25.4623 31.2227 25.4623 30.0996 25.4773C29.8151 25.4773 29.6953 25.4024 29.7102 25.1029C29.7252 23.8899 29.7252 22.6769 29.7102 21.4639C29.7102 21.1943 29.7851 21.1045 30.0547 21.1045C31.2078 21.1195 32.3759 21.1195 33.529 21.1045C33.8285 21.1045 33.8584 21.2393 33.8584 21.4789C33.8734 22.0629 33.8734 22.6619 33.8734 23.261Z" fill="#FFD298"/>
<path d="M48.2188 17.9599C49.5815 17.1063 51.3037 17.9899 51.3786 19.6222C51.4235 20.5357 51.3786 21.4492 51.3935 22.3627C51.3935 22.6473 51.2887 22.7072 51.0341 22.7072C50.3303 22.6922 49.6264 22.6922 48.9076 22.6772C48.9076 21.9135 48.9675 21.1497 48.8926 20.4009C48.8178 19.5473 48.8926 18.6488 48.2188 17.9599Z" fill="#DFB278"/>
<path d="M37.7203 14.3813C38.2595 14.3813 38.7986 14.3962 39.3527 14.3813C39.6522 14.3663 39.7271 14.4711 39.7271 14.7706C39.7121 15.4595 39.7121 16.1484 39.7271 16.8522C39.742 17.1667 39.6222 17.2266 39.3377 17.2116C38.2145 17.1967 37.0914 17.1967 35.9682 17.2116C35.6537 17.2116 35.5489 17.1218 35.5639 16.8073C35.5938 16.1334 35.5938 15.4595 35.5639 14.7856C35.5489 14.4412 35.6837 14.3813 35.9832 14.3962C36.5523 14.3962 37.1363 14.3813 37.7203 14.3813Z" fill="#FFD298"/>
<path d="M31.8211 16.5973C32.3752 16.5973 32.9443 16.6122 33.4984 16.5973C33.7829 16.5823 33.8877 16.6721 33.8877 16.9717C33.8728 17.6605 33.8728 18.3494 33.8877 19.0383C33.8877 19.3228 33.8129 19.4276 33.5133 19.4276C32.3752 19.4127 31.2371 19.4127 30.0989 19.4276C29.8444 19.4276 29.7246 19.3677 29.7395 19.0832C29.7545 18.3793 29.7545 17.6605 29.7395 16.9567C29.7395 16.6871 29.8294 16.5973 30.0989 16.5973C30.653 16.5973 31.2371 16.5973 31.8211 16.5973Z" fill="#FFD298"/>
<path d="M43.4116 19.4124C42.8725 19.4124 42.3334 19.3974 41.7793 19.4124C41.4947 19.4274 41.3749 19.3525 41.3899 19.038C41.4049 18.3342 41.4049 17.6153 41.3899 16.9115C41.3899 16.6719 41.4798 16.582 41.7194 16.582C42.9024 16.582 44.0705 16.597 45.2536 16.582C45.5231 16.582 45.5531 16.7018 45.5531 16.9265C45.5381 17.6303 45.5381 18.3491 45.5531 19.053C45.5681 19.3824 45.4183 19.4124 45.1488 19.4124C44.5647 19.3974 43.9956 19.4124 43.4116 19.4124Z" fill="#FFD298"/>
<path d="M17.5352 26.256C18.5984 25.5971 19.9462 25.9265 20.4703 27.0497C20.8148 27.7835 21.0544 28.5772 21.3539 29.3409C21.4437 29.5506 21.3689 29.6404 21.1742 29.7153C20.5452 29.925 19.9013 30.1496 19.2723 30.3593C18.9728 29.5656 18.7032 28.7569 18.3588 27.9782C18.1192 27.3941 18.1042 26.6903 17.5352 26.256Z" fill="#DFB278"/>
<path d="M24.8578 38.7458C24.3935 38.8656 23.9742 39.1352 23.4651 39.0453C22.5665 38.8806 22.1173 38.2666 21.8477 37.4729C21.698 37.0536 21.653 36.6043 21.3535 36.2449C21.9825 36.0203 22.6115 35.7957 23.2105 35.5411C23.525 35.4063 23.6298 35.5111 23.7346 35.7807C24.094 36.784 24.3935 37.8024 24.8578 38.7458Z" fill="#DFB278"/>
<path d="M17.535 26.2568C18.104 26.6911 18.119 27.395 18.3736 27.964C18.718 28.7428 18.9876 29.5514 19.2871 30.3451C18.763 30.5398 18.2388 30.7345 17.7297 30.9441C17.4601 31.049 17.3702 30.9591 17.3103 30.7045C17.0857 29.9108 16.8311 29.1321 16.6364 28.3384C16.4118 27.5148 16.7712 26.751 17.535 26.2568Z" fill="#FFD298"/>
<path d="M48.8027 24.3997C49.5515 24.3997 50.3003 24.3997 51.0341 24.3697C51.3036 24.3548 51.3935 24.4446 51.3785 24.7142C51.3635 25.418 51.3635 26.1368 51.3785 26.8407C51.3785 27.1102 51.2887 27.2001 51.0341 27.1851C50.2853 27.1702 49.5365 27.1702 48.8027 27.1552C48.8027 26.2566 48.8027 25.3282 48.8027 24.3997Z" fill="#DFB278"/>
<path d="M48.2199 17.96C48.9088 18.6488 48.8339 19.5474 48.9088 20.401C48.9837 21.1497 48.9238 21.9135 48.9238 22.6772C48.3847 22.7072 47.7108 22.9019 47.3514 22.6173C47.0069 22.3328 47.2615 21.6439 47.2465 21.1198C47.2316 20.6406 47.2316 20.1464 47.2465 19.6672C47.2765 18.9334 47.546 18.3343 48.2199 17.96Z" fill="#FFD298"/>
<path d="M19.916 31.9926C20.515 31.7679 21.129 31.5583 21.728 31.3037C21.9826 31.1989 22.0575 31.2887 22.1324 31.4984C22.387 32.2022 22.6415 32.8911 22.9111 33.5949C23.001 33.8046 22.9261 33.8944 22.7314 33.9543C22.0575 34.179 21.3986 34.4036 20.7247 34.6432C20.7247 34.4186 20.6498 34.2089 20.5899 33.9993C20.3653 33.3104 20.0208 32.6964 19.916 31.9926Z" fill="#DFB278"/>
<path d="M19.9159 31.9922C20.0057 32.696 20.3502 33.325 20.5898 33.9839C20.6647 34.1936 20.7395 34.4032 20.7246 34.6279C20.1405 34.8525 19.5415 35.0622 18.9575 35.3018C18.7478 35.3916 18.6579 35.3317 18.598 35.1221C18.3884 34.4032 18.1787 33.6844 17.9541 32.9806C17.8792 32.741 17.9541 32.6511 18.1638 32.5762C18.7628 32.3815 19.3468 32.1869 19.9159 31.9922Z" fill="#FFD298"/>
<path d="M31.8216 27.1545C32.3607 27.1545 32.9148 27.1844 33.4539 27.1395C33.8133 27.1245 33.8882 27.2443 33.8882 27.5738C33.8733 28.4873 33.9032 28.4873 32.9747 28.4873C32.0612 28.4873 31.1477 28.4723 30.2192 28.5023C29.8149 28.5172 29.6801 28.3974 29.7251 27.9931C29.74 27.8284 29.74 27.6487 29.7251 27.4839C29.6951 27.1994 29.8299 27.1245 30.0845 27.1395C30.6685 27.1695 31.2376 27.1545 31.8216 27.1545Z" fill="#F4E48C"/>
<path d="M43.4721 27.1557C44.0262 27.1557 44.5953 27.1707 45.1494 27.1557C45.4638 27.1407 45.5537 27.2455 45.5537 27.56C45.5537 28.5035 45.5687 28.5035 44.6252 28.5035C43.7117 28.5035 42.7982 28.4885 41.8847 28.5184C41.4953 28.5334 41.3456 28.4136 41.3905 28.0243C41.4205 27.8595 41.4055 27.6948 41.3905 27.5151C41.3606 27.2455 41.4654 27.1557 41.735 27.1557C42.319 27.1707 42.8881 27.1557 43.4721 27.1557Z" fill="#F4E48C"/>
<path d="M48.8042 24.3988C48.8042 25.3273 48.8042 26.2408 48.8042 27.1693C48.31 27.1693 47.8308 27.1693 47.3366 27.1693C47.3066 27.1393 47.2767 27.1094 47.2467 27.0645C47.2467 26.2857 47.2467 25.507 47.2168 24.7283C47.2168 24.4587 47.2917 24.3539 47.5612 24.3839C47.9805 24.3988 48.3849 24.3988 48.8042 24.3988Z" fill="#FFD298"/>
<path d="M47.2459 27.0801C47.2759 27.11 47.3058 27.14 47.3358 27.1849C47.2609 27.1849 47.231 27.14 47.2459 27.0801Z" fill="#F2A76D"/>
<path d="M38.4257 21.5841C38.4407 22.0633 38.0663 22.4526 37.6021 22.4526C37.1528 22.4526 36.8084 22.0932 36.7934 21.629C36.7784 21.1348 37.1379 20.7754 37.6171 20.7754C38.0813 20.7754 38.4108 21.1198 38.4257 21.5841Z" fill="#090605"/>
<path d="M38.4239 25.148C38.4388 25.6272 38.0794 26.0166 37.6152 26.0166C37.1659 26.0166 36.8215 25.6722 36.7915 25.1929C36.7766 24.7287 37.091 24.3693 37.5553 24.3393C38.0345 24.3244 38.4089 24.6688 38.4239 25.148Z" fill="#090605"/>
<path d="M38.4258 28.7867C38.4108 29.2809 38.0364 29.6403 37.5572 29.6104C37.1079 29.5804 36.7785 29.221 36.7935 28.7568C36.8084 28.2626 37.1529 27.9181 37.662 27.9481C38.1113 27.9631 38.4408 28.3075 38.4258 28.7867Z" fill="#090605"/>
<path d="M37.7525 57.2549C38.2467 57.2549 38.5911 57.6143 38.5761 58.1085C38.5611 58.5727 38.2167 58.9321 37.7674 58.9321C37.3032 58.9321 36.9288 58.5577 36.9438 58.0636C36.9588 57.5993 37.2882 57.2699 37.7525 57.2549Z" fill="#090605"/>
<path d="M38.3797 44.8411C38.3797 45.3203 38.0503 45.6647 37.601 45.6797C37.1368 45.6947 36.7773 45.3203 36.7773 44.8261C36.7773 44.3169 37.1218 43.9875 37.616 44.0024C38.0952 44.0174 38.3947 44.3469 38.3797 44.8411Z" fill="#090605"/>
</svg>
