<svg width="68" height="68" viewBox="0 0 68 68" fill="none" xmlns="http://www.w3.org/2000/svg">
<path d="M60.5983 42.1738H7.3985C6.43412 42.1738 5.65234 42.9592 5.65234 43.928V60.5923C5.65234 61.5611 6.43412 62.3465 7.3985 62.3465H60.5983C61.5627 62.3465 62.3445 61.5611 62.3445 60.5923V43.928C62.3445 42.9592 61.5627 42.1738 60.5983 42.1738Z" fill="#B76E78"/>
<path d="M5.65264 49.1306C5.46816 49.1306 5.29122 49.0674 5.16077 48.955C5.03032 48.8425 4.95703 48.69 4.95703 48.531V47.9913C4.95703 47.9125 4.97502 47.8345 5.00998 47.7618C5.04494 47.689 5.09618 47.6229 5.16077 47.5672C5.22536 47.5116 5.30205 47.4674 5.38644 47.4372C5.47084 47.4071 5.56129 47.3916 5.65264 47.3916C5.74399 47.3916 5.83444 47.4071 5.91884 47.4372C6.00323 47.4674 6.07992 47.5116 6.14451 47.5672C6.2091 47.6229 6.26034 47.689 6.2953 47.7618C6.33025 47.8345 6.34825 47.9125 6.34825 47.9913V48.531C6.34825 48.69 6.27496 48.8425 6.14451 48.955C6.01406 49.0674 5.83713 49.1306 5.65264 49.1306Z" fill="black"/>
<path d="M5.64567 57.1296C5.46303 57.1296 5.28787 57.068 5.15873 56.9584C5.02958 56.8487 4.95703 56.7 4.95703 56.5449V51.1063C4.95703 51.0295 4.97484 50.9534 5.00945 50.8825C5.04406 50.8115 5.09478 50.7471 5.15873 50.6928C5.22267 50.6385 5.29859 50.5954 5.38214 50.566C5.46569 50.5366 5.55524 50.5215 5.64567 50.5215C5.73611 50.5215 5.82565 50.5366 5.9092 50.566C5.99275 50.5954 6.06866 50.6385 6.13261 50.6928C6.19656 50.7471 6.24728 50.8115 6.28189 50.8825C6.31649 50.9534 6.33431 51.0295 6.33431 51.1063V56.4279C6.35499 56.5139 6.35263 56.6027 6.32742 56.6877C6.3022 56.7728 6.25477 56.852 6.18864 56.9193C6.1225 56.9867 6.03936 57.0406 5.94537 57.077C5.85138 57.1134 5.74896 57.1314 5.64567 57.1296V57.1296Z" fill="black"/>
<path d="M60.732 63.0422H7.29438C6.67448 63.0422 6.07996 62.7973 5.64162 62.3613C5.20329 61.9252 4.95703 61.3338 4.95703 60.7172V58.4794C4.95703 58.3252 5.01859 58.1774 5.12818 58.0684C5.23776 57.9594 5.3864 57.8981 5.54137 57.8981C5.69635 57.8981 5.84497 57.9594 5.95456 58.0684C6.06414 58.1774 6.12571 58.3252 6.12571 58.4794V60.7172C6.12571 60.8699 6.15594 61.021 6.21467 61.1621C6.2734 61.3031 6.35948 61.4313 6.468 61.5392C6.57652 61.6472 6.70536 61.7328 6.84715 61.7912C6.98894 61.8496 7.14091 61.8797 7.29438 61.8797H60.732C60.8855 61.8797 61.0375 61.8496 61.1793 61.7912C61.3211 61.7328 61.4499 61.6472 61.5584 61.5392C61.6669 61.4313 61.753 61.3031 61.8118 61.1621C61.8705 61.021 61.9007 60.8699 61.9007 60.7172V44.1223C61.9007 43.9697 61.8705 43.8185 61.8118 43.6775C61.753 43.5364 61.6669 43.4083 61.5584 43.3003C61.4499 43.1924 61.3211 43.1067 61.1793 43.0483C61.0375 42.9899 60.8855 42.9598 60.732 42.9598H7.29438C7.14091 42.9598 6.98894 42.9899 6.84715 43.0483C6.70536 43.1067 6.57652 43.1924 6.468 43.3003C6.35948 43.4083 6.2734 43.5364 6.21467 43.6775C6.15594 43.8185 6.12571 43.9697 6.12571 44.1223V46.0405C6.12571 46.1946 6.06414 46.3425 5.95456 46.4515C5.84497 46.5605 5.69635 46.6217 5.54137 46.6217C5.3864 46.6217 5.23776 46.5605 5.12818 46.4515C5.01859 46.3425 4.95703 46.1946 4.95703 46.0405V44.1223C4.95701 43.8184 5.01766 43.5174 5.13548 43.2369C5.2533 42.9565 5.42593 42.7021 5.64336 42.4885C5.8608 42.2749 6.1187 42.1064 6.40212 41.9927C6.68554 41.8791 6.98882 41.8225 7.29438 41.8264H60.732C61.0352 41.8264 61.3353 41.8857 61.6153 42.0011C61.8954 42.1165 62.1498 42.2856 62.3641 42.4988C62.5785 42.712 62.7485 42.9652 62.8645 43.2437C62.9805 43.5223 63.0402 43.8208 63.0402 44.1223V60.7172C63.044 61.0211 62.9872 61.3229 62.8729 61.6048C62.7587 61.8867 62.5893 62.1432 62.3746 62.3595C62.1599 62.5758 61.9041 62.7475 61.6221 62.8647C61.3402 62.9819 61.0376 63.0423 60.732 63.0422V63.0422Z" fill="black"/>
<path d="M7.91396 45.9999C7.77568 45.9999 7.64306 45.9362 7.54529 45.8227C7.44751 45.7093 7.39258 45.5555 7.39258 45.395V44.518C7.39258 44.4385 7.40606 44.3599 7.43227 44.2865C7.45847 44.2131 7.49687 44.1464 7.54529 44.0903C7.5937 44.0341 7.65118 43.9895 7.71444 43.9591C7.77769 43.9287 7.84549 43.9131 7.91396 43.9131C7.98243 43.9131 8.05022 43.9287 8.11348 43.9591C8.17674 43.9895 8.23421 44.0341 8.28263 44.0903C8.33104 44.1464 8.36945 44.2131 8.39565 44.2865C8.42185 44.3599 8.43534 44.4385 8.43534 44.518V45.3648C8.43888 45.4467 8.428 45.5287 8.40339 45.6056C8.37877 45.6825 8.34093 45.7528 8.29216 45.8122C8.24339 45.8716 8.18471 45.9189 8.11969 45.9512C8.05467 45.9834 7.98468 46 7.91396 45.9999V45.9999Z" fill="white"/>
<path d="M7.91428 60.6082C7.77592 60.6082 7.64322 60.5472 7.54538 60.4388C7.44754 60.3303 7.39258 60.1832 7.39258 60.0298V47.97C7.39258 47.8166 7.44754 47.6695 7.54538 47.561C7.64322 47.4525 7.77592 47.3916 7.91428 47.3916C8.05265 47.3916 8.18534 47.4525 8.28318 47.561C8.38102 47.6695 8.43599 47.8166 8.43599 47.97V60.0298C8.43599 60.1832 8.38102 60.3303 8.28318 60.4388C8.18534 60.5472 8.05265 60.6082 7.91428 60.6082V60.6082Z" fill="white"/>
<path d="M36.6075 52.4338C36.6075 52.9497 36.4545 53.454 36.1679 53.883C35.8813 54.3119 35.4739 54.6463 34.9973 54.8437C34.5207 55.0411 33.9962 55.0928 33.4902 54.9921C32.9842 54.8915 32.5194 54.6431 32.1546 54.2783C31.7898 53.9135 31.5414 53.4487 31.4407 52.9427C31.3401 52.4367 31.3917 51.9122 31.5892 51.4356C31.7866 50.959 32.1209 50.5516 32.5499 50.265C32.9789 49.9784 33.4832 49.8254 33.9991 49.8254C34.3427 49.8215 34.6836 49.8863 35.0019 50.016C35.3201 50.1457 35.6092 50.3377 35.8522 50.5807C36.0952 50.8237 36.2872 51.1128 36.4169 51.431C36.5466 51.7493 36.6114 52.0902 36.6075 52.4338Z" fill="#F0C020"/>
<path d="M33.9993 55.738C33.3446 55.738 32.7045 55.5434 32.1605 55.179C31.6166 54.8146 31.1931 54.2968 30.9439 53.6913C30.6947 53.0858 30.6311 52.42 30.761 51.7782C30.891 51.1365 31.2087 50.5478 31.6738 50.087C32.1389 49.6261 32.7304 49.3138 33.3733 49.1898C34.0162 49.0657 34.6815 49.1354 35.2847 49.3901C35.8879 49.6448 36.4019 50.073 36.7613 50.6202C37.1207 51.1675 37.3094 51.8093 37.3035 52.464C37.3035 52.8965 37.2178 53.3247 37.0514 53.7239C36.885 54.1231 36.6411 54.4854 36.3339 54.7898C36.0267 55.0942 35.6622 55.3347 35.2615 55.4975C34.8608 55.6602 34.4318 55.742 33.9993 55.738V55.738ZM33.9993 50.3614C33.5835 50.3614 33.1769 50.4847 32.8312 50.7158C32.4854 50.9468 32.2159 51.2752 32.0567 51.6594C31.8976 52.0436 31.856 52.4663 31.9371 52.8742C32.0182 53.282 32.2185 53.6567 32.5125 53.9508C32.8066 54.2448 33.1812 54.4451 33.5891 54.5262C33.997 54.6073 34.4198 54.5657 34.804 54.4065C35.1882 54.2474 35.5166 53.9779 35.7476 53.6321C35.9786 53.2864 36.102 52.8798 36.102 52.464C36.0862 51.9195 35.8568 51.4032 35.4633 51.0266C35.0699 50.65 34.5439 50.4434 33.9993 50.4515V50.3614Z" fill="black"/>
<path d="M24.6601 42.1742H14.1203C13.3503 42.1742 12.6117 41.8694 12.0672 41.327C11.5227 40.7845 11.2168 40.0487 11.2168 39.2816V27.5664H27.5636V39.3105C27.556 40.0726 27.2467 40.801 26.703 41.3372C26.1593 41.8735 25.4251 42.1742 24.6601 42.1742V42.1742Z" fill="#AFAFAF"/>
<path d="M27.4764 27.5664H21.1881C21.0222 28.415 20.9445 29.2789 20.9562 30.1438C20.9576 32.3634 21.4844 34.5504 22.4927 36.5223C23.5009 38.4941 24.9613 40.1936 26.752 41.4786C27.2697 40.9356 27.5604 40.2117 27.5634 39.4576L27.4764 27.5664Z" fill="#878787"/>
<path d="M24.7295 42.8689H14.0514C13.5893 42.8726 13.1309 42.787 12.7028 42.617C12.2747 42.447 11.8853 42.1958 11.5571 41.8781C11.229 41.5604 10.9685 41.1824 10.7907 40.7659C10.613 40.3494 10.5215 39.9027 10.5215 39.4515V27.7921C10.5215 27.6398 10.5835 27.4937 10.6938 27.386C10.8041 27.2783 10.9538 27.2178 11.1098 27.2178H27.6712C27.8272 27.2178 27.9769 27.2783 28.0872 27.386C28.1975 27.4937 28.2595 27.6398 28.2595 27.7921V39.4515C28.2595 39.9027 28.168 40.3494 27.9903 40.7659C27.8125 41.1824 27.552 41.5604 27.2238 41.8781C26.8957 42.1958 26.5063 42.447 26.0782 42.617C25.6501 42.787 25.1917 42.8726 24.7295 42.8689V42.8689ZM11.6981 28.5101V39.595C11.6981 40.2043 11.9461 40.7887 12.3874 41.2196C12.8287 41.6504 13.4273 41.8924 14.0514 41.8924H24.7295C25.3537 41.8924 25.9523 41.6504 26.3936 41.2196C26.8349 40.7887 27.0829 40.2043 27.0829 39.595V28.3665L11.6981 28.5101Z" fill="black"/>
<path d="M13.4787 30.6966C13.4102 30.6966 13.3424 30.6849 13.2791 30.6621C13.2158 30.6393 13.1583 30.6059 13.1098 30.5638C13.0614 30.5217 13.023 30.4716 12.9967 30.4166C12.9705 30.3616 12.957 30.3026 12.957 30.243V30.1069C12.957 29.9866 13.012 29.8713 13.1098 29.7862C13.2077 29.7011 13.3404 29.6533 13.4787 29.6533C13.6171 29.6533 13.7498 29.7011 13.8476 29.7862C13.9455 29.8713 14.0004 29.9866 14.0004 30.1069V30.3337C13.9761 30.4377 13.9105 30.531 13.8152 30.5973C13.7198 30.6636 13.6008 30.6988 13.4787 30.6966V30.6966Z" fill="#EFEFEF"/>
<path d="M13.4787 40.0875C13.4102 40.0875 13.3424 40.0726 13.2791 40.0434C13.2158 40.0143 13.1583 39.9716 13.1098 39.9178C13.0614 39.8639 13.023 39.8 12.9967 39.7297C12.9705 39.6594 12.957 39.584 12.957 39.5079V32.3199C12.957 32.1662 13.012 32.0187 13.1098 31.91C13.2077 31.8013 13.3404 31.7402 13.4787 31.7402C13.6171 31.7402 13.7498 31.8013 13.8476 31.91C13.9455 32.0187 14.0004 32.1662 14.0004 32.3199V39.5079C14.0004 39.6616 13.9455 39.809 13.8476 39.9178C13.7498 40.0265 13.6171 40.0875 13.4787 40.0875V40.0875Z" fill="#EFEFEF"/>
<path d="M11.078 24.0879H27.7033C27.822 24.0879 27.9396 24.1109 28.0493 24.1557C28.159 24.2005 28.2587 24.2661 28.3426 24.3489C28.4266 24.4316 28.4932 24.5299 28.5386 24.638C28.5841 24.7461 28.6075 24.862 28.6075 24.979V26.6461C28.6075 26.8901 28.5091 27.124 28.3341 27.2965C28.1591 27.469 27.9217 27.5659 27.6741 27.5659H11.078C10.8382 27.5659 10.6082 27.4721 10.4387 27.3049C10.2691 27.1378 10.1738 26.9112 10.1738 26.6749V25.0077C10.1737 24.7686 10.268 24.539 10.4368 24.3673C10.6056 24.1956 10.8356 24.0954 11.078 24.0879V24.0879Z" fill="#B76E78"/>
<path d="M27.7025 27.5659C27.8239 27.566 27.9441 27.542 28.0559 27.4955C28.1678 27.4489 28.2689 27.3807 28.3534 27.2949C28.4379 27.209 28.504 27.1074 28.5477 26.996C28.5915 26.8845 28.612 26.7655 28.6081 26.6461V24.979C28.6081 24.7426 28.5127 24.516 28.3429 24.3489C28.173 24.1818 27.9427 24.0879 27.7025 24.0879H22.4732C21.9191 25.1873 21.5257 26.3582 21.3047 27.5659H27.7025Z" fill="#8C545B"/>
<path d="M27.8008 28.2618H10.9811C10.7813 28.2619 10.5835 28.221 10.3993 28.1416C10.2151 28.0622 10.0482 27.9459 9.90826 27.7994C9.76837 27.653 9.65833 27.4793 9.58459 27.2887C9.51085 27.0981 9.47489 26.8942 9.4788 26.6891V24.935C9.4788 24.5259 9.63708 24.1336 9.91881 23.8443C10.2005 23.5551 10.5827 23.3926 10.9811 23.3926H27.8008C28.1992 23.3926 28.5813 23.5551 28.8631 23.8443C29.1448 24.1336 29.3031 24.5259 29.3031 24.935V26.6891C29.307 26.8942 29.271 27.0981 29.1973 27.2887C29.1235 27.4793 29.0135 27.653 28.8736 27.7994C28.7337 27.9459 28.5668 28.0622 28.3826 28.1416C28.1984 28.221 28.0006 28.2619 27.8008 28.2618ZM10.9811 24.5721C10.8925 24.5797 10.81 24.6213 10.75 24.6885C10.6899 24.7558 10.6568 24.8438 10.6571 24.935V26.6891C10.653 26.7353 10.6583 26.7818 10.6727 26.8258C10.6872 26.8697 10.7104 26.91 10.7409 26.9442C10.7714 26.9784 10.8085 27.0056 10.8499 27.0242C10.8913 27.0428 10.9359 27.0523 10.9811 27.0521H27.8008C27.8459 27.0523 27.8906 27.0428 27.932 27.0242C27.9734 27.0056 28.0105 26.9784 28.041 26.9442C28.0715 26.91 28.0947 26.8697 28.1091 26.8258C28.1236 26.7818 28.1289 26.7353 28.1248 26.6891V24.935C28.1251 24.8438 28.092 24.7558 28.0319 24.6885C27.9719 24.6213 27.8893 24.5797 27.8008 24.5721H10.9811Z" fill="black"/>
<path d="M46.3459 30.1749C46.3459 32.4793 45.6625 34.732 44.3822 36.6481C43.102 38.5642 41.2823 40.0575 39.1532 40.9394C37.0242 41.8213 34.6815 42.052 32.4213 41.6024C30.1612 41.1529 28.0851 40.0432 26.4556 38.4137C24.8261 36.7842 23.7164 34.7081 23.2669 32.448C22.8173 30.1878 23.048 27.8451 23.9299 25.7161C24.8118 23.5871 26.3052 21.7673 28.2212 20.487C30.1373 19.2068 32.39 18.5234 34.6944 18.5234C37.7846 18.5234 40.7482 19.751 42.9332 21.9361C45.1183 24.1211 46.3459 27.0847 46.3459 30.1749Z" fill="#AFAFAF"/>
<path d="M34.8974 42.1742C32.4923 42.1799 30.1394 41.4831 28.1357 40.1719C26.1319 38.8606 24.5671 36.9937 23.6387 34.8067C22.7104 32.6197 22.46 30.2106 22.9194 27.8834C23.3787 25.5563 24.5271 23.4155 26.2196 21.7311C27.9121 20.0467 30.0728 18.8942 32.4292 18.4192C34.7855 17.9441 37.2318 18.1677 39.4593 19.0618C41.6868 19.9559 43.5958 21.4804 44.9452 23.4428C46.2946 25.4053 47.024 27.7178 47.0413 30.0885C47.0529 31.6691 46.7475 33.2364 46.1428 34.7003C45.538 36.1642 44.6458 37.496 43.5174 38.619C42.3889 39.742 41.0465 40.6342 39.5672 41.2443C38.088 41.8545 36.501 42.1705 34.8974 42.1742ZM34.8974 19.3295C32.7081 19.3182 30.5649 19.9492 28.7405 21.1423C26.9162 22.3354 25.4932 24.0366 24.6528 26.0293C23.8124 28.0221 23.5925 30.2162 24.0211 32.3326C24.4497 34.4489 25.5074 36.3916 27.0597 37.9135C28.6119 39.4354 30.5884 40.4677 32.7377 40.8788C34.8869 41.29 37.1117 41.0615 39.1288 40.2224C41.1459 39.3833 42.8641 37.9716 44.0647 36.167C45.2653 34.3624 45.894 32.2464 45.8708 30.0885C45.8477 27.2321 44.6823 24.5 42.6277 22.4856C40.5731 20.4712 37.7953 19.337 34.8974 19.3295V19.3295Z" fill="black"/>
<path d="M43.2143 30.1746C43.2143 31.8612 42.7138 33.5098 41.7761 34.9118C40.8385 36.3137 39.5059 37.4058 37.9472 38.0499C36.3884 38.694 34.6736 38.861 33.0198 38.5298C31.3661 38.1987 29.8478 37.3842 28.6573 36.1895C27.4668 34.9949 26.6575 33.4738 26.332 31.8189C26.0066 30.164 26.1795 28.4498 26.829 26.8932C27.4784 25.3367 28.5752 24.0079 29.9804 23.0752C31.3855 22.1424 33.0359 21.6476 34.7225 21.6534C36.9773 21.6611 39.1372 22.5624 40.7289 24.1595C42.3206 25.7567 43.2143 27.9197 43.2143 30.1746V30.1746Z" fill="#72C1E8"/>
<path d="M34.8977 39.0436C33.1117 39.0492 31.364 38.536 29.8751 37.5686C28.3862 36.6013 27.2226 35.2231 26.5312 33.608C25.8399 31.9929 25.6516 30.2132 25.9902 28.4933C26.3287 26.7734 27.179 25.1904 28.4337 23.9438C29.6885 22.6972 31.2915 21.843 33.0406 21.4888C34.7897 21.1347 36.6065 21.2964 38.262 21.9537C39.9175 22.611 41.3375 23.7343 42.3428 25.1821C43.3482 26.6299 43.894 28.3372 43.9112 30.0888C43.9267 31.2593 43.705 32.4212 43.2589 33.507C42.8129 34.5928 42.1514 35.581 41.3128 36.414C40.4743 37.2471 39.4754 37.9085 38.3742 38.3599C37.2729 38.8114 36.0912 39.0437 34.8977 39.0436V39.0436ZM34.8977 22.4786C33.3338 22.4731 31.8036 22.9244 30.5022 23.7749C29.2007 24.6254 28.1869 25.8366 27.5899 27.2543C26.9929 28.672 26.8397 30.2319 27.1499 31.7352C27.46 33.2386 28.2195 34.6174 29.3315 35.6959C30.4436 36.7744 31.8578 37.5037 33.394 37.7911C34.9302 38.0784 36.5188 37.9107 37.9575 37.3093C39.3961 36.7079 40.6197 35.7 41.4722 34.4141C42.3247 33.1282 42.7676 31.6225 42.7444 30.0888C42.7139 28.065 41.8746 26.1337 40.4072 24.7105C38.9397 23.2873 36.9614 22.4859 34.8977 22.4786V22.4786Z" fill="black"/>
<path d="M34.4804 24.7838C34.3064 24.7838 34.1395 24.7105 34.0164 24.5801C33.8934 24.4496 33.8242 24.2727 33.8242 24.0882C33.8242 23.9037 33.8934 23.7268 34.0164 23.5963C34.1395 23.4659 34.3064 23.3926 34.4804 23.3926H34.907C35.081 23.3926 35.248 23.4659 35.371 23.5963C35.4941 23.7268 35.5632 23.9037 35.5632 24.0882C35.5634 24.178 35.5462 24.2669 35.5128 24.3494C35.4795 24.4319 35.4306 24.5064 35.3692 24.5682C35.3078 24.63 35.2351 24.678 35.1557 24.7091C35.0762 24.7402 34.9916 24.7537 34.907 24.749H34.5133L34.4804 24.7838Z" fill="#C5E5FF"/>
<path d="M28.8425 30.6946C28.7674 30.6985 28.6923 30.6874 28.6217 30.6621C28.5511 30.6368 28.4866 30.5978 28.4321 30.5475C28.3775 30.4971 28.3341 30.4365 28.3045 30.3693C28.2749 30.3021 28.2597 30.2298 28.2598 30.1567C28.2604 28.9037 28.6314 27.6773 29.3287 26.6233C30.0261 25.5694 31.0204 24.7322 32.1933 24.2115C32.2597 24.16 32.3368 24.1233 32.4193 24.1039C32.5018 24.0844 32.5877 24.0827 32.671 24.0989C32.7543 24.1151 32.8329 24.1487 32.9013 24.1975C32.9698 24.2463 33.0265 24.3091 33.0674 24.3814C33.1018 24.4461 33.1222 24.5169 33.1276 24.5896C33.133 24.6622 33.1231 24.7352 33.0986 24.804C33.0741 24.8728 33.0354 24.9361 32.985 24.99C32.9345 25.0438 32.8734 25.0872 32.8052 25.1174C31.8098 25.5303 30.96 26.2162 30.3597 27.0911C29.7594 27.966 29.4347 28.992 29.4253 30.0435C29.4437 30.1254 29.4421 30.2103 29.4208 30.2915C29.3994 30.3727 29.3588 30.448 29.3022 30.5112C29.2455 30.5745 29.1745 30.624 29.0947 30.6558C29.0149 30.6877 28.9285 30.701 28.8425 30.6946V30.6946Z" fill="#C5E5FF"/>
<path d="M46.3457 42.1743H23.3906V40.2179C23.3906 39.8144 23.564 39.4273 23.8727 39.142C24.1814 38.8566 24.6 38.6963 25.0366 38.6963H44.5822C45.0187 38.6963 45.4374 38.8566 45.7461 39.142C46.0547 39.4273 46.2282 39.8144 46.2282 40.2179L46.3457 42.1743Z" fill="#AFAFAF"/>
<path d="M46.2303 42.8693H23.6221C23.4686 42.8693 23.3213 42.8082 23.2127 42.6995C23.1042 42.5908 23.0432 42.4433 23.0432 42.2896V40.2317C23.0393 39.94 23.0934 39.6505 23.2022 39.3799C23.3111 39.1093 23.4725 38.863 23.6772 38.6554C23.8819 38.4478 24.1257 38.2829 24.3945 38.1704C24.6634 38.0579 24.9518 38 25.2432 38H44.4935C44.7848 38 45.0733 38.0579 45.3421 38.1704C45.6109 38.2829 45.8548 38.4478 46.0594 38.6554C46.2641 38.863 46.4256 39.1093 46.5344 39.3799C46.6432 39.6505 46.6973 39.94 46.6935 40.2317V42.2896C46.6962 42.4252 46.6514 42.5575 46.5667 42.6634C46.4821 42.7693 46.3631 42.8422 46.2303 42.8693V42.8693ZM24.23 41.6809H45.6514V40.2317C45.6552 40.0923 45.6311 39.9535 45.5805 39.8235C45.5299 39.6936 45.4537 39.5751 45.3566 39.4751C45.2594 39.3751 45.1432 39.2957 45.0148 39.2414C44.8865 39.1872 44.7486 39.1593 44.6092 39.1593H25.2432C25.1025 39.1593 24.9633 39.1871 24.8333 39.241C24.7034 39.2949 24.5853 39.3739 24.4858 39.4734C24.3864 39.573 24.3075 39.6912 24.2536 39.8213C24.1998 39.9515 24.1721 40.0909 24.1721 40.2317L24.23 41.6809Z" fill="black"/>
<path d="M42.7666 17.3827L48.2502 15.1184C48.489 15.0201 48.7563 15.0204 48.9949 15.1194C49.2335 15.2183 49.4244 15.4079 49.5268 15.6477L51.7028 21.0879C51.84 21.4217 51.9106 21.7798 51.9104 22.1414C51.9102 22.503 51.8392 22.861 51.7016 23.1946C51.564 23.5283 51.3625 23.831 51.1087 24.0851C50.8549 24.3393 50.5539 24.5399 50.2231 24.6754L47.96 25.6164C47.6307 25.7555 47.2774 25.8271 46.9206 25.8269C46.5638 25.8267 46.2106 25.7547 45.8814 25.6152C45.5522 25.4758 45.2536 25.2715 45.0028 25.0143C44.752 24.7571 44.5541 24.452 44.4204 24.1167L42.2444 18.6766C42.1474 18.4345 42.1477 18.1636 42.2453 17.9218C42.3429 17.6799 42.53 17.4865 42.7666 17.3827V17.3827Z" fill="#464A51"/>
<path d="M55.144 42.1212L56.9449 41.4069C57.1558 41.3186 57.3228 41.1522 57.4098 40.9436C57.4968 40.7351 57.4967 40.5012 57.4097 40.2927L50.8452 24.4365L47.3887 25.865L54.0112 41.5783C54.0471 41.6887 54.1053 41.7907 54.1824 41.8783C54.2594 41.9659 54.3538 42.0372 54.4596 42.088C54.5655 42.1387 54.6808 42.1678 54.7984 42.1735C54.916 42.1792 55.0336 42.1614 55.144 42.1212V42.1212Z" fill="#AFAFAF"/>
<path d="M54.9309 42.8307C54.7498 42.872 54.5619 42.872 54.3808 42.8307C54.204 42.7603 54.0434 42.654 53.9089 42.5186C53.7744 42.3831 53.669 42.2213 53.5991 42.0431L47.085 25.9422C47.0277 25.7991 47.029 25.6389 47.0887 25.4968C47.1484 25.3546 47.2616 25.2421 47.4035 25.1839L50.7908 23.7838C50.9301 23.727 51.0858 23.727 51.2251 23.7838C51.2967 23.8131 51.3618 23.8566 51.4165 23.9117C51.4712 23.9668 51.5144 24.0324 51.5436 24.1046L58.0577 40.2347C58.1326 40.4084 58.1717 40.5957 58.1727 40.7851C58.1737 40.9745 58.1365 41.1621 58.0634 41.3366C57.9904 41.5111 57.8829 41.6689 57.7475 41.8004C57.6122 41.9318 57.4518 42.0343 57.276 42.1015L55.481 42.8598C55.2973 42.8807 55.1114 42.8708 54.9309 42.8307ZM48.3589 25.9131L54.6703 41.6348C54.6863 41.6741 54.7099 41.7098 54.7398 41.7398C54.7696 41.7699 54.805 41.7936 54.844 41.8098H55.0467L56.8417 41.0805C56.9108 41.0486 56.9663 40.9929 56.9982 40.9233C57.03 40.8538 57.0362 40.7751 57.0154 40.7014L50.7039 25.0964L48.3589 25.9131Z" fill="black"/>
<path d="M47.1327 26.175C46.699 26.175 46.2698 26.0859 45.8709 25.9131C45.4729 25.7504 45.1122 25.5063 44.8113 25.196C44.5103 24.8857 44.2756 24.5158 44.1217 24.1095L41.9423 18.7567C41.8635 18.5661 41.8234 18.3614 41.8242 18.1547C41.8251 17.948 41.8668 17.7436 41.9471 17.5537C42.0274 17.3637 42.1444 17.192 42.2914 17.0489C42.4384 16.9057 42.6122 16.794 42.8026 16.7204L48.1938 14.4804C48.3781 14.3942 48.5787 14.3496 48.7816 14.3496C48.9846 14.3496 49.1851 14.3942 49.3695 14.4804C49.5572 14.5564 49.7278 14.6705 49.8708 14.8155C50.0137 14.9605 50.1261 15.1335 50.2011 15.324L52.3805 20.7058C52.694 21.5206 52.6804 22.4275 52.3427 23.2323C52.005 24.0371 51.3701 24.6757 50.5739 25.0113L48.3658 25.9422C47.9705 26.0894 47.5537 26.168 47.1327 26.175V26.175ZM43.2327 17.7677C43.1321 17.8126 43.0522 17.8949 43.0096 17.9977C42.9669 18.1005 42.9646 18.216 43.0033 18.3204L45.1827 23.6731C45.2756 23.9373 45.4236 24.178 45.6166 24.3788C45.8097 24.5797 46.0431 24.7359 46.3011 24.8368C46.8247 25.055 47.412 25.055 47.9357 24.8368L50.1438 23.9059C50.4034 23.802 50.6391 23.6451 50.8365 23.4449C51.0338 23.2447 51.1884 23.0056 51.2908 22.7422C51.3965 22.484 51.4509 22.2072 51.4509 21.9277C51.4509 21.6481 51.3965 21.3713 51.2908 21.1131L49.1114 15.7313C49.0875 15.6176 49.0269 15.5153 48.9393 15.4404C48.8363 15.4105 48.727 15.4105 48.6239 15.4404L43.2327 17.7677Z" fill="black"/>
<path d="M43.0763 20.6098L42.246 18.6151C42.1468 18.3771 42.1472 18.1108 42.2469 17.8731C42.3467 17.6353 42.5379 17.4451 42.7797 17.3431L48.3842 15.1172C48.6283 15.0205 48.9015 15.0209 49.1453 15.1181C49.3892 15.2154 49.5843 15.4018 49.6889 15.6375L50.5192 17.6611L43.0763 20.6098Z" fill="#B76E78"/>
<path d="M43.3134 21.3055H43.0804C43.0118 21.2766 42.9503 21.2335 42.9001 21.1794C42.8498 21.1252 42.8119 21.0612 42.789 20.9915L41.9441 19.0218C41.8642 18.8348 41.8234 18.6339 41.8242 18.4311C41.8251 18.2283 41.8675 18.0277 41.9491 17.8413C42.0306 17.6549 42.1496 17.4864 42.2989 17.346C42.4482 17.2055 42.6248 17.0959 42.8182 17.0236L48.2953 14.8256C48.4826 14.741 48.6864 14.6973 48.8926 14.6973C49.0988 14.6973 49.3025 14.741 49.4898 14.8256C49.6806 14.9002 49.8538 15.0121 49.9991 15.1544C50.1443 15.2967 50.2585 15.4665 50.3347 15.6534L51.1505 17.6231C51.1885 17.6911 51.2103 17.7666 51.2143 17.844C51.2183 17.9215 51.2043 17.9988 51.1735 18.0702C51.1427 18.1416 51.0958 18.2052 51.0363 18.2563C50.9768 18.3074 50.9063 18.3447 50.83 18.3653L43.5465 21.2199L43.3134 21.3055ZM48.878 15.5963L43.4008 17.7944C43.2986 17.8384 43.2175 17.9192 43.1741 18.0201C43.1308 18.121 43.1285 18.2343 43.1678 18.3367L43.7796 19.7926L50.0142 17.2805L49.4024 15.8247C49.3634 15.7651 49.3121 15.714 49.252 15.6747C49.1918 15.6354 49.124 15.6087 49.0528 15.5963H48.878Z" fill="black"/>
<path d="M25.4761 11.9158V6.53481C25.4722 6.38934 25.4374 6.24706 25.3746 6.11999C25.3118 5.99292 25.2228 5.8848 25.1153 5.80475C25.0077 5.72471 24.8847 5.67509 24.7565 5.6601C24.6284 5.6451 24.499 5.66518 24.3792 5.71861L23.7906 6.02091C23.2661 6.27665 22.8181 6.69783 22.5002 7.23401C22.1822 7.77019 22.0079 8.39861 21.998 9.04391V11.8553L25.4761 11.9158Z" fill="#B76E78"/>
<path d="M25.5909 12.2628H21.8762C21.7246 12.2628 21.5792 12.201 21.4721 12.0909C21.3649 11.9809 21.3047 11.8317 21.3047 11.6761V8.94823C21.306 8.19957 21.5204 7.46763 21.9214 6.84232C22.3224 6.217 22.8927 5.72557 23.5621 5.4284L24.1907 5.13508C24.3966 5.01955 24.6276 4.95898 24.8622 4.95898C25.0969 4.95898 25.3278 5.01955 25.5337 5.13508C25.7293 5.26438 25.8895 5.44259 25.9995 5.65297C26.1095 5.86334 26.1655 6.09896 26.1624 6.33768V11.5588C26.1795 11.645 26.1776 11.7341 26.1567 11.8194C26.1357 11.9048 26.0964 11.9842 26.0415 12.0518C25.9866 12.1194 25.9176 12.1734 25.8396 12.21C25.7616 12.2465 25.6766 12.2645 25.5909 12.2628ZM22.4477 11.0895H25.0194V6.45501C25.0455 6.3791 25.0455 6.29627 25.0194 6.22035C24.9803 6.19718 24.936 6.18499 24.8908 6.18499C24.8457 6.18499 24.8013 6.19718 24.7622 6.22035L24.1336 6.51367C23.6694 6.72694 23.2746 7.07246 22.996 7.5092C22.7175 7.94593 22.5668 8.45556 22.562 8.97757L22.4477 11.0895Z" fill="black"/>
<path d="M23.911 24.088H21.4781C21.0628 24.088 20.6645 23.9162 20.3708 23.6106C20.0771 23.3049 19.9121 22.8904 19.9121 22.4581V13.5519C19.9129 13.3057 19.9819 13.0649 20.1109 12.8584C20.2398 12.6519 20.4233 12.4885 20.6392 12.3878L25.477 10.1758V22.4581C25.477 22.6721 25.4365 22.8841 25.3578 23.0818C25.2791 23.2796 25.1637 23.4592 25.0183 23.6106C24.8729 23.7619 24.7003 23.882 24.5103 23.9639C24.3203 24.0458 24.1166 24.088 23.911 24.088V24.088Z" fill="#AFAFAF"/>
<path d="M23.9609 24.7837H21.4288C21.1397 24.7876 20.8527 24.7328 20.5845 24.6224C20.3163 24.512 20.0722 24.3482 19.8664 24.1406C19.6606 23.933 19.4972 23.6856 19.3857 23.4129C19.2742 23.1401 19.2168 22.8475 19.2168 22.5519V13.4462C19.2195 13.0803 19.3252 12.723 19.5214 12.4169C19.7175 12.1108 19.9957 11.869 20.3228 11.7203L25.3579 9.54808C25.4436 9.50364 25.5383 9.48047 25.6344 9.48047C25.7305 9.48047 25.8252 9.50364 25.9109 9.54808C25.9926 9.60309 26.0595 9.67829 26.1052 9.76671C26.151 9.85512 26.1743 9.95391 26.1728 10.0539V22.6114C26.1576 23.1981 25.9169 23.755 25.5029 24.1616C25.0889 24.5682 24.5349 24.7917 23.9609 24.7837ZM25.0086 10.8871L20.7884 12.7916C20.6682 12.8518 20.5665 12.9448 20.4946 13.0603C20.4227 13.1758 20.3834 13.3093 20.381 13.4462V22.5519C20.381 22.836 20.4914 23.1085 20.6879 23.3094C20.8844 23.5103 21.1509 23.6231 21.4288 23.6231H23.9609C24.2387 23.6231 24.5052 23.5103 24.7017 23.3094C24.8982 23.1085 25.0086 22.836 25.0086 22.5519V10.8871Z" fill="black"/>
<path d="M21.8264 22.3495C21.7579 22.3495 21.69 22.3341 21.6267 22.3042C21.5634 22.2743 21.5059 22.2304 21.4575 22.1751C21.409 22.1198 21.3706 22.0542 21.3444 21.982C21.3182 21.9098 21.3047 21.8323 21.3047 21.7542V16.3366C21.3047 16.1787 21.3597 16.0272 21.4575 15.9156C21.5553 15.8039 21.688 15.7412 21.8264 15.7412C21.9648 15.7412 22.0975 15.8039 22.1953 15.9156C22.2931 16.0272 22.3481 16.1787 22.3481 16.3366V21.7542C22.3481 21.8323 22.3346 21.9098 22.3084 21.982C22.2822 22.0542 22.2437 22.1198 22.1953 22.1751C22.1469 22.2304 22.0893 22.2743 22.026 22.3042C21.9627 22.3341 21.8949 22.3495 21.8264 22.3495V22.3495Z" fill="#EFEFEF"/>
<path d="M21.8264 15.0455C21.7579 15.0455 21.69 15.0322 21.6267 15.0063C21.5634 14.9804 21.5059 14.9424 21.4575 14.8946C21.409 14.8468 21.3706 14.79 21.3444 14.7274C21.3182 14.6649 21.3047 14.5979 21.3047 14.5303V14.1696C21.3047 14.0329 21.3597 13.9018 21.4575 13.8052C21.5553 13.7086 21.688 13.6543 21.8264 13.6543C21.9648 13.6543 22.0975 13.7086 22.1953 13.8052C22.2931 13.9018 22.3481 14.0329 22.3481 14.1696V14.5303C22.3481 14.5979 22.3346 14.6649 22.3084 14.7274C22.2822 14.79 22.2437 14.8468 22.1953 14.8946C22.1469 14.9424 22.0893 14.9804 22.026 15.0063C21.9627 15.0322 21.8949 15.0455 21.8264 15.0455V15.0455Z" fill="#EFEFEF"/>
<path d="M25.5932 20.6108H19.7965C19.6427 20.6108 19.4953 20.5558 19.3866 20.458C19.2779 20.3602 19.2168 20.2275 19.2168 20.0891C19.2168 19.9507 19.2779 19.818 19.3866 19.7202C19.4953 19.6223 19.6427 19.5674 19.7965 19.5674H25.5932C25.7469 19.5674 25.8944 19.6223 26.0031 19.7202C26.1118 19.818 26.1729 19.9507 26.1729 20.0891C26.1729 20.2275 26.1118 20.3602 26.0031 20.458C25.8944 20.5558 25.7469 20.6108 25.5932 20.6108Z" fill="black"/>
</svg>
