<svg width="69" height="69" viewBox="0 0 69 69" fill="none" xmlns="http://www.w3.org/2000/svg">
<path d="M5.23047 38.6172C4.33984 38.6172 4.11719 38.3945 4.00781 37.6172C3.33984 34.7227 2.67188 31.9414 1.89062 29.0469L1.78125 28.9336C1.78125 28.4922 1.78125 28.0469 1.78125 27.4883C2.00391 26.7109 2.22656 26.043 2.78125 25.375C3.78516 24.2617 5.12109 23.7031 6.67578 24.0391C7.01172 24.1484 7.12109 24.0391 7.23438 23.7031C8.23438 18.6953 12.3516 15.2461 17.4727 15.2461C28.9336 15.2461 40.3984 15.2461 51.8594 15.2461C56.9805 15.2461 61.0977 18.6953 62.1016 23.7031C62.2109 24.1484 62.3242 24.1484 62.6562 24.0391C65.4375 23.4805 68 26.1523 67.4414 28.9336C66.4414 33.2773 65.3281 37.6172 64.2148 41.957C63.6562 43.9609 62.3242 45.2969 60.3203 45.9648C59.875 46.0742 59.875 46.1836 59.9844 46.6289C60.4297 47.8555 60.7656 49.0781 61.2109 50.3047C61.6562 51.75 61.0977 53.1953 59.7617 53.6406C58.4258 54.0859 57.2031 53.418 56.5352 52.082C56.2031 51.418 55.9805 50.75 55.7578 50.082C55.6445 49.7461 55.4219 49.5234 55.0898 49.6367C54.9766 49.6367 54.9766 49.6367 54.8672 49.6367C41.3984 49.6367 27.9336 49.6367 14.4688 49.6367C13.9102 49.6367 13.6875 49.7461 13.5781 50.3047C13.3555 50.9727 13.0195 51.75 12.6875 52.418C12.1289 53.6406 10.7969 54.1992 9.57031 53.7539C8.34766 53.3086 7.67969 51.9727 8.125 50.6367C8.45703 49.3008 8.90234 48.0781 9.34766 46.7422C9.46094 46.2969 9.34766 46.1836 9.01562 46.0742C7.12109 45.5195 5.78516 44.1836 5.23047 42.2891C5.00781 41.5117 5.12109 41.2891 5.78516 40.8438C6.45312 40.6211 6.89844 40.7305 7.12109 41.5117C7.34375 42.1797 7.67969 42.7344 8.125 43.1797C8.90234 43.8477 9.68359 44.293 10.7969 44.1836C11.0195 44.1836 11.2422 44.1836 11.4648 44.1836C26.8203 44.1836 42.2891 44.1836 57.6484 44.1836C57.7578 44.1836 57.8711 44.1836 57.9805 44.1836C58.5391 44.1836 58.9844 44.4062 59.5391 44.293C60.7656 43.9609 61.6563 43.1797 62.1016 41.957C62.4336 40.9531 62.5469 39.9531 62.8789 38.9531C63.6563 35.7227 64.4375 32.4961 65.2148 29.2695C65.4375 28.6016 65.4375 27.9336 64.9922 27.2656C64.3242 26.2656 63.2148 26.043 62.1016 26.7109C61.6563 27.043 61.3203 27.6016 61.2109 28.1562C60.543 30.6055 59.875 32.9414 59.0938 35.3906C58.2031 38.0625 55.9805 39.6211 53.1953 39.6211C40.8438 39.6211 28.4922 39.6211 16.0273 39.6211C13.2422 39.6211 11.0195 37.9492 10.1289 35.3906C9.34766 32.9414 8.67969 30.4922 8.01172 28.1562C7.90234 27.8242 7.90234 27.6016 7.67969 27.3789C7.12109 26.4883 6.12109 26.1523 5.23047 26.4883C4.33984 26.8203 3.78516 27.7109 3.89453 28.7148C3.89453 28.9336 4.00781 29.2695 4.11719 29.4922C4.78516 31.9414 5.34375 34.5 6.00781 36.9492C6.12109 37.2812 6.23047 37.6172 6.12109 37.9492C6.00781 38.1719 5.78516 38.6172 5.23047 38.6172Z" fill="#010101"/>
<path d="M58.2031 44.1836C57.9805 44.1836 57.6484 44.1836 57.4258 44.1836C42.0664 44.1836 26.8203 44.1836 11.4648 44.1836C10.9063 44.1836 10.4609 44.4063 9.90625 44.293C8.45704 43.9609 7.45704 43.0703 7.1211 41.7344C6.89844 41.0664 6.56641 40.7305 5.78516 40.7305C5.67579 40.0664 5.45313 39.3984 5.34375 38.7305C6.00782 38.2852 6.1211 38.0625 5.89844 37.1719C5.23047 34.3906 4.5625 31.6055 3.89454 28.9336C3.5625 27.6016 4.23047 26.4883 5.45313 26.1524C6.56641 25.5977 7.78907 26.375 8.125 27.6016C8.90235 30.0469 9.57032 32.3867 10.2383 34.832C11.0195 37.6172 13.2422 39.2852 16.1367 39.2852C28.4922 39.2852 40.7305 39.2852 53.0859 39.2852C55.9805 39.2852 58.2031 37.6172 59.0938 34.832C59.7617 32.4961 60.4297 30.1602 61.0977 27.8242C61.3203 27.2656 61.543 26.7109 62.1016 26.375C62.4336 26.2656 62.5469 26.5977 62.6563 26.7109C62.9922 27.4883 63.1016 28.1563 62.8789 29.0469C61.9883 32.832 60.9883 36.6133 60.0977 40.5078C59.875 41.3984 59.7617 42.2891 59.207 43.0703C59.0938 43.4024 58.7617 43.8477 58.2031 44.1836Z" fill="#5DA3D9"/>
<path d="M57.5352 33.1641C57.5352 33.2773 57.5352 33.7227 57.2031 33.3867C55.9805 32.2734 54.4219 32.2734 52.8633 32.0508C50.082 31.7188 47.2969 31.8281 44.6289 32.4961C43.9609 32.7187 43.293 32.9414 42.7344 33.3867C42.625 33.5 42.5117 33.7227 42.2891 33.5C41.3984 32.4961 40.0664 32.3867 38.8398 32.1641C36.9492 31.8281 35.0547 31.7188 33.0547 31.8281C32.1641 31.8281 31.9414 32.1641 31.8281 32.9414C31.2734 33.1641 30.6055 33.5 29.9375 33.1641C29.2695 32.3867 28.7148 32.2734 27.8242 33.1641C27.3789 33.5 27.1562 33.5 26.7109 33.1641C25.8203 32.3867 24.5937 32.2734 23.4805 32.0508C20.3672 31.4961 17.3594 31.6055 14.3555 32.3867C13.3555 32.6094 12.6875 33.0547 11.9062 33.9453C11.4648 32.2734 11.0195 30.8281 10.5742 29.2695C10.1289 27.9336 10.0156 26.375 9.01562 25.2617C8.90234 25.0391 8.90234 24.8164 9.01562 24.5938C9.46094 20.5898 13.0195 17.1406 17.0273 17.1406C28.6016 17.1406 40.2852 17.1406 51.8594 17.1406H51.9727C53.6406 17.582 54.7539 18.918 55.6445 20.2539C56.7578 21.8125 57.2031 23.4805 57.3164 25.375C57.4258 27.6016 57.4258 29.9375 57.6484 32.1641C57.6484 32.4961 57.6484 32.832 57.5352 33.1641Z" fill="#2D57A7"/>
<path d="M58.2031 44.1836C59.7617 42.8477 59.875 40.9531 60.3203 39.1758C61.2109 35.7227 61.9883 32.2734 62.8789 28.8242C63.1016 27.9336 62.9922 27.043 62.2109 26.375C63.1016 25.8203 63.8789 25.8203 64.6602 26.375C65.4375 26.9336 65.7734 27.7109 65.5508 28.7148C64.5469 32.9414 63.5469 37.1719 62.4336 41.2891C62.1016 42.8477 61.0977 43.7383 59.5391 44.1836C59.0938 44.4062 58.6484 44.1836 58.2031 44.1836Z" fill="#2D57A7"/>
<path d="M30.0469 33.2773C30.7148 33.1641 31.2734 33.0547 31.9414 33.0547C32.0508 33.7227 32.6094 33.9453 33.1641 33.832C35.2773 33.7227 37.5039 33.832 39.6211 34.2773C41.0664 34.6094 41.7344 35.6133 41.5117 37.0586C41.3984 37.3945 41.1758 37.2812 41.0664 37.2812C39.7305 37.2812 38.5078 37.2812 37.1719 37.2812C34.3906 37.2812 31.6055 37.2812 28.9336 37.2812C28.4922 37.2812 28.3789 37.1719 28.3789 36.7266C28.3789 35.7227 28.6016 34.832 29.6016 34.2773C30.0469 34.168 30.0469 33.7227 30.0469 33.2773Z" fill="#80CBF1"/>
<path d="M20.9219 37.3945C19.2539 37.3945 17.6953 37.3945 16.0274 37.3945C15.1367 37.3945 14.2461 37.0586 13.5781 36.5039C13.2422 36.2813 13.2422 36.0586 13.3555 35.7227C13.5781 35.0547 14.0234 34.6094 14.6914 34.3906C18.1406 33.5 21.5899 33.5 25.0391 34.3906C26.1524 34.7227 26.8203 36.168 26.4883 37.1719C26.375 37.3945 26.1524 37.2812 26.043 37.2812C24.2617 37.3945 22.5938 37.3945 20.9219 37.3945Z" fill="#80CBF1"/>
<path d="M58.0938 46.9648C58.5391 48.3008 58.8711 49.5234 59.3164 50.8594C59.4297 51.1953 59.4297 51.5273 59.0938 51.75C58.6485 51.9727 58.4258 51.6406 58.3164 51.3047C57.9805 50.3047 57.5352 49.4141 57.2031 48.4102C56.9805 47.8555 56.6485 47.6328 56.0899 47.6328C41.8438 47.6328 27.6016 47.6328 13.4649 47.6328C12.9102 47.6328 12.4649 47.8555 12.3516 48.4102C12.0196 49.4141 11.5742 50.3047 11.2422 51.3047C11.1289 51.6406 10.9063 51.9727 10.461 51.75C10.0156 51.6406 10.1289 51.3047 10.2383 50.8594C10.6836 49.5234 11.0196 48.3008 11.4649 46.9648C11.7969 46.7422 12.1289 46.7422 12.4649 46.7422C14.4688 46.7422 16.4727 46.7422 18.4727 46.7422C31.3828 46.7422 44.293 46.7422 57.2031 46.7422C57.3164 46.7422 57.7578 46.7422 58.0938 46.9648Z" fill="#F6AA4A"/>
<path d="M48.7461 37.3945C47.1875 37.3945 45.6289 37.3945 43.9609 37.3945C43.625 37.3945 43.4023 37.2812 43.4023 36.8359C43.4023 35.168 43.8477 34.6094 45.5195 34.168C48.6328 33.5 51.8594 33.5 54.9766 34.2773C55.0898 34.2773 55.3125 34.3906 55.4219 34.3906C55.9805 34.6094 56.4258 34.9453 56.5352 35.5C56.6484 35.9453 56.0898 36.168 55.7578 36.3906C55.0898 36.9492 54.1992 37.1719 53.3086 37.1719C51.75 37.3945 50.1914 37.3945 48.7461 37.3945Z" fill="#80CBF1"/>
<path d="M58.0938 46.9648C57.8711 46.9648 57.6484 46.9648 57.4258 46.9648C42.1797 46.9648 27.043 46.9648 11.7969 46.9648C11.5742 46.9648 11.3516 46.9648 11.1289 46.9648C11.1289 46.2969 11.5742 46.1836 12.1289 46.1836C27.043 46.1836 42.0664 46.1836 56.9805 46.1836C57.7578 46.1836 58.0938 46.4062 58.0938 46.9648Z" fill="#BE742B"/>
<path d="M57.5352 33.1641C57.4258 30.9375 57.3164 28.7148 57.2031 26.4883C57.2031 24.9297 56.9805 23.2578 56.3125 21.8125C55.3125 19.8086 53.8633 18.3633 51.9727 17.3594C55.7578 17.25 59.5391 20.3672 60.207 24.1484C60.3203 24.9297 60.3203 25.4844 59.875 26.1523C59.0938 27.2656 58.9844 28.7148 58.5391 29.9375C58.2031 30.8281 57.8711 31.9414 57.5352 33.1641Z" fill="#185F9E"/>
<path d="M29.7148 26.043C29.1562 26.043 28.8242 25.707 28.7148 25.1523C28.7148 24.8164 28.6016 24.707 28.2695 24.707C27.7109 24.707 27.4883 24.3711 27.3789 23.8164C27.3789 23.2578 27.7109 22.9258 28.1562 22.8164C28.4922 22.8164 28.6016 22.7031 28.6016 22.3711C28.6016 21.8125 29.0469 21.5898 29.4922 21.5898C29.9375 21.5898 30.3828 21.9258 30.4922 22.3711C30.4922 22.7031 30.6055 22.8164 30.9375 22.9258C31.4961 23.0352 31.8281 23.3711 31.8281 23.9258C31.8281 24.4844 31.4961 24.8164 30.9375 24.8164C30.6055 24.8164 30.6055 24.9297 30.4922 25.2617C30.6055 25.707 30.2695 26.043 29.7148 26.043Z" fill="#010101"/>
<path d="M39.6211 26.043C39.0625 26.043 38.7305 25.707 38.6172 25.2617C38.6172 24.9297 38.5078 24.8164 38.1719 24.707C37.6172 24.707 37.3945 24.2617 37.3945 23.8164C37.3945 23.2578 37.6172 22.9258 38.1719 22.8164C38.5078 22.7031 38.6172 22.7031 38.7305 22.2578C38.7305 21.7031 39.1758 21.4805 39.6211 21.4805C40.0664 21.4805 40.5078 21.8125 40.5078 22.2578C40.5078 22.5938 40.6211 22.7031 40.9531 22.7031C41.5117 22.8164 41.8438 23.1484 41.7344 23.7031C41.7344 24.2617 41.3984 24.5938 40.8438 24.5938C40.5078 24.5938 40.3984 24.707 40.3984 25.0391C40.5078 25.707 40.1758 26.043 39.6211 26.043Z" fill="#010101"/>
<path d="M22.0352 23.8164C21.9258 24.2617 21.7031 24.707 21.2578 24.707C20.9219 24.707 20.8125 24.8164 20.6992 25.1523C20.5898 25.707 20.2539 26.043 19.6992 25.9297C19.1406 25.9297 18.8086 25.5977 18.8086 25.0391C18.8086 24.707 18.6953 24.5938 18.3633 24.5938C17.8047 24.5938 17.4727 24.2617 17.4727 23.7031C17.4727 23.1484 17.8047 22.8164 18.3633 22.7031C18.6953 22.7031 18.8086 22.5938 18.8086 22.2578C18.8086 21.7031 19.2539 21.3672 19.8086 21.3672C20.3672 21.3672 20.6992 21.7031 20.6992 22.1484C20.6992 22.4805 20.9219 22.5938 21.1445 22.5938C21.7031 22.9258 22.0352 23.3711 22.0352 23.8164Z" fill="#010101"/>
<path d="M51.75 23.9258C51.75 24.3711 51.418 24.707 50.9727 24.8164C50.6367 24.8164 50.4141 24.9297 50.4141 25.375C50.4141 25.8203 49.9687 26.1523 49.5234 26.1523C48.9687 26.1523 48.6328 25.8203 48.6328 25.375C48.5234 25.0391 48.5234 24.9297 48.1875 24.8164C47.6328 24.8164 47.4102 24.3711 47.4102 23.9258C47.4102 23.3711 47.6328 23.0352 48.1875 22.9258C48.6328 22.9258 48.6328 22.7031 48.7461 22.3711C48.8555 21.9258 49.1914 21.5898 49.6367 21.5898C50.082 21.5898 50.5273 21.9258 50.5273 22.3711C50.5273 22.7031 50.6367 22.8164 50.9727 22.8164C51.418 22.9258 51.75 23.3711 51.75 23.9258Z" fill="#010101"/>
</svg>
